G04 #@! TF.GenerationSoftware,KiCad,Pcbnew,(5.1.4)-1*
G04 #@! TF.CreationDate,2020-10-11T01:36:31-04:00*
G04 #@! TF.ProjectId,keyboard,6b657962-6f61-4726-942e-6b696361645f,rev?*
G04 #@! TF.SameCoordinates,Original*
G04 #@! TF.FileFunction,Profile,NP*
%FSLAX46Y46*%
G04 Gerber Fmt 4.6, Leading zero omitted, Abs format (unit mm)*
G04 Created by KiCad (PCBNEW (5.1.4)-1) date 2020-10-11 01:36:31*
%MOMM*%
%LPD*%
G04 APERTURE LIST*
%ADD10C,0.200000*%
G04 APERTURE END LIST*
D10*
X96408182Y-94274119D02*
X96487158Y-94151833D01*
X13760841Y-92681856D02*
X13898413Y-92750642D01*
X14153175Y-92903499D02*
X14275460Y-92987571D01*
X16430747Y-94880452D02*
X16542842Y-94883000D01*
X97060372Y-93341690D02*
X97159729Y-93242333D01*
X15465199Y-94426976D02*
X15569651Y-94526333D01*
X16542842Y-94883000D02*
X95198062Y-94883000D01*
X15210437Y-94075404D02*
X15284318Y-94202785D01*
X14889437Y-93581166D02*
X14978603Y-93698357D01*
X15811675Y-94694476D02*
X15944151Y-94760714D01*
X15060127Y-93818095D02*
X15136556Y-93942928D01*
X14703461Y-93364618D02*
X14797722Y-93471619D01*
X95982729Y-94661357D02*
X96105015Y-94579833D01*
X15284318Y-94202785D02*
X15368389Y-94319976D01*
X97376277Y-93056356D02*
X97490920Y-92969737D01*
X97266729Y-93145523D02*
X97376277Y-93056356D01*
X96749563Y-93716190D02*
X96836182Y-93599000D01*
X13620722Y-92618166D02*
X13760841Y-92681856D01*
X96925348Y-93489452D02*
X97060372Y-93341690D01*
X96487158Y-94151833D02*
X96530467Y-94075404D01*
X14387556Y-93074190D02*
X14497103Y-93165904D01*
X15686842Y-94615500D02*
X15811675Y-94694476D01*
X14030889Y-92824523D02*
X14153175Y-92903499D01*
X95386586Y-94872810D02*
X95557276Y-94839690D01*
X14275460Y-92987571D02*
X14387556Y-93074190D01*
X15944151Y-94760714D02*
X16091913Y-94814214D01*
X13898413Y-92750642D02*
X14030889Y-92824523D01*
X96530467Y-94075404D02*
X96583967Y-93976047D01*
X16252413Y-94854976D02*
X16430747Y-94880452D01*
X15569651Y-94526333D02*
X15686842Y-94615500D01*
X14978603Y-93698357D02*
X15060127Y-93818095D01*
X96836182Y-93599000D02*
X96925348Y-93489452D01*
X14797722Y-93471619D02*
X14889437Y-93581166D01*
X96583967Y-93976047D02*
X96660396Y-93851214D01*
X95198062Y-94883000D02*
X95386586Y-94872810D01*
X15368389Y-94319976D02*
X15465199Y-94426976D01*
X14497103Y-93165904D02*
X14601556Y-93262714D01*
X15136556Y-93942928D02*
X15210437Y-94075404D01*
X97159729Y-93242333D02*
X97266729Y-93145523D01*
X95852800Y-94732690D02*
X95982729Y-94661357D01*
X95710134Y-94793833D02*
X95852800Y-94732690D01*
X96660396Y-93851214D02*
X96749563Y-93716190D01*
X14601556Y-93262714D02*
X14703461Y-93364618D01*
X96316467Y-94386214D02*
X96408182Y-94274119D01*
X96105015Y-94579833D02*
X96214562Y-94488119D01*
X16091913Y-94814214D02*
X16252413Y-94854976D01*
X95557276Y-94839690D02*
X95710134Y-94793833D01*
X96214562Y-94488119D02*
X96316467Y-94386214D01*
X8795530Y-94732690D02*
X8928006Y-94658809D01*
X956503Y-94483024D02*
X1078789Y-94567095D01*
X13475508Y-92562118D02*
X13620722Y-92618166D01*
X13322650Y-92511166D02*
X13475508Y-92562118D01*
X13164698Y-92467856D02*
X13322650Y-92511166D01*
X10808150Y-92735356D02*
X10945721Y-92669118D01*
X164193Y-93071642D02*
X187122Y-93249976D01*
X12639888Y-92386332D02*
X12823317Y-92404166D01*
X12443722Y-92376142D02*
X12639888Y-92386332D01*
X10945721Y-92669118D02*
X11088388Y-92607975D01*
X1206170Y-94643524D02*
X1338646Y-94709762D01*
X9256649Y-94383666D02*
X9345816Y-94274119D01*
X187122Y-93249976D02*
X225336Y-93413023D01*
X1338646Y-94709762D02*
X1483860Y-94768357D01*
X12408055Y-92376142D02*
X12443722Y-92376142D01*
X10094816Y-93247428D02*
X10199268Y-93150618D01*
X9429887Y-94149285D02*
X9470649Y-94075404D01*
X8655411Y-94791286D02*
X8795530Y-94732690D01*
X8329315Y-94872810D02*
X8500006Y-94839690D01*
X559074Y-94088143D02*
X650789Y-94200238D01*
X10678221Y-92806690D02*
X10808150Y-92735356D01*
X8500006Y-94839690D02*
X8655411Y-94791286D01*
X1639265Y-94816762D02*
X1802313Y-94852429D01*
X9898649Y-93451238D02*
X9992911Y-93346785D01*
X1078789Y-94567095D02*
X1206170Y-94643524D01*
X9470649Y-94075404D02*
X9483387Y-94052476D01*
X1483860Y-94768357D02*
X1639265Y-94816762D01*
X9992911Y-93346785D02*
X10094816Y-93247428D01*
X10313911Y-93056356D02*
X10433649Y-92967190D01*
X9554720Y-93925095D02*
X9633697Y-93797714D01*
X12996555Y-92432190D02*
X13164698Y-92467856D01*
X12823317Y-92404166D02*
X12996555Y-92432190D01*
X11386459Y-92503523D02*
X11546959Y-92460213D01*
X12273031Y-92376142D02*
X12408055Y-92376142D01*
X12076864Y-92383785D02*
X12273031Y-92376142D01*
X10553388Y-92885666D02*
X10678221Y-92806690D01*
X276288Y-93565880D02*
X332336Y-93708547D01*
X11890888Y-92399071D02*
X12076864Y-92383785D01*
X9717768Y-93675428D02*
X9804387Y-93560785D01*
X154003Y-92878023D02*
X164193Y-93071642D01*
X11715102Y-92427094D02*
X11890888Y-92399071D01*
X11546959Y-92460213D02*
X11715102Y-92427094D01*
X11233602Y-92551928D02*
X11386459Y-92503523D01*
X2158980Y-94883000D02*
X8135696Y-94883000D01*
X11088388Y-92607975D02*
X11233602Y-92551928D01*
X10433649Y-92967190D02*
X10553388Y-92885666D01*
X1802313Y-94852429D02*
X1980646Y-94875357D01*
X9047744Y-94577286D02*
X9157292Y-94485571D01*
X9345816Y-94274119D02*
X9429887Y-94149285D01*
X9157292Y-94485571D02*
X9256649Y-94383666D01*
X225336Y-93413023D02*
X276288Y-93565880D01*
X10199268Y-93150618D02*
X10313911Y-93056356D01*
X8928006Y-94658809D02*
X9047744Y-94577286D01*
X477550Y-93970952D02*
X559074Y-94088143D01*
X401122Y-93843571D02*
X477550Y-93970952D01*
X1980646Y-94875357D02*
X2158980Y-94883000D01*
X9483387Y-94052476D02*
X9554720Y-93925095D01*
X8135696Y-94883000D02*
X8329315Y-94872810D01*
X844408Y-94393857D02*
X956503Y-94483024D01*
X739955Y-94297047D02*
X844408Y-94393857D01*
X650789Y-94200238D02*
X739955Y-94297047D01*
X332336Y-93708547D02*
X401122Y-93843571D01*
X9804387Y-93560785D02*
X9898649Y-93451238D01*
X9633697Y-93797714D02*
X9717768Y-93675428D01*
X9852792Y-2880799D02*
X9677006Y-2852775D01*
X11439959Y-2733037D02*
X11287102Y-2781442D01*
X6245362Y-407060D02*
X6130719Y-401965D01*
X154003Y-2406942D02*
X154003Y-92878023D01*
X1967908Y-412155D02*
X1789575Y-435084D01*
X8286006Y-2210775D02*
X8176458Y-2119061D01*
X184574Y-2050275D02*
X161646Y-2228608D01*
X329788Y-1586608D02*
X271193Y-1731822D01*
X469908Y-1326751D02*
X396027Y-1454132D01*
X553979Y-1204465D02*
X469908Y-1326751D01*
X7210910Y-857989D02*
X7106458Y-761179D01*
X10782673Y-2885894D02*
X10599245Y-2903728D01*
X739955Y-987917D02*
X643146Y-1092370D01*
X8176458Y-2119061D02*
X8072006Y-2022251D01*
X948860Y-807036D02*
X839312Y-898751D01*
X1193432Y-649084D02*
X1068598Y-725512D01*
X9052839Y-2666799D02*
X8912720Y-2605656D01*
X11585174Y-2679537D02*
X11439959Y-2733037D01*
X7389243Y-1082179D02*
X7305172Y-964989D01*
X10403078Y-2908823D02*
X10265506Y-2908823D01*
X8400649Y-2299942D02*
X8286006Y-2210775D01*
X7305172Y-964989D02*
X7210910Y-857989D01*
X161646Y-2228608D02*
X154003Y-2406942D01*
X1626527Y-473298D02*
X1473670Y-524250D01*
X9350911Y-2773799D02*
X9198054Y-2722847D01*
X6421148Y-429989D02*
X6245362Y-407060D01*
X10265506Y-2908823D02*
X10229840Y-2908823D01*
X9198054Y-2722847D02*
X9052839Y-2666799D01*
X8775149Y-2534323D02*
X8642673Y-2460442D01*
X10033673Y-2901180D02*
X9852792Y-2880799D01*
X222788Y-1887227D02*
X184574Y-2050275D01*
X2158980Y-401965D02*
X1967908Y-412155D01*
X7875839Y-1815894D02*
X7784125Y-1706346D01*
X1789575Y-435084D02*
X1626527Y-473298D01*
X271193Y-1731822D02*
X222788Y-1887227D01*
X6130719Y-401965D02*
X2158980Y-401965D01*
X8520387Y-2384013D02*
X8400649Y-2299942D01*
X396027Y-1454132D02*
X329788Y-1586608D01*
X643146Y-1092370D02*
X553979Y-1204465D01*
X9677006Y-2852775D02*
X9508863Y-2817108D01*
X839312Y-898751D02*
X739955Y-987917D01*
X6581648Y-470750D02*
X6421148Y-429989D01*
X7694958Y-1586608D02*
X7613434Y-1466870D01*
X1068598Y-725512D02*
X948860Y-807036D01*
X1473670Y-524250D02*
X1328456Y-580298D01*
X6864434Y-593036D02*
X6729410Y-526798D01*
X7972648Y-1920346D02*
X7875839Y-1815894D01*
X11129150Y-2824751D02*
X10961007Y-2860418D01*
X7537005Y-1342036D02*
X7465672Y-1209560D01*
X10961007Y-2860418D02*
X10782673Y-2885894D01*
X10599245Y-2903728D02*
X10403078Y-2908823D01*
X1328456Y-580298D02*
X1193432Y-649084D01*
X6729410Y-526798D02*
X6581648Y-470750D01*
X11287102Y-2781442D02*
X11129150Y-2824751D01*
X7613434Y-1466870D02*
X7537005Y-1342036D01*
X6986720Y-669465D02*
X6864434Y-593036D01*
X7784125Y-1706346D02*
X7694958Y-1586608D01*
X8072006Y-2022251D02*
X7972648Y-1920346D01*
X7106458Y-761179D02*
X6986720Y-669465D01*
X7465672Y-1209560D02*
X7389243Y-1082179D01*
X10229840Y-2908823D02*
X10033673Y-2901180D01*
X8642673Y-2460442D02*
X8520387Y-2384013D01*
X8912720Y-2605656D02*
X8775149Y-2534323D01*
X9508863Y-2817108D02*
X9350911Y-2773799D01*
X102484255Y-901298D02*
X102392541Y-1013393D01*
X183231071Y-761179D02*
X183118976Y-672012D01*
X184680667Y-2404394D02*
X184558381Y-2322870D01*
X100930207Y-2549608D02*
X100797731Y-2615846D01*
X102023136Y-1609537D02*
X101933969Y-1724179D01*
X102392541Y-1013393D02*
X102311017Y-1135679D01*
X101187517Y-2401846D02*
X101062683Y-2478275D01*
X182369976Y-407060D02*
X182257880Y-401965D01*
X183335524Y-857989D02*
X183231071Y-761179D01*
X183822119Y-1584060D02*
X183740595Y-1464322D01*
X100356993Y-2781442D02*
X100196492Y-2824751D01*
X100509850Y-2733037D02*
X100356993Y-2781442D01*
X101062683Y-2478275D02*
X100930207Y-2549608D01*
X101307255Y-2317775D02*
X101187517Y-2401846D01*
X101426993Y-2228608D02*
X101307255Y-2317775D01*
X101646088Y-2040084D02*
X101541636Y-2134346D01*
X102311017Y-1135679D02*
X102270255Y-1209560D01*
X184331643Y-2141989D02*
X184222095Y-2045180D01*
X101747993Y-1938180D02*
X101646088Y-2040084D01*
X103085494Y-493679D02*
X102945374Y-554822D01*
X182994142Y-595584D02*
X182859119Y-526798D01*
X101842255Y-1833727D02*
X101747993Y-1938180D01*
X182859119Y-526798D02*
X182711357Y-470750D01*
X102693160Y-707679D02*
X102583612Y-799393D01*
X184120191Y-1945822D02*
X184023381Y-1841370D01*
X184222095Y-2045180D02*
X184120191Y-1945822D01*
X101933969Y-1724179D02*
X101842255Y-1833727D01*
X184023381Y-1841370D02*
X183908738Y-1703799D01*
X182711357Y-470750D02*
X182550857Y-429989D01*
X102107207Y-1489798D02*
X102023136Y-1609537D01*
X102186184Y-1362417D02*
X102107207Y-1489798D01*
X102945374Y-554822D02*
X102812898Y-626155D01*
X183516405Y-1082179D02*
X183429785Y-964989D01*
X182550857Y-429989D02*
X182369976Y-407060D01*
X183118976Y-672012D02*
X182994142Y-595584D01*
X184932881Y-2552156D02*
X184802953Y-2480823D01*
X184441191Y-2236251D02*
X184331643Y-2141989D01*
X103411589Y-414703D02*
X103240898Y-445274D01*
X102583612Y-799393D02*
X102484255Y-901298D01*
X183908738Y-1703799D02*
X183822119Y-1584060D01*
X102812898Y-626155D02*
X102693160Y-707679D01*
X103240898Y-445274D02*
X103085494Y-493679D01*
X183740595Y-1464322D02*
X183664167Y-1339489D01*
X103605208Y-401965D02*
X103411589Y-414703D01*
X182257880Y-401965D02*
X103605208Y-401965D01*
X183664167Y-1339489D02*
X183590286Y-1209560D01*
X184558381Y-2322870D02*
X184441191Y-2236251D01*
X183429785Y-964989D02*
X183335524Y-857989D01*
X100196492Y-2824751D02*
X100028350Y-2857870D01*
X102270255Y-1209560D02*
X102257517Y-1232489D01*
X101541636Y-2134346D02*
X101426993Y-2228608D01*
X100028350Y-2857870D02*
X99852564Y-2885894D01*
X100657612Y-2676989D02*
X100509850Y-2733037D01*
X100797731Y-2615846D02*
X100657612Y-2676989D01*
X102257517Y-1232489D02*
X102186184Y-1362417D01*
X184802953Y-2480823D02*
X184680667Y-2404394D01*
X183590286Y-1209560D02*
X183516405Y-1082179D01*
X189167026Y-1489798D02*
X189082954Y-1609537D01*
X270178794Y-672012D02*
X270053961Y-595584D01*
X185070453Y-2618394D02*
X184932881Y-2552156D01*
X185210572Y-2679537D02*
X185070453Y-2618394D01*
X186201596Y-2903728D02*
X186015620Y-2885894D01*
X188122502Y-2478275D02*
X187992573Y-2549608D01*
X189454907Y-1013393D02*
X189373383Y-1135679D01*
X188367073Y-2317775D02*
X188247335Y-2401846D01*
X189875264Y-626155D02*
X189752978Y-707679D01*
X270492151Y-964989D02*
X270397889Y-857989D01*
X188807811Y-1938180D02*
X188705907Y-2040084D01*
X271391461Y-2141989D02*
X271281914Y-2045180D01*
X190005193Y-554822D02*
X189875264Y-626155D01*
X188996335Y-1724179D02*
X188904621Y-1833727D01*
X185669143Y-2824751D02*
X185511191Y-2783989D01*
X186392668Y-2908823D02*
X186201596Y-2903728D01*
X185837286Y-2860418D02*
X185669143Y-2824751D01*
X186015620Y-2885894D02*
X185837286Y-2860418D01*
X270293437Y-761179D02*
X270178794Y-672012D01*
X187090715Y-2857870D02*
X186914930Y-2885894D01*
X188705907Y-2040084D02*
X188601454Y-2134346D01*
X188489359Y-2228608D02*
X188367073Y-2317775D01*
X270723985Y-1339489D02*
X270652651Y-1209560D01*
X187258858Y-2824751D02*
X187090715Y-2857870D01*
X188904621Y-1833727D02*
X188807811Y-1938180D01*
X270881937Y-1584060D02*
X270800413Y-1464322D01*
X186527691Y-2908823D02*
X186392668Y-2908823D01*
X186728953Y-2903728D02*
X186527691Y-2908823D01*
X186914930Y-2885894D02*
X186728953Y-2903728D01*
X187569668Y-2733037D02*
X187416811Y-2781442D01*
X187717430Y-2676989D02*
X187569668Y-2733037D01*
X189246002Y-1362417D02*
X189167026Y-1489798D01*
X189373383Y-1135679D02*
X189330073Y-1209560D01*
X189330073Y-1209560D02*
X189319883Y-1232489D01*
X269610675Y-429989D02*
X269432341Y-407060D01*
X189643431Y-799393D02*
X189544073Y-901298D01*
X190145312Y-493679D02*
X190005193Y-554822D01*
X270397889Y-857989D02*
X270293437Y-761179D01*
X270652651Y-1209560D02*
X270576223Y-1082179D01*
X190665026Y-401965D02*
X190471407Y-414703D01*
X269771175Y-470750D02*
X269610675Y-429989D01*
X270576223Y-1082179D02*
X270492151Y-964989D01*
X270800413Y-1464322D02*
X270723985Y-1339489D01*
X271085747Y-1841370D02*
X270971104Y-1703799D01*
X187857549Y-2615846D02*
X187717430Y-2676989D01*
X187992573Y-2549608D02*
X187857549Y-2615846D01*
X189082954Y-1609537D02*
X188996335Y-1724179D01*
X190300717Y-445274D02*
X190145312Y-493679D01*
X189319883Y-1232489D02*
X189246002Y-1362417D01*
X269432341Y-407060D02*
X269317699Y-401965D01*
X269918937Y-526798D02*
X269771175Y-470750D01*
X270053961Y-595584D02*
X269918937Y-526798D01*
X270971104Y-1703799D02*
X270881937Y-1584060D01*
X271281914Y-2045180D02*
X271182556Y-1945822D01*
X271182556Y-1945822D02*
X271085747Y-1841370D01*
X189544073Y-901298D02*
X189454907Y-1013393D01*
X190471407Y-414703D02*
X190300717Y-445274D01*
X185358334Y-2735585D02*
X185210572Y-2679537D01*
X185511191Y-2783989D02*
X185358334Y-2735585D01*
X188601454Y-2134346D02*
X188489359Y-2228608D01*
X187416811Y-2781442D02*
X187258858Y-2824751D01*
X188247335Y-2401846D02*
X188122502Y-2478275D01*
X269317699Y-401965D02*
X190665026Y-401965D01*
X189752978Y-707679D02*
X189643431Y-799393D01*
X97269277Y-2141989D02*
X97162277Y-2045180D01*
X98609325Y-2824751D02*
X98451373Y-2783989D01*
X95488491Y-429989D02*
X95310157Y-407060D01*
X95796753Y-526798D02*
X95651538Y-470750D01*
X97060372Y-1945822D02*
X96963563Y-1841370D01*
X98295968Y-2735585D02*
X98150754Y-2679537D01*
X12242460Y-2317775D02*
X12120174Y-2401846D01*
X96171253Y-761179D02*
X96056610Y-672012D01*
X11727840Y-2618394D02*
X11585174Y-2679537D01*
X11995340Y-2478275D02*
X11865412Y-2549608D01*
X12680650Y-1938180D02*
X12578745Y-2040084D01*
X96963563Y-1841370D02*
X96848920Y-1703799D01*
X98150754Y-2679537D02*
X98010635Y-2618394D01*
X14537865Y-401965D02*
X14344246Y-414703D01*
X95651538Y-470750D02*
X95488491Y-429989D01*
X11865412Y-2549608D02*
X11727840Y-2618394D01*
X12777460Y-1833727D02*
X12680650Y-1938180D01*
X12120174Y-2401846D02*
X11995340Y-2478275D01*
X12362198Y-2228608D02*
X12242460Y-2317775D01*
X12578745Y-2040084D02*
X12474293Y-2134346D01*
X13518817Y-799393D02*
X13416912Y-901298D01*
X13878032Y-554822D02*
X13748103Y-626155D01*
X96056610Y-672012D02*
X95934324Y-595584D01*
X99852564Y-2885894D02*
X99669135Y-2903728D01*
X14018151Y-493679D02*
X13878032Y-554822D01*
X14173556Y-445274D02*
X14018151Y-493679D01*
X96369967Y-964989D02*
X96275705Y-857989D01*
X96530467Y-1209560D02*
X96456586Y-1082179D01*
X95310157Y-407060D02*
X95198062Y-401965D01*
X96275705Y-857989D02*
X96171253Y-761179D01*
X97498563Y-2322870D02*
X97381372Y-2236251D01*
X99669135Y-2903728D02*
X99467873Y-2908823D01*
X98955802Y-2885894D02*
X98777468Y-2860418D01*
X96680777Y-1464322D02*
X96601801Y-1339489D01*
X96848920Y-1703799D02*
X96759753Y-1584060D01*
X97162277Y-2045180D02*
X97060372Y-1945822D01*
X98010635Y-2618394D02*
X97873063Y-2552156D01*
X97618301Y-2404394D02*
X97498563Y-2322870D01*
X98451373Y-2783989D02*
X98295968Y-2735585D01*
X99141778Y-2903728D02*
X98955802Y-2885894D01*
X97381372Y-2236251D02*
X97269277Y-2141989D01*
X98777468Y-2860418D02*
X98609325Y-2824751D01*
X12474293Y-2134346D02*
X12362198Y-2228608D01*
X12869174Y-1724179D02*
X12777460Y-1833727D01*
X12955793Y-1609537D02*
X12869174Y-1724179D01*
X13039865Y-1489798D02*
X12955793Y-1609537D01*
X13118841Y-1362417D02*
X13039865Y-1489798D01*
X96456586Y-1082179D02*
X96369967Y-964989D01*
X13327746Y-1013393D02*
X13246222Y-1135679D01*
X95934324Y-595584D02*
X95796753Y-526798D01*
X96601801Y-1339489D02*
X96530467Y-1209560D01*
X13192722Y-1232489D02*
X13118841Y-1362417D01*
X13202912Y-1209560D02*
X13192722Y-1232489D01*
X13246222Y-1135679D02*
X13202912Y-1209560D01*
X13416912Y-901298D02*
X13327746Y-1013393D01*
X95198062Y-401965D02*
X14537865Y-401965D01*
X96759753Y-1584060D02*
X96680777Y-1464322D01*
X97873063Y-2552156D02*
X97743134Y-2480823D01*
X13628365Y-707679D02*
X13518817Y-799393D01*
X97743134Y-2480823D02*
X97618301Y-2404394D01*
X99332849Y-2908823D02*
X99141778Y-2903728D01*
X13748103Y-626155D02*
X13628365Y-707679D01*
X99467873Y-2908823D02*
X99332849Y-2908823D01*
X14344246Y-414703D02*
X14173556Y-445274D01*
X285640300Y-93397738D02*
X285675967Y-93234690D01*
X283701561Y-94883000D02*
X283895180Y-94875357D01*
X285528205Y-1576418D02*
X285461966Y-1443941D01*
X285586800Y-1721632D02*
X285528205Y-1576418D01*
X285635205Y-1874489D02*
X285586800Y-1721632D01*
X285467062Y-93833381D02*
X285533300Y-93698357D01*
X276466320Y-94202785D02*
X276550392Y-94319976D01*
X284911681Y-94477928D02*
X285023776Y-94386214D01*
X275882915Y-93364618D02*
X275979725Y-93471619D01*
X285698895Y-2215870D02*
X285673419Y-2037537D01*
X276550392Y-94319976D02*
X276644654Y-94426976D01*
X275569558Y-93074190D02*
X275679106Y-93165904D01*
X275080415Y-92750642D02*
X275212891Y-92824523D01*
X285591895Y-93553142D02*
X285640300Y-93397738D01*
X276160606Y-93698357D02*
X276242130Y-93818095D01*
X275335177Y-92903499D02*
X275454915Y-92987571D01*
X274802724Y-92618166D02*
X274942844Y-92681856D01*
X277273916Y-94814214D02*
X277434416Y-94854976D01*
X285706538Y-2406942D02*
X285698895Y-2215870D01*
X275679106Y-93165904D02*
X275783558Y-93262714D01*
X285217395Y-94192595D02*
X285306562Y-94080500D01*
X285706538Y-92878023D02*
X285706538Y-2406942D01*
X284532085Y-94704667D02*
X284667109Y-94638428D01*
X285533300Y-93698357D02*
X285591895Y-93553142D01*
X285120585Y-94297047D02*
X285217395Y-94192595D01*
X283895180Y-94875357D02*
X284073514Y-94849881D01*
X274346700Y-92467856D02*
X274504653Y-92511166D01*
X276071439Y-93581166D02*
X276160606Y-93698357D01*
X285390633Y-93960762D02*
X285467062Y-93833381D01*
X285306562Y-94080500D02*
X285390633Y-93960762D01*
X284791942Y-94562000D02*
X284911681Y-94477928D01*
X276242130Y-93818095D02*
X276318558Y-93942928D01*
X276749106Y-94526333D02*
X276868844Y-94615500D01*
X284073514Y-94849881D02*
X284236561Y-94811667D01*
X276389892Y-94075404D02*
X276466320Y-94202785D01*
X275979725Y-93471619D02*
X276071439Y-93581166D01*
X275212891Y-92824523D02*
X275335177Y-92903499D01*
X285698895Y-93056356D02*
X285706538Y-92878023D01*
X285675967Y-93234690D02*
X285698895Y-93056356D01*
X284667109Y-94638428D02*
X284791942Y-94562000D01*
X274942844Y-92681856D02*
X275080415Y-92750642D01*
X284236561Y-94811667D02*
X284389418Y-94763262D01*
X276644654Y-94426976D02*
X276749106Y-94526333D01*
X275783558Y-93262714D02*
X275882915Y-93364618D01*
X274504653Y-92511166D02*
X274657510Y-92562118D01*
X275454915Y-92987571D02*
X275569558Y-93074190D01*
X285023776Y-94386214D02*
X285120585Y-94297047D01*
X277126154Y-94760714D02*
X277273916Y-94814214D01*
X276991130Y-94694476D02*
X277126154Y-94760714D01*
X284389418Y-94763262D02*
X284532085Y-94704667D01*
X274657510Y-92562118D02*
X274802724Y-92618166D01*
X277724845Y-94883000D02*
X283701561Y-94883000D01*
X277434416Y-94854976D02*
X277610202Y-94880452D01*
X276318558Y-93942928D02*
X276389892Y-94075404D01*
X276868844Y-94615500D02*
X276991130Y-94694476D01*
X277610202Y-94880452D02*
X277724845Y-94883000D01*
X285673419Y-2037537D02*
X285635205Y-1874489D01*
X271610557Y-92969737D02*
X271732842Y-92885666D01*
X270336747Y-94488119D02*
X270436104Y-94386214D01*
X189179764Y-93818095D02*
X189258740Y-93942928D01*
X271180009Y-93341690D02*
X271281914Y-93242333D01*
X269506222Y-94872810D02*
X269676913Y-94839690D01*
X188150525Y-92824523D02*
X188275359Y-92903499D01*
X270224651Y-94579833D02*
X270336747Y-94488119D01*
X271992700Y-92735356D02*
X272127723Y-92669118D01*
X271281914Y-93242333D02*
X271386366Y-93145523D01*
X273256319Y-92383785D02*
X273452486Y-92376142D01*
X189931312Y-94694476D02*
X190066336Y-94760714D01*
X269317699Y-94883000D02*
X269506222Y-94872810D01*
X273590057Y-92376142D02*
X273625724Y-92376142D01*
X274176010Y-92432190D02*
X274346700Y-92467856D01*
X188919907Y-93471619D02*
X189011621Y-93581166D01*
X188020597Y-92750642D02*
X188150525Y-92824523D01*
X274002772Y-92404166D02*
X274176010Y-92432190D01*
X273452486Y-92376142D02*
X273590057Y-92376142D01*
X189403954Y-94202785D02*
X189490573Y-94319976D01*
X188509740Y-93074190D02*
X188616740Y-93165904D01*
X272568462Y-92503523D02*
X272726414Y-92460213D01*
X271386366Y-93145523D02*
X271495914Y-93056356D01*
X272894557Y-92427094D02*
X273072890Y-92399071D01*
X270706151Y-93976047D02*
X270780032Y-93851214D01*
X270527818Y-94274119D02*
X270609342Y-94151833D01*
X269832318Y-94793833D02*
X269972437Y-94732690D01*
X269972437Y-94732690D02*
X270104913Y-94661357D01*
X189584835Y-94426976D02*
X189689288Y-94526333D01*
X189490573Y-94319976D02*
X189584835Y-94426976D01*
X270955818Y-93599000D02*
X271047533Y-93489452D01*
X189689288Y-94526333D02*
X189806478Y-94615500D01*
X272267843Y-92607975D02*
X272415604Y-92551928D01*
X272127723Y-92669118D02*
X272267843Y-92607975D01*
X270780032Y-93851214D02*
X270869199Y-93716190D01*
X270104913Y-94661357D02*
X270224651Y-94579833D01*
X270609342Y-94151833D02*
X270652651Y-94075404D01*
X190550383Y-94880452D02*
X190665026Y-94883000D01*
X189330073Y-94075404D02*
X189403954Y-94202785D01*
X189011621Y-93581166D02*
X189098240Y-93698357D01*
X188823097Y-93364618D02*
X188919907Y-93471619D01*
X188275359Y-92903499D02*
X188395097Y-92987571D01*
X270436104Y-94386214D02*
X270527818Y-94274119D01*
X269676913Y-94839690D02*
X269832318Y-94793833D01*
X189806478Y-94615500D02*
X189931312Y-94694476D01*
X273072890Y-92399071D02*
X273256319Y-92383785D01*
X271862771Y-92806690D02*
X271992700Y-92735356D01*
X271047533Y-93489452D02*
X271180009Y-93341690D01*
X190066336Y-94760714D02*
X190211550Y-94814214D01*
X272415604Y-92551928D02*
X272568462Y-92503523D01*
X271732842Y-92885666D02*
X271862771Y-92806690D01*
X190211550Y-94814214D02*
X190374598Y-94854976D01*
X189258740Y-93942928D02*
X189330073Y-94075404D01*
X270652651Y-94075404D02*
X270706151Y-93976047D01*
X271495914Y-93056356D02*
X271610557Y-92969737D01*
X270869199Y-93716190D02*
X270955818Y-93599000D01*
X190665026Y-94883000D02*
X269317699Y-94883000D01*
X188395097Y-92987571D02*
X188509740Y-93074190D01*
X188723740Y-93262714D02*
X188823097Y-93364618D01*
X188616740Y-93165904D02*
X188723740Y-93262714D01*
X273625724Y-92376142D02*
X273821891Y-92386332D01*
X272726414Y-92460213D02*
X272894557Y-92427094D01*
X190374598Y-94854976D02*
X190550383Y-94880452D01*
X189098240Y-93698357D02*
X189179764Y-93818095D01*
X273821891Y-92386332D02*
X274002772Y-92404166D01*
X275549177Y-2228608D02*
X275429439Y-2317775D01*
X284221276Y-470750D02*
X284058228Y-432536D01*
X271995247Y-2552156D02*
X271865319Y-2480823D01*
X273974748Y-2885894D02*
X273791319Y-2903728D01*
X276389892Y-1209560D02*
X276379701Y-1232489D01*
X276514725Y-1013393D02*
X276433201Y-1135679D01*
X284904038Y-801941D02*
X284784300Y-717870D01*
X273791319Y-2903728D02*
X273590057Y-2908823D01*
X276142773Y-1609537D02*
X276056153Y-1724179D01*
X285301466Y-1196822D02*
X285209752Y-1087274D01*
X277724845Y-401965D02*
X277531225Y-414703D01*
X276433201Y-1135679D02*
X276389892Y-1209560D01*
X285385538Y-1316560D02*
X285301466Y-1196822D01*
X283879894Y-409608D02*
X283701561Y-401965D01*
X272130271Y-2618394D02*
X271995247Y-2552156D01*
X272270390Y-2679537D02*
X272130271Y-2618394D01*
X274917367Y-2615846D02*
X274777248Y-2676989D01*
X274150534Y-2857870D02*
X273974748Y-2885894D01*
X276603892Y-901298D02*
X276514725Y-1013393D01*
X275964439Y-1833727D02*
X275867630Y-1938180D01*
X277531225Y-414703D02*
X277363083Y-445274D01*
X277207678Y-493679D02*
X277065011Y-554822D01*
X271503557Y-2236251D02*
X271391461Y-2141989D01*
X275182320Y-2478275D02*
X275052391Y-2549608D01*
X283701561Y-401965D02*
X277724845Y-401965D01*
X277065011Y-554822D02*
X276935082Y-626155D01*
X275867630Y-1938180D02*
X275765725Y-2040084D01*
X275052391Y-2549608D02*
X274917367Y-2615846D01*
X274632034Y-2733037D02*
X274476629Y-2781442D01*
X275661272Y-2134346D02*
X275549177Y-2228608D01*
X271620747Y-2322870D02*
X271503557Y-2236251D01*
X273261414Y-2903728D02*
X273075438Y-2885894D01*
X284784300Y-717870D02*
X284656919Y-643989D01*
X271740485Y-2404394D02*
X271620747Y-2322870D01*
X271865319Y-2480823D02*
X271740485Y-2404394D01*
X272418152Y-2735585D02*
X272270390Y-2679537D01*
X274318677Y-2824751D02*
X274150534Y-2857870D01*
X272899652Y-2860418D02*
X272731509Y-2824751D01*
X275429439Y-2317775D02*
X275307153Y-2401846D01*
X284656919Y-643989D02*
X284521895Y-577750D01*
X285120585Y-987917D02*
X285016133Y-891108D01*
X284376680Y-519155D02*
X284221276Y-470750D01*
X285461966Y-1443941D02*
X285385538Y-1316560D01*
X276815344Y-707679D02*
X276705797Y-799393D01*
X272571009Y-2783989D02*
X272418152Y-2735585D01*
X272731509Y-2824751D02*
X272571009Y-2783989D01*
X273452486Y-2908823D02*
X273261414Y-2903728D01*
X276305820Y-1362417D02*
X276226844Y-1489798D01*
X276056153Y-1724179D02*
X275964439Y-1833727D01*
X276226844Y-1489798D02*
X276142773Y-1609537D01*
X284521895Y-577750D02*
X284376680Y-519155D01*
X273075438Y-2885894D02*
X272899652Y-2860418D01*
X273590057Y-2908823D02*
X273452486Y-2908823D01*
X276379701Y-1232489D02*
X276305820Y-1362417D01*
X276935082Y-626155D02*
X276815344Y-707679D01*
X284058228Y-432536D02*
X283879894Y-409608D01*
X285016133Y-891108D02*
X284904038Y-801941D01*
X274476629Y-2781442D02*
X274318677Y-2824751D01*
X276705797Y-799393D02*
X276603892Y-901298D01*
X277363083Y-445274D02*
X277207678Y-493679D01*
X275765725Y-2040084D02*
X275661272Y-2134346D01*
X274777248Y-2676989D02*
X274632034Y-2733037D01*
X275307153Y-2401846D02*
X275182320Y-2478275D01*
X285209752Y-1087274D02*
X285120585Y-987917D01*
X184802953Y-92806690D02*
X184932881Y-92735356D01*
X186762072Y-92386332D02*
X186942953Y-92404166D01*
X184219548Y-93242333D02*
X184326548Y-93145523D01*
X187116192Y-92432190D02*
X187284335Y-92467856D01*
X185355786Y-92551928D02*
X185508643Y-92503523D01*
X186942953Y-92404166D02*
X187116192Y-92432190D01*
X185067905Y-92669118D02*
X185208024Y-92607975D01*
X186565906Y-92376142D02*
X186762072Y-92386332D01*
X185508643Y-92503523D02*
X185666596Y-92460213D01*
X185834739Y-92427094D02*
X186013072Y-92399071D01*
X185208024Y-92607975D02*
X185355786Y-92551928D01*
X186013072Y-92399071D02*
X186196501Y-92383785D01*
X187880478Y-92681856D02*
X188020597Y-92750642D01*
X187597692Y-92562118D02*
X187742906Y-92618166D01*
X184326548Y-93145523D02*
X184436095Y-93056356D01*
X187444835Y-92511166D02*
X187597692Y-92562118D01*
X184436095Y-93056356D02*
X184550738Y-92969737D01*
X183987714Y-93489452D02*
X184120191Y-93341690D01*
X184673024Y-92885666D02*
X184802953Y-92806690D01*
X186392668Y-92376142D02*
X186527691Y-92376142D01*
X187284335Y-92467856D02*
X187444835Y-92511166D01*
X186196501Y-92383785D02*
X186392668Y-92376142D01*
X184550738Y-92969737D02*
X184673024Y-92885666D01*
X184932881Y-92735356D02*
X185067905Y-92669118D01*
X184120191Y-93341690D02*
X184219548Y-93242333D01*
X186527691Y-92376142D02*
X186565906Y-92376142D01*
X185666596Y-92460213D02*
X185834739Y-92427094D01*
X187742906Y-92618166D02*
X187880478Y-92681856D01*
X182617095Y-94839690D02*
X182772500Y-94793833D01*
X102038422Y-93698357D02*
X102119946Y-93818095D01*
X183809381Y-93716190D02*
X183896000Y-93599000D01*
X183720214Y-93851214D02*
X183809381Y-93716190D01*
X183646333Y-93976047D02*
X183720214Y-93851214D01*
X183590286Y-94075404D02*
X183646333Y-93976047D01*
X100382469Y-92511166D02*
X100535326Y-92562118D01*
X103605208Y-94883000D02*
X182257880Y-94883000D01*
X102746660Y-94615500D02*
X102871493Y-94694476D01*
X99332849Y-92376142D02*
X99467873Y-92376142D01*
X183546976Y-94151833D02*
X183590286Y-94075404D01*
X100535326Y-92562118D02*
X100680540Y-92618166D01*
X98774921Y-92427094D02*
X98950706Y-92399071D01*
X182446404Y-94872810D02*
X182617095Y-94839690D01*
X98148206Y-92607975D02*
X98293420Y-92551928D01*
X101663922Y-93262714D02*
X101763279Y-93364618D01*
X99699707Y-92386332D02*
X99883135Y-92404166D01*
X98446278Y-92503523D02*
X98606778Y-92460213D01*
X97873063Y-92735356D02*
X98008087Y-92669118D01*
X101335279Y-92987571D02*
X101447374Y-93074190D01*
X183468000Y-94274119D02*
X183546976Y-94151833D01*
X98950706Y-92399071D02*
X99136683Y-92383785D01*
X103151732Y-94814214D02*
X103312232Y-94854976D01*
X183376285Y-94386214D02*
X183468000Y-94274119D01*
X183276928Y-94488119D02*
X183376285Y-94386214D01*
X102430755Y-94319976D02*
X102525017Y-94426976D01*
X103006517Y-94760714D02*
X103151732Y-94814214D01*
X183164833Y-94579833D02*
X183276928Y-94488119D01*
X102119946Y-93818095D02*
X102196374Y-93942928D01*
X97490920Y-92969737D02*
X97613206Y-92885666D01*
X99503540Y-92376142D02*
X99699707Y-92386332D01*
X183042547Y-94661357D02*
X183164833Y-94579833D01*
X182257880Y-94883000D02*
X182446404Y-94872810D01*
X103490565Y-94880452D02*
X103605208Y-94883000D01*
X102629470Y-94526333D02*
X102746660Y-94615500D01*
X99883135Y-92404166D02*
X100056373Y-92432190D01*
X100820659Y-92681856D02*
X100958231Y-92750642D01*
X103312232Y-94854976D02*
X103490565Y-94880452D01*
X102196374Y-93942928D02*
X102270255Y-94075404D01*
X100224516Y-92467856D02*
X100382469Y-92511166D01*
X99467873Y-92376142D02*
X99503540Y-92376142D01*
X98293420Y-92551928D02*
X98446278Y-92503523D01*
X182912619Y-94732690D02*
X183042547Y-94661357D01*
X182772500Y-94793833D02*
X182912619Y-94732690D01*
X102525017Y-94426976D02*
X102629470Y-94526333D01*
X98008087Y-92669118D02*
X98148206Y-92607975D01*
X102270255Y-94075404D02*
X102344136Y-94202785D01*
X100680540Y-92618166D02*
X100820659Y-92681856D01*
X99136683Y-92383785D02*
X99332849Y-92376142D01*
X97613206Y-92885666D02*
X97740587Y-92806690D01*
X98606778Y-92460213D02*
X98774921Y-92427094D01*
X102871493Y-94694476D02*
X103006517Y-94760714D01*
X101949255Y-93581166D02*
X102038422Y-93698357D01*
X101215540Y-92903499D02*
X101335279Y-92987571D01*
X101090707Y-92824523D02*
X101215540Y-92903499D01*
X101860088Y-93471619D02*
X101949255Y-93581166D01*
X97740587Y-92806690D02*
X97873063Y-92735356D01*
X101763279Y-93364618D02*
X101860088Y-93471619D01*
X101556922Y-93165904D02*
X101663922Y-93262714D01*
X100056373Y-92432190D02*
X100224516Y-92467856D01*
X101447374Y-93074190D02*
X101556922Y-93165904D01*
X100958231Y-92750642D02*
X101090707Y-92824523D01*
X102344136Y-94202785D02*
X102430755Y-94319976D01*
X183896000Y-93599000D02*
X183987714Y-93489452D01*
M02*
