M48
; DRILL file {KiCad (5.1.4)-1} date 10/11/2020 1:36:39 AM
; FORMAT={-:-/ absolute / inch / decimal}
; #@! TF.CreationDate,2020-10-11T01:36:39-04:00
; #@! TF.GenerationSoftware,Kicad,Pcbnew,(5.1.4)-1
; #@! TF.FileFunction,Plated,1,2,PTH
FMAT,2
INCH
T1C0.0157
T2C0.0394
T3C0.0579
%
G90
G05
T1
X0.422Y-0.747
X0.475Y-1.205
X0.51Y-1.455
X0.69Y-1.5
X0.78Y-2.41
X0.8027Y-1.4423
X0.825Y-0.46
X0.842Y-1.4395
X0.87Y-1.47
X0.885Y-0.31
X0.925Y-1.3
X0.955Y-1.235
X0.955Y-1.775
X0.9736Y-2.705
X0.98Y-1.895
X0.9885Y-2.0424
X1.024Y-1.231
X1.145Y-3.175
X1.18Y-1.23
X1.19Y-1.005
X1.245Y-1.925
X1.32Y-1.93
X1.32Y-2.2
X1.3975Y-1.1998
X1.415Y-2.28
X1.4761Y-1.3161
X1.49Y-1.015
X1.505Y-0.865
X1.505Y-1.96
X1.655Y-1.3273
X1.665Y-1.05
X2.0Y-3.46
X2.0542Y-0.9342
X2.095Y-1.24
X8.915Y-2.07
T2
X0.225Y-0.6
X0.225Y-0.7
X0.225Y-0.8
X0.325Y-0.6
X0.325Y-0.7
X0.325Y-0.8
T3
X1.35Y-1.025
X1.6Y-0.925
X5.475Y-0.275
X5.725Y-0.175
X0.6937Y-2.525
X0.9437Y-2.425
X1.5375Y-1.775
X1.7875Y-1.675
X7.725Y-0.275
X7.975Y-0.175
X3.7875Y-1.775
X4.0375Y-1.675
X8.6625Y-3.275
X8.9125Y-3.175
X5.6625Y-2.525
X5.9125Y-2.425
X8.2875Y-1.775
X8.5375Y-1.675
X8.7562Y-3.275
X9.0062Y-3.175
X9.225Y-0.275
X9.475Y-0.175
X4.1625Y-2.525
X4.4125Y-2.425
X7.35Y-1.025
X7.6Y-0.925
X10.5375Y-3.275
X10.7875Y-3.175
X10.35Y-0.275
X10.6Y-0.175
X0.3187Y-3.275
X0.5687Y-3.175
X4.725Y-0.275
X4.975Y-0.175
X6.4125Y-2.525
X6.6625Y-2.425
X2.1938Y-3.275
X2.4438Y-3.175
X3.225Y-0.275
X3.475Y-0.175
X6.0375Y-1.775
X6.2875Y-1.675
X10.6312Y-3.275
X10.8812Y-3.175
X2.85Y-1.025
X3.1Y-0.925
X8.1Y-1.025
X8.35Y-0.925
X9.6Y-1.025
X9.85Y-0.925
X5.1Y-1.025
X5.35Y-0.925
X0.3187Y-1.775
X0.5687Y-1.675
X3.975Y-0.275
X4.225Y-0.175
X4.5375Y-1.775
X4.7875Y-1.675
X9.0375Y-1.775
X9.2875Y-1.675
X2.1Y-1.025
X2.35Y-0.925
X0.5062Y-1.775
X0.7562Y-1.675
X10.725Y-2.525
X10.975Y-2.425
X7.5375Y-1.775
X7.7875Y-1.675
X9.6937Y-3.275
X9.9437Y-3.175
X9.975Y-0.275
X10.225Y-0.175
X3.4125Y-2.525
X3.6625Y-2.425
X5.0062Y-3.275
X5.2562Y-3.175
X10.725Y-0.275
X10.975Y-0.175
X7.9125Y-2.525
X8.1625Y-2.425
X2.2875Y-3.275
X2.5375Y-3.175
X6.975Y-0.275
X7.225Y-0.175
X7.8187Y-3.275
X8.0687Y-3.175
X2.475Y-0.275
X2.725Y-0.175
X6.6Y-1.025
X6.85Y-0.925
X8.85Y-1.025
X9.1Y-0.925
X0.4125Y-1.025
X0.6625Y-0.925
X4.9125Y-2.525
X5.1625Y-2.425
X8.475Y-0.275
X8.725Y-0.175
X4.35Y-1.025
X4.6Y-0.925
X9.6Y-3.275
X9.85Y-3.175
X3.6Y-1.025
X3.85Y-0.925
X6.7875Y-1.775
X7.0375Y-1.675
X10.5375Y-1.025
X10.7875Y-0.925
X7.1625Y-2.525
X7.4125Y-2.425
X1.725Y-0.275
X1.975Y-0.175
X2.2875Y-1.775
X2.5375Y-1.675
X1.35Y-3.275
X1.6Y-3.175
X9.6937Y-2.525
X9.9437Y-2.425
X3.0375Y-1.775
X3.2875Y-1.675
X1.9125Y-2.525
X2.1625Y-2.425
X8.6625Y-2.525
X8.9125Y-2.425
X1.2562Y-3.275
X1.5062Y-3.175
X0.4125Y-3.275
X0.6625Y-3.175
X0.975Y-0.275
X1.225Y-0.175
X5.2875Y-1.775
X5.5375Y-1.675
X10.2562Y-1.775
X10.5062Y-1.675
X6.225Y-0.275
X6.475Y-0.175
X0.225Y-0.275
X0.475Y-0.175
X2.6625Y-2.525
X2.9125Y-2.425
X10.0687Y-2.525
X10.3187Y-2.425
X5.475Y-3.275
X5.725Y-3.175
X5.85Y-1.025
X6.1Y-0.925
T0
M30
