G04 #@! TF.GenerationSoftware,KiCad,Pcbnew,(5.1.4)-1*
G04 #@! TF.CreationDate,2020-10-11T01:36:31-04:00*
G04 #@! TF.ProjectId,keyboard,6b657962-6f61-4726-942e-6b696361645f,rev?*
G04 #@! TF.SameCoordinates,Original*
G04 #@! TF.FileFunction,Legend,Bot*
G04 #@! TF.FilePolarity,Positive*
%FSLAX46Y46*%
G04 Gerber Fmt 4.6, Leading zero omitted, Abs format (unit mm)*
G04 Created by KiCad (PCBNEW (5.1.4)-1) date 2020-10-11 01:36:31*
%MOMM*%
%LPD*%
G04 APERTURE LIST*
%ADD10C,0.120000*%
%ADD11C,0.150000*%
%ADD12C,0.250000*%
%ADD13C,3.987800*%
%ADD14C,3.048000*%
%ADD15C,1.750000*%
%ADD16C,2.250000*%
%ADD17R,1.200000X0.900000*%
%ADD18R,1.400000X1.200000*%
%ADD19R,0.550000X1.500000*%
%ADD20R,1.500000X0.550000*%
%ADD21R,1.060000X0.650000*%
%ADD22R,1.700000X1.000000*%
%ADD23C,0.100000*%
%ADD24C,0.975000*%
%ADD25R,1.700000X1.700000*%
%ADD26C,1.700000*%
%ADD27C,0.600000*%
%ADD28C,1.200000*%
%ADD29C,1.250000*%
G04 APERTURE END LIST*
D10*
X268589000Y-69433000D02*
X268589000Y-65533000D01*
X266589000Y-69433000D02*
X266589000Y-65533000D01*
X268589000Y-69433000D02*
X266589000Y-69433000D01*
X43105000Y-39662000D02*
X39105000Y-39662000D01*
X43105000Y-36362000D02*
X43105000Y-39662000D01*
D11*
X24035000Y-33433000D02*
X24610000Y-33433000D01*
X24035000Y-43783000D02*
X24710000Y-43783000D01*
X34385000Y-43783000D02*
X33710000Y-43783000D01*
X34385000Y-33433000D02*
X33710000Y-33433000D01*
X24035000Y-33433000D02*
X24035000Y-34108000D01*
X34385000Y-33433000D02*
X34385000Y-34108000D01*
X34385000Y-43783000D02*
X34385000Y-43108000D01*
X24035000Y-43783000D02*
X24035000Y-43108000D01*
X24610000Y-33433000D02*
X24610000Y-32158000D01*
D10*
X37835000Y-16424000D02*
X40285000Y-16424000D01*
X39635000Y-19644000D02*
X37835000Y-19644000D01*
X57805000Y-37929000D02*
X60305000Y-37929000D01*
X56305000Y-36179000D02*
X56305000Y-34179000D01*
X57805000Y-32429000D02*
X60305000Y-32429000D01*
X61805000Y-36179000D02*
X61805000Y-34179000D01*
X57355000Y-37479000D02*
X57805000Y-37929000D01*
X60755000Y-37479000D02*
X60305000Y-37929000D01*
X60755000Y-32879000D02*
X60305000Y-32429000D01*
X57355000Y-32879000D02*
X57805000Y-32429000D01*
X53923000Y-33952922D02*
X53923000Y-34470078D01*
X52503000Y-33952922D02*
X52503000Y-34470078D01*
X30024000Y-55249578D02*
X30024000Y-54732422D01*
X31444000Y-55249578D02*
X31444000Y-54732422D01*
X32047922Y-15673000D02*
X32565078Y-15673000D01*
X32047922Y-17093000D02*
X32565078Y-17093000D01*
X32077922Y-18467000D02*
X32595078Y-18467000D01*
X32077922Y-19887000D02*
X32595078Y-19887000D01*
D12*
X4485000Y-16530000D02*
X9485000Y-16530000D01*
X9485000Y-16530000D02*
X9485000Y-14030000D01*
X9485000Y-14030000D02*
X4485000Y-14030000D01*
X4485000Y-14030000D02*
X4485000Y-16530000D01*
D10*
X48340000Y-14797000D02*
X45840000Y-14797000D01*
X45840000Y-14797000D02*
X45840000Y-15847000D01*
X45840000Y-15847000D02*
X44850000Y-15847000D01*
X48340000Y-21017000D02*
X45840000Y-21017000D01*
X45840000Y-21017000D02*
X45840000Y-19967000D01*
X50310000Y-15967000D02*
X50310000Y-19847000D01*
X23657936Y-15600000D02*
X24862064Y-15600000D01*
X23657936Y-17420000D02*
X24862064Y-17420000D01*
X41328078Y-41604000D02*
X40810922Y-41604000D01*
X41328078Y-40184000D02*
X40810922Y-40184000D01*
X29031000Y-28267922D02*
X29031000Y-28785078D01*
X27611000Y-28267922D02*
X27611000Y-28785078D01*
X41279578Y-35762000D02*
X40762422Y-35762000D01*
X41279578Y-34342000D02*
X40762422Y-34342000D01*
X17267422Y-38533000D02*
X17784578Y-38533000D01*
X17267422Y-39953000D02*
X17784578Y-39953000D01*
X38429000Y-33601922D02*
X38429000Y-34119078D01*
X37009000Y-33601922D02*
X37009000Y-34119078D01*
X32380422Y-46534000D02*
X32897578Y-46534000D01*
X32380422Y-47954000D02*
X32897578Y-47954000D01*
X24086078Y-30174000D02*
X23568922Y-30174000D01*
X24086078Y-28754000D02*
X23568922Y-28754000D01*
X19050000Y-12275000D02*
X19050000Y-8375000D01*
X17050000Y-12275000D02*
X17050000Y-8375000D01*
X19050000Y-12275000D02*
X17050000Y-12275000D01*
X38100000Y-12275000D02*
X38100000Y-8375000D01*
X36100000Y-12275000D02*
X36100000Y-8375000D01*
X38100000Y-12275000D02*
X36100000Y-12275000D01*
X57150000Y-12275000D02*
X57150000Y-8375000D01*
X55150000Y-12275000D02*
X55150000Y-8375000D01*
X57150000Y-12275000D02*
X55150000Y-12275000D01*
X76200000Y-12275000D02*
X76200000Y-8375000D01*
X74200000Y-12275000D02*
X74200000Y-8375000D01*
X76200000Y-12275000D02*
X74200000Y-12275000D01*
X95250000Y-12275000D02*
X95250000Y-8375000D01*
X93250000Y-12275000D02*
X93250000Y-8375000D01*
X95250000Y-12275000D02*
X93250000Y-12275000D01*
X114300000Y-12275000D02*
X114300000Y-8375000D01*
X112300000Y-12275000D02*
X112300000Y-8375000D01*
X114300000Y-12275000D02*
X112300000Y-12275000D01*
X133350000Y-12275000D02*
X133350000Y-8375000D01*
X131350000Y-12275000D02*
X131350000Y-8375000D01*
X133350000Y-12275000D02*
X131350000Y-12275000D01*
X152400000Y-12275000D02*
X152400000Y-8375000D01*
X150400000Y-12275000D02*
X150400000Y-8375000D01*
X152400000Y-12275000D02*
X150400000Y-12275000D01*
X171450000Y-12275000D02*
X171450000Y-8375000D01*
X169450000Y-12275000D02*
X169450000Y-8375000D01*
X171450000Y-12275000D02*
X169450000Y-12275000D01*
X190500000Y-12275000D02*
X190500000Y-8375000D01*
X188500000Y-12275000D02*
X188500000Y-8375000D01*
X190500000Y-12275000D02*
X188500000Y-12275000D01*
X209550000Y-12275000D02*
X209550000Y-8375000D01*
X207550000Y-12275000D02*
X207550000Y-8375000D01*
X209550000Y-12275000D02*
X207550000Y-12275000D01*
X228600000Y-12275000D02*
X228600000Y-8375000D01*
X226600000Y-12275000D02*
X226600000Y-8375000D01*
X228600000Y-12275000D02*
X226600000Y-12275000D01*
X230997000Y-12283000D02*
X230997000Y-8383000D01*
X228997000Y-12283000D02*
X228997000Y-8383000D01*
X230997000Y-12283000D02*
X228997000Y-12283000D01*
X249920000Y-12283000D02*
X249920000Y-8383000D01*
X247920000Y-12283000D02*
X247920000Y-8383000D01*
X249920000Y-12283000D02*
X247920000Y-12283000D01*
X247253000Y-12282000D02*
X247253000Y-8382000D01*
X245253000Y-12282000D02*
X245253000Y-8382000D01*
X247253000Y-12282000D02*
X245253000Y-12282000D01*
X7350000Y-31325000D02*
X7350000Y-27425000D01*
X5350000Y-31325000D02*
X5350000Y-27425000D01*
X7350000Y-31325000D02*
X5350000Y-31325000D01*
X47625000Y-31325000D02*
X47625000Y-27425000D01*
X45625000Y-31325000D02*
X45625000Y-27425000D01*
X47625000Y-31325000D02*
X45625000Y-31325000D01*
X66675000Y-31325000D02*
X66675000Y-27425000D01*
X64675000Y-31325000D02*
X64675000Y-27425000D01*
X66675000Y-31325000D02*
X64675000Y-31325000D01*
X85725000Y-31325000D02*
X85725000Y-27425000D01*
X83725000Y-31325000D02*
X83725000Y-27425000D01*
X85725000Y-31325000D02*
X83725000Y-31325000D01*
X104775000Y-31325000D02*
X104775000Y-27425000D01*
X102775000Y-31325000D02*
X102775000Y-27425000D01*
X104775000Y-31325000D02*
X102775000Y-31325000D01*
X123825000Y-31325000D02*
X123825000Y-27425000D01*
X121825000Y-31325000D02*
X121825000Y-27425000D01*
X123825000Y-31325000D02*
X121825000Y-31325000D01*
X142875000Y-31325000D02*
X142875000Y-27425000D01*
X140875000Y-31325000D02*
X140875000Y-27425000D01*
X142875000Y-31325000D02*
X140875000Y-31325000D01*
X161925000Y-31325000D02*
X161925000Y-27425000D01*
X159925000Y-31325000D02*
X159925000Y-27425000D01*
X161925000Y-31325000D02*
X159925000Y-31325000D01*
X180975000Y-31325000D02*
X180975000Y-27425000D01*
X178975000Y-31325000D02*
X178975000Y-27425000D01*
X180975000Y-31325000D02*
X178975000Y-31325000D01*
X200025000Y-31325000D02*
X200025000Y-27425000D01*
X198025000Y-31325000D02*
X198025000Y-27425000D01*
X200025000Y-31325000D02*
X198025000Y-31325000D01*
X219075000Y-31325000D02*
X219075000Y-27425000D01*
X217075000Y-31325000D02*
X217075000Y-27425000D01*
X219075000Y-31325000D02*
X217075000Y-31325000D01*
X238125000Y-31325000D02*
X238125000Y-27425000D01*
X236125000Y-31325000D02*
X236125000Y-27425000D01*
X238125000Y-31325000D02*
X236125000Y-31325000D01*
X257175000Y-31325000D02*
X257175000Y-27425000D01*
X255175000Y-31325000D02*
X255175000Y-27425000D01*
X257175000Y-31325000D02*
X255175000Y-31325000D01*
X264144000Y-31325000D02*
X264144000Y-27425000D01*
X262144000Y-31325000D02*
X262144000Y-27425000D01*
X264144000Y-31325000D02*
X262144000Y-31325000D01*
X25892000Y-50375000D02*
X23892000Y-50375000D01*
X23892000Y-50375000D02*
X23892000Y-46475000D01*
X25892000Y-50375000D02*
X25892000Y-46475000D01*
X52387500Y-50375000D02*
X50387500Y-50375000D01*
X50387500Y-50375000D02*
X50387500Y-46475000D01*
X52387500Y-50375000D02*
X52387500Y-46475000D01*
X71437500Y-50375000D02*
X69437500Y-50375000D01*
X69437500Y-50375000D02*
X69437500Y-46475000D01*
X71437500Y-50375000D02*
X71437500Y-46475000D01*
X90487500Y-50375000D02*
X88487500Y-50375000D01*
X88487500Y-50375000D02*
X88487500Y-46475000D01*
X90487500Y-50375000D02*
X90487500Y-46475000D01*
X109537500Y-50375000D02*
X107537500Y-50375000D01*
X107537500Y-50375000D02*
X107537500Y-46475000D01*
X109537500Y-50375000D02*
X109537500Y-46475000D01*
X128587500Y-50375000D02*
X126587500Y-50375000D01*
X126587500Y-50375000D02*
X126587500Y-46475000D01*
X128587500Y-50375000D02*
X128587500Y-46475000D01*
X147637500Y-50375000D02*
X145637500Y-50375000D01*
X145637500Y-50375000D02*
X145637500Y-46475000D01*
X147637500Y-50375000D02*
X147637500Y-46475000D01*
X166687500Y-50375000D02*
X164687500Y-50375000D01*
X164687500Y-50375000D02*
X164687500Y-46475000D01*
X166687500Y-50375000D02*
X166687500Y-46475000D01*
X185737500Y-50375000D02*
X183737500Y-50375000D01*
X183737500Y-50375000D02*
X183737500Y-46475000D01*
X185737500Y-50375000D02*
X185737500Y-46475000D01*
X204787500Y-50375000D02*
X202787500Y-50375000D01*
X202787500Y-50375000D02*
X202787500Y-46475000D01*
X204787500Y-50375000D02*
X204787500Y-46475000D01*
X223837500Y-50375000D02*
X221837500Y-50375000D01*
X221837500Y-50375000D02*
X221837500Y-46475000D01*
X223837500Y-50375000D02*
X223837500Y-46475000D01*
X242887500Y-50375000D02*
X240887500Y-50375000D01*
X240887500Y-50375000D02*
X240887500Y-46475000D01*
X242887500Y-50375000D02*
X242887500Y-46475000D01*
X256397000Y-50383000D02*
X254397000Y-50383000D01*
X254397000Y-50383000D02*
X254397000Y-46483000D01*
X256397000Y-50383000D02*
X256397000Y-46483000D01*
X30845000Y-69306000D02*
X30845000Y-65406000D01*
X28845000Y-69306000D02*
X28845000Y-65406000D01*
X30845000Y-69306000D02*
X28845000Y-69306000D01*
X61912500Y-69425000D02*
X61912500Y-65525000D01*
X59912500Y-69425000D02*
X59912500Y-65525000D01*
X61912500Y-69425000D02*
X59912500Y-69425000D01*
X80962500Y-69425000D02*
X80962500Y-65525000D01*
X78962500Y-69425000D02*
X78962500Y-65525000D01*
X80962500Y-69425000D02*
X78962500Y-69425000D01*
X100012500Y-69425000D02*
X100012500Y-65525000D01*
X98012500Y-69425000D02*
X98012500Y-65525000D01*
X100012500Y-69425000D02*
X98012500Y-69425000D01*
X119062500Y-69425000D02*
X119062500Y-65525000D01*
X117062500Y-69425000D02*
X117062500Y-65525000D01*
X119062500Y-69425000D02*
X117062500Y-69425000D01*
X138112500Y-69425000D02*
X138112500Y-65525000D01*
X136112500Y-69425000D02*
X136112500Y-65525000D01*
X138112500Y-69425000D02*
X136112500Y-69425000D01*
X157162500Y-69425000D02*
X157162500Y-65525000D01*
X155162500Y-69425000D02*
X155162500Y-65525000D01*
X157162500Y-69425000D02*
X155162500Y-69425000D01*
X176212500Y-69425000D02*
X176212500Y-65525000D01*
X174212500Y-69425000D02*
X174212500Y-65525000D01*
X176212500Y-69425000D02*
X174212500Y-69425000D01*
X195262500Y-69425000D02*
X195262500Y-65525000D01*
X193262500Y-69425000D02*
X193262500Y-65525000D01*
X195262500Y-69425000D02*
X193262500Y-69425000D01*
X214312500Y-69425000D02*
X214312500Y-65525000D01*
X212312500Y-69425000D02*
X212312500Y-65525000D01*
X214312500Y-69425000D02*
X212312500Y-69425000D01*
X233362500Y-69425000D02*
X233362500Y-65525000D01*
X231362500Y-69425000D02*
X231362500Y-65525000D01*
X233362500Y-69425000D02*
X231362500Y-69425000D01*
X242427000Y-69433000D02*
X242427000Y-65533000D01*
X240427000Y-69433000D02*
X240427000Y-65533000D01*
X242427000Y-69433000D02*
X240427000Y-69433000D01*
X23812500Y-88475000D02*
X23812500Y-84575000D01*
X21812500Y-88475000D02*
X21812500Y-84575000D01*
X23812500Y-88475000D02*
X21812500Y-88475000D01*
X47228000Y-88483000D02*
X47228000Y-84583000D01*
X45228000Y-88483000D02*
X45228000Y-84583000D01*
X47228000Y-88483000D02*
X45228000Y-88483000D01*
X71437500Y-88475000D02*
X71437500Y-84575000D01*
X69437500Y-88475000D02*
X69437500Y-84575000D01*
X71437500Y-88475000D02*
X69437500Y-88475000D01*
X152384000Y-88610000D02*
X152384000Y-84710000D01*
X150384000Y-88610000D02*
X150384000Y-84710000D01*
X152384000Y-88610000D02*
X150384000Y-88610000D01*
X211820000Y-88475000D02*
X211820000Y-84575000D01*
X209820000Y-88475000D02*
X209820000Y-84575000D01*
X211820000Y-88475000D02*
X209820000Y-88475000D01*
X235823000Y-88483000D02*
X235823000Y-84583000D01*
X233823000Y-88483000D02*
X233823000Y-84583000D01*
X235823000Y-88483000D02*
X233823000Y-88483000D01*
X259445000Y-88475000D02*
X259445000Y-84575000D01*
X257445000Y-88475000D02*
X257445000Y-84575000D01*
X259445000Y-88475000D02*
X257445000Y-88475000D01*
X264398000Y-88484000D02*
X264398000Y-84584000D01*
X262398000Y-88484000D02*
X262398000Y-84584000D01*
X264398000Y-88484000D02*
X262398000Y-88484000D01*
D11*
X270041380Y-65587761D02*
X269041380Y-65587761D01*
X269041380Y-65825857D01*
X269089000Y-65968714D01*
X269184238Y-66063952D01*
X269279476Y-66111571D01*
X269469952Y-66159190D01*
X269612809Y-66159190D01*
X269803285Y-66111571D01*
X269898523Y-66063952D01*
X269993761Y-65968714D01*
X270041380Y-65825857D01*
X270041380Y-65587761D01*
X270136619Y-66349666D02*
X270136619Y-67111571D01*
X269041380Y-67825857D02*
X269041380Y-67349666D01*
X269517571Y-67302047D01*
X269469952Y-67349666D01*
X269422333Y-67444904D01*
X269422333Y-67683000D01*
X269469952Y-67778238D01*
X269517571Y-67825857D01*
X269612809Y-67873476D01*
X269850904Y-67873476D01*
X269946142Y-67825857D01*
X269993761Y-67778238D01*
X270041380Y-67683000D01*
X270041380Y-67444904D01*
X269993761Y-67349666D01*
X269946142Y-67302047D01*
X269041380Y-68778238D02*
X269041380Y-68302047D01*
X269517571Y-68254428D01*
X269469952Y-68302047D01*
X269422333Y-68397285D01*
X269422333Y-68635380D01*
X269469952Y-68730619D01*
X269517571Y-68778238D01*
X269612809Y-68825857D01*
X269850904Y-68825857D01*
X269946142Y-68778238D01*
X269993761Y-68730619D01*
X270041380Y-68635380D01*
X270041380Y-68397285D01*
X269993761Y-68302047D01*
X269946142Y-68254428D01*
X41581190Y-35538190D02*
X41581190Y-36014380D01*
X41914523Y-35014380D02*
X41581190Y-35538190D01*
X41247857Y-35014380D01*
X40390714Y-36014380D02*
X40962142Y-36014380D01*
X40676428Y-36014380D02*
X40676428Y-35014380D01*
X40771666Y-35157238D01*
X40866904Y-35252476D01*
X40962142Y-35300095D01*
X21212380Y-37846095D02*
X22021904Y-37846095D01*
X22117142Y-37893714D01*
X22164761Y-37941333D01*
X22212380Y-38036571D01*
X22212380Y-38227047D01*
X22164761Y-38322285D01*
X22117142Y-38369904D01*
X22021904Y-38417523D01*
X21212380Y-38417523D01*
X21307619Y-38846095D02*
X21260000Y-38893714D01*
X21212380Y-38988952D01*
X21212380Y-39227047D01*
X21260000Y-39322285D01*
X21307619Y-39369904D01*
X21402857Y-39417523D01*
X21498095Y-39417523D01*
X21640952Y-39369904D01*
X22212380Y-38798476D01*
X22212380Y-39417523D01*
X39496904Y-14586380D02*
X39496904Y-15395904D01*
X39449285Y-15491142D01*
X39401666Y-15538761D01*
X39306428Y-15586380D01*
X39115952Y-15586380D01*
X39020714Y-15538761D01*
X38973095Y-15491142D01*
X38925476Y-15395904D01*
X38925476Y-14586380D01*
X37925476Y-15586380D02*
X38496904Y-15586380D01*
X38211190Y-15586380D02*
X38211190Y-14586380D01*
X38306428Y-14729238D01*
X38401666Y-14824476D01*
X38496904Y-14872095D01*
X60388333Y-39333761D02*
X60245476Y-39381380D01*
X60007380Y-39381380D01*
X59912142Y-39333761D01*
X59864523Y-39286142D01*
X59816904Y-39190904D01*
X59816904Y-39095666D01*
X59864523Y-39000428D01*
X59912142Y-38952809D01*
X60007380Y-38905190D01*
X60197857Y-38857571D01*
X60293095Y-38809952D01*
X60340714Y-38762333D01*
X60388333Y-38667095D01*
X60388333Y-38571857D01*
X60340714Y-38476619D01*
X60293095Y-38429000D01*
X60197857Y-38381380D01*
X59959761Y-38381380D01*
X59816904Y-38429000D01*
X59483571Y-38381380D02*
X59245476Y-39381380D01*
X59055000Y-38667095D01*
X58864523Y-39381380D01*
X58626428Y-38381380D01*
X57721666Y-39381380D02*
X58293095Y-39381380D01*
X58007380Y-39381380D02*
X58007380Y-38381380D01*
X58102619Y-38524238D01*
X58197857Y-38619476D01*
X58293095Y-38667095D01*
X52015380Y-34044833D02*
X51539190Y-33711500D01*
X52015380Y-33473404D02*
X51015380Y-33473404D01*
X51015380Y-33854357D01*
X51063000Y-33949595D01*
X51110619Y-33997214D01*
X51205857Y-34044833D01*
X51348714Y-34044833D01*
X51443952Y-33997214D01*
X51491571Y-33949595D01*
X51539190Y-33854357D01*
X51539190Y-33473404D01*
X51348714Y-34901976D02*
X52015380Y-34901976D01*
X50967761Y-34663880D02*
X51682047Y-34425785D01*
X51682047Y-35044833D01*
X32836380Y-54824333D02*
X32360190Y-54491000D01*
X32836380Y-54252904D02*
X31836380Y-54252904D01*
X31836380Y-54633857D01*
X31884000Y-54729095D01*
X31931619Y-54776714D01*
X32026857Y-54824333D01*
X32169714Y-54824333D01*
X32264952Y-54776714D01*
X32312571Y-54729095D01*
X32360190Y-54633857D01*
X32360190Y-54252904D01*
X31836380Y-55157666D02*
X31836380Y-55776714D01*
X32217333Y-55443380D01*
X32217333Y-55586238D01*
X32264952Y-55681476D01*
X32312571Y-55729095D01*
X32407809Y-55776714D01*
X32645904Y-55776714D01*
X32741142Y-55729095D01*
X32788761Y-55681476D01*
X32836380Y-55586238D01*
X32836380Y-55300523D01*
X32788761Y-55205285D01*
X32741142Y-55157666D01*
X32473166Y-18485380D02*
X32806500Y-18009190D01*
X33044595Y-18485380D02*
X33044595Y-17485380D01*
X32663642Y-17485380D01*
X32568404Y-17533000D01*
X32520785Y-17580619D01*
X32473166Y-17675857D01*
X32473166Y-17818714D01*
X32520785Y-17913952D01*
X32568404Y-17961571D01*
X32663642Y-18009190D01*
X33044595Y-18009190D01*
X32092214Y-17580619D02*
X32044595Y-17533000D01*
X31949357Y-17485380D01*
X31711261Y-17485380D01*
X31616023Y-17533000D01*
X31568404Y-17580619D01*
X31520785Y-17675857D01*
X31520785Y-17771095D01*
X31568404Y-17913952D01*
X32139833Y-18485380D01*
X31520785Y-18485380D01*
X32503166Y-21279380D02*
X32836500Y-20803190D01*
X33074595Y-21279380D02*
X33074595Y-20279380D01*
X32693642Y-20279380D01*
X32598404Y-20327000D01*
X32550785Y-20374619D01*
X32503166Y-20469857D01*
X32503166Y-20612714D01*
X32550785Y-20707952D01*
X32598404Y-20755571D01*
X32693642Y-20803190D01*
X33074595Y-20803190D01*
X31550785Y-21279380D02*
X32122214Y-21279380D01*
X31836500Y-21279380D02*
X31836500Y-20279380D01*
X31931738Y-20422238D01*
X32026976Y-20517476D01*
X32122214Y-20565095D01*
X4306428Y-20732380D02*
X4306428Y-19732380D01*
X3973095Y-20446666D01*
X3639761Y-19732380D01*
X3639761Y-20732380D01*
X3163571Y-20732380D02*
X3163571Y-19732380D01*
X2735000Y-20684761D02*
X2592142Y-20732380D01*
X2354047Y-20732380D01*
X2258809Y-20684761D01*
X2211190Y-20637142D01*
X2163571Y-20541904D01*
X2163571Y-20446666D01*
X2211190Y-20351428D01*
X2258809Y-20303809D01*
X2354047Y-20256190D01*
X2544523Y-20208571D01*
X2639761Y-20160952D01*
X2687380Y-20113333D01*
X2735000Y-20018095D01*
X2735000Y-19922857D01*
X2687380Y-19827619D01*
X2639761Y-19780000D01*
X2544523Y-19732380D01*
X2306428Y-19732380D01*
X2163571Y-19780000D01*
X1544523Y-19732380D02*
X1354047Y-19732380D01*
X1258809Y-19780000D01*
X1163571Y-19875238D01*
X1115952Y-20065714D01*
X1115952Y-20399047D01*
X1163571Y-20589523D01*
X1258809Y-20684761D01*
X1354047Y-20732380D01*
X1544523Y-20732380D01*
X1639761Y-20684761D01*
X1735000Y-20589523D01*
X1782619Y-20399047D01*
X1782619Y-20065714D01*
X1735000Y-19875238D01*
X1639761Y-19780000D01*
X1544523Y-19732380D01*
X12318333Y-19732380D02*
X11985000Y-20732380D01*
X11651666Y-19732380D01*
X10746904Y-20637142D02*
X10794523Y-20684761D01*
X10937380Y-20732380D01*
X11032619Y-20732380D01*
X11175476Y-20684761D01*
X11270714Y-20589523D01*
X11318333Y-20494285D01*
X11365952Y-20303809D01*
X11365952Y-20160952D01*
X11318333Y-19970476D01*
X11270714Y-19875238D01*
X11175476Y-19780000D01*
X11032619Y-19732380D01*
X10937380Y-19732380D01*
X10794523Y-19780000D01*
X10746904Y-19827619D01*
X9746904Y-20637142D02*
X9794523Y-20684761D01*
X9937380Y-20732380D01*
X10032619Y-20732380D01*
X10175476Y-20684761D01*
X10270714Y-20589523D01*
X10318333Y-20494285D01*
X10365952Y-20303809D01*
X10365952Y-20160952D01*
X10318333Y-19970476D01*
X10270714Y-19875238D01*
X10175476Y-19780000D01*
X10032619Y-19732380D01*
X9937380Y-19732380D01*
X9794523Y-19780000D01*
X9746904Y-19827619D01*
X4270714Y-18184761D02*
X4127857Y-18232380D01*
X3889761Y-18232380D01*
X3794523Y-18184761D01*
X3746904Y-18137142D01*
X3699285Y-18041904D01*
X3699285Y-17946666D01*
X3746904Y-17851428D01*
X3794523Y-17803809D01*
X3889761Y-17756190D01*
X4080238Y-17708571D01*
X4175476Y-17660952D01*
X4223095Y-17613333D01*
X4270714Y-17518095D01*
X4270714Y-17422857D01*
X4223095Y-17327619D01*
X4175476Y-17280000D01*
X4080238Y-17232380D01*
X3842142Y-17232380D01*
X3699285Y-17280000D01*
X2699285Y-18137142D02*
X2746904Y-18184761D01*
X2889761Y-18232380D01*
X2985000Y-18232380D01*
X3127857Y-18184761D01*
X3223095Y-18089523D01*
X3270714Y-17994285D01*
X3318333Y-17803809D01*
X3318333Y-17660952D01*
X3270714Y-17470476D01*
X3223095Y-17375238D01*
X3127857Y-17280000D01*
X2985000Y-17232380D01*
X2889761Y-17232380D01*
X2746904Y-17280000D01*
X2699285Y-17327619D01*
X2270714Y-18232380D02*
X2270714Y-17232380D01*
X1699285Y-18232380D02*
X2127857Y-17660952D01*
X1699285Y-17232380D02*
X2270714Y-17803809D01*
X12806428Y-18232380D02*
X12806428Y-17232380D01*
X12473095Y-17946666D01*
X12139761Y-17232380D01*
X12139761Y-18232380D01*
X11473095Y-17232380D02*
X11282619Y-17232380D01*
X11187380Y-17280000D01*
X11092142Y-17375238D01*
X11044523Y-17565714D01*
X11044523Y-17899047D01*
X11092142Y-18089523D01*
X11187380Y-18184761D01*
X11282619Y-18232380D01*
X11473095Y-18232380D01*
X11568333Y-18184761D01*
X11663571Y-18089523D01*
X11711190Y-17899047D01*
X11711190Y-17565714D01*
X11663571Y-17375238D01*
X11568333Y-17280000D01*
X11473095Y-17232380D01*
X10663571Y-18184761D02*
X10520714Y-18232380D01*
X10282619Y-18232380D01*
X10187380Y-18184761D01*
X10139761Y-18137142D01*
X10092142Y-18041904D01*
X10092142Y-17946666D01*
X10139761Y-17851428D01*
X10187380Y-17803809D01*
X10282619Y-17756190D01*
X10473095Y-17708571D01*
X10568333Y-17660952D01*
X10615952Y-17613333D01*
X10663571Y-17518095D01*
X10663571Y-17422857D01*
X10615952Y-17327619D01*
X10568333Y-17280000D01*
X10473095Y-17232380D01*
X10235000Y-17232380D01*
X10092142Y-17280000D01*
X9663571Y-18232380D02*
X9663571Y-17232380D01*
X3282619Y-15732380D02*
X3615952Y-15256190D01*
X3854047Y-15732380D02*
X3854047Y-14732380D01*
X3473095Y-14732380D01*
X3377857Y-14780000D01*
X3330238Y-14827619D01*
X3282619Y-14922857D01*
X3282619Y-15065714D01*
X3330238Y-15160952D01*
X3377857Y-15208571D01*
X3473095Y-15256190D01*
X3854047Y-15256190D01*
X2901666Y-15684761D02*
X2758809Y-15732380D01*
X2520714Y-15732380D01*
X2425476Y-15684761D01*
X2377857Y-15637142D01*
X2330238Y-15541904D01*
X2330238Y-15446666D01*
X2377857Y-15351428D01*
X2425476Y-15303809D01*
X2520714Y-15256190D01*
X2711190Y-15208571D01*
X2806428Y-15160952D01*
X2854047Y-15113333D01*
X2901666Y-15018095D01*
X2901666Y-14922857D01*
X2854047Y-14827619D01*
X2806428Y-14780000D01*
X2711190Y-14732380D01*
X2473095Y-14732380D01*
X2330238Y-14780000D01*
X2044523Y-14732380D02*
X1473095Y-14732380D01*
X1758809Y-15732380D02*
X1758809Y-14732380D01*
X11996904Y-14780000D02*
X12092142Y-14732380D01*
X12235000Y-14732380D01*
X12377857Y-14780000D01*
X12473095Y-14875238D01*
X12520714Y-14970476D01*
X12568333Y-15160952D01*
X12568333Y-15303809D01*
X12520714Y-15494285D01*
X12473095Y-15589523D01*
X12377857Y-15684761D01*
X12235000Y-15732380D01*
X12139761Y-15732380D01*
X11996904Y-15684761D01*
X11949285Y-15637142D01*
X11949285Y-15303809D01*
X12139761Y-15303809D01*
X11520714Y-15732380D02*
X11520714Y-14732380D01*
X10949285Y-15732380D01*
X10949285Y-14732380D01*
X10473095Y-15732380D02*
X10473095Y-14732380D01*
X10235000Y-14732380D01*
X10092142Y-14780000D01*
X9996904Y-14875238D01*
X9949285Y-14970476D01*
X9901666Y-15160952D01*
X9901666Y-15303809D01*
X9949285Y-15494285D01*
X9996904Y-15589523D01*
X10092142Y-15684761D01*
X10235000Y-15732380D01*
X10473095Y-15732380D01*
X43097380Y-17573666D02*
X43811666Y-17573666D01*
X43954523Y-17526047D01*
X44049761Y-17430809D01*
X44097380Y-17287952D01*
X44097380Y-17192714D01*
X44097380Y-18573666D02*
X44097380Y-18002238D01*
X44097380Y-18287952D02*
X43097380Y-18287952D01*
X43240238Y-18192714D01*
X43335476Y-18097476D01*
X43383095Y-18002238D01*
X24593333Y-18258571D02*
X24926666Y-18258571D01*
X24926666Y-18782380D02*
X24926666Y-17782380D01*
X24450476Y-17782380D01*
X23545714Y-18782380D02*
X24117142Y-18782380D01*
X23831428Y-18782380D02*
X23831428Y-17782380D01*
X23926666Y-17925238D01*
X24021904Y-18020476D01*
X24117142Y-18068095D01*
X41236166Y-39601142D02*
X41283785Y-39648761D01*
X41426642Y-39696380D01*
X41521880Y-39696380D01*
X41664738Y-39648761D01*
X41759976Y-39553523D01*
X41807595Y-39458285D01*
X41855214Y-39267809D01*
X41855214Y-39124952D01*
X41807595Y-38934476D01*
X41759976Y-38839238D01*
X41664738Y-38744000D01*
X41521880Y-38696380D01*
X41426642Y-38696380D01*
X41283785Y-38744000D01*
X41236166Y-38791619D01*
X40902833Y-38696380D02*
X40236166Y-38696380D01*
X40664738Y-39696380D01*
X27028142Y-28359833D02*
X27075761Y-28312214D01*
X27123380Y-28169357D01*
X27123380Y-28074119D01*
X27075761Y-27931261D01*
X26980523Y-27836023D01*
X26885285Y-27788404D01*
X26694809Y-27740785D01*
X26551952Y-27740785D01*
X26361476Y-27788404D01*
X26266238Y-27836023D01*
X26171000Y-27931261D01*
X26123380Y-28074119D01*
X26123380Y-28169357D01*
X26171000Y-28312214D01*
X26218619Y-28359833D01*
X26123380Y-29216976D02*
X26123380Y-29026500D01*
X26171000Y-28931261D01*
X26218619Y-28883642D01*
X26361476Y-28788404D01*
X26551952Y-28740785D01*
X26932904Y-28740785D01*
X27028142Y-28788404D01*
X27075761Y-28836023D01*
X27123380Y-28931261D01*
X27123380Y-29121738D01*
X27075761Y-29216976D01*
X27028142Y-29264595D01*
X26932904Y-29312214D01*
X26694809Y-29312214D01*
X26599571Y-29264595D01*
X26551952Y-29216976D01*
X26504333Y-29121738D01*
X26504333Y-28931261D01*
X26551952Y-28836023D01*
X26599571Y-28788404D01*
X26694809Y-28740785D01*
X41187666Y-33759142D02*
X41235285Y-33806761D01*
X41378142Y-33854380D01*
X41473380Y-33854380D01*
X41616238Y-33806761D01*
X41711476Y-33711523D01*
X41759095Y-33616285D01*
X41806714Y-33425809D01*
X41806714Y-33282952D01*
X41759095Y-33092476D01*
X41711476Y-32997238D01*
X41616238Y-32902000D01*
X41473380Y-32854380D01*
X41378142Y-32854380D01*
X41235285Y-32902000D01*
X41187666Y-32949619D01*
X40282904Y-32854380D02*
X40759095Y-32854380D01*
X40806714Y-33330571D01*
X40759095Y-33282952D01*
X40663857Y-33235333D01*
X40425761Y-33235333D01*
X40330523Y-33282952D01*
X40282904Y-33330571D01*
X40235285Y-33425809D01*
X40235285Y-33663904D01*
X40282904Y-33759142D01*
X40330523Y-33806761D01*
X40425761Y-33854380D01*
X40663857Y-33854380D01*
X40759095Y-33806761D01*
X40806714Y-33759142D01*
X17692666Y-41250142D02*
X17740285Y-41297761D01*
X17883142Y-41345380D01*
X17978380Y-41345380D01*
X18121238Y-41297761D01*
X18216476Y-41202523D01*
X18264095Y-41107285D01*
X18311714Y-40916809D01*
X18311714Y-40773952D01*
X18264095Y-40583476D01*
X18216476Y-40488238D01*
X18121238Y-40393000D01*
X17978380Y-40345380D01*
X17883142Y-40345380D01*
X17740285Y-40393000D01*
X17692666Y-40440619D01*
X16835523Y-40678714D02*
X16835523Y-41345380D01*
X17073619Y-40297761D02*
X17311714Y-41012047D01*
X16692666Y-41012047D01*
X36426142Y-33693833D02*
X36473761Y-33646214D01*
X36521380Y-33503357D01*
X36521380Y-33408119D01*
X36473761Y-33265261D01*
X36378523Y-33170023D01*
X36283285Y-33122404D01*
X36092809Y-33074785D01*
X35949952Y-33074785D01*
X35759476Y-33122404D01*
X35664238Y-33170023D01*
X35569000Y-33265261D01*
X35521380Y-33408119D01*
X35521380Y-33503357D01*
X35569000Y-33646214D01*
X35616619Y-33693833D01*
X35521380Y-34027166D02*
X35521380Y-34646214D01*
X35902333Y-34312880D01*
X35902333Y-34455738D01*
X35949952Y-34550976D01*
X35997571Y-34598595D01*
X36092809Y-34646214D01*
X36330904Y-34646214D01*
X36426142Y-34598595D01*
X36473761Y-34550976D01*
X36521380Y-34455738D01*
X36521380Y-34170023D01*
X36473761Y-34074785D01*
X36426142Y-34027166D01*
X32805666Y-49251142D02*
X32853285Y-49298761D01*
X32996142Y-49346380D01*
X33091380Y-49346380D01*
X33234238Y-49298761D01*
X33329476Y-49203523D01*
X33377095Y-49108285D01*
X33424714Y-48917809D01*
X33424714Y-48774952D01*
X33377095Y-48584476D01*
X33329476Y-48489238D01*
X33234238Y-48394000D01*
X33091380Y-48346380D01*
X32996142Y-48346380D01*
X32853285Y-48394000D01*
X32805666Y-48441619D01*
X32424714Y-48441619D02*
X32377095Y-48394000D01*
X32281857Y-48346380D01*
X32043761Y-48346380D01*
X31948523Y-48394000D01*
X31900904Y-48441619D01*
X31853285Y-48536857D01*
X31853285Y-48632095D01*
X31900904Y-48774952D01*
X32472333Y-49346380D01*
X31853285Y-49346380D01*
X23994166Y-28171142D02*
X24041785Y-28218761D01*
X24184642Y-28266380D01*
X24279880Y-28266380D01*
X24422738Y-28218761D01*
X24517976Y-28123523D01*
X24565595Y-28028285D01*
X24613214Y-27837809D01*
X24613214Y-27694952D01*
X24565595Y-27504476D01*
X24517976Y-27409238D01*
X24422738Y-27314000D01*
X24279880Y-27266380D01*
X24184642Y-27266380D01*
X24041785Y-27314000D01*
X23994166Y-27361619D01*
X23041785Y-28266380D02*
X23613214Y-28266380D01*
X23327500Y-28266380D02*
X23327500Y-27266380D01*
X23422738Y-27409238D01*
X23517976Y-27504476D01*
X23613214Y-27552095D01*
X20502380Y-8905952D02*
X19502380Y-8905952D01*
X19502380Y-9144047D01*
X19550000Y-9286904D01*
X19645238Y-9382142D01*
X19740476Y-9429761D01*
X19930952Y-9477380D01*
X20073809Y-9477380D01*
X20264285Y-9429761D01*
X20359523Y-9382142D01*
X20454761Y-9286904D01*
X20502380Y-9144047D01*
X20502380Y-8905952D01*
X20597619Y-9667857D02*
X20597619Y-10429761D01*
X20502380Y-11191666D02*
X20502380Y-10620238D01*
X20502380Y-10905952D02*
X19502380Y-10905952D01*
X19645238Y-10810714D01*
X19740476Y-10715476D01*
X19788095Y-10620238D01*
X39552380Y-8905952D02*
X38552380Y-8905952D01*
X38552380Y-9144047D01*
X38600000Y-9286904D01*
X38695238Y-9382142D01*
X38790476Y-9429761D01*
X38980952Y-9477380D01*
X39123809Y-9477380D01*
X39314285Y-9429761D01*
X39409523Y-9382142D01*
X39504761Y-9286904D01*
X39552380Y-9144047D01*
X39552380Y-8905952D01*
X39647619Y-9667857D02*
X39647619Y-10429761D01*
X38647619Y-10620238D02*
X38600000Y-10667857D01*
X38552380Y-10763095D01*
X38552380Y-11001190D01*
X38600000Y-11096428D01*
X38647619Y-11144047D01*
X38742857Y-11191666D01*
X38838095Y-11191666D01*
X38980952Y-11144047D01*
X39552380Y-10572619D01*
X39552380Y-11191666D01*
X58602380Y-8905952D02*
X57602380Y-8905952D01*
X57602380Y-9144047D01*
X57650000Y-9286904D01*
X57745238Y-9382142D01*
X57840476Y-9429761D01*
X58030952Y-9477380D01*
X58173809Y-9477380D01*
X58364285Y-9429761D01*
X58459523Y-9382142D01*
X58554761Y-9286904D01*
X58602380Y-9144047D01*
X58602380Y-8905952D01*
X58697619Y-9667857D02*
X58697619Y-10429761D01*
X57602380Y-10572619D02*
X57602380Y-11191666D01*
X57983333Y-10858333D01*
X57983333Y-11001190D01*
X58030952Y-11096428D01*
X58078571Y-11144047D01*
X58173809Y-11191666D01*
X58411904Y-11191666D01*
X58507142Y-11144047D01*
X58554761Y-11096428D01*
X58602380Y-11001190D01*
X58602380Y-10715476D01*
X58554761Y-10620238D01*
X58507142Y-10572619D01*
X77652380Y-8905952D02*
X76652380Y-8905952D01*
X76652380Y-9144047D01*
X76700000Y-9286904D01*
X76795238Y-9382142D01*
X76890476Y-9429761D01*
X77080952Y-9477380D01*
X77223809Y-9477380D01*
X77414285Y-9429761D01*
X77509523Y-9382142D01*
X77604761Y-9286904D01*
X77652380Y-9144047D01*
X77652380Y-8905952D01*
X77747619Y-9667857D02*
X77747619Y-10429761D01*
X76985714Y-11096428D02*
X77652380Y-11096428D01*
X76604761Y-10858333D02*
X77319047Y-10620238D01*
X77319047Y-11239285D01*
X96702380Y-8905952D02*
X95702380Y-8905952D01*
X95702380Y-9144047D01*
X95750000Y-9286904D01*
X95845238Y-9382142D01*
X95940476Y-9429761D01*
X96130952Y-9477380D01*
X96273809Y-9477380D01*
X96464285Y-9429761D01*
X96559523Y-9382142D01*
X96654761Y-9286904D01*
X96702380Y-9144047D01*
X96702380Y-8905952D01*
X96797619Y-9667857D02*
X96797619Y-10429761D01*
X95702380Y-11144047D02*
X95702380Y-10667857D01*
X96178571Y-10620238D01*
X96130952Y-10667857D01*
X96083333Y-10763095D01*
X96083333Y-11001190D01*
X96130952Y-11096428D01*
X96178571Y-11144047D01*
X96273809Y-11191666D01*
X96511904Y-11191666D01*
X96607142Y-11144047D01*
X96654761Y-11096428D01*
X96702380Y-11001190D01*
X96702380Y-10763095D01*
X96654761Y-10667857D01*
X96607142Y-10620238D01*
X115752380Y-8905952D02*
X114752380Y-8905952D01*
X114752380Y-9144047D01*
X114800000Y-9286904D01*
X114895238Y-9382142D01*
X114990476Y-9429761D01*
X115180952Y-9477380D01*
X115323809Y-9477380D01*
X115514285Y-9429761D01*
X115609523Y-9382142D01*
X115704761Y-9286904D01*
X115752380Y-9144047D01*
X115752380Y-8905952D01*
X115847619Y-9667857D02*
X115847619Y-10429761D01*
X114752380Y-11096428D02*
X114752380Y-10905952D01*
X114800000Y-10810714D01*
X114847619Y-10763095D01*
X114990476Y-10667857D01*
X115180952Y-10620238D01*
X115561904Y-10620238D01*
X115657142Y-10667857D01*
X115704761Y-10715476D01*
X115752380Y-10810714D01*
X115752380Y-11001190D01*
X115704761Y-11096428D01*
X115657142Y-11144047D01*
X115561904Y-11191666D01*
X115323809Y-11191666D01*
X115228571Y-11144047D01*
X115180952Y-11096428D01*
X115133333Y-11001190D01*
X115133333Y-10810714D01*
X115180952Y-10715476D01*
X115228571Y-10667857D01*
X115323809Y-10620238D01*
X134802380Y-8905952D02*
X133802380Y-8905952D01*
X133802380Y-9144047D01*
X133850000Y-9286904D01*
X133945238Y-9382142D01*
X134040476Y-9429761D01*
X134230952Y-9477380D01*
X134373809Y-9477380D01*
X134564285Y-9429761D01*
X134659523Y-9382142D01*
X134754761Y-9286904D01*
X134802380Y-9144047D01*
X134802380Y-8905952D01*
X134897619Y-9667857D02*
X134897619Y-10429761D01*
X133802380Y-10572619D02*
X133802380Y-11239285D01*
X134802380Y-10810714D01*
X153852380Y-8905952D02*
X152852380Y-8905952D01*
X152852380Y-9144047D01*
X152900000Y-9286904D01*
X152995238Y-9382142D01*
X153090476Y-9429761D01*
X153280952Y-9477380D01*
X153423809Y-9477380D01*
X153614285Y-9429761D01*
X153709523Y-9382142D01*
X153804761Y-9286904D01*
X153852380Y-9144047D01*
X153852380Y-8905952D01*
X153947619Y-9667857D02*
X153947619Y-10429761D01*
X153280952Y-10810714D02*
X153233333Y-10715476D01*
X153185714Y-10667857D01*
X153090476Y-10620238D01*
X153042857Y-10620238D01*
X152947619Y-10667857D01*
X152900000Y-10715476D01*
X152852380Y-10810714D01*
X152852380Y-11001190D01*
X152900000Y-11096428D01*
X152947619Y-11144047D01*
X153042857Y-11191666D01*
X153090476Y-11191666D01*
X153185714Y-11144047D01*
X153233333Y-11096428D01*
X153280952Y-11001190D01*
X153280952Y-10810714D01*
X153328571Y-10715476D01*
X153376190Y-10667857D01*
X153471428Y-10620238D01*
X153661904Y-10620238D01*
X153757142Y-10667857D01*
X153804761Y-10715476D01*
X153852380Y-10810714D01*
X153852380Y-11001190D01*
X153804761Y-11096428D01*
X153757142Y-11144047D01*
X153661904Y-11191666D01*
X153471428Y-11191666D01*
X153376190Y-11144047D01*
X153328571Y-11096428D01*
X153280952Y-11001190D01*
X172902380Y-8905952D02*
X171902380Y-8905952D01*
X171902380Y-9144047D01*
X171950000Y-9286904D01*
X172045238Y-9382142D01*
X172140476Y-9429761D01*
X172330952Y-9477380D01*
X172473809Y-9477380D01*
X172664285Y-9429761D01*
X172759523Y-9382142D01*
X172854761Y-9286904D01*
X172902380Y-9144047D01*
X172902380Y-8905952D01*
X172997619Y-9667857D02*
X172997619Y-10429761D01*
X172902380Y-10715476D02*
X172902380Y-10905952D01*
X172854761Y-11001190D01*
X172807142Y-11048809D01*
X172664285Y-11144047D01*
X172473809Y-11191666D01*
X172092857Y-11191666D01*
X171997619Y-11144047D01*
X171950000Y-11096428D01*
X171902380Y-11001190D01*
X171902380Y-10810714D01*
X171950000Y-10715476D01*
X171997619Y-10667857D01*
X172092857Y-10620238D01*
X172330952Y-10620238D01*
X172426190Y-10667857D01*
X172473809Y-10715476D01*
X172521428Y-10810714D01*
X172521428Y-11001190D01*
X172473809Y-11096428D01*
X172426190Y-11144047D01*
X172330952Y-11191666D01*
X191952380Y-8429761D02*
X190952380Y-8429761D01*
X190952380Y-8667857D01*
X191000000Y-8810714D01*
X191095238Y-8905952D01*
X191190476Y-8953571D01*
X191380952Y-9001190D01*
X191523809Y-9001190D01*
X191714285Y-8953571D01*
X191809523Y-8905952D01*
X191904761Y-8810714D01*
X191952380Y-8667857D01*
X191952380Y-8429761D01*
X192047619Y-9191666D02*
X192047619Y-9953571D01*
X191952380Y-10715476D02*
X191952380Y-10144047D01*
X191952380Y-10429761D02*
X190952380Y-10429761D01*
X191095238Y-10334523D01*
X191190476Y-10239285D01*
X191238095Y-10144047D01*
X190952380Y-11334523D02*
X190952380Y-11429761D01*
X191000000Y-11525000D01*
X191047619Y-11572619D01*
X191142857Y-11620238D01*
X191333333Y-11667857D01*
X191571428Y-11667857D01*
X191761904Y-11620238D01*
X191857142Y-11572619D01*
X191904761Y-11525000D01*
X191952380Y-11429761D01*
X191952380Y-11334523D01*
X191904761Y-11239285D01*
X191857142Y-11191666D01*
X191761904Y-11144047D01*
X191571428Y-11096428D01*
X191333333Y-11096428D01*
X191142857Y-11144047D01*
X191047619Y-11191666D01*
X191000000Y-11239285D01*
X190952380Y-11334523D01*
X211002380Y-8429761D02*
X210002380Y-8429761D01*
X210002380Y-8667857D01*
X210050000Y-8810714D01*
X210145238Y-8905952D01*
X210240476Y-8953571D01*
X210430952Y-9001190D01*
X210573809Y-9001190D01*
X210764285Y-8953571D01*
X210859523Y-8905952D01*
X210954761Y-8810714D01*
X211002380Y-8667857D01*
X211002380Y-8429761D01*
X211097619Y-9191666D02*
X211097619Y-9953571D01*
X211002380Y-10715476D02*
X211002380Y-10144047D01*
X211002380Y-10429761D02*
X210002380Y-10429761D01*
X210145238Y-10334523D01*
X210240476Y-10239285D01*
X210288095Y-10144047D01*
X211002380Y-11667857D02*
X211002380Y-11096428D01*
X211002380Y-11382142D02*
X210002380Y-11382142D01*
X210145238Y-11286904D01*
X210240476Y-11191666D01*
X210288095Y-11096428D01*
X230052380Y-8429761D02*
X229052380Y-8429761D01*
X229052380Y-8667857D01*
X229100000Y-8810714D01*
X229195238Y-8905952D01*
X229290476Y-8953571D01*
X229480952Y-9001190D01*
X229623809Y-9001190D01*
X229814285Y-8953571D01*
X229909523Y-8905952D01*
X230004761Y-8810714D01*
X230052380Y-8667857D01*
X230052380Y-8429761D01*
X230147619Y-9191666D02*
X230147619Y-9953571D01*
X230052380Y-10715476D02*
X230052380Y-10144047D01*
X230052380Y-10429761D02*
X229052380Y-10429761D01*
X229195238Y-10334523D01*
X229290476Y-10239285D01*
X229338095Y-10144047D01*
X229147619Y-11096428D02*
X229100000Y-11144047D01*
X229052380Y-11239285D01*
X229052380Y-11477380D01*
X229100000Y-11572619D01*
X229147619Y-11620238D01*
X229242857Y-11667857D01*
X229338095Y-11667857D01*
X229480952Y-11620238D01*
X230052380Y-11048809D01*
X230052380Y-11667857D01*
X232449380Y-8437761D02*
X231449380Y-8437761D01*
X231449380Y-8675857D01*
X231497000Y-8818714D01*
X231592238Y-8913952D01*
X231687476Y-8961571D01*
X231877952Y-9009190D01*
X232020809Y-9009190D01*
X232211285Y-8961571D01*
X232306523Y-8913952D01*
X232401761Y-8818714D01*
X232449380Y-8675857D01*
X232449380Y-8437761D01*
X232544619Y-9199666D02*
X232544619Y-9961571D01*
X232449380Y-10723476D02*
X232449380Y-10152047D01*
X232449380Y-10437761D02*
X231449380Y-10437761D01*
X231592238Y-10342523D01*
X231687476Y-10247285D01*
X231735095Y-10152047D01*
X231449380Y-11056809D02*
X231449380Y-11675857D01*
X231830333Y-11342523D01*
X231830333Y-11485380D01*
X231877952Y-11580619D01*
X231925571Y-11628238D01*
X232020809Y-11675857D01*
X232258904Y-11675857D01*
X232354142Y-11628238D01*
X232401761Y-11580619D01*
X232449380Y-11485380D01*
X232449380Y-11199666D01*
X232401761Y-11104428D01*
X232354142Y-11056809D01*
X251372380Y-8437761D02*
X250372380Y-8437761D01*
X250372380Y-8675857D01*
X250420000Y-8818714D01*
X250515238Y-8913952D01*
X250610476Y-8961571D01*
X250800952Y-9009190D01*
X250943809Y-9009190D01*
X251134285Y-8961571D01*
X251229523Y-8913952D01*
X251324761Y-8818714D01*
X251372380Y-8675857D01*
X251372380Y-8437761D01*
X251467619Y-9199666D02*
X251467619Y-9961571D01*
X251372380Y-10723476D02*
X251372380Y-10152047D01*
X251372380Y-10437761D02*
X250372380Y-10437761D01*
X250515238Y-10342523D01*
X250610476Y-10247285D01*
X250658095Y-10152047D01*
X250705714Y-11580619D02*
X251372380Y-11580619D01*
X250324761Y-11342523D02*
X251039047Y-11104428D01*
X251039047Y-11723476D01*
X248705380Y-8436761D02*
X247705380Y-8436761D01*
X247705380Y-8674857D01*
X247753000Y-8817714D01*
X247848238Y-8912952D01*
X247943476Y-8960571D01*
X248133952Y-9008190D01*
X248276809Y-9008190D01*
X248467285Y-8960571D01*
X248562523Y-8912952D01*
X248657761Y-8817714D01*
X248705380Y-8674857D01*
X248705380Y-8436761D01*
X248800619Y-9198666D02*
X248800619Y-9960571D01*
X248705380Y-10722476D02*
X248705380Y-10151047D01*
X248705380Y-10436761D02*
X247705380Y-10436761D01*
X247848238Y-10341523D01*
X247943476Y-10246285D01*
X247991095Y-10151047D01*
X247705380Y-11627238D02*
X247705380Y-11151047D01*
X248181571Y-11103428D01*
X248133952Y-11151047D01*
X248086333Y-11246285D01*
X248086333Y-11484380D01*
X248133952Y-11579619D01*
X248181571Y-11627238D01*
X248276809Y-11674857D01*
X248514904Y-11674857D01*
X248610142Y-11627238D01*
X248657761Y-11579619D01*
X248705380Y-11484380D01*
X248705380Y-11246285D01*
X248657761Y-11151047D01*
X248610142Y-11103428D01*
X8802380Y-27479761D02*
X7802380Y-27479761D01*
X7802380Y-27717857D01*
X7850000Y-27860714D01*
X7945238Y-27955952D01*
X8040476Y-28003571D01*
X8230952Y-28051190D01*
X8373809Y-28051190D01*
X8564285Y-28003571D01*
X8659523Y-27955952D01*
X8754761Y-27860714D01*
X8802380Y-27717857D01*
X8802380Y-27479761D01*
X8897619Y-28241666D02*
X8897619Y-29003571D01*
X8802380Y-29765476D02*
X8802380Y-29194047D01*
X8802380Y-29479761D02*
X7802380Y-29479761D01*
X7945238Y-29384523D01*
X8040476Y-29289285D01*
X8088095Y-29194047D01*
X7802380Y-30622619D02*
X7802380Y-30432142D01*
X7850000Y-30336904D01*
X7897619Y-30289285D01*
X8040476Y-30194047D01*
X8230952Y-30146428D01*
X8611904Y-30146428D01*
X8707142Y-30194047D01*
X8754761Y-30241666D01*
X8802380Y-30336904D01*
X8802380Y-30527380D01*
X8754761Y-30622619D01*
X8707142Y-30670238D01*
X8611904Y-30717857D01*
X8373809Y-30717857D01*
X8278571Y-30670238D01*
X8230952Y-30622619D01*
X8183333Y-30527380D01*
X8183333Y-30336904D01*
X8230952Y-30241666D01*
X8278571Y-30194047D01*
X8373809Y-30146428D01*
X49077380Y-27479761D02*
X48077380Y-27479761D01*
X48077380Y-27717857D01*
X48125000Y-27860714D01*
X48220238Y-27955952D01*
X48315476Y-28003571D01*
X48505952Y-28051190D01*
X48648809Y-28051190D01*
X48839285Y-28003571D01*
X48934523Y-27955952D01*
X49029761Y-27860714D01*
X49077380Y-27717857D01*
X49077380Y-27479761D01*
X49172619Y-28241666D02*
X49172619Y-29003571D01*
X49077380Y-29765476D02*
X49077380Y-29194047D01*
X49077380Y-29479761D02*
X48077380Y-29479761D01*
X48220238Y-29384523D01*
X48315476Y-29289285D01*
X48363095Y-29194047D01*
X48077380Y-30098809D02*
X48077380Y-30765476D01*
X49077380Y-30336904D01*
X68127380Y-27479761D02*
X67127380Y-27479761D01*
X67127380Y-27717857D01*
X67175000Y-27860714D01*
X67270238Y-27955952D01*
X67365476Y-28003571D01*
X67555952Y-28051190D01*
X67698809Y-28051190D01*
X67889285Y-28003571D01*
X67984523Y-27955952D01*
X68079761Y-27860714D01*
X68127380Y-27717857D01*
X68127380Y-27479761D01*
X68222619Y-28241666D02*
X68222619Y-29003571D01*
X68127380Y-29765476D02*
X68127380Y-29194047D01*
X68127380Y-29479761D02*
X67127380Y-29479761D01*
X67270238Y-29384523D01*
X67365476Y-29289285D01*
X67413095Y-29194047D01*
X67555952Y-30336904D02*
X67508333Y-30241666D01*
X67460714Y-30194047D01*
X67365476Y-30146428D01*
X67317857Y-30146428D01*
X67222619Y-30194047D01*
X67175000Y-30241666D01*
X67127380Y-30336904D01*
X67127380Y-30527380D01*
X67175000Y-30622619D01*
X67222619Y-30670238D01*
X67317857Y-30717857D01*
X67365476Y-30717857D01*
X67460714Y-30670238D01*
X67508333Y-30622619D01*
X67555952Y-30527380D01*
X67555952Y-30336904D01*
X67603571Y-30241666D01*
X67651190Y-30194047D01*
X67746428Y-30146428D01*
X67936904Y-30146428D01*
X68032142Y-30194047D01*
X68079761Y-30241666D01*
X68127380Y-30336904D01*
X68127380Y-30527380D01*
X68079761Y-30622619D01*
X68032142Y-30670238D01*
X67936904Y-30717857D01*
X67746428Y-30717857D01*
X67651190Y-30670238D01*
X67603571Y-30622619D01*
X67555952Y-30527380D01*
X87177380Y-27479761D02*
X86177380Y-27479761D01*
X86177380Y-27717857D01*
X86225000Y-27860714D01*
X86320238Y-27955952D01*
X86415476Y-28003571D01*
X86605952Y-28051190D01*
X86748809Y-28051190D01*
X86939285Y-28003571D01*
X87034523Y-27955952D01*
X87129761Y-27860714D01*
X87177380Y-27717857D01*
X87177380Y-27479761D01*
X87272619Y-28241666D02*
X87272619Y-29003571D01*
X87177380Y-29765476D02*
X87177380Y-29194047D01*
X87177380Y-29479761D02*
X86177380Y-29479761D01*
X86320238Y-29384523D01*
X86415476Y-29289285D01*
X86463095Y-29194047D01*
X87177380Y-30241666D02*
X87177380Y-30432142D01*
X87129761Y-30527380D01*
X87082142Y-30575000D01*
X86939285Y-30670238D01*
X86748809Y-30717857D01*
X86367857Y-30717857D01*
X86272619Y-30670238D01*
X86225000Y-30622619D01*
X86177380Y-30527380D01*
X86177380Y-30336904D01*
X86225000Y-30241666D01*
X86272619Y-30194047D01*
X86367857Y-30146428D01*
X86605952Y-30146428D01*
X86701190Y-30194047D01*
X86748809Y-30241666D01*
X86796428Y-30336904D01*
X86796428Y-30527380D01*
X86748809Y-30622619D01*
X86701190Y-30670238D01*
X86605952Y-30717857D01*
X106227380Y-27479761D02*
X105227380Y-27479761D01*
X105227380Y-27717857D01*
X105275000Y-27860714D01*
X105370238Y-27955952D01*
X105465476Y-28003571D01*
X105655952Y-28051190D01*
X105798809Y-28051190D01*
X105989285Y-28003571D01*
X106084523Y-27955952D01*
X106179761Y-27860714D01*
X106227380Y-27717857D01*
X106227380Y-27479761D01*
X106322619Y-28241666D02*
X106322619Y-29003571D01*
X105322619Y-29194047D02*
X105275000Y-29241666D01*
X105227380Y-29336904D01*
X105227380Y-29575000D01*
X105275000Y-29670238D01*
X105322619Y-29717857D01*
X105417857Y-29765476D01*
X105513095Y-29765476D01*
X105655952Y-29717857D01*
X106227380Y-29146428D01*
X106227380Y-29765476D01*
X105227380Y-30384523D02*
X105227380Y-30479761D01*
X105275000Y-30575000D01*
X105322619Y-30622619D01*
X105417857Y-30670238D01*
X105608333Y-30717857D01*
X105846428Y-30717857D01*
X106036904Y-30670238D01*
X106132142Y-30622619D01*
X106179761Y-30575000D01*
X106227380Y-30479761D01*
X106227380Y-30384523D01*
X106179761Y-30289285D01*
X106132142Y-30241666D01*
X106036904Y-30194047D01*
X105846428Y-30146428D01*
X105608333Y-30146428D01*
X105417857Y-30194047D01*
X105322619Y-30241666D01*
X105275000Y-30289285D01*
X105227380Y-30384523D01*
X125277380Y-27479761D02*
X124277380Y-27479761D01*
X124277380Y-27717857D01*
X124325000Y-27860714D01*
X124420238Y-27955952D01*
X124515476Y-28003571D01*
X124705952Y-28051190D01*
X124848809Y-28051190D01*
X125039285Y-28003571D01*
X125134523Y-27955952D01*
X125229761Y-27860714D01*
X125277380Y-27717857D01*
X125277380Y-27479761D01*
X125372619Y-28241666D02*
X125372619Y-29003571D01*
X124372619Y-29194047D02*
X124325000Y-29241666D01*
X124277380Y-29336904D01*
X124277380Y-29575000D01*
X124325000Y-29670238D01*
X124372619Y-29717857D01*
X124467857Y-29765476D01*
X124563095Y-29765476D01*
X124705952Y-29717857D01*
X125277380Y-29146428D01*
X125277380Y-29765476D01*
X125277380Y-30717857D02*
X125277380Y-30146428D01*
X125277380Y-30432142D02*
X124277380Y-30432142D01*
X124420238Y-30336904D01*
X124515476Y-30241666D01*
X124563095Y-30146428D01*
X144327380Y-27479761D02*
X143327380Y-27479761D01*
X143327380Y-27717857D01*
X143375000Y-27860714D01*
X143470238Y-27955952D01*
X143565476Y-28003571D01*
X143755952Y-28051190D01*
X143898809Y-28051190D01*
X144089285Y-28003571D01*
X144184523Y-27955952D01*
X144279761Y-27860714D01*
X144327380Y-27717857D01*
X144327380Y-27479761D01*
X144422619Y-28241666D02*
X144422619Y-29003571D01*
X143422619Y-29194047D02*
X143375000Y-29241666D01*
X143327380Y-29336904D01*
X143327380Y-29575000D01*
X143375000Y-29670238D01*
X143422619Y-29717857D01*
X143517857Y-29765476D01*
X143613095Y-29765476D01*
X143755952Y-29717857D01*
X144327380Y-29146428D01*
X144327380Y-29765476D01*
X143422619Y-30146428D02*
X143375000Y-30194047D01*
X143327380Y-30289285D01*
X143327380Y-30527380D01*
X143375000Y-30622619D01*
X143422619Y-30670238D01*
X143517857Y-30717857D01*
X143613095Y-30717857D01*
X143755952Y-30670238D01*
X144327380Y-30098809D01*
X144327380Y-30717857D01*
X163377380Y-27479761D02*
X162377380Y-27479761D01*
X162377380Y-27717857D01*
X162425000Y-27860714D01*
X162520238Y-27955952D01*
X162615476Y-28003571D01*
X162805952Y-28051190D01*
X162948809Y-28051190D01*
X163139285Y-28003571D01*
X163234523Y-27955952D01*
X163329761Y-27860714D01*
X163377380Y-27717857D01*
X163377380Y-27479761D01*
X163472619Y-28241666D02*
X163472619Y-29003571D01*
X162472619Y-29194047D02*
X162425000Y-29241666D01*
X162377380Y-29336904D01*
X162377380Y-29575000D01*
X162425000Y-29670238D01*
X162472619Y-29717857D01*
X162567857Y-29765476D01*
X162663095Y-29765476D01*
X162805952Y-29717857D01*
X163377380Y-29146428D01*
X163377380Y-29765476D01*
X162377380Y-30098809D02*
X162377380Y-30717857D01*
X162758333Y-30384523D01*
X162758333Y-30527380D01*
X162805952Y-30622619D01*
X162853571Y-30670238D01*
X162948809Y-30717857D01*
X163186904Y-30717857D01*
X163282142Y-30670238D01*
X163329761Y-30622619D01*
X163377380Y-30527380D01*
X163377380Y-30241666D01*
X163329761Y-30146428D01*
X163282142Y-30098809D01*
X182427380Y-27479761D02*
X181427380Y-27479761D01*
X181427380Y-27717857D01*
X181475000Y-27860714D01*
X181570238Y-27955952D01*
X181665476Y-28003571D01*
X181855952Y-28051190D01*
X181998809Y-28051190D01*
X182189285Y-28003571D01*
X182284523Y-27955952D01*
X182379761Y-27860714D01*
X182427380Y-27717857D01*
X182427380Y-27479761D01*
X182522619Y-28241666D02*
X182522619Y-29003571D01*
X181522619Y-29194047D02*
X181475000Y-29241666D01*
X181427380Y-29336904D01*
X181427380Y-29575000D01*
X181475000Y-29670238D01*
X181522619Y-29717857D01*
X181617857Y-29765476D01*
X181713095Y-29765476D01*
X181855952Y-29717857D01*
X182427380Y-29146428D01*
X182427380Y-29765476D01*
X181760714Y-30622619D02*
X182427380Y-30622619D01*
X181379761Y-30384523D02*
X182094047Y-30146428D01*
X182094047Y-30765476D01*
X201477380Y-27479761D02*
X200477380Y-27479761D01*
X200477380Y-27717857D01*
X200525000Y-27860714D01*
X200620238Y-27955952D01*
X200715476Y-28003571D01*
X200905952Y-28051190D01*
X201048809Y-28051190D01*
X201239285Y-28003571D01*
X201334523Y-27955952D01*
X201429761Y-27860714D01*
X201477380Y-27717857D01*
X201477380Y-27479761D01*
X201572619Y-28241666D02*
X201572619Y-29003571D01*
X200572619Y-29194047D02*
X200525000Y-29241666D01*
X200477380Y-29336904D01*
X200477380Y-29575000D01*
X200525000Y-29670238D01*
X200572619Y-29717857D01*
X200667857Y-29765476D01*
X200763095Y-29765476D01*
X200905952Y-29717857D01*
X201477380Y-29146428D01*
X201477380Y-29765476D01*
X200477380Y-30670238D02*
X200477380Y-30194047D01*
X200953571Y-30146428D01*
X200905952Y-30194047D01*
X200858333Y-30289285D01*
X200858333Y-30527380D01*
X200905952Y-30622619D01*
X200953571Y-30670238D01*
X201048809Y-30717857D01*
X201286904Y-30717857D01*
X201382142Y-30670238D01*
X201429761Y-30622619D01*
X201477380Y-30527380D01*
X201477380Y-30289285D01*
X201429761Y-30194047D01*
X201382142Y-30146428D01*
X220527380Y-27479761D02*
X219527380Y-27479761D01*
X219527380Y-27717857D01*
X219575000Y-27860714D01*
X219670238Y-27955952D01*
X219765476Y-28003571D01*
X219955952Y-28051190D01*
X220098809Y-28051190D01*
X220289285Y-28003571D01*
X220384523Y-27955952D01*
X220479761Y-27860714D01*
X220527380Y-27717857D01*
X220527380Y-27479761D01*
X220622619Y-28241666D02*
X220622619Y-29003571D01*
X219622619Y-29194047D02*
X219575000Y-29241666D01*
X219527380Y-29336904D01*
X219527380Y-29575000D01*
X219575000Y-29670238D01*
X219622619Y-29717857D01*
X219717857Y-29765476D01*
X219813095Y-29765476D01*
X219955952Y-29717857D01*
X220527380Y-29146428D01*
X220527380Y-29765476D01*
X219527380Y-30622619D02*
X219527380Y-30432142D01*
X219575000Y-30336904D01*
X219622619Y-30289285D01*
X219765476Y-30194047D01*
X219955952Y-30146428D01*
X220336904Y-30146428D01*
X220432142Y-30194047D01*
X220479761Y-30241666D01*
X220527380Y-30336904D01*
X220527380Y-30527380D01*
X220479761Y-30622619D01*
X220432142Y-30670238D01*
X220336904Y-30717857D01*
X220098809Y-30717857D01*
X220003571Y-30670238D01*
X219955952Y-30622619D01*
X219908333Y-30527380D01*
X219908333Y-30336904D01*
X219955952Y-30241666D01*
X220003571Y-30194047D01*
X220098809Y-30146428D01*
X239577380Y-27479761D02*
X238577380Y-27479761D01*
X238577380Y-27717857D01*
X238625000Y-27860714D01*
X238720238Y-27955952D01*
X238815476Y-28003571D01*
X239005952Y-28051190D01*
X239148809Y-28051190D01*
X239339285Y-28003571D01*
X239434523Y-27955952D01*
X239529761Y-27860714D01*
X239577380Y-27717857D01*
X239577380Y-27479761D01*
X239672619Y-28241666D02*
X239672619Y-29003571D01*
X238672619Y-29194047D02*
X238625000Y-29241666D01*
X238577380Y-29336904D01*
X238577380Y-29575000D01*
X238625000Y-29670238D01*
X238672619Y-29717857D01*
X238767857Y-29765476D01*
X238863095Y-29765476D01*
X239005952Y-29717857D01*
X239577380Y-29146428D01*
X239577380Y-29765476D01*
X238577380Y-30098809D02*
X238577380Y-30765476D01*
X239577380Y-30336904D01*
X258627380Y-27479761D02*
X257627380Y-27479761D01*
X257627380Y-27717857D01*
X257675000Y-27860714D01*
X257770238Y-27955952D01*
X257865476Y-28003571D01*
X258055952Y-28051190D01*
X258198809Y-28051190D01*
X258389285Y-28003571D01*
X258484523Y-27955952D01*
X258579761Y-27860714D01*
X258627380Y-27717857D01*
X258627380Y-27479761D01*
X258722619Y-28241666D02*
X258722619Y-29003571D01*
X257722619Y-29194047D02*
X257675000Y-29241666D01*
X257627380Y-29336904D01*
X257627380Y-29575000D01*
X257675000Y-29670238D01*
X257722619Y-29717857D01*
X257817857Y-29765476D01*
X257913095Y-29765476D01*
X258055952Y-29717857D01*
X258627380Y-29146428D01*
X258627380Y-29765476D01*
X258055952Y-30336904D02*
X258008333Y-30241666D01*
X257960714Y-30194047D01*
X257865476Y-30146428D01*
X257817857Y-30146428D01*
X257722619Y-30194047D01*
X257675000Y-30241666D01*
X257627380Y-30336904D01*
X257627380Y-30527380D01*
X257675000Y-30622619D01*
X257722619Y-30670238D01*
X257817857Y-30717857D01*
X257865476Y-30717857D01*
X257960714Y-30670238D01*
X258008333Y-30622619D01*
X258055952Y-30527380D01*
X258055952Y-30336904D01*
X258103571Y-30241666D01*
X258151190Y-30194047D01*
X258246428Y-30146428D01*
X258436904Y-30146428D01*
X258532142Y-30194047D01*
X258579761Y-30241666D01*
X258627380Y-30336904D01*
X258627380Y-30527380D01*
X258579761Y-30622619D01*
X258532142Y-30670238D01*
X258436904Y-30717857D01*
X258246428Y-30717857D01*
X258151190Y-30670238D01*
X258103571Y-30622619D01*
X258055952Y-30527380D01*
X265596380Y-27479761D02*
X264596380Y-27479761D01*
X264596380Y-27717857D01*
X264644000Y-27860714D01*
X264739238Y-27955952D01*
X264834476Y-28003571D01*
X265024952Y-28051190D01*
X265167809Y-28051190D01*
X265358285Y-28003571D01*
X265453523Y-27955952D01*
X265548761Y-27860714D01*
X265596380Y-27717857D01*
X265596380Y-27479761D01*
X265691619Y-28241666D02*
X265691619Y-29003571D01*
X264691619Y-29194047D02*
X264644000Y-29241666D01*
X264596380Y-29336904D01*
X264596380Y-29575000D01*
X264644000Y-29670238D01*
X264691619Y-29717857D01*
X264786857Y-29765476D01*
X264882095Y-29765476D01*
X265024952Y-29717857D01*
X265596380Y-29146428D01*
X265596380Y-29765476D01*
X265596380Y-30241666D02*
X265596380Y-30432142D01*
X265548761Y-30527380D01*
X265501142Y-30575000D01*
X265358285Y-30670238D01*
X265167809Y-30717857D01*
X264786857Y-30717857D01*
X264691619Y-30670238D01*
X264644000Y-30622619D01*
X264596380Y-30527380D01*
X264596380Y-30336904D01*
X264644000Y-30241666D01*
X264691619Y-30194047D01*
X264786857Y-30146428D01*
X265024952Y-30146428D01*
X265120190Y-30194047D01*
X265167809Y-30241666D01*
X265215428Y-30336904D01*
X265215428Y-30527380D01*
X265167809Y-30622619D01*
X265120190Y-30670238D01*
X265024952Y-30717857D01*
X27344380Y-46529761D02*
X26344380Y-46529761D01*
X26344380Y-46767857D01*
X26392000Y-46910714D01*
X26487238Y-47005952D01*
X26582476Y-47053571D01*
X26772952Y-47101190D01*
X26915809Y-47101190D01*
X27106285Y-47053571D01*
X27201523Y-47005952D01*
X27296761Y-46910714D01*
X27344380Y-46767857D01*
X27344380Y-46529761D01*
X27439619Y-47291666D02*
X27439619Y-48053571D01*
X26344380Y-48196428D02*
X26344380Y-48815476D01*
X26725333Y-48482142D01*
X26725333Y-48625000D01*
X26772952Y-48720238D01*
X26820571Y-48767857D01*
X26915809Y-48815476D01*
X27153904Y-48815476D01*
X27249142Y-48767857D01*
X27296761Y-48720238D01*
X27344380Y-48625000D01*
X27344380Y-48339285D01*
X27296761Y-48244047D01*
X27249142Y-48196428D01*
X26344380Y-49434523D02*
X26344380Y-49529761D01*
X26392000Y-49625000D01*
X26439619Y-49672619D01*
X26534857Y-49720238D01*
X26725333Y-49767857D01*
X26963428Y-49767857D01*
X27153904Y-49720238D01*
X27249142Y-49672619D01*
X27296761Y-49625000D01*
X27344380Y-49529761D01*
X27344380Y-49434523D01*
X27296761Y-49339285D01*
X27249142Y-49291666D01*
X27153904Y-49244047D01*
X26963428Y-49196428D01*
X26725333Y-49196428D01*
X26534857Y-49244047D01*
X26439619Y-49291666D01*
X26392000Y-49339285D01*
X26344380Y-49434523D01*
X53839880Y-46529761D02*
X52839880Y-46529761D01*
X52839880Y-46767857D01*
X52887500Y-46910714D01*
X52982738Y-47005952D01*
X53077976Y-47053571D01*
X53268452Y-47101190D01*
X53411309Y-47101190D01*
X53601785Y-47053571D01*
X53697023Y-47005952D01*
X53792261Y-46910714D01*
X53839880Y-46767857D01*
X53839880Y-46529761D01*
X53935119Y-47291666D02*
X53935119Y-48053571D01*
X52839880Y-48196428D02*
X52839880Y-48815476D01*
X53220833Y-48482142D01*
X53220833Y-48625000D01*
X53268452Y-48720238D01*
X53316071Y-48767857D01*
X53411309Y-48815476D01*
X53649404Y-48815476D01*
X53744642Y-48767857D01*
X53792261Y-48720238D01*
X53839880Y-48625000D01*
X53839880Y-48339285D01*
X53792261Y-48244047D01*
X53744642Y-48196428D01*
X53839880Y-49767857D02*
X53839880Y-49196428D01*
X53839880Y-49482142D02*
X52839880Y-49482142D01*
X52982738Y-49386904D01*
X53077976Y-49291666D01*
X53125595Y-49196428D01*
X72889880Y-46529761D02*
X71889880Y-46529761D01*
X71889880Y-46767857D01*
X71937500Y-46910714D01*
X72032738Y-47005952D01*
X72127976Y-47053571D01*
X72318452Y-47101190D01*
X72461309Y-47101190D01*
X72651785Y-47053571D01*
X72747023Y-47005952D01*
X72842261Y-46910714D01*
X72889880Y-46767857D01*
X72889880Y-46529761D01*
X72985119Y-47291666D02*
X72985119Y-48053571D01*
X71889880Y-48196428D02*
X71889880Y-48815476D01*
X72270833Y-48482142D01*
X72270833Y-48625000D01*
X72318452Y-48720238D01*
X72366071Y-48767857D01*
X72461309Y-48815476D01*
X72699404Y-48815476D01*
X72794642Y-48767857D01*
X72842261Y-48720238D01*
X72889880Y-48625000D01*
X72889880Y-48339285D01*
X72842261Y-48244047D01*
X72794642Y-48196428D01*
X71985119Y-49196428D02*
X71937500Y-49244047D01*
X71889880Y-49339285D01*
X71889880Y-49577380D01*
X71937500Y-49672619D01*
X71985119Y-49720238D01*
X72080357Y-49767857D01*
X72175595Y-49767857D01*
X72318452Y-49720238D01*
X72889880Y-49148809D01*
X72889880Y-49767857D01*
X91939880Y-46529761D02*
X90939880Y-46529761D01*
X90939880Y-46767857D01*
X90987500Y-46910714D01*
X91082738Y-47005952D01*
X91177976Y-47053571D01*
X91368452Y-47101190D01*
X91511309Y-47101190D01*
X91701785Y-47053571D01*
X91797023Y-47005952D01*
X91892261Y-46910714D01*
X91939880Y-46767857D01*
X91939880Y-46529761D01*
X92035119Y-47291666D02*
X92035119Y-48053571D01*
X90939880Y-48196428D02*
X90939880Y-48815476D01*
X91320833Y-48482142D01*
X91320833Y-48625000D01*
X91368452Y-48720238D01*
X91416071Y-48767857D01*
X91511309Y-48815476D01*
X91749404Y-48815476D01*
X91844642Y-48767857D01*
X91892261Y-48720238D01*
X91939880Y-48625000D01*
X91939880Y-48339285D01*
X91892261Y-48244047D01*
X91844642Y-48196428D01*
X90939880Y-49148809D02*
X90939880Y-49767857D01*
X91320833Y-49434523D01*
X91320833Y-49577380D01*
X91368452Y-49672619D01*
X91416071Y-49720238D01*
X91511309Y-49767857D01*
X91749404Y-49767857D01*
X91844642Y-49720238D01*
X91892261Y-49672619D01*
X91939880Y-49577380D01*
X91939880Y-49291666D01*
X91892261Y-49196428D01*
X91844642Y-49148809D01*
X110989880Y-46529761D02*
X109989880Y-46529761D01*
X109989880Y-46767857D01*
X110037500Y-46910714D01*
X110132738Y-47005952D01*
X110227976Y-47053571D01*
X110418452Y-47101190D01*
X110561309Y-47101190D01*
X110751785Y-47053571D01*
X110847023Y-47005952D01*
X110942261Y-46910714D01*
X110989880Y-46767857D01*
X110989880Y-46529761D01*
X111085119Y-47291666D02*
X111085119Y-48053571D01*
X109989880Y-48196428D02*
X109989880Y-48815476D01*
X110370833Y-48482142D01*
X110370833Y-48625000D01*
X110418452Y-48720238D01*
X110466071Y-48767857D01*
X110561309Y-48815476D01*
X110799404Y-48815476D01*
X110894642Y-48767857D01*
X110942261Y-48720238D01*
X110989880Y-48625000D01*
X110989880Y-48339285D01*
X110942261Y-48244047D01*
X110894642Y-48196428D01*
X110323214Y-49672619D02*
X110989880Y-49672619D01*
X109942261Y-49434523D02*
X110656547Y-49196428D01*
X110656547Y-49815476D01*
X130039880Y-46529761D02*
X129039880Y-46529761D01*
X129039880Y-46767857D01*
X129087500Y-46910714D01*
X129182738Y-47005952D01*
X129277976Y-47053571D01*
X129468452Y-47101190D01*
X129611309Y-47101190D01*
X129801785Y-47053571D01*
X129897023Y-47005952D01*
X129992261Y-46910714D01*
X130039880Y-46767857D01*
X130039880Y-46529761D01*
X130135119Y-47291666D02*
X130135119Y-48053571D01*
X129039880Y-48196428D02*
X129039880Y-48815476D01*
X129420833Y-48482142D01*
X129420833Y-48625000D01*
X129468452Y-48720238D01*
X129516071Y-48767857D01*
X129611309Y-48815476D01*
X129849404Y-48815476D01*
X129944642Y-48767857D01*
X129992261Y-48720238D01*
X130039880Y-48625000D01*
X130039880Y-48339285D01*
X129992261Y-48244047D01*
X129944642Y-48196428D01*
X129039880Y-49720238D02*
X129039880Y-49244047D01*
X129516071Y-49196428D01*
X129468452Y-49244047D01*
X129420833Y-49339285D01*
X129420833Y-49577380D01*
X129468452Y-49672619D01*
X129516071Y-49720238D01*
X129611309Y-49767857D01*
X129849404Y-49767857D01*
X129944642Y-49720238D01*
X129992261Y-49672619D01*
X130039880Y-49577380D01*
X130039880Y-49339285D01*
X129992261Y-49244047D01*
X129944642Y-49196428D01*
X149089880Y-46529761D02*
X148089880Y-46529761D01*
X148089880Y-46767857D01*
X148137500Y-46910714D01*
X148232738Y-47005952D01*
X148327976Y-47053571D01*
X148518452Y-47101190D01*
X148661309Y-47101190D01*
X148851785Y-47053571D01*
X148947023Y-47005952D01*
X149042261Y-46910714D01*
X149089880Y-46767857D01*
X149089880Y-46529761D01*
X149185119Y-47291666D02*
X149185119Y-48053571D01*
X148089880Y-48196428D02*
X148089880Y-48815476D01*
X148470833Y-48482142D01*
X148470833Y-48625000D01*
X148518452Y-48720238D01*
X148566071Y-48767857D01*
X148661309Y-48815476D01*
X148899404Y-48815476D01*
X148994642Y-48767857D01*
X149042261Y-48720238D01*
X149089880Y-48625000D01*
X149089880Y-48339285D01*
X149042261Y-48244047D01*
X148994642Y-48196428D01*
X148089880Y-49672619D02*
X148089880Y-49482142D01*
X148137500Y-49386904D01*
X148185119Y-49339285D01*
X148327976Y-49244047D01*
X148518452Y-49196428D01*
X148899404Y-49196428D01*
X148994642Y-49244047D01*
X149042261Y-49291666D01*
X149089880Y-49386904D01*
X149089880Y-49577380D01*
X149042261Y-49672619D01*
X148994642Y-49720238D01*
X148899404Y-49767857D01*
X148661309Y-49767857D01*
X148566071Y-49720238D01*
X148518452Y-49672619D01*
X148470833Y-49577380D01*
X148470833Y-49386904D01*
X148518452Y-49291666D01*
X148566071Y-49244047D01*
X148661309Y-49196428D01*
X168139880Y-46529761D02*
X167139880Y-46529761D01*
X167139880Y-46767857D01*
X167187500Y-46910714D01*
X167282738Y-47005952D01*
X167377976Y-47053571D01*
X167568452Y-47101190D01*
X167711309Y-47101190D01*
X167901785Y-47053571D01*
X167997023Y-47005952D01*
X168092261Y-46910714D01*
X168139880Y-46767857D01*
X168139880Y-46529761D01*
X168235119Y-47291666D02*
X168235119Y-48053571D01*
X167139880Y-48196428D02*
X167139880Y-48815476D01*
X167520833Y-48482142D01*
X167520833Y-48625000D01*
X167568452Y-48720238D01*
X167616071Y-48767857D01*
X167711309Y-48815476D01*
X167949404Y-48815476D01*
X168044642Y-48767857D01*
X168092261Y-48720238D01*
X168139880Y-48625000D01*
X168139880Y-48339285D01*
X168092261Y-48244047D01*
X168044642Y-48196428D01*
X167139880Y-49148809D02*
X167139880Y-49815476D01*
X168139880Y-49386904D01*
X187189880Y-46529761D02*
X186189880Y-46529761D01*
X186189880Y-46767857D01*
X186237500Y-46910714D01*
X186332738Y-47005952D01*
X186427976Y-47053571D01*
X186618452Y-47101190D01*
X186761309Y-47101190D01*
X186951785Y-47053571D01*
X187047023Y-47005952D01*
X187142261Y-46910714D01*
X187189880Y-46767857D01*
X187189880Y-46529761D01*
X187285119Y-47291666D02*
X187285119Y-48053571D01*
X186189880Y-48196428D02*
X186189880Y-48815476D01*
X186570833Y-48482142D01*
X186570833Y-48625000D01*
X186618452Y-48720238D01*
X186666071Y-48767857D01*
X186761309Y-48815476D01*
X186999404Y-48815476D01*
X187094642Y-48767857D01*
X187142261Y-48720238D01*
X187189880Y-48625000D01*
X187189880Y-48339285D01*
X187142261Y-48244047D01*
X187094642Y-48196428D01*
X186618452Y-49386904D02*
X186570833Y-49291666D01*
X186523214Y-49244047D01*
X186427976Y-49196428D01*
X186380357Y-49196428D01*
X186285119Y-49244047D01*
X186237500Y-49291666D01*
X186189880Y-49386904D01*
X186189880Y-49577380D01*
X186237500Y-49672619D01*
X186285119Y-49720238D01*
X186380357Y-49767857D01*
X186427976Y-49767857D01*
X186523214Y-49720238D01*
X186570833Y-49672619D01*
X186618452Y-49577380D01*
X186618452Y-49386904D01*
X186666071Y-49291666D01*
X186713690Y-49244047D01*
X186808928Y-49196428D01*
X186999404Y-49196428D01*
X187094642Y-49244047D01*
X187142261Y-49291666D01*
X187189880Y-49386904D01*
X187189880Y-49577380D01*
X187142261Y-49672619D01*
X187094642Y-49720238D01*
X186999404Y-49767857D01*
X186808928Y-49767857D01*
X186713690Y-49720238D01*
X186666071Y-49672619D01*
X186618452Y-49577380D01*
X206239880Y-46529761D02*
X205239880Y-46529761D01*
X205239880Y-46767857D01*
X205287500Y-46910714D01*
X205382738Y-47005952D01*
X205477976Y-47053571D01*
X205668452Y-47101190D01*
X205811309Y-47101190D01*
X206001785Y-47053571D01*
X206097023Y-47005952D01*
X206192261Y-46910714D01*
X206239880Y-46767857D01*
X206239880Y-46529761D01*
X206335119Y-47291666D02*
X206335119Y-48053571D01*
X205239880Y-48196428D02*
X205239880Y-48815476D01*
X205620833Y-48482142D01*
X205620833Y-48625000D01*
X205668452Y-48720238D01*
X205716071Y-48767857D01*
X205811309Y-48815476D01*
X206049404Y-48815476D01*
X206144642Y-48767857D01*
X206192261Y-48720238D01*
X206239880Y-48625000D01*
X206239880Y-48339285D01*
X206192261Y-48244047D01*
X206144642Y-48196428D01*
X206239880Y-49291666D02*
X206239880Y-49482142D01*
X206192261Y-49577380D01*
X206144642Y-49625000D01*
X206001785Y-49720238D01*
X205811309Y-49767857D01*
X205430357Y-49767857D01*
X205335119Y-49720238D01*
X205287500Y-49672619D01*
X205239880Y-49577380D01*
X205239880Y-49386904D01*
X205287500Y-49291666D01*
X205335119Y-49244047D01*
X205430357Y-49196428D01*
X205668452Y-49196428D01*
X205763690Y-49244047D01*
X205811309Y-49291666D01*
X205858928Y-49386904D01*
X205858928Y-49577380D01*
X205811309Y-49672619D01*
X205763690Y-49720238D01*
X205668452Y-49767857D01*
X225289880Y-46529761D02*
X224289880Y-46529761D01*
X224289880Y-46767857D01*
X224337500Y-46910714D01*
X224432738Y-47005952D01*
X224527976Y-47053571D01*
X224718452Y-47101190D01*
X224861309Y-47101190D01*
X225051785Y-47053571D01*
X225147023Y-47005952D01*
X225242261Y-46910714D01*
X225289880Y-46767857D01*
X225289880Y-46529761D01*
X225385119Y-47291666D02*
X225385119Y-48053571D01*
X224623214Y-48720238D02*
X225289880Y-48720238D01*
X224242261Y-48482142D02*
X224956547Y-48244047D01*
X224956547Y-48863095D01*
X224289880Y-49434523D02*
X224289880Y-49529761D01*
X224337500Y-49625000D01*
X224385119Y-49672619D01*
X224480357Y-49720238D01*
X224670833Y-49767857D01*
X224908928Y-49767857D01*
X225099404Y-49720238D01*
X225194642Y-49672619D01*
X225242261Y-49625000D01*
X225289880Y-49529761D01*
X225289880Y-49434523D01*
X225242261Y-49339285D01*
X225194642Y-49291666D01*
X225099404Y-49244047D01*
X224908928Y-49196428D01*
X224670833Y-49196428D01*
X224480357Y-49244047D01*
X224385119Y-49291666D01*
X224337500Y-49339285D01*
X224289880Y-49434523D01*
X244339880Y-46529761D02*
X243339880Y-46529761D01*
X243339880Y-46767857D01*
X243387500Y-46910714D01*
X243482738Y-47005952D01*
X243577976Y-47053571D01*
X243768452Y-47101190D01*
X243911309Y-47101190D01*
X244101785Y-47053571D01*
X244197023Y-47005952D01*
X244292261Y-46910714D01*
X244339880Y-46767857D01*
X244339880Y-46529761D01*
X244435119Y-47291666D02*
X244435119Y-48053571D01*
X243673214Y-48720238D02*
X244339880Y-48720238D01*
X243292261Y-48482142D02*
X244006547Y-48244047D01*
X244006547Y-48863095D01*
X244339880Y-49767857D02*
X244339880Y-49196428D01*
X244339880Y-49482142D02*
X243339880Y-49482142D01*
X243482738Y-49386904D01*
X243577976Y-49291666D01*
X243625595Y-49196428D01*
X257849380Y-46537761D02*
X256849380Y-46537761D01*
X256849380Y-46775857D01*
X256897000Y-46918714D01*
X256992238Y-47013952D01*
X257087476Y-47061571D01*
X257277952Y-47109190D01*
X257420809Y-47109190D01*
X257611285Y-47061571D01*
X257706523Y-47013952D01*
X257801761Y-46918714D01*
X257849380Y-46775857D01*
X257849380Y-46537761D01*
X257944619Y-47299666D02*
X257944619Y-48061571D01*
X257182714Y-48728238D02*
X257849380Y-48728238D01*
X256801761Y-48490142D02*
X257516047Y-48252047D01*
X257516047Y-48871095D01*
X256944619Y-49204428D02*
X256897000Y-49252047D01*
X256849380Y-49347285D01*
X256849380Y-49585380D01*
X256897000Y-49680619D01*
X256944619Y-49728238D01*
X257039857Y-49775857D01*
X257135095Y-49775857D01*
X257277952Y-49728238D01*
X257849380Y-49156809D01*
X257849380Y-49775857D01*
X32297380Y-65460761D02*
X31297380Y-65460761D01*
X31297380Y-65698857D01*
X31345000Y-65841714D01*
X31440238Y-65936952D01*
X31535476Y-65984571D01*
X31725952Y-66032190D01*
X31868809Y-66032190D01*
X32059285Y-65984571D01*
X32154523Y-65936952D01*
X32249761Y-65841714D01*
X32297380Y-65698857D01*
X32297380Y-65460761D01*
X32392619Y-66222666D02*
X32392619Y-66984571D01*
X31630714Y-67651238D02*
X32297380Y-67651238D01*
X31249761Y-67413142D02*
X31964047Y-67175047D01*
X31964047Y-67794095D01*
X31297380Y-68079809D02*
X31297380Y-68698857D01*
X31678333Y-68365523D01*
X31678333Y-68508380D01*
X31725952Y-68603619D01*
X31773571Y-68651238D01*
X31868809Y-68698857D01*
X32106904Y-68698857D01*
X32202142Y-68651238D01*
X32249761Y-68603619D01*
X32297380Y-68508380D01*
X32297380Y-68222666D01*
X32249761Y-68127428D01*
X32202142Y-68079809D01*
X63364880Y-65579761D02*
X62364880Y-65579761D01*
X62364880Y-65817857D01*
X62412500Y-65960714D01*
X62507738Y-66055952D01*
X62602976Y-66103571D01*
X62793452Y-66151190D01*
X62936309Y-66151190D01*
X63126785Y-66103571D01*
X63222023Y-66055952D01*
X63317261Y-65960714D01*
X63364880Y-65817857D01*
X63364880Y-65579761D01*
X63460119Y-66341666D02*
X63460119Y-67103571D01*
X62698214Y-67770238D02*
X63364880Y-67770238D01*
X62317261Y-67532142D02*
X63031547Y-67294047D01*
X63031547Y-67913095D01*
X62698214Y-68722619D02*
X63364880Y-68722619D01*
X62317261Y-68484523D02*
X63031547Y-68246428D01*
X63031547Y-68865476D01*
X82414880Y-65579761D02*
X81414880Y-65579761D01*
X81414880Y-65817857D01*
X81462500Y-65960714D01*
X81557738Y-66055952D01*
X81652976Y-66103571D01*
X81843452Y-66151190D01*
X81986309Y-66151190D01*
X82176785Y-66103571D01*
X82272023Y-66055952D01*
X82367261Y-65960714D01*
X82414880Y-65817857D01*
X82414880Y-65579761D01*
X82510119Y-66341666D02*
X82510119Y-67103571D01*
X81748214Y-67770238D02*
X82414880Y-67770238D01*
X81367261Y-67532142D02*
X82081547Y-67294047D01*
X82081547Y-67913095D01*
X81414880Y-68770238D02*
X81414880Y-68294047D01*
X81891071Y-68246428D01*
X81843452Y-68294047D01*
X81795833Y-68389285D01*
X81795833Y-68627380D01*
X81843452Y-68722619D01*
X81891071Y-68770238D01*
X81986309Y-68817857D01*
X82224404Y-68817857D01*
X82319642Y-68770238D01*
X82367261Y-68722619D01*
X82414880Y-68627380D01*
X82414880Y-68389285D01*
X82367261Y-68294047D01*
X82319642Y-68246428D01*
X101464880Y-65579761D02*
X100464880Y-65579761D01*
X100464880Y-65817857D01*
X100512500Y-65960714D01*
X100607738Y-66055952D01*
X100702976Y-66103571D01*
X100893452Y-66151190D01*
X101036309Y-66151190D01*
X101226785Y-66103571D01*
X101322023Y-66055952D01*
X101417261Y-65960714D01*
X101464880Y-65817857D01*
X101464880Y-65579761D01*
X101560119Y-66341666D02*
X101560119Y-67103571D01*
X100798214Y-67770238D02*
X101464880Y-67770238D01*
X100417261Y-67532142D02*
X101131547Y-67294047D01*
X101131547Y-67913095D01*
X100464880Y-68722619D02*
X100464880Y-68532142D01*
X100512500Y-68436904D01*
X100560119Y-68389285D01*
X100702976Y-68294047D01*
X100893452Y-68246428D01*
X101274404Y-68246428D01*
X101369642Y-68294047D01*
X101417261Y-68341666D01*
X101464880Y-68436904D01*
X101464880Y-68627380D01*
X101417261Y-68722619D01*
X101369642Y-68770238D01*
X101274404Y-68817857D01*
X101036309Y-68817857D01*
X100941071Y-68770238D01*
X100893452Y-68722619D01*
X100845833Y-68627380D01*
X100845833Y-68436904D01*
X100893452Y-68341666D01*
X100941071Y-68294047D01*
X101036309Y-68246428D01*
X120514880Y-65579761D02*
X119514880Y-65579761D01*
X119514880Y-65817857D01*
X119562500Y-65960714D01*
X119657738Y-66055952D01*
X119752976Y-66103571D01*
X119943452Y-66151190D01*
X120086309Y-66151190D01*
X120276785Y-66103571D01*
X120372023Y-66055952D01*
X120467261Y-65960714D01*
X120514880Y-65817857D01*
X120514880Y-65579761D01*
X120610119Y-66341666D02*
X120610119Y-67103571D01*
X119848214Y-67770238D02*
X120514880Y-67770238D01*
X119467261Y-67532142D02*
X120181547Y-67294047D01*
X120181547Y-67913095D01*
X119514880Y-68198809D02*
X119514880Y-68865476D01*
X120514880Y-68436904D01*
X139564880Y-65579761D02*
X138564880Y-65579761D01*
X138564880Y-65817857D01*
X138612500Y-65960714D01*
X138707738Y-66055952D01*
X138802976Y-66103571D01*
X138993452Y-66151190D01*
X139136309Y-66151190D01*
X139326785Y-66103571D01*
X139422023Y-66055952D01*
X139517261Y-65960714D01*
X139564880Y-65817857D01*
X139564880Y-65579761D01*
X139660119Y-66341666D02*
X139660119Y-67103571D01*
X138898214Y-67770238D02*
X139564880Y-67770238D01*
X138517261Y-67532142D02*
X139231547Y-67294047D01*
X139231547Y-67913095D01*
X138993452Y-68436904D02*
X138945833Y-68341666D01*
X138898214Y-68294047D01*
X138802976Y-68246428D01*
X138755357Y-68246428D01*
X138660119Y-68294047D01*
X138612500Y-68341666D01*
X138564880Y-68436904D01*
X138564880Y-68627380D01*
X138612500Y-68722619D01*
X138660119Y-68770238D01*
X138755357Y-68817857D01*
X138802976Y-68817857D01*
X138898214Y-68770238D01*
X138945833Y-68722619D01*
X138993452Y-68627380D01*
X138993452Y-68436904D01*
X139041071Y-68341666D01*
X139088690Y-68294047D01*
X139183928Y-68246428D01*
X139374404Y-68246428D01*
X139469642Y-68294047D01*
X139517261Y-68341666D01*
X139564880Y-68436904D01*
X139564880Y-68627380D01*
X139517261Y-68722619D01*
X139469642Y-68770238D01*
X139374404Y-68817857D01*
X139183928Y-68817857D01*
X139088690Y-68770238D01*
X139041071Y-68722619D01*
X138993452Y-68627380D01*
X158614880Y-65579761D02*
X157614880Y-65579761D01*
X157614880Y-65817857D01*
X157662500Y-65960714D01*
X157757738Y-66055952D01*
X157852976Y-66103571D01*
X158043452Y-66151190D01*
X158186309Y-66151190D01*
X158376785Y-66103571D01*
X158472023Y-66055952D01*
X158567261Y-65960714D01*
X158614880Y-65817857D01*
X158614880Y-65579761D01*
X158710119Y-66341666D02*
X158710119Y-67103571D01*
X157948214Y-67770238D02*
X158614880Y-67770238D01*
X157567261Y-67532142D02*
X158281547Y-67294047D01*
X158281547Y-67913095D01*
X158614880Y-68341666D02*
X158614880Y-68532142D01*
X158567261Y-68627380D01*
X158519642Y-68675000D01*
X158376785Y-68770238D01*
X158186309Y-68817857D01*
X157805357Y-68817857D01*
X157710119Y-68770238D01*
X157662500Y-68722619D01*
X157614880Y-68627380D01*
X157614880Y-68436904D01*
X157662500Y-68341666D01*
X157710119Y-68294047D01*
X157805357Y-68246428D01*
X158043452Y-68246428D01*
X158138690Y-68294047D01*
X158186309Y-68341666D01*
X158233928Y-68436904D01*
X158233928Y-68627380D01*
X158186309Y-68722619D01*
X158138690Y-68770238D01*
X158043452Y-68817857D01*
X177664880Y-65579761D02*
X176664880Y-65579761D01*
X176664880Y-65817857D01*
X176712500Y-65960714D01*
X176807738Y-66055952D01*
X176902976Y-66103571D01*
X177093452Y-66151190D01*
X177236309Y-66151190D01*
X177426785Y-66103571D01*
X177522023Y-66055952D01*
X177617261Y-65960714D01*
X177664880Y-65817857D01*
X177664880Y-65579761D01*
X177760119Y-66341666D02*
X177760119Y-67103571D01*
X176664880Y-67817857D02*
X176664880Y-67341666D01*
X177141071Y-67294047D01*
X177093452Y-67341666D01*
X177045833Y-67436904D01*
X177045833Y-67675000D01*
X177093452Y-67770238D01*
X177141071Y-67817857D01*
X177236309Y-67865476D01*
X177474404Y-67865476D01*
X177569642Y-67817857D01*
X177617261Y-67770238D01*
X177664880Y-67675000D01*
X177664880Y-67436904D01*
X177617261Y-67341666D01*
X177569642Y-67294047D01*
X176664880Y-68484523D02*
X176664880Y-68579761D01*
X176712500Y-68675000D01*
X176760119Y-68722619D01*
X176855357Y-68770238D01*
X177045833Y-68817857D01*
X177283928Y-68817857D01*
X177474404Y-68770238D01*
X177569642Y-68722619D01*
X177617261Y-68675000D01*
X177664880Y-68579761D01*
X177664880Y-68484523D01*
X177617261Y-68389285D01*
X177569642Y-68341666D01*
X177474404Y-68294047D01*
X177283928Y-68246428D01*
X177045833Y-68246428D01*
X176855357Y-68294047D01*
X176760119Y-68341666D01*
X176712500Y-68389285D01*
X176664880Y-68484523D01*
X196714880Y-65579761D02*
X195714880Y-65579761D01*
X195714880Y-65817857D01*
X195762500Y-65960714D01*
X195857738Y-66055952D01*
X195952976Y-66103571D01*
X196143452Y-66151190D01*
X196286309Y-66151190D01*
X196476785Y-66103571D01*
X196572023Y-66055952D01*
X196667261Y-65960714D01*
X196714880Y-65817857D01*
X196714880Y-65579761D01*
X196810119Y-66341666D02*
X196810119Y-67103571D01*
X195714880Y-67817857D02*
X195714880Y-67341666D01*
X196191071Y-67294047D01*
X196143452Y-67341666D01*
X196095833Y-67436904D01*
X196095833Y-67675000D01*
X196143452Y-67770238D01*
X196191071Y-67817857D01*
X196286309Y-67865476D01*
X196524404Y-67865476D01*
X196619642Y-67817857D01*
X196667261Y-67770238D01*
X196714880Y-67675000D01*
X196714880Y-67436904D01*
X196667261Y-67341666D01*
X196619642Y-67294047D01*
X196714880Y-68817857D02*
X196714880Y-68246428D01*
X196714880Y-68532142D02*
X195714880Y-68532142D01*
X195857738Y-68436904D01*
X195952976Y-68341666D01*
X196000595Y-68246428D01*
X215764880Y-65579761D02*
X214764880Y-65579761D01*
X214764880Y-65817857D01*
X214812500Y-65960714D01*
X214907738Y-66055952D01*
X215002976Y-66103571D01*
X215193452Y-66151190D01*
X215336309Y-66151190D01*
X215526785Y-66103571D01*
X215622023Y-66055952D01*
X215717261Y-65960714D01*
X215764880Y-65817857D01*
X215764880Y-65579761D01*
X215860119Y-66341666D02*
X215860119Y-67103571D01*
X214764880Y-67817857D02*
X214764880Y-67341666D01*
X215241071Y-67294047D01*
X215193452Y-67341666D01*
X215145833Y-67436904D01*
X215145833Y-67675000D01*
X215193452Y-67770238D01*
X215241071Y-67817857D01*
X215336309Y-67865476D01*
X215574404Y-67865476D01*
X215669642Y-67817857D01*
X215717261Y-67770238D01*
X215764880Y-67675000D01*
X215764880Y-67436904D01*
X215717261Y-67341666D01*
X215669642Y-67294047D01*
X214860119Y-68246428D02*
X214812500Y-68294047D01*
X214764880Y-68389285D01*
X214764880Y-68627380D01*
X214812500Y-68722619D01*
X214860119Y-68770238D01*
X214955357Y-68817857D01*
X215050595Y-68817857D01*
X215193452Y-68770238D01*
X215764880Y-68198809D01*
X215764880Y-68817857D01*
X234814880Y-65579761D02*
X233814880Y-65579761D01*
X233814880Y-65817857D01*
X233862500Y-65960714D01*
X233957738Y-66055952D01*
X234052976Y-66103571D01*
X234243452Y-66151190D01*
X234386309Y-66151190D01*
X234576785Y-66103571D01*
X234672023Y-66055952D01*
X234767261Y-65960714D01*
X234814880Y-65817857D01*
X234814880Y-65579761D01*
X234910119Y-66341666D02*
X234910119Y-67103571D01*
X233814880Y-67817857D02*
X233814880Y-67341666D01*
X234291071Y-67294047D01*
X234243452Y-67341666D01*
X234195833Y-67436904D01*
X234195833Y-67675000D01*
X234243452Y-67770238D01*
X234291071Y-67817857D01*
X234386309Y-67865476D01*
X234624404Y-67865476D01*
X234719642Y-67817857D01*
X234767261Y-67770238D01*
X234814880Y-67675000D01*
X234814880Y-67436904D01*
X234767261Y-67341666D01*
X234719642Y-67294047D01*
X233814880Y-68198809D02*
X233814880Y-68817857D01*
X234195833Y-68484523D01*
X234195833Y-68627380D01*
X234243452Y-68722619D01*
X234291071Y-68770238D01*
X234386309Y-68817857D01*
X234624404Y-68817857D01*
X234719642Y-68770238D01*
X234767261Y-68722619D01*
X234814880Y-68627380D01*
X234814880Y-68341666D01*
X234767261Y-68246428D01*
X234719642Y-68198809D01*
X243879380Y-65587761D02*
X242879380Y-65587761D01*
X242879380Y-65825857D01*
X242927000Y-65968714D01*
X243022238Y-66063952D01*
X243117476Y-66111571D01*
X243307952Y-66159190D01*
X243450809Y-66159190D01*
X243641285Y-66111571D01*
X243736523Y-66063952D01*
X243831761Y-65968714D01*
X243879380Y-65825857D01*
X243879380Y-65587761D01*
X243974619Y-66349666D02*
X243974619Y-67111571D01*
X242879380Y-67825857D02*
X242879380Y-67349666D01*
X243355571Y-67302047D01*
X243307952Y-67349666D01*
X243260333Y-67444904D01*
X243260333Y-67683000D01*
X243307952Y-67778238D01*
X243355571Y-67825857D01*
X243450809Y-67873476D01*
X243688904Y-67873476D01*
X243784142Y-67825857D01*
X243831761Y-67778238D01*
X243879380Y-67683000D01*
X243879380Y-67444904D01*
X243831761Y-67349666D01*
X243784142Y-67302047D01*
X243212714Y-68730619D02*
X243879380Y-68730619D01*
X242831761Y-68492523D02*
X243546047Y-68254428D01*
X243546047Y-68873476D01*
X25264880Y-84629761D02*
X24264880Y-84629761D01*
X24264880Y-84867857D01*
X24312500Y-85010714D01*
X24407738Y-85105952D01*
X24502976Y-85153571D01*
X24693452Y-85201190D01*
X24836309Y-85201190D01*
X25026785Y-85153571D01*
X25122023Y-85105952D01*
X25217261Y-85010714D01*
X25264880Y-84867857D01*
X25264880Y-84629761D01*
X25360119Y-85391666D02*
X25360119Y-86153571D01*
X24264880Y-86867857D02*
X24264880Y-86391666D01*
X24741071Y-86344047D01*
X24693452Y-86391666D01*
X24645833Y-86486904D01*
X24645833Y-86725000D01*
X24693452Y-86820238D01*
X24741071Y-86867857D01*
X24836309Y-86915476D01*
X25074404Y-86915476D01*
X25169642Y-86867857D01*
X25217261Y-86820238D01*
X25264880Y-86725000D01*
X25264880Y-86486904D01*
X25217261Y-86391666D01*
X25169642Y-86344047D01*
X24264880Y-87772619D02*
X24264880Y-87582142D01*
X24312500Y-87486904D01*
X24360119Y-87439285D01*
X24502976Y-87344047D01*
X24693452Y-87296428D01*
X25074404Y-87296428D01*
X25169642Y-87344047D01*
X25217261Y-87391666D01*
X25264880Y-87486904D01*
X25264880Y-87677380D01*
X25217261Y-87772619D01*
X25169642Y-87820238D01*
X25074404Y-87867857D01*
X24836309Y-87867857D01*
X24741071Y-87820238D01*
X24693452Y-87772619D01*
X24645833Y-87677380D01*
X24645833Y-87486904D01*
X24693452Y-87391666D01*
X24741071Y-87344047D01*
X24836309Y-87296428D01*
X48680380Y-84637761D02*
X47680380Y-84637761D01*
X47680380Y-84875857D01*
X47728000Y-85018714D01*
X47823238Y-85113952D01*
X47918476Y-85161571D01*
X48108952Y-85209190D01*
X48251809Y-85209190D01*
X48442285Y-85161571D01*
X48537523Y-85113952D01*
X48632761Y-85018714D01*
X48680380Y-84875857D01*
X48680380Y-84637761D01*
X48775619Y-85399666D02*
X48775619Y-86161571D01*
X47680380Y-86875857D02*
X47680380Y-86399666D01*
X48156571Y-86352047D01*
X48108952Y-86399666D01*
X48061333Y-86494904D01*
X48061333Y-86733000D01*
X48108952Y-86828238D01*
X48156571Y-86875857D01*
X48251809Y-86923476D01*
X48489904Y-86923476D01*
X48585142Y-86875857D01*
X48632761Y-86828238D01*
X48680380Y-86733000D01*
X48680380Y-86494904D01*
X48632761Y-86399666D01*
X48585142Y-86352047D01*
X47680380Y-87256809D02*
X47680380Y-87923476D01*
X48680380Y-87494904D01*
X72889880Y-84629761D02*
X71889880Y-84629761D01*
X71889880Y-84867857D01*
X71937500Y-85010714D01*
X72032738Y-85105952D01*
X72127976Y-85153571D01*
X72318452Y-85201190D01*
X72461309Y-85201190D01*
X72651785Y-85153571D01*
X72747023Y-85105952D01*
X72842261Y-85010714D01*
X72889880Y-84867857D01*
X72889880Y-84629761D01*
X72985119Y-85391666D02*
X72985119Y-86153571D01*
X71889880Y-86867857D02*
X71889880Y-86391666D01*
X72366071Y-86344047D01*
X72318452Y-86391666D01*
X72270833Y-86486904D01*
X72270833Y-86725000D01*
X72318452Y-86820238D01*
X72366071Y-86867857D01*
X72461309Y-86915476D01*
X72699404Y-86915476D01*
X72794642Y-86867857D01*
X72842261Y-86820238D01*
X72889880Y-86725000D01*
X72889880Y-86486904D01*
X72842261Y-86391666D01*
X72794642Y-86344047D01*
X72318452Y-87486904D02*
X72270833Y-87391666D01*
X72223214Y-87344047D01*
X72127976Y-87296428D01*
X72080357Y-87296428D01*
X71985119Y-87344047D01*
X71937500Y-87391666D01*
X71889880Y-87486904D01*
X71889880Y-87677380D01*
X71937500Y-87772619D01*
X71985119Y-87820238D01*
X72080357Y-87867857D01*
X72127976Y-87867857D01*
X72223214Y-87820238D01*
X72270833Y-87772619D01*
X72318452Y-87677380D01*
X72318452Y-87486904D01*
X72366071Y-87391666D01*
X72413690Y-87344047D01*
X72508928Y-87296428D01*
X72699404Y-87296428D01*
X72794642Y-87344047D01*
X72842261Y-87391666D01*
X72889880Y-87486904D01*
X72889880Y-87677380D01*
X72842261Y-87772619D01*
X72794642Y-87820238D01*
X72699404Y-87867857D01*
X72508928Y-87867857D01*
X72413690Y-87820238D01*
X72366071Y-87772619D01*
X72318452Y-87677380D01*
X153836380Y-84764761D02*
X152836380Y-84764761D01*
X152836380Y-85002857D01*
X152884000Y-85145714D01*
X152979238Y-85240952D01*
X153074476Y-85288571D01*
X153264952Y-85336190D01*
X153407809Y-85336190D01*
X153598285Y-85288571D01*
X153693523Y-85240952D01*
X153788761Y-85145714D01*
X153836380Y-85002857D01*
X153836380Y-84764761D01*
X153931619Y-85526666D02*
X153931619Y-86288571D01*
X152836380Y-87002857D02*
X152836380Y-86526666D01*
X153312571Y-86479047D01*
X153264952Y-86526666D01*
X153217333Y-86621904D01*
X153217333Y-86860000D01*
X153264952Y-86955238D01*
X153312571Y-87002857D01*
X153407809Y-87050476D01*
X153645904Y-87050476D01*
X153741142Y-87002857D01*
X153788761Y-86955238D01*
X153836380Y-86860000D01*
X153836380Y-86621904D01*
X153788761Y-86526666D01*
X153741142Y-86479047D01*
X153836380Y-87526666D02*
X153836380Y-87717142D01*
X153788761Y-87812380D01*
X153741142Y-87860000D01*
X153598285Y-87955238D01*
X153407809Y-88002857D01*
X153026857Y-88002857D01*
X152931619Y-87955238D01*
X152884000Y-87907619D01*
X152836380Y-87812380D01*
X152836380Y-87621904D01*
X152884000Y-87526666D01*
X152931619Y-87479047D01*
X153026857Y-87431428D01*
X153264952Y-87431428D01*
X153360190Y-87479047D01*
X153407809Y-87526666D01*
X153455428Y-87621904D01*
X153455428Y-87812380D01*
X153407809Y-87907619D01*
X153360190Y-87955238D01*
X153264952Y-88002857D01*
X213272380Y-84629761D02*
X212272380Y-84629761D01*
X212272380Y-84867857D01*
X212320000Y-85010714D01*
X212415238Y-85105952D01*
X212510476Y-85153571D01*
X212700952Y-85201190D01*
X212843809Y-85201190D01*
X213034285Y-85153571D01*
X213129523Y-85105952D01*
X213224761Y-85010714D01*
X213272380Y-84867857D01*
X213272380Y-84629761D01*
X213367619Y-85391666D02*
X213367619Y-86153571D01*
X212272380Y-86820238D02*
X212272380Y-86629761D01*
X212320000Y-86534523D01*
X212367619Y-86486904D01*
X212510476Y-86391666D01*
X212700952Y-86344047D01*
X213081904Y-86344047D01*
X213177142Y-86391666D01*
X213224761Y-86439285D01*
X213272380Y-86534523D01*
X213272380Y-86725000D01*
X213224761Y-86820238D01*
X213177142Y-86867857D01*
X213081904Y-86915476D01*
X212843809Y-86915476D01*
X212748571Y-86867857D01*
X212700952Y-86820238D01*
X212653333Y-86725000D01*
X212653333Y-86534523D01*
X212700952Y-86439285D01*
X212748571Y-86391666D01*
X212843809Y-86344047D01*
X212272380Y-87534523D02*
X212272380Y-87629761D01*
X212320000Y-87725000D01*
X212367619Y-87772619D01*
X212462857Y-87820238D01*
X212653333Y-87867857D01*
X212891428Y-87867857D01*
X213081904Y-87820238D01*
X213177142Y-87772619D01*
X213224761Y-87725000D01*
X213272380Y-87629761D01*
X213272380Y-87534523D01*
X213224761Y-87439285D01*
X213177142Y-87391666D01*
X213081904Y-87344047D01*
X212891428Y-87296428D01*
X212653333Y-87296428D01*
X212462857Y-87344047D01*
X212367619Y-87391666D01*
X212320000Y-87439285D01*
X212272380Y-87534523D01*
X237275380Y-84637761D02*
X236275380Y-84637761D01*
X236275380Y-84875857D01*
X236323000Y-85018714D01*
X236418238Y-85113952D01*
X236513476Y-85161571D01*
X236703952Y-85209190D01*
X236846809Y-85209190D01*
X237037285Y-85161571D01*
X237132523Y-85113952D01*
X237227761Y-85018714D01*
X237275380Y-84875857D01*
X237275380Y-84637761D01*
X237370619Y-85399666D02*
X237370619Y-86161571D01*
X236275380Y-86828238D02*
X236275380Y-86637761D01*
X236323000Y-86542523D01*
X236370619Y-86494904D01*
X236513476Y-86399666D01*
X236703952Y-86352047D01*
X237084904Y-86352047D01*
X237180142Y-86399666D01*
X237227761Y-86447285D01*
X237275380Y-86542523D01*
X237275380Y-86733000D01*
X237227761Y-86828238D01*
X237180142Y-86875857D01*
X237084904Y-86923476D01*
X236846809Y-86923476D01*
X236751571Y-86875857D01*
X236703952Y-86828238D01*
X236656333Y-86733000D01*
X236656333Y-86542523D01*
X236703952Y-86447285D01*
X236751571Y-86399666D01*
X236846809Y-86352047D01*
X237275380Y-87875857D02*
X237275380Y-87304428D01*
X237275380Y-87590142D02*
X236275380Y-87590142D01*
X236418238Y-87494904D01*
X236513476Y-87399666D01*
X236561095Y-87304428D01*
X260897380Y-84629761D02*
X259897380Y-84629761D01*
X259897380Y-84867857D01*
X259945000Y-85010714D01*
X260040238Y-85105952D01*
X260135476Y-85153571D01*
X260325952Y-85201190D01*
X260468809Y-85201190D01*
X260659285Y-85153571D01*
X260754523Y-85105952D01*
X260849761Y-85010714D01*
X260897380Y-84867857D01*
X260897380Y-84629761D01*
X260992619Y-85391666D02*
X260992619Y-86153571D01*
X259897380Y-86820238D02*
X259897380Y-86629761D01*
X259945000Y-86534523D01*
X259992619Y-86486904D01*
X260135476Y-86391666D01*
X260325952Y-86344047D01*
X260706904Y-86344047D01*
X260802142Y-86391666D01*
X260849761Y-86439285D01*
X260897380Y-86534523D01*
X260897380Y-86725000D01*
X260849761Y-86820238D01*
X260802142Y-86867857D01*
X260706904Y-86915476D01*
X260468809Y-86915476D01*
X260373571Y-86867857D01*
X260325952Y-86820238D01*
X260278333Y-86725000D01*
X260278333Y-86534523D01*
X260325952Y-86439285D01*
X260373571Y-86391666D01*
X260468809Y-86344047D01*
X259992619Y-87296428D02*
X259945000Y-87344047D01*
X259897380Y-87439285D01*
X259897380Y-87677380D01*
X259945000Y-87772619D01*
X259992619Y-87820238D01*
X260087857Y-87867857D01*
X260183095Y-87867857D01*
X260325952Y-87820238D01*
X260897380Y-87248809D01*
X260897380Y-87867857D01*
X265850380Y-84638761D02*
X264850380Y-84638761D01*
X264850380Y-84876857D01*
X264898000Y-85019714D01*
X264993238Y-85114952D01*
X265088476Y-85162571D01*
X265278952Y-85210190D01*
X265421809Y-85210190D01*
X265612285Y-85162571D01*
X265707523Y-85114952D01*
X265802761Y-85019714D01*
X265850380Y-84876857D01*
X265850380Y-84638761D01*
X265945619Y-85400666D02*
X265945619Y-86162571D01*
X264850380Y-86829238D02*
X264850380Y-86638761D01*
X264898000Y-86543523D01*
X264945619Y-86495904D01*
X265088476Y-86400666D01*
X265278952Y-86353047D01*
X265659904Y-86353047D01*
X265755142Y-86400666D01*
X265802761Y-86448285D01*
X265850380Y-86543523D01*
X265850380Y-86734000D01*
X265802761Y-86829238D01*
X265755142Y-86876857D01*
X265659904Y-86924476D01*
X265421809Y-86924476D01*
X265326571Y-86876857D01*
X265278952Y-86829238D01*
X265231333Y-86734000D01*
X265231333Y-86543523D01*
X265278952Y-86448285D01*
X265326571Y-86400666D01*
X265421809Y-86353047D01*
X264850380Y-87257809D02*
X264850380Y-87876857D01*
X265231333Y-87543523D01*
X265231333Y-87686380D01*
X265278952Y-87781619D01*
X265326571Y-87829238D01*
X265421809Y-87876857D01*
X265659904Y-87876857D01*
X265755142Y-87829238D01*
X265802761Y-87781619D01*
X265850380Y-87686380D01*
X265850380Y-87400666D01*
X265802761Y-87305428D01*
X265755142Y-87257809D01*
%LPC*%
D13*
X200025000Y-77470000D03*
X85725000Y-77470000D03*
D14*
X200025000Y-92710000D03*
X85725000Y-92710000D03*
D15*
X147955000Y-85725000D03*
X137795000Y-85725000D03*
D16*
X139065000Y-83185000D03*
D13*
X142875000Y-85725000D03*
D16*
X145415000Y-80645000D03*
D15*
X133667500Y-66675000D03*
X123507500Y-66675000D03*
D16*
X124777500Y-64135000D03*
D13*
X128587500Y-66675000D03*
D16*
X131127500Y-61595000D03*
D15*
X143192500Y-47625000D03*
X133032500Y-47625000D03*
D16*
X134302500Y-45085000D03*
D13*
X138112500Y-47625000D03*
D16*
X140652500Y-42545000D03*
D15*
X171767500Y-66675000D03*
X161607500Y-66675000D03*
D16*
X162877500Y-64135000D03*
D13*
X166687500Y-66675000D03*
D16*
X169227500Y-61595000D03*
D15*
X207486250Y-85725000D03*
X197326250Y-85725000D03*
D16*
X198596250Y-83185000D03*
D13*
X202406250Y-85725000D03*
D16*
X204946250Y-80645000D03*
D15*
X238442500Y-47625000D03*
X228282500Y-47625000D03*
D16*
X229552500Y-45085000D03*
D13*
X233362500Y-47625000D03*
D16*
X235902500Y-42545000D03*
D15*
X228917500Y-85725000D03*
X218757500Y-85725000D03*
D16*
X220027500Y-83185000D03*
D13*
X223837500Y-85725000D03*
D16*
X226377500Y-80645000D03*
D15*
X228917500Y-66675000D03*
X218757500Y-66675000D03*
D16*
X220027500Y-64135000D03*
D13*
X223837500Y-66675000D03*
D16*
X226377500Y-61595000D03*
D15*
X243205000Y-9525000D03*
X233045000Y-9525000D03*
D16*
X234315000Y-6985000D03*
D13*
X238125000Y-9525000D03*
D16*
X240665000Y-4445000D03*
D15*
X252730000Y-85725000D03*
X242570000Y-85725000D03*
D16*
X243840000Y-83185000D03*
D13*
X247650000Y-85725000D03*
D16*
X250190000Y-80645000D03*
D13*
X278606250Y-17780000D03*
X254793750Y-17780000D03*
D14*
X278606250Y-2540000D03*
X254793750Y-2540000D03*
D15*
X271780000Y-9525000D03*
X261620000Y-9525000D03*
D16*
X262890000Y-6985000D03*
D13*
X266700000Y-9525000D03*
D16*
X269240000Y-4445000D03*
D13*
X271462500Y-74930000D03*
X247650000Y-74930000D03*
D14*
X271462500Y-59690000D03*
X247650000Y-59690000D03*
D15*
X264636250Y-66675000D03*
X254476250Y-66675000D03*
D16*
X255746250Y-64135000D03*
D13*
X259556250Y-66675000D03*
D16*
X262096250Y-61595000D03*
D15*
X262255000Y-9525000D03*
X252095000Y-9525000D03*
D16*
X253365000Y-6985000D03*
D13*
X257175000Y-9525000D03*
D16*
X259715000Y-4445000D03*
D15*
X281305000Y-9525000D03*
X271145000Y-9525000D03*
D16*
X272415000Y-6985000D03*
D13*
X276225000Y-9525000D03*
D16*
X278765000Y-4445000D03*
D15*
X252730000Y-28575000D03*
X242570000Y-28575000D03*
D16*
X243840000Y-26035000D03*
D13*
X247650000Y-28575000D03*
D16*
X250190000Y-23495000D03*
D15*
X276542500Y-28575000D03*
X266382500Y-28575000D03*
D16*
X267652500Y-26035000D03*
D13*
X271462500Y-28575000D03*
D16*
X274002500Y-23495000D03*
D15*
X281305000Y-66675000D03*
X271145000Y-66675000D03*
D16*
X272415000Y-64135000D03*
D13*
X276225000Y-66675000D03*
D16*
X278765000Y-61595000D03*
D15*
X255111250Y-66675000D03*
X244951250Y-66675000D03*
D16*
X246221250Y-64135000D03*
D13*
X250031250Y-66675000D03*
D16*
X252571250Y-61595000D03*
D17*
X267589000Y-65533000D03*
X267589000Y-68833000D03*
D15*
X19367500Y-28575000D03*
X9207500Y-28575000D03*
D16*
X10477500Y-26035000D03*
D13*
X14287500Y-28575000D03*
D16*
X16827500Y-23495000D03*
D15*
X43180000Y-28575000D03*
X33020000Y-28575000D03*
D16*
X34290000Y-26035000D03*
D13*
X38100000Y-28575000D03*
D16*
X40640000Y-23495000D03*
D15*
X16986250Y-47625000D03*
X6826250Y-47625000D03*
D16*
X8096250Y-45085000D03*
D13*
X11906250Y-47625000D03*
D16*
X14446250Y-42545000D03*
D15*
X47942500Y-47625000D03*
X37782500Y-47625000D03*
D16*
X39052500Y-45085000D03*
D13*
X42862500Y-47625000D03*
D16*
X45402500Y-42545000D03*
D13*
X276225000Y-55880000D03*
X252412500Y-55880000D03*
D14*
X276225000Y-40640000D03*
X252412500Y-40640000D03*
D15*
X269398750Y-47625000D03*
X259238750Y-47625000D03*
D16*
X260508750Y-45085000D03*
D13*
X264318750Y-47625000D03*
D16*
X266858750Y-42545000D03*
D15*
X57467500Y-66675000D03*
X47307500Y-66675000D03*
D16*
X48577500Y-64135000D03*
D13*
X52387500Y-66675000D03*
D16*
X54927500Y-61595000D03*
D15*
X16986250Y-85725000D03*
X6826250Y-85725000D03*
D16*
X8096250Y-83185000D03*
D13*
X11906250Y-85725000D03*
D16*
X14446250Y-80645000D03*
D15*
X19367500Y-85725000D03*
X9207500Y-85725000D03*
D16*
X10477500Y-83185000D03*
D13*
X14287500Y-85725000D03*
D16*
X16827500Y-80645000D03*
D15*
X43180000Y-85725000D03*
X33020000Y-85725000D03*
D16*
X34290000Y-83185000D03*
D13*
X38100000Y-85725000D03*
D16*
X40640000Y-80645000D03*
D15*
X64611250Y-85725000D03*
X54451250Y-85725000D03*
D16*
X55721250Y-83185000D03*
D13*
X59531250Y-85725000D03*
D16*
X62071250Y-80645000D03*
D15*
X66992500Y-85725000D03*
X56832500Y-85725000D03*
D16*
X58102500Y-83185000D03*
D13*
X61912500Y-85725000D03*
D16*
X64452500Y-80645000D03*
D13*
X180968650Y-77470000D03*
X80968850Y-77470000D03*
D14*
X180968650Y-92710000D03*
X80968850Y-92710000D03*
D15*
X136048750Y-85725000D03*
X125888750Y-85725000D03*
D16*
X127158750Y-83185000D03*
D13*
X130968750Y-85725000D03*
D16*
X133508750Y-80645000D03*
D15*
X231298750Y-85725000D03*
X221138750Y-85725000D03*
D16*
X222408750Y-83185000D03*
D13*
X226218750Y-85725000D03*
D16*
X228758750Y-80645000D03*
D15*
X255111250Y-85725000D03*
X244951250Y-85725000D03*
D16*
X246221250Y-83185000D03*
D13*
X250031250Y-85725000D03*
D16*
X252571250Y-80645000D03*
D15*
X276542500Y-85725000D03*
X266382500Y-85725000D03*
D16*
X267652500Y-83185000D03*
D13*
X271462500Y-85725000D03*
D16*
X274002500Y-80645000D03*
D15*
X278923750Y-85725000D03*
X268763750Y-85725000D03*
D16*
X270033750Y-83185000D03*
D13*
X273843750Y-85725000D03*
D16*
X276383750Y-80645000D03*
D15*
X40798750Y-85725000D03*
X30638750Y-85725000D03*
D16*
X31908750Y-83185000D03*
D13*
X35718750Y-85725000D03*
D16*
X38258750Y-80645000D03*
D18*
X42205000Y-37162000D03*
X40005000Y-37162000D03*
X40005000Y-38862000D03*
X42205000Y-38862000D03*
D19*
X25210000Y-32908000D03*
X26010000Y-32908000D03*
X26810000Y-32908000D03*
X27610000Y-32908000D03*
X28410000Y-32908000D03*
X29210000Y-32908000D03*
X30010000Y-32908000D03*
X30810000Y-32908000D03*
X31610000Y-32908000D03*
X32410000Y-32908000D03*
X33210000Y-32908000D03*
D20*
X34910000Y-34608000D03*
X34910000Y-35408000D03*
X34910000Y-36208000D03*
X34910000Y-37008000D03*
X34910000Y-37808000D03*
X34910000Y-38608000D03*
X34910000Y-39408000D03*
X34910000Y-40208000D03*
X34910000Y-41008000D03*
X34910000Y-41808000D03*
X34910000Y-42608000D03*
D19*
X33210000Y-44308000D03*
X32410000Y-44308000D03*
X31610000Y-44308000D03*
X30810000Y-44308000D03*
X30010000Y-44308000D03*
X29210000Y-44308000D03*
X28410000Y-44308000D03*
X27610000Y-44308000D03*
X26810000Y-44308000D03*
X26010000Y-44308000D03*
X25210000Y-44308000D03*
D20*
X23510000Y-42608000D03*
X23510000Y-41808000D03*
X23510000Y-41008000D03*
X23510000Y-40208000D03*
X23510000Y-39408000D03*
X23510000Y-38608000D03*
X23510000Y-37808000D03*
X23510000Y-37008000D03*
X23510000Y-36208000D03*
X23510000Y-35408000D03*
X23510000Y-34608000D03*
D21*
X37635000Y-18034000D03*
X37635000Y-17084000D03*
X37635000Y-18984000D03*
X39835000Y-18984000D03*
X39835000Y-18034000D03*
X39835000Y-17084000D03*
D22*
X62205000Y-33279000D03*
X55905000Y-33279000D03*
X62205000Y-37079000D03*
X55905000Y-37079000D03*
D23*
G36*
X53693142Y-34662674D02*
G01*
X53716803Y-34666184D01*
X53740007Y-34671996D01*
X53762529Y-34680054D01*
X53784153Y-34690282D01*
X53804670Y-34702579D01*
X53823883Y-34716829D01*
X53841607Y-34732893D01*
X53857671Y-34750617D01*
X53871921Y-34769830D01*
X53884218Y-34790347D01*
X53894446Y-34811971D01*
X53902504Y-34834493D01*
X53908316Y-34857697D01*
X53911826Y-34881358D01*
X53913000Y-34905250D01*
X53913000Y-35392750D01*
X53911826Y-35416642D01*
X53908316Y-35440303D01*
X53902504Y-35463507D01*
X53894446Y-35486029D01*
X53884218Y-35507653D01*
X53871921Y-35528170D01*
X53857671Y-35547383D01*
X53841607Y-35565107D01*
X53823883Y-35581171D01*
X53804670Y-35595421D01*
X53784153Y-35607718D01*
X53762529Y-35617946D01*
X53740007Y-35626004D01*
X53716803Y-35631816D01*
X53693142Y-35635326D01*
X53669250Y-35636500D01*
X52756750Y-35636500D01*
X52732858Y-35635326D01*
X52709197Y-35631816D01*
X52685993Y-35626004D01*
X52663471Y-35617946D01*
X52641847Y-35607718D01*
X52621330Y-35595421D01*
X52602117Y-35581171D01*
X52584393Y-35565107D01*
X52568329Y-35547383D01*
X52554079Y-35528170D01*
X52541782Y-35507653D01*
X52531554Y-35486029D01*
X52523496Y-35463507D01*
X52517684Y-35440303D01*
X52514174Y-35416642D01*
X52513000Y-35392750D01*
X52513000Y-34905250D01*
X52514174Y-34881358D01*
X52517684Y-34857697D01*
X52523496Y-34834493D01*
X52531554Y-34811971D01*
X52541782Y-34790347D01*
X52554079Y-34769830D01*
X52568329Y-34750617D01*
X52584393Y-34732893D01*
X52602117Y-34716829D01*
X52621330Y-34702579D01*
X52641847Y-34690282D01*
X52663471Y-34680054D01*
X52685993Y-34671996D01*
X52709197Y-34666184D01*
X52732858Y-34662674D01*
X52756750Y-34661500D01*
X53669250Y-34661500D01*
X53693142Y-34662674D01*
X53693142Y-34662674D01*
G37*
D24*
X53213000Y-35149000D03*
D23*
G36*
X53693142Y-32787674D02*
G01*
X53716803Y-32791184D01*
X53740007Y-32796996D01*
X53762529Y-32805054D01*
X53784153Y-32815282D01*
X53804670Y-32827579D01*
X53823883Y-32841829D01*
X53841607Y-32857893D01*
X53857671Y-32875617D01*
X53871921Y-32894830D01*
X53884218Y-32915347D01*
X53894446Y-32936971D01*
X53902504Y-32959493D01*
X53908316Y-32982697D01*
X53911826Y-33006358D01*
X53913000Y-33030250D01*
X53913000Y-33517750D01*
X53911826Y-33541642D01*
X53908316Y-33565303D01*
X53902504Y-33588507D01*
X53894446Y-33611029D01*
X53884218Y-33632653D01*
X53871921Y-33653170D01*
X53857671Y-33672383D01*
X53841607Y-33690107D01*
X53823883Y-33706171D01*
X53804670Y-33720421D01*
X53784153Y-33732718D01*
X53762529Y-33742946D01*
X53740007Y-33751004D01*
X53716803Y-33756816D01*
X53693142Y-33760326D01*
X53669250Y-33761500D01*
X52756750Y-33761500D01*
X52732858Y-33760326D01*
X52709197Y-33756816D01*
X52685993Y-33751004D01*
X52663471Y-33742946D01*
X52641847Y-33732718D01*
X52621330Y-33720421D01*
X52602117Y-33706171D01*
X52584393Y-33690107D01*
X52568329Y-33672383D01*
X52554079Y-33653170D01*
X52541782Y-33632653D01*
X52531554Y-33611029D01*
X52523496Y-33588507D01*
X52517684Y-33565303D01*
X52514174Y-33541642D01*
X52513000Y-33517750D01*
X52513000Y-33030250D01*
X52514174Y-33006358D01*
X52517684Y-32982697D01*
X52523496Y-32959493D01*
X52531554Y-32936971D01*
X52541782Y-32915347D01*
X52554079Y-32894830D01*
X52568329Y-32875617D01*
X52584393Y-32857893D01*
X52602117Y-32841829D01*
X52621330Y-32827579D01*
X52641847Y-32815282D01*
X52663471Y-32805054D01*
X52685993Y-32796996D01*
X52709197Y-32791184D01*
X52732858Y-32787674D01*
X52756750Y-32786500D01*
X53669250Y-32786500D01*
X53693142Y-32787674D01*
X53693142Y-32787674D01*
G37*
D24*
X53213000Y-33274000D03*
D23*
G36*
X31214142Y-53567174D02*
G01*
X31237803Y-53570684D01*
X31261007Y-53576496D01*
X31283529Y-53584554D01*
X31305153Y-53594782D01*
X31325670Y-53607079D01*
X31344883Y-53621329D01*
X31362607Y-53637393D01*
X31378671Y-53655117D01*
X31392921Y-53674330D01*
X31405218Y-53694847D01*
X31415446Y-53716471D01*
X31423504Y-53738993D01*
X31429316Y-53762197D01*
X31432826Y-53785858D01*
X31434000Y-53809750D01*
X31434000Y-54297250D01*
X31432826Y-54321142D01*
X31429316Y-54344803D01*
X31423504Y-54368007D01*
X31415446Y-54390529D01*
X31405218Y-54412153D01*
X31392921Y-54432670D01*
X31378671Y-54451883D01*
X31362607Y-54469607D01*
X31344883Y-54485671D01*
X31325670Y-54499921D01*
X31305153Y-54512218D01*
X31283529Y-54522446D01*
X31261007Y-54530504D01*
X31237803Y-54536316D01*
X31214142Y-54539826D01*
X31190250Y-54541000D01*
X30277750Y-54541000D01*
X30253858Y-54539826D01*
X30230197Y-54536316D01*
X30206993Y-54530504D01*
X30184471Y-54522446D01*
X30162847Y-54512218D01*
X30142330Y-54499921D01*
X30123117Y-54485671D01*
X30105393Y-54469607D01*
X30089329Y-54451883D01*
X30075079Y-54432670D01*
X30062782Y-54412153D01*
X30052554Y-54390529D01*
X30044496Y-54368007D01*
X30038684Y-54344803D01*
X30035174Y-54321142D01*
X30034000Y-54297250D01*
X30034000Y-53809750D01*
X30035174Y-53785858D01*
X30038684Y-53762197D01*
X30044496Y-53738993D01*
X30052554Y-53716471D01*
X30062782Y-53694847D01*
X30075079Y-53674330D01*
X30089329Y-53655117D01*
X30105393Y-53637393D01*
X30123117Y-53621329D01*
X30142330Y-53607079D01*
X30162847Y-53594782D01*
X30184471Y-53584554D01*
X30206993Y-53576496D01*
X30230197Y-53570684D01*
X30253858Y-53567174D01*
X30277750Y-53566000D01*
X31190250Y-53566000D01*
X31214142Y-53567174D01*
X31214142Y-53567174D01*
G37*
D24*
X30734000Y-54053500D03*
D23*
G36*
X31214142Y-55442174D02*
G01*
X31237803Y-55445684D01*
X31261007Y-55451496D01*
X31283529Y-55459554D01*
X31305153Y-55469782D01*
X31325670Y-55482079D01*
X31344883Y-55496329D01*
X31362607Y-55512393D01*
X31378671Y-55530117D01*
X31392921Y-55549330D01*
X31405218Y-55569847D01*
X31415446Y-55591471D01*
X31423504Y-55613993D01*
X31429316Y-55637197D01*
X31432826Y-55660858D01*
X31434000Y-55684750D01*
X31434000Y-56172250D01*
X31432826Y-56196142D01*
X31429316Y-56219803D01*
X31423504Y-56243007D01*
X31415446Y-56265529D01*
X31405218Y-56287153D01*
X31392921Y-56307670D01*
X31378671Y-56326883D01*
X31362607Y-56344607D01*
X31344883Y-56360671D01*
X31325670Y-56374921D01*
X31305153Y-56387218D01*
X31283529Y-56397446D01*
X31261007Y-56405504D01*
X31237803Y-56411316D01*
X31214142Y-56414826D01*
X31190250Y-56416000D01*
X30277750Y-56416000D01*
X30253858Y-56414826D01*
X30230197Y-56411316D01*
X30206993Y-56405504D01*
X30184471Y-56397446D01*
X30162847Y-56387218D01*
X30142330Y-56374921D01*
X30123117Y-56360671D01*
X30105393Y-56344607D01*
X30089329Y-56326883D01*
X30075079Y-56307670D01*
X30062782Y-56287153D01*
X30052554Y-56265529D01*
X30044496Y-56243007D01*
X30038684Y-56219803D01*
X30035174Y-56196142D01*
X30034000Y-56172250D01*
X30034000Y-55684750D01*
X30035174Y-55660858D01*
X30038684Y-55637197D01*
X30044496Y-55613993D01*
X30052554Y-55591471D01*
X30062782Y-55569847D01*
X30075079Y-55549330D01*
X30089329Y-55530117D01*
X30105393Y-55512393D01*
X30123117Y-55496329D01*
X30142330Y-55482079D01*
X30162847Y-55469782D01*
X30184471Y-55459554D01*
X30206993Y-55451496D01*
X30230197Y-55445684D01*
X30253858Y-55442174D01*
X30277750Y-55441000D01*
X31190250Y-55441000D01*
X31214142Y-55442174D01*
X31214142Y-55442174D01*
G37*
D24*
X30734000Y-55928500D03*
D23*
G36*
X33511642Y-15684174D02*
G01*
X33535303Y-15687684D01*
X33558507Y-15693496D01*
X33581029Y-15701554D01*
X33602653Y-15711782D01*
X33623170Y-15724079D01*
X33642383Y-15738329D01*
X33660107Y-15754393D01*
X33676171Y-15772117D01*
X33690421Y-15791330D01*
X33702718Y-15811847D01*
X33712946Y-15833471D01*
X33721004Y-15855993D01*
X33726816Y-15879197D01*
X33730326Y-15902858D01*
X33731500Y-15926750D01*
X33731500Y-16839250D01*
X33730326Y-16863142D01*
X33726816Y-16886803D01*
X33721004Y-16910007D01*
X33712946Y-16932529D01*
X33702718Y-16954153D01*
X33690421Y-16974670D01*
X33676171Y-16993883D01*
X33660107Y-17011607D01*
X33642383Y-17027671D01*
X33623170Y-17041921D01*
X33602653Y-17054218D01*
X33581029Y-17064446D01*
X33558507Y-17072504D01*
X33535303Y-17078316D01*
X33511642Y-17081826D01*
X33487750Y-17083000D01*
X33000250Y-17083000D01*
X32976358Y-17081826D01*
X32952697Y-17078316D01*
X32929493Y-17072504D01*
X32906971Y-17064446D01*
X32885347Y-17054218D01*
X32864830Y-17041921D01*
X32845617Y-17027671D01*
X32827893Y-17011607D01*
X32811829Y-16993883D01*
X32797579Y-16974670D01*
X32785282Y-16954153D01*
X32775054Y-16932529D01*
X32766996Y-16910007D01*
X32761184Y-16886803D01*
X32757674Y-16863142D01*
X32756500Y-16839250D01*
X32756500Y-15926750D01*
X32757674Y-15902858D01*
X32761184Y-15879197D01*
X32766996Y-15855993D01*
X32775054Y-15833471D01*
X32785282Y-15811847D01*
X32797579Y-15791330D01*
X32811829Y-15772117D01*
X32827893Y-15754393D01*
X32845617Y-15738329D01*
X32864830Y-15724079D01*
X32885347Y-15711782D01*
X32906971Y-15701554D01*
X32929493Y-15693496D01*
X32952697Y-15687684D01*
X32976358Y-15684174D01*
X33000250Y-15683000D01*
X33487750Y-15683000D01*
X33511642Y-15684174D01*
X33511642Y-15684174D01*
G37*
D24*
X33244000Y-16383000D03*
D23*
G36*
X31636642Y-15684174D02*
G01*
X31660303Y-15687684D01*
X31683507Y-15693496D01*
X31706029Y-15701554D01*
X31727653Y-15711782D01*
X31748170Y-15724079D01*
X31767383Y-15738329D01*
X31785107Y-15754393D01*
X31801171Y-15772117D01*
X31815421Y-15791330D01*
X31827718Y-15811847D01*
X31837946Y-15833471D01*
X31846004Y-15855993D01*
X31851816Y-15879197D01*
X31855326Y-15902858D01*
X31856500Y-15926750D01*
X31856500Y-16839250D01*
X31855326Y-16863142D01*
X31851816Y-16886803D01*
X31846004Y-16910007D01*
X31837946Y-16932529D01*
X31827718Y-16954153D01*
X31815421Y-16974670D01*
X31801171Y-16993883D01*
X31785107Y-17011607D01*
X31767383Y-17027671D01*
X31748170Y-17041921D01*
X31727653Y-17054218D01*
X31706029Y-17064446D01*
X31683507Y-17072504D01*
X31660303Y-17078316D01*
X31636642Y-17081826D01*
X31612750Y-17083000D01*
X31125250Y-17083000D01*
X31101358Y-17081826D01*
X31077697Y-17078316D01*
X31054493Y-17072504D01*
X31031971Y-17064446D01*
X31010347Y-17054218D01*
X30989830Y-17041921D01*
X30970617Y-17027671D01*
X30952893Y-17011607D01*
X30936829Y-16993883D01*
X30922579Y-16974670D01*
X30910282Y-16954153D01*
X30900054Y-16932529D01*
X30891996Y-16910007D01*
X30886184Y-16886803D01*
X30882674Y-16863142D01*
X30881500Y-16839250D01*
X30881500Y-15926750D01*
X30882674Y-15902858D01*
X30886184Y-15879197D01*
X30891996Y-15855993D01*
X30900054Y-15833471D01*
X30910282Y-15811847D01*
X30922579Y-15791330D01*
X30936829Y-15772117D01*
X30952893Y-15754393D01*
X30970617Y-15738329D01*
X30989830Y-15724079D01*
X31010347Y-15711782D01*
X31031971Y-15701554D01*
X31054493Y-15693496D01*
X31077697Y-15687684D01*
X31101358Y-15684174D01*
X31125250Y-15683000D01*
X31612750Y-15683000D01*
X31636642Y-15684174D01*
X31636642Y-15684174D01*
G37*
D24*
X31369000Y-16383000D03*
D23*
G36*
X33541642Y-18478174D02*
G01*
X33565303Y-18481684D01*
X33588507Y-18487496D01*
X33611029Y-18495554D01*
X33632653Y-18505782D01*
X33653170Y-18518079D01*
X33672383Y-18532329D01*
X33690107Y-18548393D01*
X33706171Y-18566117D01*
X33720421Y-18585330D01*
X33732718Y-18605847D01*
X33742946Y-18627471D01*
X33751004Y-18649993D01*
X33756816Y-18673197D01*
X33760326Y-18696858D01*
X33761500Y-18720750D01*
X33761500Y-19633250D01*
X33760326Y-19657142D01*
X33756816Y-19680803D01*
X33751004Y-19704007D01*
X33742946Y-19726529D01*
X33732718Y-19748153D01*
X33720421Y-19768670D01*
X33706171Y-19787883D01*
X33690107Y-19805607D01*
X33672383Y-19821671D01*
X33653170Y-19835921D01*
X33632653Y-19848218D01*
X33611029Y-19858446D01*
X33588507Y-19866504D01*
X33565303Y-19872316D01*
X33541642Y-19875826D01*
X33517750Y-19877000D01*
X33030250Y-19877000D01*
X33006358Y-19875826D01*
X32982697Y-19872316D01*
X32959493Y-19866504D01*
X32936971Y-19858446D01*
X32915347Y-19848218D01*
X32894830Y-19835921D01*
X32875617Y-19821671D01*
X32857893Y-19805607D01*
X32841829Y-19787883D01*
X32827579Y-19768670D01*
X32815282Y-19748153D01*
X32805054Y-19726529D01*
X32796996Y-19704007D01*
X32791184Y-19680803D01*
X32787674Y-19657142D01*
X32786500Y-19633250D01*
X32786500Y-18720750D01*
X32787674Y-18696858D01*
X32791184Y-18673197D01*
X32796996Y-18649993D01*
X32805054Y-18627471D01*
X32815282Y-18605847D01*
X32827579Y-18585330D01*
X32841829Y-18566117D01*
X32857893Y-18548393D01*
X32875617Y-18532329D01*
X32894830Y-18518079D01*
X32915347Y-18505782D01*
X32936971Y-18495554D01*
X32959493Y-18487496D01*
X32982697Y-18481684D01*
X33006358Y-18478174D01*
X33030250Y-18477000D01*
X33517750Y-18477000D01*
X33541642Y-18478174D01*
X33541642Y-18478174D01*
G37*
D24*
X33274000Y-19177000D03*
D23*
G36*
X31666642Y-18478174D02*
G01*
X31690303Y-18481684D01*
X31713507Y-18487496D01*
X31736029Y-18495554D01*
X31757653Y-18505782D01*
X31778170Y-18518079D01*
X31797383Y-18532329D01*
X31815107Y-18548393D01*
X31831171Y-18566117D01*
X31845421Y-18585330D01*
X31857718Y-18605847D01*
X31867946Y-18627471D01*
X31876004Y-18649993D01*
X31881816Y-18673197D01*
X31885326Y-18696858D01*
X31886500Y-18720750D01*
X31886500Y-19633250D01*
X31885326Y-19657142D01*
X31881816Y-19680803D01*
X31876004Y-19704007D01*
X31867946Y-19726529D01*
X31857718Y-19748153D01*
X31845421Y-19768670D01*
X31831171Y-19787883D01*
X31815107Y-19805607D01*
X31797383Y-19821671D01*
X31778170Y-19835921D01*
X31757653Y-19848218D01*
X31736029Y-19858446D01*
X31713507Y-19866504D01*
X31690303Y-19872316D01*
X31666642Y-19875826D01*
X31642750Y-19877000D01*
X31155250Y-19877000D01*
X31131358Y-19875826D01*
X31107697Y-19872316D01*
X31084493Y-19866504D01*
X31061971Y-19858446D01*
X31040347Y-19848218D01*
X31019830Y-19835921D01*
X31000617Y-19821671D01*
X30982893Y-19805607D01*
X30966829Y-19787883D01*
X30952579Y-19768670D01*
X30940282Y-19748153D01*
X30930054Y-19726529D01*
X30921996Y-19704007D01*
X30916184Y-19680803D01*
X30912674Y-19657142D01*
X30911500Y-19633250D01*
X30911500Y-18720750D01*
X30912674Y-18696858D01*
X30916184Y-18673197D01*
X30921996Y-18649993D01*
X30930054Y-18627471D01*
X30940282Y-18605847D01*
X30952579Y-18585330D01*
X30966829Y-18566117D01*
X30982893Y-18548393D01*
X31000617Y-18532329D01*
X31019830Y-18518079D01*
X31040347Y-18505782D01*
X31061971Y-18495554D01*
X31084493Y-18487496D01*
X31107697Y-18481684D01*
X31131358Y-18478174D01*
X31155250Y-18477000D01*
X31642750Y-18477000D01*
X31666642Y-18478174D01*
X31666642Y-18478174D01*
G37*
D24*
X31399000Y-19177000D03*
D25*
X8255000Y-15240000D03*
D26*
X5715000Y-15240000D03*
X8255000Y-17780000D03*
X5715000Y-17780000D03*
X8255000Y-20320000D03*
X5715000Y-20320000D03*
D23*
G36*
X46264703Y-16107722D02*
G01*
X46279264Y-16109882D01*
X46293543Y-16113459D01*
X46307403Y-16118418D01*
X46320710Y-16124712D01*
X46333336Y-16132280D01*
X46345159Y-16141048D01*
X46356066Y-16150934D01*
X46365952Y-16161841D01*
X46374720Y-16173664D01*
X46382288Y-16186290D01*
X46388582Y-16199597D01*
X46393541Y-16213457D01*
X46397118Y-16227736D01*
X46399278Y-16242297D01*
X46400000Y-16257000D01*
X46400000Y-16557000D01*
X46399278Y-16571703D01*
X46397118Y-16586264D01*
X46393541Y-16600543D01*
X46388582Y-16614403D01*
X46382288Y-16627710D01*
X46374720Y-16640336D01*
X46365952Y-16652159D01*
X46356066Y-16663066D01*
X46345159Y-16672952D01*
X46333336Y-16681720D01*
X46320710Y-16689288D01*
X46307403Y-16695582D01*
X46293543Y-16700541D01*
X46279264Y-16704118D01*
X46264703Y-16706278D01*
X46250000Y-16707000D01*
X45000000Y-16707000D01*
X44985297Y-16706278D01*
X44970736Y-16704118D01*
X44956457Y-16700541D01*
X44942597Y-16695582D01*
X44929290Y-16689288D01*
X44916664Y-16681720D01*
X44904841Y-16672952D01*
X44893934Y-16663066D01*
X44884048Y-16652159D01*
X44875280Y-16640336D01*
X44867712Y-16627710D01*
X44861418Y-16614403D01*
X44856459Y-16600543D01*
X44852882Y-16586264D01*
X44850722Y-16571703D01*
X44850000Y-16557000D01*
X44850000Y-16257000D01*
X44850722Y-16242297D01*
X44852882Y-16227736D01*
X44856459Y-16213457D01*
X44861418Y-16199597D01*
X44867712Y-16186290D01*
X44875280Y-16173664D01*
X44884048Y-16161841D01*
X44893934Y-16150934D01*
X44904841Y-16141048D01*
X44916664Y-16132280D01*
X44929290Y-16124712D01*
X44942597Y-16118418D01*
X44956457Y-16113459D01*
X44970736Y-16109882D01*
X44985297Y-16107722D01*
X45000000Y-16107000D01*
X46250000Y-16107000D01*
X46264703Y-16107722D01*
X46264703Y-16107722D01*
G37*
D27*
X45625000Y-16407000D03*
D23*
G36*
X46264703Y-17107722D02*
G01*
X46279264Y-17109882D01*
X46293543Y-17113459D01*
X46307403Y-17118418D01*
X46320710Y-17124712D01*
X46333336Y-17132280D01*
X46345159Y-17141048D01*
X46356066Y-17150934D01*
X46365952Y-17161841D01*
X46374720Y-17173664D01*
X46382288Y-17186290D01*
X46388582Y-17199597D01*
X46393541Y-17213457D01*
X46397118Y-17227736D01*
X46399278Y-17242297D01*
X46400000Y-17257000D01*
X46400000Y-17557000D01*
X46399278Y-17571703D01*
X46397118Y-17586264D01*
X46393541Y-17600543D01*
X46388582Y-17614403D01*
X46382288Y-17627710D01*
X46374720Y-17640336D01*
X46365952Y-17652159D01*
X46356066Y-17663066D01*
X46345159Y-17672952D01*
X46333336Y-17681720D01*
X46320710Y-17689288D01*
X46307403Y-17695582D01*
X46293543Y-17700541D01*
X46279264Y-17704118D01*
X46264703Y-17706278D01*
X46250000Y-17707000D01*
X45000000Y-17707000D01*
X44985297Y-17706278D01*
X44970736Y-17704118D01*
X44956457Y-17700541D01*
X44942597Y-17695582D01*
X44929290Y-17689288D01*
X44916664Y-17681720D01*
X44904841Y-17672952D01*
X44893934Y-17663066D01*
X44884048Y-17652159D01*
X44875280Y-17640336D01*
X44867712Y-17627710D01*
X44861418Y-17614403D01*
X44856459Y-17600543D01*
X44852882Y-17586264D01*
X44850722Y-17571703D01*
X44850000Y-17557000D01*
X44850000Y-17257000D01*
X44850722Y-17242297D01*
X44852882Y-17227736D01*
X44856459Y-17213457D01*
X44861418Y-17199597D01*
X44867712Y-17186290D01*
X44875280Y-17173664D01*
X44884048Y-17161841D01*
X44893934Y-17150934D01*
X44904841Y-17141048D01*
X44916664Y-17132280D01*
X44929290Y-17124712D01*
X44942597Y-17118418D01*
X44956457Y-17113459D01*
X44970736Y-17109882D01*
X44985297Y-17107722D01*
X45000000Y-17107000D01*
X46250000Y-17107000D01*
X46264703Y-17107722D01*
X46264703Y-17107722D01*
G37*
D27*
X45625000Y-17407000D03*
D23*
G36*
X46264703Y-18107722D02*
G01*
X46279264Y-18109882D01*
X46293543Y-18113459D01*
X46307403Y-18118418D01*
X46320710Y-18124712D01*
X46333336Y-18132280D01*
X46345159Y-18141048D01*
X46356066Y-18150934D01*
X46365952Y-18161841D01*
X46374720Y-18173664D01*
X46382288Y-18186290D01*
X46388582Y-18199597D01*
X46393541Y-18213457D01*
X46397118Y-18227736D01*
X46399278Y-18242297D01*
X46400000Y-18257000D01*
X46400000Y-18557000D01*
X46399278Y-18571703D01*
X46397118Y-18586264D01*
X46393541Y-18600543D01*
X46388582Y-18614403D01*
X46382288Y-18627710D01*
X46374720Y-18640336D01*
X46365952Y-18652159D01*
X46356066Y-18663066D01*
X46345159Y-18672952D01*
X46333336Y-18681720D01*
X46320710Y-18689288D01*
X46307403Y-18695582D01*
X46293543Y-18700541D01*
X46279264Y-18704118D01*
X46264703Y-18706278D01*
X46250000Y-18707000D01*
X45000000Y-18707000D01*
X44985297Y-18706278D01*
X44970736Y-18704118D01*
X44956457Y-18700541D01*
X44942597Y-18695582D01*
X44929290Y-18689288D01*
X44916664Y-18681720D01*
X44904841Y-18672952D01*
X44893934Y-18663066D01*
X44884048Y-18652159D01*
X44875280Y-18640336D01*
X44867712Y-18627710D01*
X44861418Y-18614403D01*
X44856459Y-18600543D01*
X44852882Y-18586264D01*
X44850722Y-18571703D01*
X44850000Y-18557000D01*
X44850000Y-18257000D01*
X44850722Y-18242297D01*
X44852882Y-18227736D01*
X44856459Y-18213457D01*
X44861418Y-18199597D01*
X44867712Y-18186290D01*
X44875280Y-18173664D01*
X44884048Y-18161841D01*
X44893934Y-18150934D01*
X44904841Y-18141048D01*
X44916664Y-18132280D01*
X44929290Y-18124712D01*
X44942597Y-18118418D01*
X44956457Y-18113459D01*
X44970736Y-18109882D01*
X44985297Y-18107722D01*
X45000000Y-18107000D01*
X46250000Y-18107000D01*
X46264703Y-18107722D01*
X46264703Y-18107722D01*
G37*
D27*
X45625000Y-18407000D03*
D23*
G36*
X46264703Y-19107722D02*
G01*
X46279264Y-19109882D01*
X46293543Y-19113459D01*
X46307403Y-19118418D01*
X46320710Y-19124712D01*
X46333336Y-19132280D01*
X46345159Y-19141048D01*
X46356066Y-19150934D01*
X46365952Y-19161841D01*
X46374720Y-19173664D01*
X46382288Y-19186290D01*
X46388582Y-19199597D01*
X46393541Y-19213457D01*
X46397118Y-19227736D01*
X46399278Y-19242297D01*
X46400000Y-19257000D01*
X46400000Y-19557000D01*
X46399278Y-19571703D01*
X46397118Y-19586264D01*
X46393541Y-19600543D01*
X46388582Y-19614403D01*
X46382288Y-19627710D01*
X46374720Y-19640336D01*
X46365952Y-19652159D01*
X46356066Y-19663066D01*
X46345159Y-19672952D01*
X46333336Y-19681720D01*
X46320710Y-19689288D01*
X46307403Y-19695582D01*
X46293543Y-19700541D01*
X46279264Y-19704118D01*
X46264703Y-19706278D01*
X46250000Y-19707000D01*
X45000000Y-19707000D01*
X44985297Y-19706278D01*
X44970736Y-19704118D01*
X44956457Y-19700541D01*
X44942597Y-19695582D01*
X44929290Y-19689288D01*
X44916664Y-19681720D01*
X44904841Y-19672952D01*
X44893934Y-19663066D01*
X44884048Y-19652159D01*
X44875280Y-19640336D01*
X44867712Y-19627710D01*
X44861418Y-19614403D01*
X44856459Y-19600543D01*
X44852882Y-19586264D01*
X44850722Y-19571703D01*
X44850000Y-19557000D01*
X44850000Y-19257000D01*
X44850722Y-19242297D01*
X44852882Y-19227736D01*
X44856459Y-19213457D01*
X44861418Y-19199597D01*
X44867712Y-19186290D01*
X44875280Y-19173664D01*
X44884048Y-19161841D01*
X44893934Y-19150934D01*
X44904841Y-19141048D01*
X44916664Y-19132280D01*
X44929290Y-19124712D01*
X44942597Y-19118418D01*
X44956457Y-19113459D01*
X44970736Y-19109882D01*
X44985297Y-19107722D01*
X45000000Y-19107000D01*
X46250000Y-19107000D01*
X46264703Y-19107722D01*
X46264703Y-19107722D01*
G37*
D27*
X45625000Y-19407000D03*
D23*
G36*
X50174505Y-14508204D02*
G01*
X50198773Y-14511804D01*
X50222572Y-14517765D01*
X50245671Y-14526030D01*
X50267850Y-14536520D01*
X50288893Y-14549132D01*
X50308599Y-14563747D01*
X50326777Y-14580223D01*
X50343253Y-14598401D01*
X50357868Y-14618107D01*
X50370480Y-14639150D01*
X50380970Y-14661329D01*
X50389235Y-14684428D01*
X50395196Y-14708227D01*
X50398796Y-14732495D01*
X50400000Y-14756999D01*
X50400000Y-15457001D01*
X50398796Y-15481505D01*
X50395196Y-15505773D01*
X50389235Y-15529572D01*
X50380970Y-15552671D01*
X50370480Y-15574850D01*
X50357868Y-15595893D01*
X50343253Y-15615599D01*
X50326777Y-15633777D01*
X50308599Y-15650253D01*
X50288893Y-15664868D01*
X50267850Y-15677480D01*
X50245671Y-15687970D01*
X50222572Y-15696235D01*
X50198773Y-15702196D01*
X50174505Y-15705796D01*
X50150001Y-15707000D01*
X48849999Y-15707000D01*
X48825495Y-15705796D01*
X48801227Y-15702196D01*
X48777428Y-15696235D01*
X48754329Y-15687970D01*
X48732150Y-15677480D01*
X48711107Y-15664868D01*
X48691401Y-15650253D01*
X48673223Y-15633777D01*
X48656747Y-15615599D01*
X48642132Y-15595893D01*
X48629520Y-15574850D01*
X48619030Y-15552671D01*
X48610765Y-15529572D01*
X48604804Y-15505773D01*
X48601204Y-15481505D01*
X48600000Y-15457001D01*
X48600000Y-14756999D01*
X48601204Y-14732495D01*
X48604804Y-14708227D01*
X48610765Y-14684428D01*
X48619030Y-14661329D01*
X48629520Y-14639150D01*
X48642132Y-14618107D01*
X48656747Y-14598401D01*
X48673223Y-14580223D01*
X48691401Y-14563747D01*
X48711107Y-14549132D01*
X48732150Y-14536520D01*
X48754329Y-14526030D01*
X48777428Y-14517765D01*
X48801227Y-14511804D01*
X48825495Y-14508204D01*
X48849999Y-14507000D01*
X50150001Y-14507000D01*
X50174505Y-14508204D01*
X50174505Y-14508204D01*
G37*
D28*
X49500000Y-15107000D03*
D23*
G36*
X50174505Y-20108204D02*
G01*
X50198773Y-20111804D01*
X50222572Y-20117765D01*
X50245671Y-20126030D01*
X50267850Y-20136520D01*
X50288893Y-20149132D01*
X50308599Y-20163747D01*
X50326777Y-20180223D01*
X50343253Y-20198401D01*
X50357868Y-20218107D01*
X50370480Y-20239150D01*
X50380970Y-20261329D01*
X50389235Y-20284428D01*
X50395196Y-20308227D01*
X50398796Y-20332495D01*
X50400000Y-20356999D01*
X50400000Y-21057001D01*
X50398796Y-21081505D01*
X50395196Y-21105773D01*
X50389235Y-21129572D01*
X50380970Y-21152671D01*
X50370480Y-21174850D01*
X50357868Y-21195893D01*
X50343253Y-21215599D01*
X50326777Y-21233777D01*
X50308599Y-21250253D01*
X50288893Y-21264868D01*
X50267850Y-21277480D01*
X50245671Y-21287970D01*
X50222572Y-21296235D01*
X50198773Y-21302196D01*
X50174505Y-21305796D01*
X50150001Y-21307000D01*
X48849999Y-21307000D01*
X48825495Y-21305796D01*
X48801227Y-21302196D01*
X48777428Y-21296235D01*
X48754329Y-21287970D01*
X48732150Y-21277480D01*
X48711107Y-21264868D01*
X48691401Y-21250253D01*
X48673223Y-21233777D01*
X48656747Y-21215599D01*
X48642132Y-21195893D01*
X48629520Y-21174850D01*
X48619030Y-21152671D01*
X48610765Y-21129572D01*
X48604804Y-21105773D01*
X48601204Y-21081505D01*
X48600000Y-21057001D01*
X48600000Y-20356999D01*
X48601204Y-20332495D01*
X48604804Y-20308227D01*
X48610765Y-20284428D01*
X48619030Y-20261329D01*
X48629520Y-20239150D01*
X48642132Y-20218107D01*
X48656747Y-20198401D01*
X48673223Y-20180223D01*
X48691401Y-20163747D01*
X48711107Y-20149132D01*
X48732150Y-20136520D01*
X48754329Y-20126030D01*
X48777428Y-20117765D01*
X48801227Y-20111804D01*
X48825495Y-20108204D01*
X48849999Y-20107000D01*
X50150001Y-20107000D01*
X50174505Y-20108204D01*
X50174505Y-20108204D01*
G37*
D28*
X49500000Y-20707000D03*
D23*
G36*
X26059504Y-15636204D02*
G01*
X26083773Y-15639804D01*
X26107571Y-15645765D01*
X26130671Y-15654030D01*
X26152849Y-15664520D01*
X26173893Y-15677133D01*
X26193598Y-15691747D01*
X26211777Y-15708223D01*
X26228253Y-15726402D01*
X26242867Y-15746107D01*
X26255480Y-15767151D01*
X26265970Y-15789329D01*
X26274235Y-15812429D01*
X26280196Y-15836227D01*
X26283796Y-15860496D01*
X26285000Y-15885000D01*
X26285000Y-17135000D01*
X26283796Y-17159504D01*
X26280196Y-17183773D01*
X26274235Y-17207571D01*
X26265970Y-17230671D01*
X26255480Y-17252849D01*
X26242867Y-17273893D01*
X26228253Y-17293598D01*
X26211777Y-17311777D01*
X26193598Y-17328253D01*
X26173893Y-17342867D01*
X26152849Y-17355480D01*
X26130671Y-17365970D01*
X26107571Y-17374235D01*
X26083773Y-17380196D01*
X26059504Y-17383796D01*
X26035000Y-17385000D01*
X25285000Y-17385000D01*
X25260496Y-17383796D01*
X25236227Y-17380196D01*
X25212429Y-17374235D01*
X25189329Y-17365970D01*
X25167151Y-17355480D01*
X25146107Y-17342867D01*
X25126402Y-17328253D01*
X25108223Y-17311777D01*
X25091747Y-17293598D01*
X25077133Y-17273893D01*
X25064520Y-17252849D01*
X25054030Y-17230671D01*
X25045765Y-17207571D01*
X25039804Y-17183773D01*
X25036204Y-17159504D01*
X25035000Y-17135000D01*
X25035000Y-15885000D01*
X25036204Y-15860496D01*
X25039804Y-15836227D01*
X25045765Y-15812429D01*
X25054030Y-15789329D01*
X25064520Y-15767151D01*
X25077133Y-15746107D01*
X25091747Y-15726402D01*
X25108223Y-15708223D01*
X25126402Y-15691747D01*
X25146107Y-15677133D01*
X25167151Y-15664520D01*
X25189329Y-15654030D01*
X25212429Y-15645765D01*
X25236227Y-15639804D01*
X25260496Y-15636204D01*
X25285000Y-15635000D01*
X26035000Y-15635000D01*
X26059504Y-15636204D01*
X26059504Y-15636204D01*
G37*
D29*
X25660000Y-16510000D03*
D23*
G36*
X23259504Y-15636204D02*
G01*
X23283773Y-15639804D01*
X23307571Y-15645765D01*
X23330671Y-15654030D01*
X23352849Y-15664520D01*
X23373893Y-15677133D01*
X23393598Y-15691747D01*
X23411777Y-15708223D01*
X23428253Y-15726402D01*
X23442867Y-15746107D01*
X23455480Y-15767151D01*
X23465970Y-15789329D01*
X23474235Y-15812429D01*
X23480196Y-15836227D01*
X23483796Y-15860496D01*
X23485000Y-15885000D01*
X23485000Y-17135000D01*
X23483796Y-17159504D01*
X23480196Y-17183773D01*
X23474235Y-17207571D01*
X23465970Y-17230671D01*
X23455480Y-17252849D01*
X23442867Y-17273893D01*
X23428253Y-17293598D01*
X23411777Y-17311777D01*
X23393598Y-17328253D01*
X23373893Y-17342867D01*
X23352849Y-17355480D01*
X23330671Y-17365970D01*
X23307571Y-17374235D01*
X23283773Y-17380196D01*
X23259504Y-17383796D01*
X23235000Y-17385000D01*
X22485000Y-17385000D01*
X22460496Y-17383796D01*
X22436227Y-17380196D01*
X22412429Y-17374235D01*
X22389329Y-17365970D01*
X22367151Y-17355480D01*
X22346107Y-17342867D01*
X22326402Y-17328253D01*
X22308223Y-17311777D01*
X22291747Y-17293598D01*
X22277133Y-17273893D01*
X22264520Y-17252849D01*
X22254030Y-17230671D01*
X22245765Y-17207571D01*
X22239804Y-17183773D01*
X22236204Y-17159504D01*
X22235000Y-17135000D01*
X22235000Y-15885000D01*
X22236204Y-15860496D01*
X22239804Y-15836227D01*
X22245765Y-15812429D01*
X22254030Y-15789329D01*
X22264520Y-15767151D01*
X22277133Y-15746107D01*
X22291747Y-15726402D01*
X22308223Y-15708223D01*
X22326402Y-15691747D01*
X22346107Y-15677133D01*
X22367151Y-15664520D01*
X22389329Y-15654030D01*
X22412429Y-15645765D01*
X22436227Y-15639804D01*
X22460496Y-15636204D01*
X22485000Y-15635000D01*
X23235000Y-15635000D01*
X23259504Y-15636204D01*
X23259504Y-15636204D01*
G37*
D29*
X22860000Y-16510000D03*
D23*
G36*
X40399642Y-40195174D02*
G01*
X40423303Y-40198684D01*
X40446507Y-40204496D01*
X40469029Y-40212554D01*
X40490653Y-40222782D01*
X40511170Y-40235079D01*
X40530383Y-40249329D01*
X40548107Y-40265393D01*
X40564171Y-40283117D01*
X40578421Y-40302330D01*
X40590718Y-40322847D01*
X40600946Y-40344471D01*
X40609004Y-40366993D01*
X40614816Y-40390197D01*
X40618326Y-40413858D01*
X40619500Y-40437750D01*
X40619500Y-41350250D01*
X40618326Y-41374142D01*
X40614816Y-41397803D01*
X40609004Y-41421007D01*
X40600946Y-41443529D01*
X40590718Y-41465153D01*
X40578421Y-41485670D01*
X40564171Y-41504883D01*
X40548107Y-41522607D01*
X40530383Y-41538671D01*
X40511170Y-41552921D01*
X40490653Y-41565218D01*
X40469029Y-41575446D01*
X40446507Y-41583504D01*
X40423303Y-41589316D01*
X40399642Y-41592826D01*
X40375750Y-41594000D01*
X39888250Y-41594000D01*
X39864358Y-41592826D01*
X39840697Y-41589316D01*
X39817493Y-41583504D01*
X39794971Y-41575446D01*
X39773347Y-41565218D01*
X39752830Y-41552921D01*
X39733617Y-41538671D01*
X39715893Y-41522607D01*
X39699829Y-41504883D01*
X39685579Y-41485670D01*
X39673282Y-41465153D01*
X39663054Y-41443529D01*
X39654996Y-41421007D01*
X39649184Y-41397803D01*
X39645674Y-41374142D01*
X39644500Y-41350250D01*
X39644500Y-40437750D01*
X39645674Y-40413858D01*
X39649184Y-40390197D01*
X39654996Y-40366993D01*
X39663054Y-40344471D01*
X39673282Y-40322847D01*
X39685579Y-40302330D01*
X39699829Y-40283117D01*
X39715893Y-40265393D01*
X39733617Y-40249329D01*
X39752830Y-40235079D01*
X39773347Y-40222782D01*
X39794971Y-40212554D01*
X39817493Y-40204496D01*
X39840697Y-40198684D01*
X39864358Y-40195174D01*
X39888250Y-40194000D01*
X40375750Y-40194000D01*
X40399642Y-40195174D01*
X40399642Y-40195174D01*
G37*
D24*
X40132000Y-40894000D03*
D23*
G36*
X42274642Y-40195174D02*
G01*
X42298303Y-40198684D01*
X42321507Y-40204496D01*
X42344029Y-40212554D01*
X42365653Y-40222782D01*
X42386170Y-40235079D01*
X42405383Y-40249329D01*
X42423107Y-40265393D01*
X42439171Y-40283117D01*
X42453421Y-40302330D01*
X42465718Y-40322847D01*
X42475946Y-40344471D01*
X42484004Y-40366993D01*
X42489816Y-40390197D01*
X42493326Y-40413858D01*
X42494500Y-40437750D01*
X42494500Y-41350250D01*
X42493326Y-41374142D01*
X42489816Y-41397803D01*
X42484004Y-41421007D01*
X42475946Y-41443529D01*
X42465718Y-41465153D01*
X42453421Y-41485670D01*
X42439171Y-41504883D01*
X42423107Y-41522607D01*
X42405383Y-41538671D01*
X42386170Y-41552921D01*
X42365653Y-41565218D01*
X42344029Y-41575446D01*
X42321507Y-41583504D01*
X42298303Y-41589316D01*
X42274642Y-41592826D01*
X42250750Y-41594000D01*
X41763250Y-41594000D01*
X41739358Y-41592826D01*
X41715697Y-41589316D01*
X41692493Y-41583504D01*
X41669971Y-41575446D01*
X41648347Y-41565218D01*
X41627830Y-41552921D01*
X41608617Y-41538671D01*
X41590893Y-41522607D01*
X41574829Y-41504883D01*
X41560579Y-41485670D01*
X41548282Y-41465153D01*
X41538054Y-41443529D01*
X41529996Y-41421007D01*
X41524184Y-41397803D01*
X41520674Y-41374142D01*
X41519500Y-41350250D01*
X41519500Y-40437750D01*
X41520674Y-40413858D01*
X41524184Y-40390197D01*
X41529996Y-40366993D01*
X41538054Y-40344471D01*
X41548282Y-40322847D01*
X41560579Y-40302330D01*
X41574829Y-40283117D01*
X41590893Y-40265393D01*
X41608617Y-40249329D01*
X41627830Y-40235079D01*
X41648347Y-40222782D01*
X41669971Y-40212554D01*
X41692493Y-40204496D01*
X41715697Y-40198684D01*
X41739358Y-40195174D01*
X41763250Y-40194000D01*
X42250750Y-40194000D01*
X42274642Y-40195174D01*
X42274642Y-40195174D01*
G37*
D24*
X42007000Y-40894000D03*
D23*
G36*
X28801142Y-28977674D02*
G01*
X28824803Y-28981184D01*
X28848007Y-28986996D01*
X28870529Y-28995054D01*
X28892153Y-29005282D01*
X28912670Y-29017579D01*
X28931883Y-29031829D01*
X28949607Y-29047893D01*
X28965671Y-29065617D01*
X28979921Y-29084830D01*
X28992218Y-29105347D01*
X29002446Y-29126971D01*
X29010504Y-29149493D01*
X29016316Y-29172697D01*
X29019826Y-29196358D01*
X29021000Y-29220250D01*
X29021000Y-29707750D01*
X29019826Y-29731642D01*
X29016316Y-29755303D01*
X29010504Y-29778507D01*
X29002446Y-29801029D01*
X28992218Y-29822653D01*
X28979921Y-29843170D01*
X28965671Y-29862383D01*
X28949607Y-29880107D01*
X28931883Y-29896171D01*
X28912670Y-29910421D01*
X28892153Y-29922718D01*
X28870529Y-29932946D01*
X28848007Y-29941004D01*
X28824803Y-29946816D01*
X28801142Y-29950326D01*
X28777250Y-29951500D01*
X27864750Y-29951500D01*
X27840858Y-29950326D01*
X27817197Y-29946816D01*
X27793993Y-29941004D01*
X27771471Y-29932946D01*
X27749847Y-29922718D01*
X27729330Y-29910421D01*
X27710117Y-29896171D01*
X27692393Y-29880107D01*
X27676329Y-29862383D01*
X27662079Y-29843170D01*
X27649782Y-29822653D01*
X27639554Y-29801029D01*
X27631496Y-29778507D01*
X27625684Y-29755303D01*
X27622174Y-29731642D01*
X27621000Y-29707750D01*
X27621000Y-29220250D01*
X27622174Y-29196358D01*
X27625684Y-29172697D01*
X27631496Y-29149493D01*
X27639554Y-29126971D01*
X27649782Y-29105347D01*
X27662079Y-29084830D01*
X27676329Y-29065617D01*
X27692393Y-29047893D01*
X27710117Y-29031829D01*
X27729330Y-29017579D01*
X27749847Y-29005282D01*
X27771471Y-28995054D01*
X27793993Y-28986996D01*
X27817197Y-28981184D01*
X27840858Y-28977674D01*
X27864750Y-28976500D01*
X28777250Y-28976500D01*
X28801142Y-28977674D01*
X28801142Y-28977674D01*
G37*
D24*
X28321000Y-29464000D03*
D23*
G36*
X28801142Y-27102674D02*
G01*
X28824803Y-27106184D01*
X28848007Y-27111996D01*
X28870529Y-27120054D01*
X28892153Y-27130282D01*
X28912670Y-27142579D01*
X28931883Y-27156829D01*
X28949607Y-27172893D01*
X28965671Y-27190617D01*
X28979921Y-27209830D01*
X28992218Y-27230347D01*
X29002446Y-27251971D01*
X29010504Y-27274493D01*
X29016316Y-27297697D01*
X29019826Y-27321358D01*
X29021000Y-27345250D01*
X29021000Y-27832750D01*
X29019826Y-27856642D01*
X29016316Y-27880303D01*
X29010504Y-27903507D01*
X29002446Y-27926029D01*
X28992218Y-27947653D01*
X28979921Y-27968170D01*
X28965671Y-27987383D01*
X28949607Y-28005107D01*
X28931883Y-28021171D01*
X28912670Y-28035421D01*
X28892153Y-28047718D01*
X28870529Y-28057946D01*
X28848007Y-28066004D01*
X28824803Y-28071816D01*
X28801142Y-28075326D01*
X28777250Y-28076500D01*
X27864750Y-28076500D01*
X27840858Y-28075326D01*
X27817197Y-28071816D01*
X27793993Y-28066004D01*
X27771471Y-28057946D01*
X27749847Y-28047718D01*
X27729330Y-28035421D01*
X27710117Y-28021171D01*
X27692393Y-28005107D01*
X27676329Y-27987383D01*
X27662079Y-27968170D01*
X27649782Y-27947653D01*
X27639554Y-27926029D01*
X27631496Y-27903507D01*
X27625684Y-27880303D01*
X27622174Y-27856642D01*
X27621000Y-27832750D01*
X27621000Y-27345250D01*
X27622174Y-27321358D01*
X27625684Y-27297697D01*
X27631496Y-27274493D01*
X27639554Y-27251971D01*
X27649782Y-27230347D01*
X27662079Y-27209830D01*
X27676329Y-27190617D01*
X27692393Y-27172893D01*
X27710117Y-27156829D01*
X27729330Y-27142579D01*
X27749847Y-27130282D01*
X27771471Y-27120054D01*
X27793993Y-27111996D01*
X27817197Y-27106184D01*
X27840858Y-27102674D01*
X27864750Y-27101500D01*
X28777250Y-27101500D01*
X28801142Y-27102674D01*
X28801142Y-27102674D01*
G37*
D24*
X28321000Y-27589000D03*
D23*
G36*
X40351142Y-34353174D02*
G01*
X40374803Y-34356684D01*
X40398007Y-34362496D01*
X40420529Y-34370554D01*
X40442153Y-34380782D01*
X40462670Y-34393079D01*
X40481883Y-34407329D01*
X40499607Y-34423393D01*
X40515671Y-34441117D01*
X40529921Y-34460330D01*
X40542218Y-34480847D01*
X40552446Y-34502471D01*
X40560504Y-34524993D01*
X40566316Y-34548197D01*
X40569826Y-34571858D01*
X40571000Y-34595750D01*
X40571000Y-35508250D01*
X40569826Y-35532142D01*
X40566316Y-35555803D01*
X40560504Y-35579007D01*
X40552446Y-35601529D01*
X40542218Y-35623153D01*
X40529921Y-35643670D01*
X40515671Y-35662883D01*
X40499607Y-35680607D01*
X40481883Y-35696671D01*
X40462670Y-35710921D01*
X40442153Y-35723218D01*
X40420529Y-35733446D01*
X40398007Y-35741504D01*
X40374803Y-35747316D01*
X40351142Y-35750826D01*
X40327250Y-35752000D01*
X39839750Y-35752000D01*
X39815858Y-35750826D01*
X39792197Y-35747316D01*
X39768993Y-35741504D01*
X39746471Y-35733446D01*
X39724847Y-35723218D01*
X39704330Y-35710921D01*
X39685117Y-35696671D01*
X39667393Y-35680607D01*
X39651329Y-35662883D01*
X39637079Y-35643670D01*
X39624782Y-35623153D01*
X39614554Y-35601529D01*
X39606496Y-35579007D01*
X39600684Y-35555803D01*
X39597174Y-35532142D01*
X39596000Y-35508250D01*
X39596000Y-34595750D01*
X39597174Y-34571858D01*
X39600684Y-34548197D01*
X39606496Y-34524993D01*
X39614554Y-34502471D01*
X39624782Y-34480847D01*
X39637079Y-34460330D01*
X39651329Y-34441117D01*
X39667393Y-34423393D01*
X39685117Y-34407329D01*
X39704330Y-34393079D01*
X39724847Y-34380782D01*
X39746471Y-34370554D01*
X39768993Y-34362496D01*
X39792197Y-34356684D01*
X39815858Y-34353174D01*
X39839750Y-34352000D01*
X40327250Y-34352000D01*
X40351142Y-34353174D01*
X40351142Y-34353174D01*
G37*
D24*
X40083500Y-35052000D03*
D23*
G36*
X42226142Y-34353174D02*
G01*
X42249803Y-34356684D01*
X42273007Y-34362496D01*
X42295529Y-34370554D01*
X42317153Y-34380782D01*
X42337670Y-34393079D01*
X42356883Y-34407329D01*
X42374607Y-34423393D01*
X42390671Y-34441117D01*
X42404921Y-34460330D01*
X42417218Y-34480847D01*
X42427446Y-34502471D01*
X42435504Y-34524993D01*
X42441316Y-34548197D01*
X42444826Y-34571858D01*
X42446000Y-34595750D01*
X42446000Y-35508250D01*
X42444826Y-35532142D01*
X42441316Y-35555803D01*
X42435504Y-35579007D01*
X42427446Y-35601529D01*
X42417218Y-35623153D01*
X42404921Y-35643670D01*
X42390671Y-35662883D01*
X42374607Y-35680607D01*
X42356883Y-35696671D01*
X42337670Y-35710921D01*
X42317153Y-35723218D01*
X42295529Y-35733446D01*
X42273007Y-35741504D01*
X42249803Y-35747316D01*
X42226142Y-35750826D01*
X42202250Y-35752000D01*
X41714750Y-35752000D01*
X41690858Y-35750826D01*
X41667197Y-35747316D01*
X41643993Y-35741504D01*
X41621471Y-35733446D01*
X41599847Y-35723218D01*
X41579330Y-35710921D01*
X41560117Y-35696671D01*
X41542393Y-35680607D01*
X41526329Y-35662883D01*
X41512079Y-35643670D01*
X41499782Y-35623153D01*
X41489554Y-35601529D01*
X41481496Y-35579007D01*
X41475684Y-35555803D01*
X41472174Y-35532142D01*
X41471000Y-35508250D01*
X41471000Y-34595750D01*
X41472174Y-34571858D01*
X41475684Y-34548197D01*
X41481496Y-34524993D01*
X41489554Y-34502471D01*
X41499782Y-34480847D01*
X41512079Y-34460330D01*
X41526329Y-34441117D01*
X41542393Y-34423393D01*
X41560117Y-34407329D01*
X41579330Y-34393079D01*
X41599847Y-34380782D01*
X41621471Y-34370554D01*
X41643993Y-34362496D01*
X41667197Y-34356684D01*
X41690858Y-34353174D01*
X41714750Y-34352000D01*
X42202250Y-34352000D01*
X42226142Y-34353174D01*
X42226142Y-34353174D01*
G37*
D24*
X41958500Y-35052000D03*
D23*
G36*
X18731142Y-38544174D02*
G01*
X18754803Y-38547684D01*
X18778007Y-38553496D01*
X18800529Y-38561554D01*
X18822153Y-38571782D01*
X18842670Y-38584079D01*
X18861883Y-38598329D01*
X18879607Y-38614393D01*
X18895671Y-38632117D01*
X18909921Y-38651330D01*
X18922218Y-38671847D01*
X18932446Y-38693471D01*
X18940504Y-38715993D01*
X18946316Y-38739197D01*
X18949826Y-38762858D01*
X18951000Y-38786750D01*
X18951000Y-39699250D01*
X18949826Y-39723142D01*
X18946316Y-39746803D01*
X18940504Y-39770007D01*
X18932446Y-39792529D01*
X18922218Y-39814153D01*
X18909921Y-39834670D01*
X18895671Y-39853883D01*
X18879607Y-39871607D01*
X18861883Y-39887671D01*
X18842670Y-39901921D01*
X18822153Y-39914218D01*
X18800529Y-39924446D01*
X18778007Y-39932504D01*
X18754803Y-39938316D01*
X18731142Y-39941826D01*
X18707250Y-39943000D01*
X18219750Y-39943000D01*
X18195858Y-39941826D01*
X18172197Y-39938316D01*
X18148993Y-39932504D01*
X18126471Y-39924446D01*
X18104847Y-39914218D01*
X18084330Y-39901921D01*
X18065117Y-39887671D01*
X18047393Y-39871607D01*
X18031329Y-39853883D01*
X18017079Y-39834670D01*
X18004782Y-39814153D01*
X17994554Y-39792529D01*
X17986496Y-39770007D01*
X17980684Y-39746803D01*
X17977174Y-39723142D01*
X17976000Y-39699250D01*
X17976000Y-38786750D01*
X17977174Y-38762858D01*
X17980684Y-38739197D01*
X17986496Y-38715993D01*
X17994554Y-38693471D01*
X18004782Y-38671847D01*
X18017079Y-38651330D01*
X18031329Y-38632117D01*
X18047393Y-38614393D01*
X18065117Y-38598329D01*
X18084330Y-38584079D01*
X18104847Y-38571782D01*
X18126471Y-38561554D01*
X18148993Y-38553496D01*
X18172197Y-38547684D01*
X18195858Y-38544174D01*
X18219750Y-38543000D01*
X18707250Y-38543000D01*
X18731142Y-38544174D01*
X18731142Y-38544174D01*
G37*
D24*
X18463500Y-39243000D03*
D23*
G36*
X16856142Y-38544174D02*
G01*
X16879803Y-38547684D01*
X16903007Y-38553496D01*
X16925529Y-38561554D01*
X16947153Y-38571782D01*
X16967670Y-38584079D01*
X16986883Y-38598329D01*
X17004607Y-38614393D01*
X17020671Y-38632117D01*
X17034921Y-38651330D01*
X17047218Y-38671847D01*
X17057446Y-38693471D01*
X17065504Y-38715993D01*
X17071316Y-38739197D01*
X17074826Y-38762858D01*
X17076000Y-38786750D01*
X17076000Y-39699250D01*
X17074826Y-39723142D01*
X17071316Y-39746803D01*
X17065504Y-39770007D01*
X17057446Y-39792529D01*
X17047218Y-39814153D01*
X17034921Y-39834670D01*
X17020671Y-39853883D01*
X17004607Y-39871607D01*
X16986883Y-39887671D01*
X16967670Y-39901921D01*
X16947153Y-39914218D01*
X16925529Y-39924446D01*
X16903007Y-39932504D01*
X16879803Y-39938316D01*
X16856142Y-39941826D01*
X16832250Y-39943000D01*
X16344750Y-39943000D01*
X16320858Y-39941826D01*
X16297197Y-39938316D01*
X16273993Y-39932504D01*
X16251471Y-39924446D01*
X16229847Y-39914218D01*
X16209330Y-39901921D01*
X16190117Y-39887671D01*
X16172393Y-39871607D01*
X16156329Y-39853883D01*
X16142079Y-39834670D01*
X16129782Y-39814153D01*
X16119554Y-39792529D01*
X16111496Y-39770007D01*
X16105684Y-39746803D01*
X16102174Y-39723142D01*
X16101000Y-39699250D01*
X16101000Y-38786750D01*
X16102174Y-38762858D01*
X16105684Y-38739197D01*
X16111496Y-38715993D01*
X16119554Y-38693471D01*
X16129782Y-38671847D01*
X16142079Y-38651330D01*
X16156329Y-38632117D01*
X16172393Y-38614393D01*
X16190117Y-38598329D01*
X16209330Y-38584079D01*
X16229847Y-38571782D01*
X16251471Y-38561554D01*
X16273993Y-38553496D01*
X16297197Y-38547684D01*
X16320858Y-38544174D01*
X16344750Y-38543000D01*
X16832250Y-38543000D01*
X16856142Y-38544174D01*
X16856142Y-38544174D01*
G37*
D24*
X16588500Y-39243000D03*
D23*
G36*
X38199142Y-34311674D02*
G01*
X38222803Y-34315184D01*
X38246007Y-34320996D01*
X38268529Y-34329054D01*
X38290153Y-34339282D01*
X38310670Y-34351579D01*
X38329883Y-34365829D01*
X38347607Y-34381893D01*
X38363671Y-34399617D01*
X38377921Y-34418830D01*
X38390218Y-34439347D01*
X38400446Y-34460971D01*
X38408504Y-34483493D01*
X38414316Y-34506697D01*
X38417826Y-34530358D01*
X38419000Y-34554250D01*
X38419000Y-35041750D01*
X38417826Y-35065642D01*
X38414316Y-35089303D01*
X38408504Y-35112507D01*
X38400446Y-35135029D01*
X38390218Y-35156653D01*
X38377921Y-35177170D01*
X38363671Y-35196383D01*
X38347607Y-35214107D01*
X38329883Y-35230171D01*
X38310670Y-35244421D01*
X38290153Y-35256718D01*
X38268529Y-35266946D01*
X38246007Y-35275004D01*
X38222803Y-35280816D01*
X38199142Y-35284326D01*
X38175250Y-35285500D01*
X37262750Y-35285500D01*
X37238858Y-35284326D01*
X37215197Y-35280816D01*
X37191993Y-35275004D01*
X37169471Y-35266946D01*
X37147847Y-35256718D01*
X37127330Y-35244421D01*
X37108117Y-35230171D01*
X37090393Y-35214107D01*
X37074329Y-35196383D01*
X37060079Y-35177170D01*
X37047782Y-35156653D01*
X37037554Y-35135029D01*
X37029496Y-35112507D01*
X37023684Y-35089303D01*
X37020174Y-35065642D01*
X37019000Y-35041750D01*
X37019000Y-34554250D01*
X37020174Y-34530358D01*
X37023684Y-34506697D01*
X37029496Y-34483493D01*
X37037554Y-34460971D01*
X37047782Y-34439347D01*
X37060079Y-34418830D01*
X37074329Y-34399617D01*
X37090393Y-34381893D01*
X37108117Y-34365829D01*
X37127330Y-34351579D01*
X37147847Y-34339282D01*
X37169471Y-34329054D01*
X37191993Y-34320996D01*
X37215197Y-34315184D01*
X37238858Y-34311674D01*
X37262750Y-34310500D01*
X38175250Y-34310500D01*
X38199142Y-34311674D01*
X38199142Y-34311674D01*
G37*
D24*
X37719000Y-34798000D03*
D23*
G36*
X38199142Y-32436674D02*
G01*
X38222803Y-32440184D01*
X38246007Y-32445996D01*
X38268529Y-32454054D01*
X38290153Y-32464282D01*
X38310670Y-32476579D01*
X38329883Y-32490829D01*
X38347607Y-32506893D01*
X38363671Y-32524617D01*
X38377921Y-32543830D01*
X38390218Y-32564347D01*
X38400446Y-32585971D01*
X38408504Y-32608493D01*
X38414316Y-32631697D01*
X38417826Y-32655358D01*
X38419000Y-32679250D01*
X38419000Y-33166750D01*
X38417826Y-33190642D01*
X38414316Y-33214303D01*
X38408504Y-33237507D01*
X38400446Y-33260029D01*
X38390218Y-33281653D01*
X38377921Y-33302170D01*
X38363671Y-33321383D01*
X38347607Y-33339107D01*
X38329883Y-33355171D01*
X38310670Y-33369421D01*
X38290153Y-33381718D01*
X38268529Y-33391946D01*
X38246007Y-33400004D01*
X38222803Y-33405816D01*
X38199142Y-33409326D01*
X38175250Y-33410500D01*
X37262750Y-33410500D01*
X37238858Y-33409326D01*
X37215197Y-33405816D01*
X37191993Y-33400004D01*
X37169471Y-33391946D01*
X37147847Y-33381718D01*
X37127330Y-33369421D01*
X37108117Y-33355171D01*
X37090393Y-33339107D01*
X37074329Y-33321383D01*
X37060079Y-33302170D01*
X37047782Y-33281653D01*
X37037554Y-33260029D01*
X37029496Y-33237507D01*
X37023684Y-33214303D01*
X37020174Y-33190642D01*
X37019000Y-33166750D01*
X37019000Y-32679250D01*
X37020174Y-32655358D01*
X37023684Y-32631697D01*
X37029496Y-32608493D01*
X37037554Y-32585971D01*
X37047782Y-32564347D01*
X37060079Y-32543830D01*
X37074329Y-32524617D01*
X37090393Y-32506893D01*
X37108117Y-32490829D01*
X37127330Y-32476579D01*
X37147847Y-32464282D01*
X37169471Y-32454054D01*
X37191993Y-32445996D01*
X37215197Y-32440184D01*
X37238858Y-32436674D01*
X37262750Y-32435500D01*
X38175250Y-32435500D01*
X38199142Y-32436674D01*
X38199142Y-32436674D01*
G37*
D24*
X37719000Y-32923000D03*
D23*
G36*
X33844142Y-46545174D02*
G01*
X33867803Y-46548684D01*
X33891007Y-46554496D01*
X33913529Y-46562554D01*
X33935153Y-46572782D01*
X33955670Y-46585079D01*
X33974883Y-46599329D01*
X33992607Y-46615393D01*
X34008671Y-46633117D01*
X34022921Y-46652330D01*
X34035218Y-46672847D01*
X34045446Y-46694471D01*
X34053504Y-46716993D01*
X34059316Y-46740197D01*
X34062826Y-46763858D01*
X34064000Y-46787750D01*
X34064000Y-47700250D01*
X34062826Y-47724142D01*
X34059316Y-47747803D01*
X34053504Y-47771007D01*
X34045446Y-47793529D01*
X34035218Y-47815153D01*
X34022921Y-47835670D01*
X34008671Y-47854883D01*
X33992607Y-47872607D01*
X33974883Y-47888671D01*
X33955670Y-47902921D01*
X33935153Y-47915218D01*
X33913529Y-47925446D01*
X33891007Y-47933504D01*
X33867803Y-47939316D01*
X33844142Y-47942826D01*
X33820250Y-47944000D01*
X33332750Y-47944000D01*
X33308858Y-47942826D01*
X33285197Y-47939316D01*
X33261993Y-47933504D01*
X33239471Y-47925446D01*
X33217847Y-47915218D01*
X33197330Y-47902921D01*
X33178117Y-47888671D01*
X33160393Y-47872607D01*
X33144329Y-47854883D01*
X33130079Y-47835670D01*
X33117782Y-47815153D01*
X33107554Y-47793529D01*
X33099496Y-47771007D01*
X33093684Y-47747803D01*
X33090174Y-47724142D01*
X33089000Y-47700250D01*
X33089000Y-46787750D01*
X33090174Y-46763858D01*
X33093684Y-46740197D01*
X33099496Y-46716993D01*
X33107554Y-46694471D01*
X33117782Y-46672847D01*
X33130079Y-46652330D01*
X33144329Y-46633117D01*
X33160393Y-46615393D01*
X33178117Y-46599329D01*
X33197330Y-46585079D01*
X33217847Y-46572782D01*
X33239471Y-46562554D01*
X33261993Y-46554496D01*
X33285197Y-46548684D01*
X33308858Y-46545174D01*
X33332750Y-46544000D01*
X33820250Y-46544000D01*
X33844142Y-46545174D01*
X33844142Y-46545174D01*
G37*
D24*
X33576500Y-47244000D03*
D23*
G36*
X31969142Y-46545174D02*
G01*
X31992803Y-46548684D01*
X32016007Y-46554496D01*
X32038529Y-46562554D01*
X32060153Y-46572782D01*
X32080670Y-46585079D01*
X32099883Y-46599329D01*
X32117607Y-46615393D01*
X32133671Y-46633117D01*
X32147921Y-46652330D01*
X32160218Y-46672847D01*
X32170446Y-46694471D01*
X32178504Y-46716993D01*
X32184316Y-46740197D01*
X32187826Y-46763858D01*
X32189000Y-46787750D01*
X32189000Y-47700250D01*
X32187826Y-47724142D01*
X32184316Y-47747803D01*
X32178504Y-47771007D01*
X32170446Y-47793529D01*
X32160218Y-47815153D01*
X32147921Y-47835670D01*
X32133671Y-47854883D01*
X32117607Y-47872607D01*
X32099883Y-47888671D01*
X32080670Y-47902921D01*
X32060153Y-47915218D01*
X32038529Y-47925446D01*
X32016007Y-47933504D01*
X31992803Y-47939316D01*
X31969142Y-47942826D01*
X31945250Y-47944000D01*
X31457750Y-47944000D01*
X31433858Y-47942826D01*
X31410197Y-47939316D01*
X31386993Y-47933504D01*
X31364471Y-47925446D01*
X31342847Y-47915218D01*
X31322330Y-47902921D01*
X31303117Y-47888671D01*
X31285393Y-47872607D01*
X31269329Y-47854883D01*
X31255079Y-47835670D01*
X31242782Y-47815153D01*
X31232554Y-47793529D01*
X31224496Y-47771007D01*
X31218684Y-47747803D01*
X31215174Y-47724142D01*
X31214000Y-47700250D01*
X31214000Y-46787750D01*
X31215174Y-46763858D01*
X31218684Y-46740197D01*
X31224496Y-46716993D01*
X31232554Y-46694471D01*
X31242782Y-46672847D01*
X31255079Y-46652330D01*
X31269329Y-46633117D01*
X31285393Y-46615393D01*
X31303117Y-46599329D01*
X31322330Y-46585079D01*
X31342847Y-46572782D01*
X31364471Y-46562554D01*
X31386993Y-46554496D01*
X31410197Y-46548684D01*
X31433858Y-46545174D01*
X31457750Y-46544000D01*
X31945250Y-46544000D01*
X31969142Y-46545174D01*
X31969142Y-46545174D01*
G37*
D24*
X31701500Y-47244000D03*
D23*
G36*
X23157642Y-28765174D02*
G01*
X23181303Y-28768684D01*
X23204507Y-28774496D01*
X23227029Y-28782554D01*
X23248653Y-28792782D01*
X23269170Y-28805079D01*
X23288383Y-28819329D01*
X23306107Y-28835393D01*
X23322171Y-28853117D01*
X23336421Y-28872330D01*
X23348718Y-28892847D01*
X23358946Y-28914471D01*
X23367004Y-28936993D01*
X23372816Y-28960197D01*
X23376326Y-28983858D01*
X23377500Y-29007750D01*
X23377500Y-29920250D01*
X23376326Y-29944142D01*
X23372816Y-29967803D01*
X23367004Y-29991007D01*
X23358946Y-30013529D01*
X23348718Y-30035153D01*
X23336421Y-30055670D01*
X23322171Y-30074883D01*
X23306107Y-30092607D01*
X23288383Y-30108671D01*
X23269170Y-30122921D01*
X23248653Y-30135218D01*
X23227029Y-30145446D01*
X23204507Y-30153504D01*
X23181303Y-30159316D01*
X23157642Y-30162826D01*
X23133750Y-30164000D01*
X22646250Y-30164000D01*
X22622358Y-30162826D01*
X22598697Y-30159316D01*
X22575493Y-30153504D01*
X22552971Y-30145446D01*
X22531347Y-30135218D01*
X22510830Y-30122921D01*
X22491617Y-30108671D01*
X22473893Y-30092607D01*
X22457829Y-30074883D01*
X22443579Y-30055670D01*
X22431282Y-30035153D01*
X22421054Y-30013529D01*
X22412996Y-29991007D01*
X22407184Y-29967803D01*
X22403674Y-29944142D01*
X22402500Y-29920250D01*
X22402500Y-29007750D01*
X22403674Y-28983858D01*
X22407184Y-28960197D01*
X22412996Y-28936993D01*
X22421054Y-28914471D01*
X22431282Y-28892847D01*
X22443579Y-28872330D01*
X22457829Y-28853117D01*
X22473893Y-28835393D01*
X22491617Y-28819329D01*
X22510830Y-28805079D01*
X22531347Y-28792782D01*
X22552971Y-28782554D01*
X22575493Y-28774496D01*
X22598697Y-28768684D01*
X22622358Y-28765174D01*
X22646250Y-28764000D01*
X23133750Y-28764000D01*
X23157642Y-28765174D01*
X23157642Y-28765174D01*
G37*
D24*
X22890000Y-29464000D03*
D23*
G36*
X25032642Y-28765174D02*
G01*
X25056303Y-28768684D01*
X25079507Y-28774496D01*
X25102029Y-28782554D01*
X25123653Y-28792782D01*
X25144170Y-28805079D01*
X25163383Y-28819329D01*
X25181107Y-28835393D01*
X25197171Y-28853117D01*
X25211421Y-28872330D01*
X25223718Y-28892847D01*
X25233946Y-28914471D01*
X25242004Y-28936993D01*
X25247816Y-28960197D01*
X25251326Y-28983858D01*
X25252500Y-29007750D01*
X25252500Y-29920250D01*
X25251326Y-29944142D01*
X25247816Y-29967803D01*
X25242004Y-29991007D01*
X25233946Y-30013529D01*
X25223718Y-30035153D01*
X25211421Y-30055670D01*
X25197171Y-30074883D01*
X25181107Y-30092607D01*
X25163383Y-30108671D01*
X25144170Y-30122921D01*
X25123653Y-30135218D01*
X25102029Y-30145446D01*
X25079507Y-30153504D01*
X25056303Y-30159316D01*
X25032642Y-30162826D01*
X25008750Y-30164000D01*
X24521250Y-30164000D01*
X24497358Y-30162826D01*
X24473697Y-30159316D01*
X24450493Y-30153504D01*
X24427971Y-30145446D01*
X24406347Y-30135218D01*
X24385830Y-30122921D01*
X24366617Y-30108671D01*
X24348893Y-30092607D01*
X24332829Y-30074883D01*
X24318579Y-30055670D01*
X24306282Y-30035153D01*
X24296054Y-30013529D01*
X24287996Y-29991007D01*
X24282184Y-29967803D01*
X24278674Y-29944142D01*
X24277500Y-29920250D01*
X24277500Y-29007750D01*
X24278674Y-28983858D01*
X24282184Y-28960197D01*
X24287996Y-28936993D01*
X24296054Y-28914471D01*
X24306282Y-28892847D01*
X24318579Y-28872330D01*
X24332829Y-28853117D01*
X24348893Y-28835393D01*
X24366617Y-28819329D01*
X24385830Y-28805079D01*
X24406347Y-28792782D01*
X24427971Y-28782554D01*
X24450493Y-28774496D01*
X24473697Y-28768684D01*
X24497358Y-28765174D01*
X24521250Y-28764000D01*
X25008750Y-28764000D01*
X25032642Y-28765174D01*
X25032642Y-28765174D01*
G37*
D24*
X24765000Y-29464000D03*
D15*
X209867500Y-66675000D03*
X199707500Y-66675000D03*
D16*
X200977500Y-64135000D03*
D13*
X204787500Y-66675000D03*
D16*
X207327500Y-61595000D03*
D15*
X190817500Y-66675000D03*
X180657500Y-66675000D03*
D16*
X181927500Y-64135000D03*
D13*
X185737500Y-66675000D03*
D16*
X188277500Y-61595000D03*
D15*
X152717500Y-66675000D03*
X142557500Y-66675000D03*
D16*
X143827500Y-64135000D03*
D13*
X147637500Y-66675000D03*
D16*
X150177500Y-61595000D03*
D15*
X114617500Y-66675000D03*
X104457500Y-66675000D03*
D16*
X105727500Y-64135000D03*
D13*
X109537500Y-66675000D03*
D16*
X112077500Y-61595000D03*
D15*
X95567500Y-66675000D03*
X85407500Y-66675000D03*
D16*
X86677500Y-64135000D03*
D13*
X90487500Y-66675000D03*
D16*
X93027500Y-61595000D03*
D15*
X76517500Y-66675000D03*
X66357500Y-66675000D03*
D16*
X67627500Y-64135000D03*
D13*
X71437500Y-66675000D03*
D16*
X73977500Y-61595000D03*
D13*
X33337500Y-74930000D03*
X9525000Y-74930000D03*
D14*
X33337500Y-59690000D03*
X9525000Y-59690000D03*
D15*
X26511250Y-66675000D03*
X16351250Y-66675000D03*
D16*
X17621250Y-64135000D03*
D13*
X21431250Y-66675000D03*
D16*
X23971250Y-61595000D03*
D15*
X219392500Y-47625000D03*
X209232500Y-47625000D03*
D16*
X210502500Y-45085000D03*
D13*
X214312500Y-47625000D03*
D16*
X216852500Y-42545000D03*
D15*
X200342500Y-47625000D03*
X190182500Y-47625000D03*
D16*
X191452500Y-45085000D03*
D13*
X195262500Y-47625000D03*
D16*
X197802500Y-42545000D03*
D15*
X181292500Y-47625000D03*
X171132500Y-47625000D03*
D16*
X172402500Y-45085000D03*
D13*
X176212500Y-47625000D03*
D16*
X178752500Y-42545000D03*
D15*
X162242500Y-47625000D03*
X152082500Y-47625000D03*
D16*
X153352500Y-45085000D03*
D13*
X157162500Y-47625000D03*
D16*
X159702500Y-42545000D03*
D15*
X124142500Y-47625000D03*
X113982500Y-47625000D03*
D16*
X115252500Y-45085000D03*
D13*
X119062500Y-47625000D03*
D16*
X121602500Y-42545000D03*
D15*
X105092500Y-47625000D03*
X94932500Y-47625000D03*
D16*
X96202500Y-45085000D03*
D13*
X100012500Y-47625000D03*
D16*
X102552500Y-42545000D03*
D15*
X86042500Y-47625000D03*
X75882500Y-47625000D03*
D16*
X77152500Y-45085000D03*
D13*
X80962500Y-47625000D03*
D16*
X83502500Y-42545000D03*
D15*
X66992500Y-47625000D03*
X56832500Y-47625000D03*
D16*
X58102500Y-45085000D03*
D13*
X61912500Y-47625000D03*
D16*
X64452500Y-42545000D03*
X19208750Y-42545000D03*
D13*
X16668750Y-47625000D03*
D16*
X12858750Y-45085000D03*
D15*
X11588750Y-47625000D03*
X21748750Y-47625000D03*
X233680000Y-28575000D03*
X223520000Y-28575000D03*
D16*
X224790000Y-26035000D03*
D13*
X228600000Y-28575000D03*
D16*
X231140000Y-23495000D03*
D15*
X214630000Y-28575000D03*
X204470000Y-28575000D03*
D16*
X205740000Y-26035000D03*
D13*
X209550000Y-28575000D03*
D16*
X212090000Y-23495000D03*
D15*
X195580000Y-28575000D03*
X185420000Y-28575000D03*
D16*
X186690000Y-26035000D03*
D13*
X190500000Y-28575000D03*
D16*
X193040000Y-23495000D03*
D15*
X176530000Y-28575000D03*
X166370000Y-28575000D03*
D16*
X167640000Y-26035000D03*
D13*
X171450000Y-28575000D03*
D16*
X173990000Y-23495000D03*
D15*
X157480000Y-28575000D03*
X147320000Y-28575000D03*
D16*
X148590000Y-26035000D03*
D13*
X152400000Y-28575000D03*
D16*
X154940000Y-23495000D03*
D15*
X138430000Y-28575000D03*
X128270000Y-28575000D03*
D16*
X129540000Y-26035000D03*
D13*
X133350000Y-28575000D03*
D16*
X135890000Y-23495000D03*
D15*
X119380000Y-28575000D03*
X109220000Y-28575000D03*
D16*
X110490000Y-26035000D03*
D13*
X114300000Y-28575000D03*
D16*
X116840000Y-23495000D03*
D15*
X100330000Y-28575000D03*
X90170000Y-28575000D03*
D16*
X91440000Y-26035000D03*
D13*
X95250000Y-28575000D03*
D16*
X97790000Y-23495000D03*
D15*
X81280000Y-28575000D03*
X71120000Y-28575000D03*
D16*
X72390000Y-26035000D03*
D13*
X76200000Y-28575000D03*
D16*
X78740000Y-23495000D03*
D15*
X62230000Y-28575000D03*
X52070000Y-28575000D03*
D16*
X53340000Y-26035000D03*
D13*
X57150000Y-28575000D03*
D16*
X59690000Y-23495000D03*
D15*
X224155000Y-9525000D03*
X213995000Y-9525000D03*
D16*
X215265000Y-6985000D03*
D13*
X219075000Y-9525000D03*
D16*
X221615000Y-4445000D03*
D15*
X205105000Y-9525000D03*
X194945000Y-9525000D03*
D16*
X196215000Y-6985000D03*
D13*
X200025000Y-9525000D03*
D16*
X202565000Y-4445000D03*
D15*
X186055000Y-9525000D03*
X175895000Y-9525000D03*
D16*
X177165000Y-6985000D03*
D13*
X180975000Y-9525000D03*
D16*
X183515000Y-4445000D03*
D15*
X167005000Y-9525000D03*
X156845000Y-9525000D03*
D16*
X158115000Y-6985000D03*
D13*
X161925000Y-9525000D03*
D16*
X164465000Y-4445000D03*
D15*
X147955000Y-9525000D03*
X137795000Y-9525000D03*
D16*
X139065000Y-6985000D03*
D13*
X142875000Y-9525000D03*
D16*
X145415000Y-4445000D03*
D15*
X128905000Y-9525000D03*
X118745000Y-9525000D03*
D16*
X120015000Y-6985000D03*
D13*
X123825000Y-9525000D03*
D16*
X126365000Y-4445000D03*
D15*
X109855000Y-9525000D03*
X99695000Y-9525000D03*
D16*
X100965000Y-6985000D03*
D13*
X104775000Y-9525000D03*
D16*
X107315000Y-4445000D03*
D15*
X90805000Y-9525000D03*
X80645000Y-9525000D03*
D16*
X81915000Y-6985000D03*
D13*
X85725000Y-9525000D03*
D16*
X88265000Y-4445000D03*
D15*
X71755000Y-9525000D03*
X61595000Y-9525000D03*
D16*
X62865000Y-6985000D03*
D13*
X66675000Y-9525000D03*
D16*
X69215000Y-4445000D03*
D15*
X52705000Y-9525000D03*
X42545000Y-9525000D03*
D16*
X43815000Y-6985000D03*
D13*
X47625000Y-9525000D03*
D16*
X50165000Y-4445000D03*
D15*
X33655000Y-9525000D03*
X23495000Y-9525000D03*
D16*
X24765000Y-6985000D03*
D13*
X28575000Y-9525000D03*
D16*
X31115000Y-4445000D03*
D15*
X14605000Y-9525000D03*
X4445000Y-9525000D03*
D16*
X5715000Y-6985000D03*
D13*
X9525000Y-9525000D03*
D16*
X12065000Y-4445000D03*
D17*
X18050000Y-8375000D03*
X18050000Y-11675000D03*
X37100000Y-8375000D03*
X37100000Y-11675000D03*
X56150000Y-8375000D03*
X56150000Y-11675000D03*
X75200000Y-8375000D03*
X75200000Y-11675000D03*
X94250000Y-8375000D03*
X94250000Y-11675000D03*
X113300000Y-8375000D03*
X113300000Y-11675000D03*
X132350000Y-8375000D03*
X132350000Y-11675000D03*
X151400000Y-8375000D03*
X151400000Y-11675000D03*
X170450000Y-8375000D03*
X170450000Y-11675000D03*
X189500000Y-8375000D03*
X189500000Y-11675000D03*
X208550000Y-8375000D03*
X208550000Y-11675000D03*
X227600000Y-8375000D03*
X227600000Y-11675000D03*
X229997000Y-8383000D03*
X229997000Y-11683000D03*
X248920000Y-8383000D03*
X248920000Y-11683000D03*
X246253000Y-8382000D03*
X246253000Y-11682000D03*
X6350000Y-27425000D03*
X6350000Y-30725000D03*
X46625000Y-27425000D03*
X46625000Y-30725000D03*
X65675000Y-27425000D03*
X65675000Y-30725000D03*
X84725000Y-27425000D03*
X84725000Y-30725000D03*
X103775000Y-27425000D03*
X103775000Y-30725000D03*
X122825000Y-27425000D03*
X122825000Y-30725000D03*
X141875000Y-27425000D03*
X141875000Y-30725000D03*
X160925000Y-27425000D03*
X160925000Y-30725000D03*
X179975000Y-27425000D03*
X179975000Y-30725000D03*
X199025000Y-27425000D03*
X199025000Y-30725000D03*
X218075000Y-27425000D03*
X218075000Y-30725000D03*
X237125000Y-27425000D03*
X237125000Y-30725000D03*
X256175000Y-27425000D03*
X256175000Y-30725000D03*
X263144000Y-27425000D03*
X263144000Y-30725000D03*
X24892000Y-49775000D03*
X24892000Y-46475000D03*
X51387500Y-49775000D03*
X51387500Y-46475000D03*
X70437500Y-49775000D03*
X70437500Y-46475000D03*
X89487500Y-49775000D03*
X89487500Y-46475000D03*
X108537500Y-49775000D03*
X108537500Y-46475000D03*
X127587500Y-49775000D03*
X127587500Y-46475000D03*
X146637500Y-49775000D03*
X146637500Y-46475000D03*
X165687500Y-49775000D03*
X165687500Y-46475000D03*
X184737500Y-49775000D03*
X184737500Y-46475000D03*
X203787500Y-49775000D03*
X203787500Y-46475000D03*
X222837500Y-49775000D03*
X222837500Y-46475000D03*
X241887500Y-49775000D03*
X241887500Y-46475000D03*
X255397000Y-49783000D03*
X255397000Y-46483000D03*
X29845000Y-65406000D03*
X29845000Y-68706000D03*
X60912500Y-65525000D03*
X60912500Y-68825000D03*
X79962500Y-65525000D03*
X79962500Y-68825000D03*
X99012500Y-65525000D03*
X99012500Y-68825000D03*
X118062500Y-65525000D03*
X118062500Y-68825000D03*
X137112500Y-65525000D03*
X137112500Y-68825000D03*
X156162500Y-65525000D03*
X156162500Y-68825000D03*
X175212500Y-65525000D03*
X175212500Y-68825000D03*
X194262500Y-65525000D03*
X194262500Y-68825000D03*
X213312500Y-65525000D03*
X213312500Y-68825000D03*
X232362500Y-65525000D03*
X232362500Y-68825000D03*
X241427000Y-65533000D03*
X241427000Y-68833000D03*
X22812500Y-84575000D03*
X22812500Y-87875000D03*
X46228000Y-84583000D03*
X46228000Y-87883000D03*
X70437500Y-84575000D03*
X70437500Y-87875000D03*
X151384000Y-84710000D03*
X151384000Y-88010000D03*
X210820000Y-84575000D03*
X210820000Y-87875000D03*
X234823000Y-84583000D03*
X234823000Y-87883000D03*
X258445000Y-84575000D03*
X258445000Y-87875000D03*
X263398000Y-84584000D03*
X263398000Y-87884000D03*
M02*
