M48
; DRILL file {KiCad (5.1.4)-1} date 10/11/2020 1:36:39 AM
; FORMAT={-:-/ absolute / inch / decimal}
; #@! TF.CreationDate,2020-10-11T01:36:39-04:00
; #@! TF.GenerationSoftware,Kicad,Pcbnew,(5.1.4)-1
; #@! TF.FileFunction,NonPlated,1,2,NPTH
FMAT,2
INCH
T1C0.0689
T2C0.1200
T3C0.1570
%
G90
G05
T1
X0.2687Y-3.375
X0.6687Y-3.375
X4.675Y-0.375
X5.075Y-0.375
X6.3625Y-2.625
X6.7625Y-2.625
X2.1437Y-3.375
X2.5437Y-3.375
X3.175Y-0.375
X3.575Y-0.375
X5.9875Y-1.875
X6.3875Y-1.875
X10.5812Y-3.375
X10.9812Y-3.375
X2.8Y-1.125
X3.2Y-1.125
X8.05Y-1.125
X8.45Y-1.125
X9.55Y-1.125
X9.95Y-1.125
X5.05Y-1.125
X5.45Y-1.125
X0.2687Y-1.875
X0.6687Y-1.875
X3.925Y-0.375
X4.325Y-0.375
X4.4875Y-1.875
X4.8875Y-1.875
X8.9875Y-1.875
X9.3875Y-1.875
X2.05Y-1.125
X2.45Y-1.125
X0.4562Y-1.875
X0.8562Y-1.875
X10.675Y-2.625
X11.075Y-2.625
X7.4875Y-1.875
X7.8875Y-1.875
X9.6437Y-3.375
X10.0437Y-3.375
X9.925Y-0.375
X10.325Y-0.375
X3.3625Y-2.625
X3.7625Y-2.625
X4.9562Y-3.375
X5.3563Y-3.375
X10.675Y-0.375
X11.075Y-0.375
X7.8625Y-2.625
X8.2625Y-2.625
X2.2375Y-3.375
X2.6375Y-3.375
X6.925Y-0.375
X7.325Y-0.375
X7.7687Y-3.375
X8.1687Y-3.375
X2.425Y-0.375
X2.825Y-0.375
X6.55Y-1.125
X6.95Y-1.125
X8.8Y-1.125
X9.2Y-1.125
X0.3625Y-1.125
X0.7625Y-1.125
X4.8625Y-2.625
X5.2625Y-2.625
X8.425Y-0.375
X8.825Y-0.375
X4.3Y-1.125
X4.7Y-1.125
X9.55Y-3.375
X9.95Y-3.375
X3.55Y-1.125
X3.95Y-1.125
X6.7375Y-1.875
X7.1375Y-1.875
X10.4875Y-1.125
X10.8875Y-1.125
X7.1125Y-2.625
X7.5125Y-2.625
X1.675Y-0.375
X2.075Y-0.375
X2.2375Y-1.875
X2.6375Y-1.875
X1.3Y-3.375
X1.7Y-3.375
X9.6437Y-2.625
X10.0437Y-2.625
X2.9875Y-1.875
X3.3875Y-1.875
X1.8625Y-2.625
X2.2625Y-2.625
X8.6125Y-2.625
X9.0125Y-2.625
X1.2063Y-3.375
X1.6062Y-3.375
X0.3625Y-3.375
X0.7625Y-3.375
X0.925Y-0.375
X1.325Y-0.375
X5.2375Y-1.875
X5.6375Y-1.875
X10.2062Y-1.875
X10.6062Y-1.875
X6.175Y-0.375
X6.575Y-0.375
X0.175Y-0.375
X0.575Y-0.375
X2.6125Y-2.625
X3.0125Y-2.625
X10.0187Y-2.625
X10.4187Y-2.625
X5.425Y-3.375
X5.825Y-3.375
X5.8Y-1.125
X6.2Y-1.125
X1.3Y-1.125
X1.7Y-1.125
X5.425Y-0.375
X5.825Y-0.375
X0.6437Y-2.625
X1.0437Y-2.625
X1.4875Y-1.875
X1.8875Y-1.875
X7.675Y-0.375
X8.075Y-0.375
X3.7375Y-1.875
X4.1375Y-1.875
X8.6125Y-3.375
X9.0125Y-3.375
X5.6125Y-2.625
X6.0125Y-2.625
X8.2375Y-1.875
X8.6375Y-1.875
X8.7062Y-3.375
X9.1062Y-3.375
X9.175Y-0.375
X9.575Y-0.375
X4.1125Y-2.625
X4.5125Y-2.625
X7.3Y-1.125
X7.7Y-1.125
X10.4875Y-3.375
X10.8875Y-3.375
X10.3Y-0.375
X10.7Y-0.375
T2
X3.1877Y-3.65
X7.1247Y-3.65
X9.9375Y-1.6
X10.875Y-1.6
X9.75Y-2.35
X10.6875Y-2.35
X3.375Y-3.65
X7.875Y-3.65
X0.375Y-2.35
X1.3125Y-2.35
X10.0312Y-0.1
X10.9688Y-0.1
T3
X3.1877Y-3.05
X5.1562Y-3.375
X7.1247Y-3.05
X10.875Y-0.375
X8.0625Y-2.625
X2.4375Y-3.375
X7.125Y-0.375
X7.9688Y-3.375
X2.625Y-0.375
X6.75Y-1.125
X9.0Y-1.125
X0.5625Y-1.125
X5.0625Y-2.625
X8.625Y-0.375
X4.5Y-1.125
X9.75Y-3.375
X3.75Y-1.125
X6.9375Y-1.875
X10.6875Y-1.125
X7.3125Y-2.625
X1.875Y-0.375
X2.4375Y-1.875
X1.5Y-3.375
X9.8438Y-2.625
X3.1875Y-1.875
X2.0625Y-2.625
X8.8125Y-2.625
X1.4062Y-3.375
X0.5625Y-3.375
X1.125Y-0.375
X5.4375Y-1.875
X9.9375Y-2.2
X10.4062Y-1.875
X10.875Y-2.2
X6.375Y-0.375
X0.375Y-0.375
X2.8125Y-2.625
X9.75Y-2.95
X10.2188Y-2.625
X10.6875Y-2.95
X3.375Y-3.05
X5.625Y-3.375
X7.875Y-3.05
X6.0Y-1.125
X1.5Y-1.125
X5.625Y-0.375
X0.375Y-2.95
X0.8438Y-2.625
X1.3125Y-2.95
X1.6875Y-1.875
X7.875Y-0.375
X3.9375Y-1.875
X8.8125Y-3.375
X5.8125Y-2.625
X8.4375Y-1.875
X8.9062Y-3.375
X9.375Y-0.375
X4.3125Y-2.625
X7.5Y-1.125
X10.6875Y-3.375
X10.0312Y-0.7
X10.5Y-0.375
X10.9688Y-0.7
X0.4688Y-3.375
X4.875Y-0.375
X6.5625Y-2.625
X2.3438Y-3.375
X3.375Y-0.375
X6.1875Y-1.875
X10.7812Y-3.375
X3.0Y-1.125
X8.25Y-1.125
X9.75Y-1.125
X5.25Y-1.125
X0.4688Y-1.875
X4.125Y-0.375
X4.6875Y-1.875
X9.1875Y-1.875
X2.25Y-1.125
X0.6562Y-1.875
X10.875Y-2.625
X7.6875Y-1.875
X9.8438Y-3.375
X10.125Y-0.375
X3.5625Y-2.625
T0
M30
