G04 #@! TF.GenerationSoftware,KiCad,Pcbnew,(5.1.4)-1*
G04 #@! TF.CreationDate,2020-10-11T01:36:31-04:00*
G04 #@! TF.ProjectId,keyboard,6b657962-6f61-4726-942e-6b696361645f,rev?*
G04 #@! TF.SameCoordinates,Original*
G04 #@! TF.FileFunction,Copper,L2,Bot*
G04 #@! TF.FilePolarity,Positive*
%FSLAX46Y46*%
G04 Gerber Fmt 4.6, Leading zero omitted, Abs format (unit mm)*
G04 Created by KiCad (PCBNEW (5.1.4)-1) date 2020-10-11 01:36:31*
%MOMM*%
%LPD*%
G04 APERTURE LIST*
%ADD10C,2.250000*%
%ADD11R,1.200000X0.900000*%
%ADD12R,1.400000X1.200000*%
%ADD13R,0.550000X1.500000*%
%ADD14R,1.500000X0.550000*%
%ADD15R,1.060000X0.650000*%
%ADD16R,1.700000X1.000000*%
%ADD17C,0.100000*%
%ADD18C,0.975000*%
%ADD19R,1.700000X1.700000*%
%ADD20C,1.700000*%
%ADD21C,0.600000*%
%ADD22C,1.200000*%
%ADD23C,1.250000*%
%ADD24C,0.800000*%
%ADD25C,0.254000*%
%ADD26C,0.381000*%
G04 APERTURE END LIST*
D10*
X139065000Y-83185000D03*
X145415000Y-80645000D03*
X124777500Y-64135000D03*
X131127500Y-61595000D03*
X134302500Y-45085000D03*
X140652500Y-42545000D03*
X162877500Y-64135000D03*
X169227500Y-61595000D03*
X198596250Y-83185000D03*
X204946250Y-80645000D03*
X229552500Y-45085000D03*
X235902500Y-42545000D03*
X220027500Y-83185000D03*
X226377500Y-80645000D03*
X220027500Y-64135000D03*
X226377500Y-61595000D03*
X234315000Y-6985000D03*
X240665000Y-4445000D03*
X243840000Y-83185000D03*
X250190000Y-80645000D03*
X262890000Y-6985000D03*
X269240000Y-4445000D03*
X255746250Y-64135000D03*
X262096250Y-61595000D03*
X253365000Y-6985000D03*
X259715000Y-4445000D03*
X272415000Y-6985000D03*
X278765000Y-4445000D03*
X243840000Y-26035000D03*
X250190000Y-23495000D03*
X267652500Y-26035000D03*
X274002500Y-23495000D03*
X272415000Y-64135000D03*
X278765000Y-61595000D03*
X246221250Y-64135000D03*
X252571250Y-61595000D03*
D11*
X267589000Y-65533000D03*
X267589000Y-68833000D03*
D10*
X10477500Y-26035000D03*
X16827500Y-23495000D03*
X34290000Y-26035000D03*
X40640000Y-23495000D03*
X8096250Y-45085000D03*
X14446250Y-42545000D03*
X39052500Y-45085000D03*
X45402500Y-42545000D03*
X260508750Y-45085000D03*
X266858750Y-42545000D03*
X48577500Y-64135000D03*
X54927500Y-61595000D03*
X8096250Y-83185000D03*
X14446250Y-80645000D03*
X10477500Y-83185000D03*
X16827500Y-80645000D03*
X34290000Y-83185000D03*
X40640000Y-80645000D03*
X55721250Y-83185000D03*
X62071250Y-80645000D03*
X58102500Y-83185000D03*
X64452500Y-80645000D03*
X127158750Y-83185000D03*
X133508750Y-80645000D03*
X222408750Y-83185000D03*
X228758750Y-80645000D03*
X246221250Y-83185000D03*
X252571250Y-80645000D03*
X267652500Y-83185000D03*
X274002500Y-80645000D03*
X270033750Y-83185000D03*
X276383750Y-80645000D03*
X31908750Y-83185000D03*
X38258750Y-80645000D03*
D12*
X42205000Y-37162000D03*
X40005000Y-37162000D03*
X40005000Y-38862000D03*
X42205000Y-38862000D03*
D13*
X25210000Y-32908000D03*
X26010000Y-32908000D03*
X26810000Y-32908000D03*
X27610000Y-32908000D03*
X28410000Y-32908000D03*
X29210000Y-32908000D03*
X30010000Y-32908000D03*
X30810000Y-32908000D03*
X31610000Y-32908000D03*
X32410000Y-32908000D03*
X33210000Y-32908000D03*
D14*
X34910000Y-34608000D03*
X34910000Y-35408000D03*
X34910000Y-36208000D03*
X34910000Y-37008000D03*
X34910000Y-37808000D03*
X34910000Y-38608000D03*
X34910000Y-39408000D03*
X34910000Y-40208000D03*
X34910000Y-41008000D03*
X34910000Y-41808000D03*
X34910000Y-42608000D03*
D13*
X33210000Y-44308000D03*
X32410000Y-44308000D03*
X31610000Y-44308000D03*
X30810000Y-44308000D03*
X30010000Y-44308000D03*
X29210000Y-44308000D03*
X28410000Y-44308000D03*
X27610000Y-44308000D03*
X26810000Y-44308000D03*
X26010000Y-44308000D03*
X25210000Y-44308000D03*
D14*
X23510000Y-42608000D03*
X23510000Y-41808000D03*
X23510000Y-41008000D03*
X23510000Y-40208000D03*
X23510000Y-39408000D03*
X23510000Y-38608000D03*
X23510000Y-37808000D03*
X23510000Y-37008000D03*
X23510000Y-36208000D03*
X23510000Y-35408000D03*
X23510000Y-34608000D03*
D15*
X37635000Y-18034000D03*
X37635000Y-17084000D03*
X37635000Y-18984000D03*
X39835000Y-18984000D03*
X39835000Y-18034000D03*
X39835000Y-17084000D03*
D16*
X62205000Y-33279000D03*
X55905000Y-33279000D03*
X62205000Y-37079000D03*
X55905000Y-37079000D03*
D17*
G36*
X53693142Y-34662674D02*
G01*
X53716803Y-34666184D01*
X53740007Y-34671996D01*
X53762529Y-34680054D01*
X53784153Y-34690282D01*
X53804670Y-34702579D01*
X53823883Y-34716829D01*
X53841607Y-34732893D01*
X53857671Y-34750617D01*
X53871921Y-34769830D01*
X53884218Y-34790347D01*
X53894446Y-34811971D01*
X53902504Y-34834493D01*
X53908316Y-34857697D01*
X53911826Y-34881358D01*
X53913000Y-34905250D01*
X53913000Y-35392750D01*
X53911826Y-35416642D01*
X53908316Y-35440303D01*
X53902504Y-35463507D01*
X53894446Y-35486029D01*
X53884218Y-35507653D01*
X53871921Y-35528170D01*
X53857671Y-35547383D01*
X53841607Y-35565107D01*
X53823883Y-35581171D01*
X53804670Y-35595421D01*
X53784153Y-35607718D01*
X53762529Y-35617946D01*
X53740007Y-35626004D01*
X53716803Y-35631816D01*
X53693142Y-35635326D01*
X53669250Y-35636500D01*
X52756750Y-35636500D01*
X52732858Y-35635326D01*
X52709197Y-35631816D01*
X52685993Y-35626004D01*
X52663471Y-35617946D01*
X52641847Y-35607718D01*
X52621330Y-35595421D01*
X52602117Y-35581171D01*
X52584393Y-35565107D01*
X52568329Y-35547383D01*
X52554079Y-35528170D01*
X52541782Y-35507653D01*
X52531554Y-35486029D01*
X52523496Y-35463507D01*
X52517684Y-35440303D01*
X52514174Y-35416642D01*
X52513000Y-35392750D01*
X52513000Y-34905250D01*
X52514174Y-34881358D01*
X52517684Y-34857697D01*
X52523496Y-34834493D01*
X52531554Y-34811971D01*
X52541782Y-34790347D01*
X52554079Y-34769830D01*
X52568329Y-34750617D01*
X52584393Y-34732893D01*
X52602117Y-34716829D01*
X52621330Y-34702579D01*
X52641847Y-34690282D01*
X52663471Y-34680054D01*
X52685993Y-34671996D01*
X52709197Y-34666184D01*
X52732858Y-34662674D01*
X52756750Y-34661500D01*
X53669250Y-34661500D01*
X53693142Y-34662674D01*
X53693142Y-34662674D01*
G37*
D18*
X53213000Y-35149000D03*
D17*
G36*
X53693142Y-32787674D02*
G01*
X53716803Y-32791184D01*
X53740007Y-32796996D01*
X53762529Y-32805054D01*
X53784153Y-32815282D01*
X53804670Y-32827579D01*
X53823883Y-32841829D01*
X53841607Y-32857893D01*
X53857671Y-32875617D01*
X53871921Y-32894830D01*
X53884218Y-32915347D01*
X53894446Y-32936971D01*
X53902504Y-32959493D01*
X53908316Y-32982697D01*
X53911826Y-33006358D01*
X53913000Y-33030250D01*
X53913000Y-33517750D01*
X53911826Y-33541642D01*
X53908316Y-33565303D01*
X53902504Y-33588507D01*
X53894446Y-33611029D01*
X53884218Y-33632653D01*
X53871921Y-33653170D01*
X53857671Y-33672383D01*
X53841607Y-33690107D01*
X53823883Y-33706171D01*
X53804670Y-33720421D01*
X53784153Y-33732718D01*
X53762529Y-33742946D01*
X53740007Y-33751004D01*
X53716803Y-33756816D01*
X53693142Y-33760326D01*
X53669250Y-33761500D01*
X52756750Y-33761500D01*
X52732858Y-33760326D01*
X52709197Y-33756816D01*
X52685993Y-33751004D01*
X52663471Y-33742946D01*
X52641847Y-33732718D01*
X52621330Y-33720421D01*
X52602117Y-33706171D01*
X52584393Y-33690107D01*
X52568329Y-33672383D01*
X52554079Y-33653170D01*
X52541782Y-33632653D01*
X52531554Y-33611029D01*
X52523496Y-33588507D01*
X52517684Y-33565303D01*
X52514174Y-33541642D01*
X52513000Y-33517750D01*
X52513000Y-33030250D01*
X52514174Y-33006358D01*
X52517684Y-32982697D01*
X52523496Y-32959493D01*
X52531554Y-32936971D01*
X52541782Y-32915347D01*
X52554079Y-32894830D01*
X52568329Y-32875617D01*
X52584393Y-32857893D01*
X52602117Y-32841829D01*
X52621330Y-32827579D01*
X52641847Y-32815282D01*
X52663471Y-32805054D01*
X52685993Y-32796996D01*
X52709197Y-32791184D01*
X52732858Y-32787674D01*
X52756750Y-32786500D01*
X53669250Y-32786500D01*
X53693142Y-32787674D01*
X53693142Y-32787674D01*
G37*
D18*
X53213000Y-33274000D03*
D17*
G36*
X31214142Y-53567174D02*
G01*
X31237803Y-53570684D01*
X31261007Y-53576496D01*
X31283529Y-53584554D01*
X31305153Y-53594782D01*
X31325670Y-53607079D01*
X31344883Y-53621329D01*
X31362607Y-53637393D01*
X31378671Y-53655117D01*
X31392921Y-53674330D01*
X31405218Y-53694847D01*
X31415446Y-53716471D01*
X31423504Y-53738993D01*
X31429316Y-53762197D01*
X31432826Y-53785858D01*
X31434000Y-53809750D01*
X31434000Y-54297250D01*
X31432826Y-54321142D01*
X31429316Y-54344803D01*
X31423504Y-54368007D01*
X31415446Y-54390529D01*
X31405218Y-54412153D01*
X31392921Y-54432670D01*
X31378671Y-54451883D01*
X31362607Y-54469607D01*
X31344883Y-54485671D01*
X31325670Y-54499921D01*
X31305153Y-54512218D01*
X31283529Y-54522446D01*
X31261007Y-54530504D01*
X31237803Y-54536316D01*
X31214142Y-54539826D01*
X31190250Y-54541000D01*
X30277750Y-54541000D01*
X30253858Y-54539826D01*
X30230197Y-54536316D01*
X30206993Y-54530504D01*
X30184471Y-54522446D01*
X30162847Y-54512218D01*
X30142330Y-54499921D01*
X30123117Y-54485671D01*
X30105393Y-54469607D01*
X30089329Y-54451883D01*
X30075079Y-54432670D01*
X30062782Y-54412153D01*
X30052554Y-54390529D01*
X30044496Y-54368007D01*
X30038684Y-54344803D01*
X30035174Y-54321142D01*
X30034000Y-54297250D01*
X30034000Y-53809750D01*
X30035174Y-53785858D01*
X30038684Y-53762197D01*
X30044496Y-53738993D01*
X30052554Y-53716471D01*
X30062782Y-53694847D01*
X30075079Y-53674330D01*
X30089329Y-53655117D01*
X30105393Y-53637393D01*
X30123117Y-53621329D01*
X30142330Y-53607079D01*
X30162847Y-53594782D01*
X30184471Y-53584554D01*
X30206993Y-53576496D01*
X30230197Y-53570684D01*
X30253858Y-53567174D01*
X30277750Y-53566000D01*
X31190250Y-53566000D01*
X31214142Y-53567174D01*
X31214142Y-53567174D01*
G37*
D18*
X30734000Y-54053500D03*
D17*
G36*
X31214142Y-55442174D02*
G01*
X31237803Y-55445684D01*
X31261007Y-55451496D01*
X31283529Y-55459554D01*
X31305153Y-55469782D01*
X31325670Y-55482079D01*
X31344883Y-55496329D01*
X31362607Y-55512393D01*
X31378671Y-55530117D01*
X31392921Y-55549330D01*
X31405218Y-55569847D01*
X31415446Y-55591471D01*
X31423504Y-55613993D01*
X31429316Y-55637197D01*
X31432826Y-55660858D01*
X31434000Y-55684750D01*
X31434000Y-56172250D01*
X31432826Y-56196142D01*
X31429316Y-56219803D01*
X31423504Y-56243007D01*
X31415446Y-56265529D01*
X31405218Y-56287153D01*
X31392921Y-56307670D01*
X31378671Y-56326883D01*
X31362607Y-56344607D01*
X31344883Y-56360671D01*
X31325670Y-56374921D01*
X31305153Y-56387218D01*
X31283529Y-56397446D01*
X31261007Y-56405504D01*
X31237803Y-56411316D01*
X31214142Y-56414826D01*
X31190250Y-56416000D01*
X30277750Y-56416000D01*
X30253858Y-56414826D01*
X30230197Y-56411316D01*
X30206993Y-56405504D01*
X30184471Y-56397446D01*
X30162847Y-56387218D01*
X30142330Y-56374921D01*
X30123117Y-56360671D01*
X30105393Y-56344607D01*
X30089329Y-56326883D01*
X30075079Y-56307670D01*
X30062782Y-56287153D01*
X30052554Y-56265529D01*
X30044496Y-56243007D01*
X30038684Y-56219803D01*
X30035174Y-56196142D01*
X30034000Y-56172250D01*
X30034000Y-55684750D01*
X30035174Y-55660858D01*
X30038684Y-55637197D01*
X30044496Y-55613993D01*
X30052554Y-55591471D01*
X30062782Y-55569847D01*
X30075079Y-55549330D01*
X30089329Y-55530117D01*
X30105393Y-55512393D01*
X30123117Y-55496329D01*
X30142330Y-55482079D01*
X30162847Y-55469782D01*
X30184471Y-55459554D01*
X30206993Y-55451496D01*
X30230197Y-55445684D01*
X30253858Y-55442174D01*
X30277750Y-55441000D01*
X31190250Y-55441000D01*
X31214142Y-55442174D01*
X31214142Y-55442174D01*
G37*
D18*
X30734000Y-55928500D03*
D17*
G36*
X33511642Y-15684174D02*
G01*
X33535303Y-15687684D01*
X33558507Y-15693496D01*
X33581029Y-15701554D01*
X33602653Y-15711782D01*
X33623170Y-15724079D01*
X33642383Y-15738329D01*
X33660107Y-15754393D01*
X33676171Y-15772117D01*
X33690421Y-15791330D01*
X33702718Y-15811847D01*
X33712946Y-15833471D01*
X33721004Y-15855993D01*
X33726816Y-15879197D01*
X33730326Y-15902858D01*
X33731500Y-15926750D01*
X33731500Y-16839250D01*
X33730326Y-16863142D01*
X33726816Y-16886803D01*
X33721004Y-16910007D01*
X33712946Y-16932529D01*
X33702718Y-16954153D01*
X33690421Y-16974670D01*
X33676171Y-16993883D01*
X33660107Y-17011607D01*
X33642383Y-17027671D01*
X33623170Y-17041921D01*
X33602653Y-17054218D01*
X33581029Y-17064446D01*
X33558507Y-17072504D01*
X33535303Y-17078316D01*
X33511642Y-17081826D01*
X33487750Y-17083000D01*
X33000250Y-17083000D01*
X32976358Y-17081826D01*
X32952697Y-17078316D01*
X32929493Y-17072504D01*
X32906971Y-17064446D01*
X32885347Y-17054218D01*
X32864830Y-17041921D01*
X32845617Y-17027671D01*
X32827893Y-17011607D01*
X32811829Y-16993883D01*
X32797579Y-16974670D01*
X32785282Y-16954153D01*
X32775054Y-16932529D01*
X32766996Y-16910007D01*
X32761184Y-16886803D01*
X32757674Y-16863142D01*
X32756500Y-16839250D01*
X32756500Y-15926750D01*
X32757674Y-15902858D01*
X32761184Y-15879197D01*
X32766996Y-15855993D01*
X32775054Y-15833471D01*
X32785282Y-15811847D01*
X32797579Y-15791330D01*
X32811829Y-15772117D01*
X32827893Y-15754393D01*
X32845617Y-15738329D01*
X32864830Y-15724079D01*
X32885347Y-15711782D01*
X32906971Y-15701554D01*
X32929493Y-15693496D01*
X32952697Y-15687684D01*
X32976358Y-15684174D01*
X33000250Y-15683000D01*
X33487750Y-15683000D01*
X33511642Y-15684174D01*
X33511642Y-15684174D01*
G37*
D18*
X33244000Y-16383000D03*
D17*
G36*
X31636642Y-15684174D02*
G01*
X31660303Y-15687684D01*
X31683507Y-15693496D01*
X31706029Y-15701554D01*
X31727653Y-15711782D01*
X31748170Y-15724079D01*
X31767383Y-15738329D01*
X31785107Y-15754393D01*
X31801171Y-15772117D01*
X31815421Y-15791330D01*
X31827718Y-15811847D01*
X31837946Y-15833471D01*
X31846004Y-15855993D01*
X31851816Y-15879197D01*
X31855326Y-15902858D01*
X31856500Y-15926750D01*
X31856500Y-16839250D01*
X31855326Y-16863142D01*
X31851816Y-16886803D01*
X31846004Y-16910007D01*
X31837946Y-16932529D01*
X31827718Y-16954153D01*
X31815421Y-16974670D01*
X31801171Y-16993883D01*
X31785107Y-17011607D01*
X31767383Y-17027671D01*
X31748170Y-17041921D01*
X31727653Y-17054218D01*
X31706029Y-17064446D01*
X31683507Y-17072504D01*
X31660303Y-17078316D01*
X31636642Y-17081826D01*
X31612750Y-17083000D01*
X31125250Y-17083000D01*
X31101358Y-17081826D01*
X31077697Y-17078316D01*
X31054493Y-17072504D01*
X31031971Y-17064446D01*
X31010347Y-17054218D01*
X30989830Y-17041921D01*
X30970617Y-17027671D01*
X30952893Y-17011607D01*
X30936829Y-16993883D01*
X30922579Y-16974670D01*
X30910282Y-16954153D01*
X30900054Y-16932529D01*
X30891996Y-16910007D01*
X30886184Y-16886803D01*
X30882674Y-16863142D01*
X30881500Y-16839250D01*
X30881500Y-15926750D01*
X30882674Y-15902858D01*
X30886184Y-15879197D01*
X30891996Y-15855993D01*
X30900054Y-15833471D01*
X30910282Y-15811847D01*
X30922579Y-15791330D01*
X30936829Y-15772117D01*
X30952893Y-15754393D01*
X30970617Y-15738329D01*
X30989830Y-15724079D01*
X31010347Y-15711782D01*
X31031971Y-15701554D01*
X31054493Y-15693496D01*
X31077697Y-15687684D01*
X31101358Y-15684174D01*
X31125250Y-15683000D01*
X31612750Y-15683000D01*
X31636642Y-15684174D01*
X31636642Y-15684174D01*
G37*
D18*
X31369000Y-16383000D03*
D17*
G36*
X33541642Y-18478174D02*
G01*
X33565303Y-18481684D01*
X33588507Y-18487496D01*
X33611029Y-18495554D01*
X33632653Y-18505782D01*
X33653170Y-18518079D01*
X33672383Y-18532329D01*
X33690107Y-18548393D01*
X33706171Y-18566117D01*
X33720421Y-18585330D01*
X33732718Y-18605847D01*
X33742946Y-18627471D01*
X33751004Y-18649993D01*
X33756816Y-18673197D01*
X33760326Y-18696858D01*
X33761500Y-18720750D01*
X33761500Y-19633250D01*
X33760326Y-19657142D01*
X33756816Y-19680803D01*
X33751004Y-19704007D01*
X33742946Y-19726529D01*
X33732718Y-19748153D01*
X33720421Y-19768670D01*
X33706171Y-19787883D01*
X33690107Y-19805607D01*
X33672383Y-19821671D01*
X33653170Y-19835921D01*
X33632653Y-19848218D01*
X33611029Y-19858446D01*
X33588507Y-19866504D01*
X33565303Y-19872316D01*
X33541642Y-19875826D01*
X33517750Y-19877000D01*
X33030250Y-19877000D01*
X33006358Y-19875826D01*
X32982697Y-19872316D01*
X32959493Y-19866504D01*
X32936971Y-19858446D01*
X32915347Y-19848218D01*
X32894830Y-19835921D01*
X32875617Y-19821671D01*
X32857893Y-19805607D01*
X32841829Y-19787883D01*
X32827579Y-19768670D01*
X32815282Y-19748153D01*
X32805054Y-19726529D01*
X32796996Y-19704007D01*
X32791184Y-19680803D01*
X32787674Y-19657142D01*
X32786500Y-19633250D01*
X32786500Y-18720750D01*
X32787674Y-18696858D01*
X32791184Y-18673197D01*
X32796996Y-18649993D01*
X32805054Y-18627471D01*
X32815282Y-18605847D01*
X32827579Y-18585330D01*
X32841829Y-18566117D01*
X32857893Y-18548393D01*
X32875617Y-18532329D01*
X32894830Y-18518079D01*
X32915347Y-18505782D01*
X32936971Y-18495554D01*
X32959493Y-18487496D01*
X32982697Y-18481684D01*
X33006358Y-18478174D01*
X33030250Y-18477000D01*
X33517750Y-18477000D01*
X33541642Y-18478174D01*
X33541642Y-18478174D01*
G37*
D18*
X33274000Y-19177000D03*
D17*
G36*
X31666642Y-18478174D02*
G01*
X31690303Y-18481684D01*
X31713507Y-18487496D01*
X31736029Y-18495554D01*
X31757653Y-18505782D01*
X31778170Y-18518079D01*
X31797383Y-18532329D01*
X31815107Y-18548393D01*
X31831171Y-18566117D01*
X31845421Y-18585330D01*
X31857718Y-18605847D01*
X31867946Y-18627471D01*
X31876004Y-18649993D01*
X31881816Y-18673197D01*
X31885326Y-18696858D01*
X31886500Y-18720750D01*
X31886500Y-19633250D01*
X31885326Y-19657142D01*
X31881816Y-19680803D01*
X31876004Y-19704007D01*
X31867946Y-19726529D01*
X31857718Y-19748153D01*
X31845421Y-19768670D01*
X31831171Y-19787883D01*
X31815107Y-19805607D01*
X31797383Y-19821671D01*
X31778170Y-19835921D01*
X31757653Y-19848218D01*
X31736029Y-19858446D01*
X31713507Y-19866504D01*
X31690303Y-19872316D01*
X31666642Y-19875826D01*
X31642750Y-19877000D01*
X31155250Y-19877000D01*
X31131358Y-19875826D01*
X31107697Y-19872316D01*
X31084493Y-19866504D01*
X31061971Y-19858446D01*
X31040347Y-19848218D01*
X31019830Y-19835921D01*
X31000617Y-19821671D01*
X30982893Y-19805607D01*
X30966829Y-19787883D01*
X30952579Y-19768670D01*
X30940282Y-19748153D01*
X30930054Y-19726529D01*
X30921996Y-19704007D01*
X30916184Y-19680803D01*
X30912674Y-19657142D01*
X30911500Y-19633250D01*
X30911500Y-18720750D01*
X30912674Y-18696858D01*
X30916184Y-18673197D01*
X30921996Y-18649993D01*
X30930054Y-18627471D01*
X30940282Y-18605847D01*
X30952579Y-18585330D01*
X30966829Y-18566117D01*
X30982893Y-18548393D01*
X31000617Y-18532329D01*
X31019830Y-18518079D01*
X31040347Y-18505782D01*
X31061971Y-18495554D01*
X31084493Y-18487496D01*
X31107697Y-18481684D01*
X31131358Y-18478174D01*
X31155250Y-18477000D01*
X31642750Y-18477000D01*
X31666642Y-18478174D01*
X31666642Y-18478174D01*
G37*
D18*
X31399000Y-19177000D03*
D19*
X8255000Y-15240000D03*
D20*
X5715000Y-15240000D03*
X8255000Y-17780000D03*
X5715000Y-17780000D03*
X8255000Y-20320000D03*
X5715000Y-20320000D03*
D17*
G36*
X46264703Y-16107722D02*
G01*
X46279264Y-16109882D01*
X46293543Y-16113459D01*
X46307403Y-16118418D01*
X46320710Y-16124712D01*
X46333336Y-16132280D01*
X46345159Y-16141048D01*
X46356066Y-16150934D01*
X46365952Y-16161841D01*
X46374720Y-16173664D01*
X46382288Y-16186290D01*
X46388582Y-16199597D01*
X46393541Y-16213457D01*
X46397118Y-16227736D01*
X46399278Y-16242297D01*
X46400000Y-16257000D01*
X46400000Y-16557000D01*
X46399278Y-16571703D01*
X46397118Y-16586264D01*
X46393541Y-16600543D01*
X46388582Y-16614403D01*
X46382288Y-16627710D01*
X46374720Y-16640336D01*
X46365952Y-16652159D01*
X46356066Y-16663066D01*
X46345159Y-16672952D01*
X46333336Y-16681720D01*
X46320710Y-16689288D01*
X46307403Y-16695582D01*
X46293543Y-16700541D01*
X46279264Y-16704118D01*
X46264703Y-16706278D01*
X46250000Y-16707000D01*
X45000000Y-16707000D01*
X44985297Y-16706278D01*
X44970736Y-16704118D01*
X44956457Y-16700541D01*
X44942597Y-16695582D01*
X44929290Y-16689288D01*
X44916664Y-16681720D01*
X44904841Y-16672952D01*
X44893934Y-16663066D01*
X44884048Y-16652159D01*
X44875280Y-16640336D01*
X44867712Y-16627710D01*
X44861418Y-16614403D01*
X44856459Y-16600543D01*
X44852882Y-16586264D01*
X44850722Y-16571703D01*
X44850000Y-16557000D01*
X44850000Y-16257000D01*
X44850722Y-16242297D01*
X44852882Y-16227736D01*
X44856459Y-16213457D01*
X44861418Y-16199597D01*
X44867712Y-16186290D01*
X44875280Y-16173664D01*
X44884048Y-16161841D01*
X44893934Y-16150934D01*
X44904841Y-16141048D01*
X44916664Y-16132280D01*
X44929290Y-16124712D01*
X44942597Y-16118418D01*
X44956457Y-16113459D01*
X44970736Y-16109882D01*
X44985297Y-16107722D01*
X45000000Y-16107000D01*
X46250000Y-16107000D01*
X46264703Y-16107722D01*
X46264703Y-16107722D01*
G37*
D21*
X45625000Y-16407000D03*
D17*
G36*
X46264703Y-17107722D02*
G01*
X46279264Y-17109882D01*
X46293543Y-17113459D01*
X46307403Y-17118418D01*
X46320710Y-17124712D01*
X46333336Y-17132280D01*
X46345159Y-17141048D01*
X46356066Y-17150934D01*
X46365952Y-17161841D01*
X46374720Y-17173664D01*
X46382288Y-17186290D01*
X46388582Y-17199597D01*
X46393541Y-17213457D01*
X46397118Y-17227736D01*
X46399278Y-17242297D01*
X46400000Y-17257000D01*
X46400000Y-17557000D01*
X46399278Y-17571703D01*
X46397118Y-17586264D01*
X46393541Y-17600543D01*
X46388582Y-17614403D01*
X46382288Y-17627710D01*
X46374720Y-17640336D01*
X46365952Y-17652159D01*
X46356066Y-17663066D01*
X46345159Y-17672952D01*
X46333336Y-17681720D01*
X46320710Y-17689288D01*
X46307403Y-17695582D01*
X46293543Y-17700541D01*
X46279264Y-17704118D01*
X46264703Y-17706278D01*
X46250000Y-17707000D01*
X45000000Y-17707000D01*
X44985297Y-17706278D01*
X44970736Y-17704118D01*
X44956457Y-17700541D01*
X44942597Y-17695582D01*
X44929290Y-17689288D01*
X44916664Y-17681720D01*
X44904841Y-17672952D01*
X44893934Y-17663066D01*
X44884048Y-17652159D01*
X44875280Y-17640336D01*
X44867712Y-17627710D01*
X44861418Y-17614403D01*
X44856459Y-17600543D01*
X44852882Y-17586264D01*
X44850722Y-17571703D01*
X44850000Y-17557000D01*
X44850000Y-17257000D01*
X44850722Y-17242297D01*
X44852882Y-17227736D01*
X44856459Y-17213457D01*
X44861418Y-17199597D01*
X44867712Y-17186290D01*
X44875280Y-17173664D01*
X44884048Y-17161841D01*
X44893934Y-17150934D01*
X44904841Y-17141048D01*
X44916664Y-17132280D01*
X44929290Y-17124712D01*
X44942597Y-17118418D01*
X44956457Y-17113459D01*
X44970736Y-17109882D01*
X44985297Y-17107722D01*
X45000000Y-17107000D01*
X46250000Y-17107000D01*
X46264703Y-17107722D01*
X46264703Y-17107722D01*
G37*
D21*
X45625000Y-17407000D03*
D17*
G36*
X46264703Y-18107722D02*
G01*
X46279264Y-18109882D01*
X46293543Y-18113459D01*
X46307403Y-18118418D01*
X46320710Y-18124712D01*
X46333336Y-18132280D01*
X46345159Y-18141048D01*
X46356066Y-18150934D01*
X46365952Y-18161841D01*
X46374720Y-18173664D01*
X46382288Y-18186290D01*
X46388582Y-18199597D01*
X46393541Y-18213457D01*
X46397118Y-18227736D01*
X46399278Y-18242297D01*
X46400000Y-18257000D01*
X46400000Y-18557000D01*
X46399278Y-18571703D01*
X46397118Y-18586264D01*
X46393541Y-18600543D01*
X46388582Y-18614403D01*
X46382288Y-18627710D01*
X46374720Y-18640336D01*
X46365952Y-18652159D01*
X46356066Y-18663066D01*
X46345159Y-18672952D01*
X46333336Y-18681720D01*
X46320710Y-18689288D01*
X46307403Y-18695582D01*
X46293543Y-18700541D01*
X46279264Y-18704118D01*
X46264703Y-18706278D01*
X46250000Y-18707000D01*
X45000000Y-18707000D01*
X44985297Y-18706278D01*
X44970736Y-18704118D01*
X44956457Y-18700541D01*
X44942597Y-18695582D01*
X44929290Y-18689288D01*
X44916664Y-18681720D01*
X44904841Y-18672952D01*
X44893934Y-18663066D01*
X44884048Y-18652159D01*
X44875280Y-18640336D01*
X44867712Y-18627710D01*
X44861418Y-18614403D01*
X44856459Y-18600543D01*
X44852882Y-18586264D01*
X44850722Y-18571703D01*
X44850000Y-18557000D01*
X44850000Y-18257000D01*
X44850722Y-18242297D01*
X44852882Y-18227736D01*
X44856459Y-18213457D01*
X44861418Y-18199597D01*
X44867712Y-18186290D01*
X44875280Y-18173664D01*
X44884048Y-18161841D01*
X44893934Y-18150934D01*
X44904841Y-18141048D01*
X44916664Y-18132280D01*
X44929290Y-18124712D01*
X44942597Y-18118418D01*
X44956457Y-18113459D01*
X44970736Y-18109882D01*
X44985297Y-18107722D01*
X45000000Y-18107000D01*
X46250000Y-18107000D01*
X46264703Y-18107722D01*
X46264703Y-18107722D01*
G37*
D21*
X45625000Y-18407000D03*
D17*
G36*
X46264703Y-19107722D02*
G01*
X46279264Y-19109882D01*
X46293543Y-19113459D01*
X46307403Y-19118418D01*
X46320710Y-19124712D01*
X46333336Y-19132280D01*
X46345159Y-19141048D01*
X46356066Y-19150934D01*
X46365952Y-19161841D01*
X46374720Y-19173664D01*
X46382288Y-19186290D01*
X46388582Y-19199597D01*
X46393541Y-19213457D01*
X46397118Y-19227736D01*
X46399278Y-19242297D01*
X46400000Y-19257000D01*
X46400000Y-19557000D01*
X46399278Y-19571703D01*
X46397118Y-19586264D01*
X46393541Y-19600543D01*
X46388582Y-19614403D01*
X46382288Y-19627710D01*
X46374720Y-19640336D01*
X46365952Y-19652159D01*
X46356066Y-19663066D01*
X46345159Y-19672952D01*
X46333336Y-19681720D01*
X46320710Y-19689288D01*
X46307403Y-19695582D01*
X46293543Y-19700541D01*
X46279264Y-19704118D01*
X46264703Y-19706278D01*
X46250000Y-19707000D01*
X45000000Y-19707000D01*
X44985297Y-19706278D01*
X44970736Y-19704118D01*
X44956457Y-19700541D01*
X44942597Y-19695582D01*
X44929290Y-19689288D01*
X44916664Y-19681720D01*
X44904841Y-19672952D01*
X44893934Y-19663066D01*
X44884048Y-19652159D01*
X44875280Y-19640336D01*
X44867712Y-19627710D01*
X44861418Y-19614403D01*
X44856459Y-19600543D01*
X44852882Y-19586264D01*
X44850722Y-19571703D01*
X44850000Y-19557000D01*
X44850000Y-19257000D01*
X44850722Y-19242297D01*
X44852882Y-19227736D01*
X44856459Y-19213457D01*
X44861418Y-19199597D01*
X44867712Y-19186290D01*
X44875280Y-19173664D01*
X44884048Y-19161841D01*
X44893934Y-19150934D01*
X44904841Y-19141048D01*
X44916664Y-19132280D01*
X44929290Y-19124712D01*
X44942597Y-19118418D01*
X44956457Y-19113459D01*
X44970736Y-19109882D01*
X44985297Y-19107722D01*
X45000000Y-19107000D01*
X46250000Y-19107000D01*
X46264703Y-19107722D01*
X46264703Y-19107722D01*
G37*
D21*
X45625000Y-19407000D03*
D17*
G36*
X50174505Y-14508204D02*
G01*
X50198773Y-14511804D01*
X50222572Y-14517765D01*
X50245671Y-14526030D01*
X50267850Y-14536520D01*
X50288893Y-14549132D01*
X50308599Y-14563747D01*
X50326777Y-14580223D01*
X50343253Y-14598401D01*
X50357868Y-14618107D01*
X50370480Y-14639150D01*
X50380970Y-14661329D01*
X50389235Y-14684428D01*
X50395196Y-14708227D01*
X50398796Y-14732495D01*
X50400000Y-14756999D01*
X50400000Y-15457001D01*
X50398796Y-15481505D01*
X50395196Y-15505773D01*
X50389235Y-15529572D01*
X50380970Y-15552671D01*
X50370480Y-15574850D01*
X50357868Y-15595893D01*
X50343253Y-15615599D01*
X50326777Y-15633777D01*
X50308599Y-15650253D01*
X50288893Y-15664868D01*
X50267850Y-15677480D01*
X50245671Y-15687970D01*
X50222572Y-15696235D01*
X50198773Y-15702196D01*
X50174505Y-15705796D01*
X50150001Y-15707000D01*
X48849999Y-15707000D01*
X48825495Y-15705796D01*
X48801227Y-15702196D01*
X48777428Y-15696235D01*
X48754329Y-15687970D01*
X48732150Y-15677480D01*
X48711107Y-15664868D01*
X48691401Y-15650253D01*
X48673223Y-15633777D01*
X48656747Y-15615599D01*
X48642132Y-15595893D01*
X48629520Y-15574850D01*
X48619030Y-15552671D01*
X48610765Y-15529572D01*
X48604804Y-15505773D01*
X48601204Y-15481505D01*
X48600000Y-15457001D01*
X48600000Y-14756999D01*
X48601204Y-14732495D01*
X48604804Y-14708227D01*
X48610765Y-14684428D01*
X48619030Y-14661329D01*
X48629520Y-14639150D01*
X48642132Y-14618107D01*
X48656747Y-14598401D01*
X48673223Y-14580223D01*
X48691401Y-14563747D01*
X48711107Y-14549132D01*
X48732150Y-14536520D01*
X48754329Y-14526030D01*
X48777428Y-14517765D01*
X48801227Y-14511804D01*
X48825495Y-14508204D01*
X48849999Y-14507000D01*
X50150001Y-14507000D01*
X50174505Y-14508204D01*
X50174505Y-14508204D01*
G37*
D22*
X49500000Y-15107000D03*
D17*
G36*
X50174505Y-20108204D02*
G01*
X50198773Y-20111804D01*
X50222572Y-20117765D01*
X50245671Y-20126030D01*
X50267850Y-20136520D01*
X50288893Y-20149132D01*
X50308599Y-20163747D01*
X50326777Y-20180223D01*
X50343253Y-20198401D01*
X50357868Y-20218107D01*
X50370480Y-20239150D01*
X50380970Y-20261329D01*
X50389235Y-20284428D01*
X50395196Y-20308227D01*
X50398796Y-20332495D01*
X50400000Y-20356999D01*
X50400000Y-21057001D01*
X50398796Y-21081505D01*
X50395196Y-21105773D01*
X50389235Y-21129572D01*
X50380970Y-21152671D01*
X50370480Y-21174850D01*
X50357868Y-21195893D01*
X50343253Y-21215599D01*
X50326777Y-21233777D01*
X50308599Y-21250253D01*
X50288893Y-21264868D01*
X50267850Y-21277480D01*
X50245671Y-21287970D01*
X50222572Y-21296235D01*
X50198773Y-21302196D01*
X50174505Y-21305796D01*
X50150001Y-21307000D01*
X48849999Y-21307000D01*
X48825495Y-21305796D01*
X48801227Y-21302196D01*
X48777428Y-21296235D01*
X48754329Y-21287970D01*
X48732150Y-21277480D01*
X48711107Y-21264868D01*
X48691401Y-21250253D01*
X48673223Y-21233777D01*
X48656747Y-21215599D01*
X48642132Y-21195893D01*
X48629520Y-21174850D01*
X48619030Y-21152671D01*
X48610765Y-21129572D01*
X48604804Y-21105773D01*
X48601204Y-21081505D01*
X48600000Y-21057001D01*
X48600000Y-20356999D01*
X48601204Y-20332495D01*
X48604804Y-20308227D01*
X48610765Y-20284428D01*
X48619030Y-20261329D01*
X48629520Y-20239150D01*
X48642132Y-20218107D01*
X48656747Y-20198401D01*
X48673223Y-20180223D01*
X48691401Y-20163747D01*
X48711107Y-20149132D01*
X48732150Y-20136520D01*
X48754329Y-20126030D01*
X48777428Y-20117765D01*
X48801227Y-20111804D01*
X48825495Y-20108204D01*
X48849999Y-20107000D01*
X50150001Y-20107000D01*
X50174505Y-20108204D01*
X50174505Y-20108204D01*
G37*
D22*
X49500000Y-20707000D03*
D17*
G36*
X26059504Y-15636204D02*
G01*
X26083773Y-15639804D01*
X26107571Y-15645765D01*
X26130671Y-15654030D01*
X26152849Y-15664520D01*
X26173893Y-15677133D01*
X26193598Y-15691747D01*
X26211777Y-15708223D01*
X26228253Y-15726402D01*
X26242867Y-15746107D01*
X26255480Y-15767151D01*
X26265970Y-15789329D01*
X26274235Y-15812429D01*
X26280196Y-15836227D01*
X26283796Y-15860496D01*
X26285000Y-15885000D01*
X26285000Y-17135000D01*
X26283796Y-17159504D01*
X26280196Y-17183773D01*
X26274235Y-17207571D01*
X26265970Y-17230671D01*
X26255480Y-17252849D01*
X26242867Y-17273893D01*
X26228253Y-17293598D01*
X26211777Y-17311777D01*
X26193598Y-17328253D01*
X26173893Y-17342867D01*
X26152849Y-17355480D01*
X26130671Y-17365970D01*
X26107571Y-17374235D01*
X26083773Y-17380196D01*
X26059504Y-17383796D01*
X26035000Y-17385000D01*
X25285000Y-17385000D01*
X25260496Y-17383796D01*
X25236227Y-17380196D01*
X25212429Y-17374235D01*
X25189329Y-17365970D01*
X25167151Y-17355480D01*
X25146107Y-17342867D01*
X25126402Y-17328253D01*
X25108223Y-17311777D01*
X25091747Y-17293598D01*
X25077133Y-17273893D01*
X25064520Y-17252849D01*
X25054030Y-17230671D01*
X25045765Y-17207571D01*
X25039804Y-17183773D01*
X25036204Y-17159504D01*
X25035000Y-17135000D01*
X25035000Y-15885000D01*
X25036204Y-15860496D01*
X25039804Y-15836227D01*
X25045765Y-15812429D01*
X25054030Y-15789329D01*
X25064520Y-15767151D01*
X25077133Y-15746107D01*
X25091747Y-15726402D01*
X25108223Y-15708223D01*
X25126402Y-15691747D01*
X25146107Y-15677133D01*
X25167151Y-15664520D01*
X25189329Y-15654030D01*
X25212429Y-15645765D01*
X25236227Y-15639804D01*
X25260496Y-15636204D01*
X25285000Y-15635000D01*
X26035000Y-15635000D01*
X26059504Y-15636204D01*
X26059504Y-15636204D01*
G37*
D23*
X25660000Y-16510000D03*
D17*
G36*
X23259504Y-15636204D02*
G01*
X23283773Y-15639804D01*
X23307571Y-15645765D01*
X23330671Y-15654030D01*
X23352849Y-15664520D01*
X23373893Y-15677133D01*
X23393598Y-15691747D01*
X23411777Y-15708223D01*
X23428253Y-15726402D01*
X23442867Y-15746107D01*
X23455480Y-15767151D01*
X23465970Y-15789329D01*
X23474235Y-15812429D01*
X23480196Y-15836227D01*
X23483796Y-15860496D01*
X23485000Y-15885000D01*
X23485000Y-17135000D01*
X23483796Y-17159504D01*
X23480196Y-17183773D01*
X23474235Y-17207571D01*
X23465970Y-17230671D01*
X23455480Y-17252849D01*
X23442867Y-17273893D01*
X23428253Y-17293598D01*
X23411777Y-17311777D01*
X23393598Y-17328253D01*
X23373893Y-17342867D01*
X23352849Y-17355480D01*
X23330671Y-17365970D01*
X23307571Y-17374235D01*
X23283773Y-17380196D01*
X23259504Y-17383796D01*
X23235000Y-17385000D01*
X22485000Y-17385000D01*
X22460496Y-17383796D01*
X22436227Y-17380196D01*
X22412429Y-17374235D01*
X22389329Y-17365970D01*
X22367151Y-17355480D01*
X22346107Y-17342867D01*
X22326402Y-17328253D01*
X22308223Y-17311777D01*
X22291747Y-17293598D01*
X22277133Y-17273893D01*
X22264520Y-17252849D01*
X22254030Y-17230671D01*
X22245765Y-17207571D01*
X22239804Y-17183773D01*
X22236204Y-17159504D01*
X22235000Y-17135000D01*
X22235000Y-15885000D01*
X22236204Y-15860496D01*
X22239804Y-15836227D01*
X22245765Y-15812429D01*
X22254030Y-15789329D01*
X22264520Y-15767151D01*
X22277133Y-15746107D01*
X22291747Y-15726402D01*
X22308223Y-15708223D01*
X22326402Y-15691747D01*
X22346107Y-15677133D01*
X22367151Y-15664520D01*
X22389329Y-15654030D01*
X22412429Y-15645765D01*
X22436227Y-15639804D01*
X22460496Y-15636204D01*
X22485000Y-15635000D01*
X23235000Y-15635000D01*
X23259504Y-15636204D01*
X23259504Y-15636204D01*
G37*
D23*
X22860000Y-16510000D03*
D17*
G36*
X40399642Y-40195174D02*
G01*
X40423303Y-40198684D01*
X40446507Y-40204496D01*
X40469029Y-40212554D01*
X40490653Y-40222782D01*
X40511170Y-40235079D01*
X40530383Y-40249329D01*
X40548107Y-40265393D01*
X40564171Y-40283117D01*
X40578421Y-40302330D01*
X40590718Y-40322847D01*
X40600946Y-40344471D01*
X40609004Y-40366993D01*
X40614816Y-40390197D01*
X40618326Y-40413858D01*
X40619500Y-40437750D01*
X40619500Y-41350250D01*
X40618326Y-41374142D01*
X40614816Y-41397803D01*
X40609004Y-41421007D01*
X40600946Y-41443529D01*
X40590718Y-41465153D01*
X40578421Y-41485670D01*
X40564171Y-41504883D01*
X40548107Y-41522607D01*
X40530383Y-41538671D01*
X40511170Y-41552921D01*
X40490653Y-41565218D01*
X40469029Y-41575446D01*
X40446507Y-41583504D01*
X40423303Y-41589316D01*
X40399642Y-41592826D01*
X40375750Y-41594000D01*
X39888250Y-41594000D01*
X39864358Y-41592826D01*
X39840697Y-41589316D01*
X39817493Y-41583504D01*
X39794971Y-41575446D01*
X39773347Y-41565218D01*
X39752830Y-41552921D01*
X39733617Y-41538671D01*
X39715893Y-41522607D01*
X39699829Y-41504883D01*
X39685579Y-41485670D01*
X39673282Y-41465153D01*
X39663054Y-41443529D01*
X39654996Y-41421007D01*
X39649184Y-41397803D01*
X39645674Y-41374142D01*
X39644500Y-41350250D01*
X39644500Y-40437750D01*
X39645674Y-40413858D01*
X39649184Y-40390197D01*
X39654996Y-40366993D01*
X39663054Y-40344471D01*
X39673282Y-40322847D01*
X39685579Y-40302330D01*
X39699829Y-40283117D01*
X39715893Y-40265393D01*
X39733617Y-40249329D01*
X39752830Y-40235079D01*
X39773347Y-40222782D01*
X39794971Y-40212554D01*
X39817493Y-40204496D01*
X39840697Y-40198684D01*
X39864358Y-40195174D01*
X39888250Y-40194000D01*
X40375750Y-40194000D01*
X40399642Y-40195174D01*
X40399642Y-40195174D01*
G37*
D18*
X40132000Y-40894000D03*
D17*
G36*
X42274642Y-40195174D02*
G01*
X42298303Y-40198684D01*
X42321507Y-40204496D01*
X42344029Y-40212554D01*
X42365653Y-40222782D01*
X42386170Y-40235079D01*
X42405383Y-40249329D01*
X42423107Y-40265393D01*
X42439171Y-40283117D01*
X42453421Y-40302330D01*
X42465718Y-40322847D01*
X42475946Y-40344471D01*
X42484004Y-40366993D01*
X42489816Y-40390197D01*
X42493326Y-40413858D01*
X42494500Y-40437750D01*
X42494500Y-41350250D01*
X42493326Y-41374142D01*
X42489816Y-41397803D01*
X42484004Y-41421007D01*
X42475946Y-41443529D01*
X42465718Y-41465153D01*
X42453421Y-41485670D01*
X42439171Y-41504883D01*
X42423107Y-41522607D01*
X42405383Y-41538671D01*
X42386170Y-41552921D01*
X42365653Y-41565218D01*
X42344029Y-41575446D01*
X42321507Y-41583504D01*
X42298303Y-41589316D01*
X42274642Y-41592826D01*
X42250750Y-41594000D01*
X41763250Y-41594000D01*
X41739358Y-41592826D01*
X41715697Y-41589316D01*
X41692493Y-41583504D01*
X41669971Y-41575446D01*
X41648347Y-41565218D01*
X41627830Y-41552921D01*
X41608617Y-41538671D01*
X41590893Y-41522607D01*
X41574829Y-41504883D01*
X41560579Y-41485670D01*
X41548282Y-41465153D01*
X41538054Y-41443529D01*
X41529996Y-41421007D01*
X41524184Y-41397803D01*
X41520674Y-41374142D01*
X41519500Y-41350250D01*
X41519500Y-40437750D01*
X41520674Y-40413858D01*
X41524184Y-40390197D01*
X41529996Y-40366993D01*
X41538054Y-40344471D01*
X41548282Y-40322847D01*
X41560579Y-40302330D01*
X41574829Y-40283117D01*
X41590893Y-40265393D01*
X41608617Y-40249329D01*
X41627830Y-40235079D01*
X41648347Y-40222782D01*
X41669971Y-40212554D01*
X41692493Y-40204496D01*
X41715697Y-40198684D01*
X41739358Y-40195174D01*
X41763250Y-40194000D01*
X42250750Y-40194000D01*
X42274642Y-40195174D01*
X42274642Y-40195174D01*
G37*
D18*
X42007000Y-40894000D03*
D17*
G36*
X28801142Y-28977674D02*
G01*
X28824803Y-28981184D01*
X28848007Y-28986996D01*
X28870529Y-28995054D01*
X28892153Y-29005282D01*
X28912670Y-29017579D01*
X28931883Y-29031829D01*
X28949607Y-29047893D01*
X28965671Y-29065617D01*
X28979921Y-29084830D01*
X28992218Y-29105347D01*
X29002446Y-29126971D01*
X29010504Y-29149493D01*
X29016316Y-29172697D01*
X29019826Y-29196358D01*
X29021000Y-29220250D01*
X29021000Y-29707750D01*
X29019826Y-29731642D01*
X29016316Y-29755303D01*
X29010504Y-29778507D01*
X29002446Y-29801029D01*
X28992218Y-29822653D01*
X28979921Y-29843170D01*
X28965671Y-29862383D01*
X28949607Y-29880107D01*
X28931883Y-29896171D01*
X28912670Y-29910421D01*
X28892153Y-29922718D01*
X28870529Y-29932946D01*
X28848007Y-29941004D01*
X28824803Y-29946816D01*
X28801142Y-29950326D01*
X28777250Y-29951500D01*
X27864750Y-29951500D01*
X27840858Y-29950326D01*
X27817197Y-29946816D01*
X27793993Y-29941004D01*
X27771471Y-29932946D01*
X27749847Y-29922718D01*
X27729330Y-29910421D01*
X27710117Y-29896171D01*
X27692393Y-29880107D01*
X27676329Y-29862383D01*
X27662079Y-29843170D01*
X27649782Y-29822653D01*
X27639554Y-29801029D01*
X27631496Y-29778507D01*
X27625684Y-29755303D01*
X27622174Y-29731642D01*
X27621000Y-29707750D01*
X27621000Y-29220250D01*
X27622174Y-29196358D01*
X27625684Y-29172697D01*
X27631496Y-29149493D01*
X27639554Y-29126971D01*
X27649782Y-29105347D01*
X27662079Y-29084830D01*
X27676329Y-29065617D01*
X27692393Y-29047893D01*
X27710117Y-29031829D01*
X27729330Y-29017579D01*
X27749847Y-29005282D01*
X27771471Y-28995054D01*
X27793993Y-28986996D01*
X27817197Y-28981184D01*
X27840858Y-28977674D01*
X27864750Y-28976500D01*
X28777250Y-28976500D01*
X28801142Y-28977674D01*
X28801142Y-28977674D01*
G37*
D18*
X28321000Y-29464000D03*
D17*
G36*
X28801142Y-27102674D02*
G01*
X28824803Y-27106184D01*
X28848007Y-27111996D01*
X28870529Y-27120054D01*
X28892153Y-27130282D01*
X28912670Y-27142579D01*
X28931883Y-27156829D01*
X28949607Y-27172893D01*
X28965671Y-27190617D01*
X28979921Y-27209830D01*
X28992218Y-27230347D01*
X29002446Y-27251971D01*
X29010504Y-27274493D01*
X29016316Y-27297697D01*
X29019826Y-27321358D01*
X29021000Y-27345250D01*
X29021000Y-27832750D01*
X29019826Y-27856642D01*
X29016316Y-27880303D01*
X29010504Y-27903507D01*
X29002446Y-27926029D01*
X28992218Y-27947653D01*
X28979921Y-27968170D01*
X28965671Y-27987383D01*
X28949607Y-28005107D01*
X28931883Y-28021171D01*
X28912670Y-28035421D01*
X28892153Y-28047718D01*
X28870529Y-28057946D01*
X28848007Y-28066004D01*
X28824803Y-28071816D01*
X28801142Y-28075326D01*
X28777250Y-28076500D01*
X27864750Y-28076500D01*
X27840858Y-28075326D01*
X27817197Y-28071816D01*
X27793993Y-28066004D01*
X27771471Y-28057946D01*
X27749847Y-28047718D01*
X27729330Y-28035421D01*
X27710117Y-28021171D01*
X27692393Y-28005107D01*
X27676329Y-27987383D01*
X27662079Y-27968170D01*
X27649782Y-27947653D01*
X27639554Y-27926029D01*
X27631496Y-27903507D01*
X27625684Y-27880303D01*
X27622174Y-27856642D01*
X27621000Y-27832750D01*
X27621000Y-27345250D01*
X27622174Y-27321358D01*
X27625684Y-27297697D01*
X27631496Y-27274493D01*
X27639554Y-27251971D01*
X27649782Y-27230347D01*
X27662079Y-27209830D01*
X27676329Y-27190617D01*
X27692393Y-27172893D01*
X27710117Y-27156829D01*
X27729330Y-27142579D01*
X27749847Y-27130282D01*
X27771471Y-27120054D01*
X27793993Y-27111996D01*
X27817197Y-27106184D01*
X27840858Y-27102674D01*
X27864750Y-27101500D01*
X28777250Y-27101500D01*
X28801142Y-27102674D01*
X28801142Y-27102674D01*
G37*
D18*
X28321000Y-27589000D03*
D17*
G36*
X40351142Y-34353174D02*
G01*
X40374803Y-34356684D01*
X40398007Y-34362496D01*
X40420529Y-34370554D01*
X40442153Y-34380782D01*
X40462670Y-34393079D01*
X40481883Y-34407329D01*
X40499607Y-34423393D01*
X40515671Y-34441117D01*
X40529921Y-34460330D01*
X40542218Y-34480847D01*
X40552446Y-34502471D01*
X40560504Y-34524993D01*
X40566316Y-34548197D01*
X40569826Y-34571858D01*
X40571000Y-34595750D01*
X40571000Y-35508250D01*
X40569826Y-35532142D01*
X40566316Y-35555803D01*
X40560504Y-35579007D01*
X40552446Y-35601529D01*
X40542218Y-35623153D01*
X40529921Y-35643670D01*
X40515671Y-35662883D01*
X40499607Y-35680607D01*
X40481883Y-35696671D01*
X40462670Y-35710921D01*
X40442153Y-35723218D01*
X40420529Y-35733446D01*
X40398007Y-35741504D01*
X40374803Y-35747316D01*
X40351142Y-35750826D01*
X40327250Y-35752000D01*
X39839750Y-35752000D01*
X39815858Y-35750826D01*
X39792197Y-35747316D01*
X39768993Y-35741504D01*
X39746471Y-35733446D01*
X39724847Y-35723218D01*
X39704330Y-35710921D01*
X39685117Y-35696671D01*
X39667393Y-35680607D01*
X39651329Y-35662883D01*
X39637079Y-35643670D01*
X39624782Y-35623153D01*
X39614554Y-35601529D01*
X39606496Y-35579007D01*
X39600684Y-35555803D01*
X39597174Y-35532142D01*
X39596000Y-35508250D01*
X39596000Y-34595750D01*
X39597174Y-34571858D01*
X39600684Y-34548197D01*
X39606496Y-34524993D01*
X39614554Y-34502471D01*
X39624782Y-34480847D01*
X39637079Y-34460330D01*
X39651329Y-34441117D01*
X39667393Y-34423393D01*
X39685117Y-34407329D01*
X39704330Y-34393079D01*
X39724847Y-34380782D01*
X39746471Y-34370554D01*
X39768993Y-34362496D01*
X39792197Y-34356684D01*
X39815858Y-34353174D01*
X39839750Y-34352000D01*
X40327250Y-34352000D01*
X40351142Y-34353174D01*
X40351142Y-34353174D01*
G37*
D18*
X40083500Y-35052000D03*
D17*
G36*
X42226142Y-34353174D02*
G01*
X42249803Y-34356684D01*
X42273007Y-34362496D01*
X42295529Y-34370554D01*
X42317153Y-34380782D01*
X42337670Y-34393079D01*
X42356883Y-34407329D01*
X42374607Y-34423393D01*
X42390671Y-34441117D01*
X42404921Y-34460330D01*
X42417218Y-34480847D01*
X42427446Y-34502471D01*
X42435504Y-34524993D01*
X42441316Y-34548197D01*
X42444826Y-34571858D01*
X42446000Y-34595750D01*
X42446000Y-35508250D01*
X42444826Y-35532142D01*
X42441316Y-35555803D01*
X42435504Y-35579007D01*
X42427446Y-35601529D01*
X42417218Y-35623153D01*
X42404921Y-35643670D01*
X42390671Y-35662883D01*
X42374607Y-35680607D01*
X42356883Y-35696671D01*
X42337670Y-35710921D01*
X42317153Y-35723218D01*
X42295529Y-35733446D01*
X42273007Y-35741504D01*
X42249803Y-35747316D01*
X42226142Y-35750826D01*
X42202250Y-35752000D01*
X41714750Y-35752000D01*
X41690858Y-35750826D01*
X41667197Y-35747316D01*
X41643993Y-35741504D01*
X41621471Y-35733446D01*
X41599847Y-35723218D01*
X41579330Y-35710921D01*
X41560117Y-35696671D01*
X41542393Y-35680607D01*
X41526329Y-35662883D01*
X41512079Y-35643670D01*
X41499782Y-35623153D01*
X41489554Y-35601529D01*
X41481496Y-35579007D01*
X41475684Y-35555803D01*
X41472174Y-35532142D01*
X41471000Y-35508250D01*
X41471000Y-34595750D01*
X41472174Y-34571858D01*
X41475684Y-34548197D01*
X41481496Y-34524993D01*
X41489554Y-34502471D01*
X41499782Y-34480847D01*
X41512079Y-34460330D01*
X41526329Y-34441117D01*
X41542393Y-34423393D01*
X41560117Y-34407329D01*
X41579330Y-34393079D01*
X41599847Y-34380782D01*
X41621471Y-34370554D01*
X41643993Y-34362496D01*
X41667197Y-34356684D01*
X41690858Y-34353174D01*
X41714750Y-34352000D01*
X42202250Y-34352000D01*
X42226142Y-34353174D01*
X42226142Y-34353174D01*
G37*
D18*
X41958500Y-35052000D03*
D17*
G36*
X18731142Y-38544174D02*
G01*
X18754803Y-38547684D01*
X18778007Y-38553496D01*
X18800529Y-38561554D01*
X18822153Y-38571782D01*
X18842670Y-38584079D01*
X18861883Y-38598329D01*
X18879607Y-38614393D01*
X18895671Y-38632117D01*
X18909921Y-38651330D01*
X18922218Y-38671847D01*
X18932446Y-38693471D01*
X18940504Y-38715993D01*
X18946316Y-38739197D01*
X18949826Y-38762858D01*
X18951000Y-38786750D01*
X18951000Y-39699250D01*
X18949826Y-39723142D01*
X18946316Y-39746803D01*
X18940504Y-39770007D01*
X18932446Y-39792529D01*
X18922218Y-39814153D01*
X18909921Y-39834670D01*
X18895671Y-39853883D01*
X18879607Y-39871607D01*
X18861883Y-39887671D01*
X18842670Y-39901921D01*
X18822153Y-39914218D01*
X18800529Y-39924446D01*
X18778007Y-39932504D01*
X18754803Y-39938316D01*
X18731142Y-39941826D01*
X18707250Y-39943000D01*
X18219750Y-39943000D01*
X18195858Y-39941826D01*
X18172197Y-39938316D01*
X18148993Y-39932504D01*
X18126471Y-39924446D01*
X18104847Y-39914218D01*
X18084330Y-39901921D01*
X18065117Y-39887671D01*
X18047393Y-39871607D01*
X18031329Y-39853883D01*
X18017079Y-39834670D01*
X18004782Y-39814153D01*
X17994554Y-39792529D01*
X17986496Y-39770007D01*
X17980684Y-39746803D01*
X17977174Y-39723142D01*
X17976000Y-39699250D01*
X17976000Y-38786750D01*
X17977174Y-38762858D01*
X17980684Y-38739197D01*
X17986496Y-38715993D01*
X17994554Y-38693471D01*
X18004782Y-38671847D01*
X18017079Y-38651330D01*
X18031329Y-38632117D01*
X18047393Y-38614393D01*
X18065117Y-38598329D01*
X18084330Y-38584079D01*
X18104847Y-38571782D01*
X18126471Y-38561554D01*
X18148993Y-38553496D01*
X18172197Y-38547684D01*
X18195858Y-38544174D01*
X18219750Y-38543000D01*
X18707250Y-38543000D01*
X18731142Y-38544174D01*
X18731142Y-38544174D01*
G37*
D18*
X18463500Y-39243000D03*
D17*
G36*
X16856142Y-38544174D02*
G01*
X16879803Y-38547684D01*
X16903007Y-38553496D01*
X16925529Y-38561554D01*
X16947153Y-38571782D01*
X16967670Y-38584079D01*
X16986883Y-38598329D01*
X17004607Y-38614393D01*
X17020671Y-38632117D01*
X17034921Y-38651330D01*
X17047218Y-38671847D01*
X17057446Y-38693471D01*
X17065504Y-38715993D01*
X17071316Y-38739197D01*
X17074826Y-38762858D01*
X17076000Y-38786750D01*
X17076000Y-39699250D01*
X17074826Y-39723142D01*
X17071316Y-39746803D01*
X17065504Y-39770007D01*
X17057446Y-39792529D01*
X17047218Y-39814153D01*
X17034921Y-39834670D01*
X17020671Y-39853883D01*
X17004607Y-39871607D01*
X16986883Y-39887671D01*
X16967670Y-39901921D01*
X16947153Y-39914218D01*
X16925529Y-39924446D01*
X16903007Y-39932504D01*
X16879803Y-39938316D01*
X16856142Y-39941826D01*
X16832250Y-39943000D01*
X16344750Y-39943000D01*
X16320858Y-39941826D01*
X16297197Y-39938316D01*
X16273993Y-39932504D01*
X16251471Y-39924446D01*
X16229847Y-39914218D01*
X16209330Y-39901921D01*
X16190117Y-39887671D01*
X16172393Y-39871607D01*
X16156329Y-39853883D01*
X16142079Y-39834670D01*
X16129782Y-39814153D01*
X16119554Y-39792529D01*
X16111496Y-39770007D01*
X16105684Y-39746803D01*
X16102174Y-39723142D01*
X16101000Y-39699250D01*
X16101000Y-38786750D01*
X16102174Y-38762858D01*
X16105684Y-38739197D01*
X16111496Y-38715993D01*
X16119554Y-38693471D01*
X16129782Y-38671847D01*
X16142079Y-38651330D01*
X16156329Y-38632117D01*
X16172393Y-38614393D01*
X16190117Y-38598329D01*
X16209330Y-38584079D01*
X16229847Y-38571782D01*
X16251471Y-38561554D01*
X16273993Y-38553496D01*
X16297197Y-38547684D01*
X16320858Y-38544174D01*
X16344750Y-38543000D01*
X16832250Y-38543000D01*
X16856142Y-38544174D01*
X16856142Y-38544174D01*
G37*
D18*
X16588500Y-39243000D03*
D17*
G36*
X38199142Y-34311674D02*
G01*
X38222803Y-34315184D01*
X38246007Y-34320996D01*
X38268529Y-34329054D01*
X38290153Y-34339282D01*
X38310670Y-34351579D01*
X38329883Y-34365829D01*
X38347607Y-34381893D01*
X38363671Y-34399617D01*
X38377921Y-34418830D01*
X38390218Y-34439347D01*
X38400446Y-34460971D01*
X38408504Y-34483493D01*
X38414316Y-34506697D01*
X38417826Y-34530358D01*
X38419000Y-34554250D01*
X38419000Y-35041750D01*
X38417826Y-35065642D01*
X38414316Y-35089303D01*
X38408504Y-35112507D01*
X38400446Y-35135029D01*
X38390218Y-35156653D01*
X38377921Y-35177170D01*
X38363671Y-35196383D01*
X38347607Y-35214107D01*
X38329883Y-35230171D01*
X38310670Y-35244421D01*
X38290153Y-35256718D01*
X38268529Y-35266946D01*
X38246007Y-35275004D01*
X38222803Y-35280816D01*
X38199142Y-35284326D01*
X38175250Y-35285500D01*
X37262750Y-35285500D01*
X37238858Y-35284326D01*
X37215197Y-35280816D01*
X37191993Y-35275004D01*
X37169471Y-35266946D01*
X37147847Y-35256718D01*
X37127330Y-35244421D01*
X37108117Y-35230171D01*
X37090393Y-35214107D01*
X37074329Y-35196383D01*
X37060079Y-35177170D01*
X37047782Y-35156653D01*
X37037554Y-35135029D01*
X37029496Y-35112507D01*
X37023684Y-35089303D01*
X37020174Y-35065642D01*
X37019000Y-35041750D01*
X37019000Y-34554250D01*
X37020174Y-34530358D01*
X37023684Y-34506697D01*
X37029496Y-34483493D01*
X37037554Y-34460971D01*
X37047782Y-34439347D01*
X37060079Y-34418830D01*
X37074329Y-34399617D01*
X37090393Y-34381893D01*
X37108117Y-34365829D01*
X37127330Y-34351579D01*
X37147847Y-34339282D01*
X37169471Y-34329054D01*
X37191993Y-34320996D01*
X37215197Y-34315184D01*
X37238858Y-34311674D01*
X37262750Y-34310500D01*
X38175250Y-34310500D01*
X38199142Y-34311674D01*
X38199142Y-34311674D01*
G37*
D18*
X37719000Y-34798000D03*
D17*
G36*
X38199142Y-32436674D02*
G01*
X38222803Y-32440184D01*
X38246007Y-32445996D01*
X38268529Y-32454054D01*
X38290153Y-32464282D01*
X38310670Y-32476579D01*
X38329883Y-32490829D01*
X38347607Y-32506893D01*
X38363671Y-32524617D01*
X38377921Y-32543830D01*
X38390218Y-32564347D01*
X38400446Y-32585971D01*
X38408504Y-32608493D01*
X38414316Y-32631697D01*
X38417826Y-32655358D01*
X38419000Y-32679250D01*
X38419000Y-33166750D01*
X38417826Y-33190642D01*
X38414316Y-33214303D01*
X38408504Y-33237507D01*
X38400446Y-33260029D01*
X38390218Y-33281653D01*
X38377921Y-33302170D01*
X38363671Y-33321383D01*
X38347607Y-33339107D01*
X38329883Y-33355171D01*
X38310670Y-33369421D01*
X38290153Y-33381718D01*
X38268529Y-33391946D01*
X38246007Y-33400004D01*
X38222803Y-33405816D01*
X38199142Y-33409326D01*
X38175250Y-33410500D01*
X37262750Y-33410500D01*
X37238858Y-33409326D01*
X37215197Y-33405816D01*
X37191993Y-33400004D01*
X37169471Y-33391946D01*
X37147847Y-33381718D01*
X37127330Y-33369421D01*
X37108117Y-33355171D01*
X37090393Y-33339107D01*
X37074329Y-33321383D01*
X37060079Y-33302170D01*
X37047782Y-33281653D01*
X37037554Y-33260029D01*
X37029496Y-33237507D01*
X37023684Y-33214303D01*
X37020174Y-33190642D01*
X37019000Y-33166750D01*
X37019000Y-32679250D01*
X37020174Y-32655358D01*
X37023684Y-32631697D01*
X37029496Y-32608493D01*
X37037554Y-32585971D01*
X37047782Y-32564347D01*
X37060079Y-32543830D01*
X37074329Y-32524617D01*
X37090393Y-32506893D01*
X37108117Y-32490829D01*
X37127330Y-32476579D01*
X37147847Y-32464282D01*
X37169471Y-32454054D01*
X37191993Y-32445996D01*
X37215197Y-32440184D01*
X37238858Y-32436674D01*
X37262750Y-32435500D01*
X38175250Y-32435500D01*
X38199142Y-32436674D01*
X38199142Y-32436674D01*
G37*
D18*
X37719000Y-32923000D03*
D17*
G36*
X33844142Y-46545174D02*
G01*
X33867803Y-46548684D01*
X33891007Y-46554496D01*
X33913529Y-46562554D01*
X33935153Y-46572782D01*
X33955670Y-46585079D01*
X33974883Y-46599329D01*
X33992607Y-46615393D01*
X34008671Y-46633117D01*
X34022921Y-46652330D01*
X34035218Y-46672847D01*
X34045446Y-46694471D01*
X34053504Y-46716993D01*
X34059316Y-46740197D01*
X34062826Y-46763858D01*
X34064000Y-46787750D01*
X34064000Y-47700250D01*
X34062826Y-47724142D01*
X34059316Y-47747803D01*
X34053504Y-47771007D01*
X34045446Y-47793529D01*
X34035218Y-47815153D01*
X34022921Y-47835670D01*
X34008671Y-47854883D01*
X33992607Y-47872607D01*
X33974883Y-47888671D01*
X33955670Y-47902921D01*
X33935153Y-47915218D01*
X33913529Y-47925446D01*
X33891007Y-47933504D01*
X33867803Y-47939316D01*
X33844142Y-47942826D01*
X33820250Y-47944000D01*
X33332750Y-47944000D01*
X33308858Y-47942826D01*
X33285197Y-47939316D01*
X33261993Y-47933504D01*
X33239471Y-47925446D01*
X33217847Y-47915218D01*
X33197330Y-47902921D01*
X33178117Y-47888671D01*
X33160393Y-47872607D01*
X33144329Y-47854883D01*
X33130079Y-47835670D01*
X33117782Y-47815153D01*
X33107554Y-47793529D01*
X33099496Y-47771007D01*
X33093684Y-47747803D01*
X33090174Y-47724142D01*
X33089000Y-47700250D01*
X33089000Y-46787750D01*
X33090174Y-46763858D01*
X33093684Y-46740197D01*
X33099496Y-46716993D01*
X33107554Y-46694471D01*
X33117782Y-46672847D01*
X33130079Y-46652330D01*
X33144329Y-46633117D01*
X33160393Y-46615393D01*
X33178117Y-46599329D01*
X33197330Y-46585079D01*
X33217847Y-46572782D01*
X33239471Y-46562554D01*
X33261993Y-46554496D01*
X33285197Y-46548684D01*
X33308858Y-46545174D01*
X33332750Y-46544000D01*
X33820250Y-46544000D01*
X33844142Y-46545174D01*
X33844142Y-46545174D01*
G37*
D18*
X33576500Y-47244000D03*
D17*
G36*
X31969142Y-46545174D02*
G01*
X31992803Y-46548684D01*
X32016007Y-46554496D01*
X32038529Y-46562554D01*
X32060153Y-46572782D01*
X32080670Y-46585079D01*
X32099883Y-46599329D01*
X32117607Y-46615393D01*
X32133671Y-46633117D01*
X32147921Y-46652330D01*
X32160218Y-46672847D01*
X32170446Y-46694471D01*
X32178504Y-46716993D01*
X32184316Y-46740197D01*
X32187826Y-46763858D01*
X32189000Y-46787750D01*
X32189000Y-47700250D01*
X32187826Y-47724142D01*
X32184316Y-47747803D01*
X32178504Y-47771007D01*
X32170446Y-47793529D01*
X32160218Y-47815153D01*
X32147921Y-47835670D01*
X32133671Y-47854883D01*
X32117607Y-47872607D01*
X32099883Y-47888671D01*
X32080670Y-47902921D01*
X32060153Y-47915218D01*
X32038529Y-47925446D01*
X32016007Y-47933504D01*
X31992803Y-47939316D01*
X31969142Y-47942826D01*
X31945250Y-47944000D01*
X31457750Y-47944000D01*
X31433858Y-47942826D01*
X31410197Y-47939316D01*
X31386993Y-47933504D01*
X31364471Y-47925446D01*
X31342847Y-47915218D01*
X31322330Y-47902921D01*
X31303117Y-47888671D01*
X31285393Y-47872607D01*
X31269329Y-47854883D01*
X31255079Y-47835670D01*
X31242782Y-47815153D01*
X31232554Y-47793529D01*
X31224496Y-47771007D01*
X31218684Y-47747803D01*
X31215174Y-47724142D01*
X31214000Y-47700250D01*
X31214000Y-46787750D01*
X31215174Y-46763858D01*
X31218684Y-46740197D01*
X31224496Y-46716993D01*
X31232554Y-46694471D01*
X31242782Y-46672847D01*
X31255079Y-46652330D01*
X31269329Y-46633117D01*
X31285393Y-46615393D01*
X31303117Y-46599329D01*
X31322330Y-46585079D01*
X31342847Y-46572782D01*
X31364471Y-46562554D01*
X31386993Y-46554496D01*
X31410197Y-46548684D01*
X31433858Y-46545174D01*
X31457750Y-46544000D01*
X31945250Y-46544000D01*
X31969142Y-46545174D01*
X31969142Y-46545174D01*
G37*
D18*
X31701500Y-47244000D03*
D17*
G36*
X23157642Y-28765174D02*
G01*
X23181303Y-28768684D01*
X23204507Y-28774496D01*
X23227029Y-28782554D01*
X23248653Y-28792782D01*
X23269170Y-28805079D01*
X23288383Y-28819329D01*
X23306107Y-28835393D01*
X23322171Y-28853117D01*
X23336421Y-28872330D01*
X23348718Y-28892847D01*
X23358946Y-28914471D01*
X23367004Y-28936993D01*
X23372816Y-28960197D01*
X23376326Y-28983858D01*
X23377500Y-29007750D01*
X23377500Y-29920250D01*
X23376326Y-29944142D01*
X23372816Y-29967803D01*
X23367004Y-29991007D01*
X23358946Y-30013529D01*
X23348718Y-30035153D01*
X23336421Y-30055670D01*
X23322171Y-30074883D01*
X23306107Y-30092607D01*
X23288383Y-30108671D01*
X23269170Y-30122921D01*
X23248653Y-30135218D01*
X23227029Y-30145446D01*
X23204507Y-30153504D01*
X23181303Y-30159316D01*
X23157642Y-30162826D01*
X23133750Y-30164000D01*
X22646250Y-30164000D01*
X22622358Y-30162826D01*
X22598697Y-30159316D01*
X22575493Y-30153504D01*
X22552971Y-30145446D01*
X22531347Y-30135218D01*
X22510830Y-30122921D01*
X22491617Y-30108671D01*
X22473893Y-30092607D01*
X22457829Y-30074883D01*
X22443579Y-30055670D01*
X22431282Y-30035153D01*
X22421054Y-30013529D01*
X22412996Y-29991007D01*
X22407184Y-29967803D01*
X22403674Y-29944142D01*
X22402500Y-29920250D01*
X22402500Y-29007750D01*
X22403674Y-28983858D01*
X22407184Y-28960197D01*
X22412996Y-28936993D01*
X22421054Y-28914471D01*
X22431282Y-28892847D01*
X22443579Y-28872330D01*
X22457829Y-28853117D01*
X22473893Y-28835393D01*
X22491617Y-28819329D01*
X22510830Y-28805079D01*
X22531347Y-28792782D01*
X22552971Y-28782554D01*
X22575493Y-28774496D01*
X22598697Y-28768684D01*
X22622358Y-28765174D01*
X22646250Y-28764000D01*
X23133750Y-28764000D01*
X23157642Y-28765174D01*
X23157642Y-28765174D01*
G37*
D18*
X22890000Y-29464000D03*
D17*
G36*
X25032642Y-28765174D02*
G01*
X25056303Y-28768684D01*
X25079507Y-28774496D01*
X25102029Y-28782554D01*
X25123653Y-28792782D01*
X25144170Y-28805079D01*
X25163383Y-28819329D01*
X25181107Y-28835393D01*
X25197171Y-28853117D01*
X25211421Y-28872330D01*
X25223718Y-28892847D01*
X25233946Y-28914471D01*
X25242004Y-28936993D01*
X25247816Y-28960197D01*
X25251326Y-28983858D01*
X25252500Y-29007750D01*
X25252500Y-29920250D01*
X25251326Y-29944142D01*
X25247816Y-29967803D01*
X25242004Y-29991007D01*
X25233946Y-30013529D01*
X25223718Y-30035153D01*
X25211421Y-30055670D01*
X25197171Y-30074883D01*
X25181107Y-30092607D01*
X25163383Y-30108671D01*
X25144170Y-30122921D01*
X25123653Y-30135218D01*
X25102029Y-30145446D01*
X25079507Y-30153504D01*
X25056303Y-30159316D01*
X25032642Y-30162826D01*
X25008750Y-30164000D01*
X24521250Y-30164000D01*
X24497358Y-30162826D01*
X24473697Y-30159316D01*
X24450493Y-30153504D01*
X24427971Y-30145446D01*
X24406347Y-30135218D01*
X24385830Y-30122921D01*
X24366617Y-30108671D01*
X24348893Y-30092607D01*
X24332829Y-30074883D01*
X24318579Y-30055670D01*
X24306282Y-30035153D01*
X24296054Y-30013529D01*
X24287996Y-29991007D01*
X24282184Y-29967803D01*
X24278674Y-29944142D01*
X24277500Y-29920250D01*
X24277500Y-29007750D01*
X24278674Y-28983858D01*
X24282184Y-28960197D01*
X24287996Y-28936993D01*
X24296054Y-28914471D01*
X24306282Y-28892847D01*
X24318579Y-28872330D01*
X24332829Y-28853117D01*
X24348893Y-28835393D01*
X24366617Y-28819329D01*
X24385830Y-28805079D01*
X24406347Y-28792782D01*
X24427971Y-28782554D01*
X24450493Y-28774496D01*
X24473697Y-28768684D01*
X24497358Y-28765174D01*
X24521250Y-28764000D01*
X25008750Y-28764000D01*
X25032642Y-28765174D01*
X25032642Y-28765174D01*
G37*
D18*
X24765000Y-29464000D03*
D10*
X200977500Y-64135000D03*
X207327500Y-61595000D03*
X181927500Y-64135000D03*
X188277500Y-61595000D03*
X143827500Y-64135000D03*
X150177500Y-61595000D03*
X105727500Y-64135000D03*
X112077500Y-61595000D03*
X86677500Y-64135000D03*
X93027500Y-61595000D03*
X67627500Y-64135000D03*
X73977500Y-61595000D03*
X17621250Y-64135000D03*
X23971250Y-61595000D03*
X210502500Y-45085000D03*
X216852500Y-42545000D03*
X191452500Y-45085000D03*
X197802500Y-42545000D03*
X172402500Y-45085000D03*
X178752500Y-42545000D03*
X153352500Y-45085000D03*
X159702500Y-42545000D03*
X115252500Y-45085000D03*
X121602500Y-42545000D03*
X96202500Y-45085000D03*
X102552500Y-42545000D03*
X77152500Y-45085000D03*
X83502500Y-42545000D03*
X58102500Y-45085000D03*
X64452500Y-42545000D03*
X19208750Y-42545000D03*
X12858750Y-45085000D03*
X224790000Y-26035000D03*
X231140000Y-23495000D03*
X205740000Y-26035000D03*
X212090000Y-23495000D03*
X186690000Y-26035000D03*
X193040000Y-23495000D03*
X167640000Y-26035000D03*
X173990000Y-23495000D03*
X148590000Y-26035000D03*
X154940000Y-23495000D03*
X129540000Y-26035000D03*
X135890000Y-23495000D03*
X110490000Y-26035000D03*
X116840000Y-23495000D03*
X91440000Y-26035000D03*
X97790000Y-23495000D03*
X72390000Y-26035000D03*
X78740000Y-23495000D03*
X53340000Y-26035000D03*
X59690000Y-23495000D03*
X215265000Y-6985000D03*
X221615000Y-4445000D03*
X196215000Y-6985000D03*
X202565000Y-4445000D03*
X177165000Y-6985000D03*
X183515000Y-4445000D03*
X158115000Y-6985000D03*
X164465000Y-4445000D03*
X139065000Y-6985000D03*
X145415000Y-4445000D03*
X120015000Y-6985000D03*
X126365000Y-4445000D03*
X100965000Y-6985000D03*
X107315000Y-4445000D03*
X81915000Y-6985000D03*
X88265000Y-4445000D03*
X62865000Y-6985000D03*
X69215000Y-4445000D03*
X43815000Y-6985000D03*
X50165000Y-4445000D03*
X24765000Y-6985000D03*
X31115000Y-4445000D03*
X5715000Y-6985000D03*
X12065000Y-4445000D03*
D11*
X18050000Y-8375000D03*
X18050000Y-11675000D03*
X37100000Y-8375000D03*
X37100000Y-11675000D03*
X56150000Y-8375000D03*
X56150000Y-11675000D03*
X75200000Y-8375000D03*
X75200000Y-11675000D03*
X94250000Y-8375000D03*
X94250000Y-11675000D03*
X113300000Y-8375000D03*
X113300000Y-11675000D03*
X132350000Y-8375000D03*
X132350000Y-11675000D03*
X151400000Y-8375000D03*
X151400000Y-11675000D03*
X170450000Y-8375000D03*
X170450000Y-11675000D03*
X189500000Y-8375000D03*
X189500000Y-11675000D03*
X208550000Y-8375000D03*
X208550000Y-11675000D03*
X227600000Y-8375000D03*
X227600000Y-11675000D03*
X229997000Y-8383000D03*
X229997000Y-11683000D03*
X248920000Y-8383000D03*
X248920000Y-11683000D03*
X246253000Y-8382000D03*
X246253000Y-11682000D03*
X6350000Y-27425000D03*
X6350000Y-30725000D03*
X46625000Y-27425000D03*
X46625000Y-30725000D03*
X65675000Y-27425000D03*
X65675000Y-30725000D03*
X84725000Y-27425000D03*
X84725000Y-30725000D03*
X103775000Y-27425000D03*
X103775000Y-30725000D03*
X122825000Y-27425000D03*
X122825000Y-30725000D03*
X141875000Y-27425000D03*
X141875000Y-30725000D03*
X160925000Y-27425000D03*
X160925000Y-30725000D03*
X179975000Y-27425000D03*
X179975000Y-30725000D03*
X199025000Y-27425000D03*
X199025000Y-30725000D03*
X218075000Y-27425000D03*
X218075000Y-30725000D03*
X237125000Y-27425000D03*
X237125000Y-30725000D03*
X256175000Y-27425000D03*
X256175000Y-30725000D03*
X263144000Y-27425000D03*
X263144000Y-30725000D03*
X24892000Y-49775000D03*
X24892000Y-46475000D03*
X51387500Y-49775000D03*
X51387500Y-46475000D03*
X70437500Y-49775000D03*
X70437500Y-46475000D03*
X89487500Y-49775000D03*
X89487500Y-46475000D03*
X108537500Y-49775000D03*
X108537500Y-46475000D03*
X127587500Y-49775000D03*
X127587500Y-46475000D03*
X146637500Y-49775000D03*
X146637500Y-46475000D03*
X165687500Y-49775000D03*
X165687500Y-46475000D03*
X184737500Y-49775000D03*
X184737500Y-46475000D03*
X203787500Y-49775000D03*
X203787500Y-46475000D03*
X222837500Y-49775000D03*
X222837500Y-46475000D03*
X241887500Y-49775000D03*
X241887500Y-46475000D03*
X255397000Y-49783000D03*
X255397000Y-46483000D03*
X29845000Y-65406000D03*
X29845000Y-68706000D03*
X60912500Y-65525000D03*
X60912500Y-68825000D03*
X79962500Y-65525000D03*
X79962500Y-68825000D03*
X99012500Y-65525000D03*
X99012500Y-68825000D03*
X118062500Y-65525000D03*
X118062500Y-68825000D03*
X137112500Y-65525000D03*
X137112500Y-68825000D03*
X156162500Y-65525000D03*
X156162500Y-68825000D03*
X175212500Y-65525000D03*
X175212500Y-68825000D03*
X194262500Y-65525000D03*
X194262500Y-68825000D03*
X213312500Y-65525000D03*
X213312500Y-68825000D03*
X232362500Y-65525000D03*
X232362500Y-68825000D03*
X241427000Y-65533000D03*
X241427000Y-68833000D03*
X22812500Y-84575000D03*
X22812500Y-87875000D03*
X46228000Y-84583000D03*
X46228000Y-87883000D03*
X70437500Y-84575000D03*
X70437500Y-87875000D03*
X151384000Y-84710000D03*
X151384000Y-88010000D03*
X210820000Y-84575000D03*
X210820000Y-87875000D03*
X234823000Y-84583000D03*
X234823000Y-87883000D03*
X258445000Y-84575000D03*
X258445000Y-87875000D03*
X263398000Y-84584000D03*
X263398000Y-87884000D03*
D24*
X37846000Y-25781000D03*
X42291000Y-26670000D03*
X10718968Y-18973968D03*
X33528000Y-55880000D03*
X33528000Y-49022000D03*
X42037000Y-33713500D03*
X38227000Y-21971000D03*
X17526000Y-38100000D03*
X23495000Y-33020000D03*
X26010000Y-31267000D03*
X29972000Y-31242000D03*
X37492010Y-33428010D03*
X31623000Y-48895000D03*
X24257000Y-31369000D03*
X20955000Y-11684000D03*
X35497724Y-30475102D03*
X12065000Y-30607000D03*
X24257000Y-45085000D03*
X24892000Y-48133000D03*
X35941000Y-57912000D03*
X38227000Y-49784000D03*
X21387122Y-36563516D03*
X24730000Y-68707000D03*
X20389567Y-36633432D03*
X50800000Y-87884000D03*
X52176048Y-23728048D03*
X53213000Y-31496000D03*
X12954000Y-36957000D03*
X30226000Y-25527000D03*
X29083000Y-80645000D03*
X22479000Y-7874000D03*
X19812000Y-61214000D03*
X22098000Y-37338000D03*
X25107866Y-51878051D03*
X226441000Y-52578000D03*
D25*
X7305990Y-6985000D02*
X5715000Y-6985000D01*
X17364000Y-6985000D02*
X7305990Y-6985000D01*
X18050000Y-7671000D02*
X17364000Y-6985000D01*
X18050000Y-8375000D02*
X18050000Y-7671000D01*
X26355990Y-6985000D02*
X24765000Y-6985000D01*
X36414000Y-6985000D02*
X26355990Y-6985000D01*
X37100000Y-7671000D02*
X36414000Y-6985000D01*
X37100000Y-8375000D02*
X37100000Y-7671000D01*
X45405990Y-6985000D02*
X43815000Y-6985000D01*
X55464000Y-6985000D02*
X45405990Y-6985000D01*
X56150000Y-7671000D02*
X55464000Y-6985000D01*
X56150000Y-8375000D02*
X56150000Y-7671000D01*
X64455990Y-6985000D02*
X62865000Y-6985000D01*
X74514000Y-6985000D02*
X64455990Y-6985000D01*
X75200000Y-7671000D02*
X74514000Y-6985000D01*
X75200000Y-8375000D02*
X75200000Y-7671000D01*
X83505990Y-6985000D02*
X81915000Y-6985000D01*
X93564000Y-6985000D02*
X83505990Y-6985000D01*
X94250000Y-7671000D02*
X93564000Y-6985000D01*
X94250000Y-8375000D02*
X94250000Y-7671000D01*
X102555990Y-6985000D02*
X100965000Y-6985000D01*
X112614000Y-6985000D02*
X102555990Y-6985000D01*
X113300000Y-7671000D02*
X112614000Y-6985000D01*
X113300000Y-8375000D02*
X113300000Y-7671000D01*
X121605990Y-6985000D02*
X120015000Y-6985000D01*
X131664000Y-6985000D02*
X121605990Y-6985000D01*
X132350000Y-7671000D02*
X131664000Y-6985000D01*
X132350000Y-8375000D02*
X132350000Y-7671000D01*
X140655990Y-6985000D02*
X139065000Y-6985000D01*
X150714000Y-6985000D02*
X140655990Y-6985000D01*
X151400000Y-7671000D02*
X150714000Y-6985000D01*
X151400000Y-8375000D02*
X151400000Y-7671000D01*
X159705990Y-6985000D02*
X158115000Y-6985000D01*
X169764000Y-6985000D02*
X159705990Y-6985000D01*
X170450000Y-7671000D02*
X169764000Y-6985000D01*
X170450000Y-8375000D02*
X170450000Y-7671000D01*
X178755990Y-6985000D02*
X177165000Y-6985000D01*
X188814000Y-6985000D02*
X178755990Y-6985000D01*
X189500000Y-7671000D02*
X188814000Y-6985000D01*
X189500000Y-8375000D02*
X189500000Y-7671000D01*
X197805990Y-6985000D02*
X196215000Y-6985000D01*
X207864000Y-6985000D02*
X197805990Y-6985000D01*
X208550000Y-7671000D02*
X207864000Y-6985000D01*
X208550000Y-8375000D02*
X208550000Y-7671000D01*
X216855990Y-6985000D02*
X215265000Y-6985000D01*
X226914000Y-6985000D02*
X216855990Y-6985000D01*
X227600000Y-7671000D02*
X226914000Y-6985000D01*
X227600000Y-8375000D02*
X227600000Y-7671000D01*
X232724010Y-6985000D02*
X234315000Y-6985000D01*
X230691000Y-6985000D02*
X232724010Y-6985000D01*
X229997000Y-7679000D02*
X230691000Y-6985000D01*
X229997000Y-8383000D02*
X229997000Y-7679000D01*
X251774010Y-6985000D02*
X253365000Y-6985000D01*
X249614000Y-6985000D02*
X251774010Y-6985000D01*
X248920000Y-7679000D02*
X249614000Y-6985000D01*
X248920000Y-8383000D02*
X248920000Y-7679000D01*
X8886510Y-26035000D02*
X10477500Y-26035000D01*
X7036000Y-26035000D02*
X8886510Y-26035000D01*
X6350000Y-26721000D02*
X7036000Y-26035000D01*
X6350000Y-27425000D02*
X6350000Y-26721000D01*
X46625000Y-27425000D02*
X46625000Y-26940000D01*
X34544000Y-25781000D02*
X34290000Y-26035000D01*
X37846000Y-25781000D02*
X34544000Y-25781000D01*
X46625000Y-26721000D02*
X46574000Y-26670000D01*
X46625000Y-27425000D02*
X46625000Y-26721000D01*
X46574000Y-26670000D02*
X42291000Y-26670000D01*
X54930990Y-26035000D02*
X53340000Y-26035000D01*
X64989000Y-26035000D02*
X54930990Y-26035000D01*
X65675000Y-26721000D02*
X64989000Y-26035000D01*
X65675000Y-27425000D02*
X65675000Y-26721000D01*
X73980990Y-26035000D02*
X72390000Y-26035000D01*
X84039000Y-26035000D02*
X73980990Y-26035000D01*
X84725000Y-26721000D02*
X84039000Y-26035000D01*
X84725000Y-27425000D02*
X84725000Y-26721000D01*
X93030990Y-26035000D02*
X91440000Y-26035000D01*
X103089000Y-26035000D02*
X93030990Y-26035000D01*
X103775000Y-26721000D02*
X103089000Y-26035000D01*
X103775000Y-27425000D02*
X103775000Y-26721000D01*
X112080990Y-26035000D02*
X110490000Y-26035000D01*
X122139000Y-26035000D02*
X112080990Y-26035000D01*
X122825000Y-26721000D02*
X122139000Y-26035000D01*
X122825000Y-27425000D02*
X122825000Y-26721000D01*
X131130990Y-26035000D02*
X129540000Y-26035000D01*
X141189000Y-26035000D02*
X131130990Y-26035000D01*
X141875000Y-26721000D02*
X141189000Y-26035000D01*
X141875000Y-27425000D02*
X141875000Y-26721000D01*
X150180990Y-26035000D02*
X148590000Y-26035000D01*
X160239000Y-26035000D02*
X150180990Y-26035000D01*
X160925000Y-26721000D02*
X160239000Y-26035000D01*
X160925000Y-27425000D02*
X160925000Y-26721000D01*
X169230990Y-26035000D02*
X167640000Y-26035000D01*
X179289000Y-26035000D02*
X169230990Y-26035000D01*
X179975000Y-26721000D02*
X179289000Y-26035000D01*
X179975000Y-27425000D02*
X179975000Y-26721000D01*
X188280990Y-26035000D02*
X186690000Y-26035000D01*
X198339000Y-26035000D02*
X188280990Y-26035000D01*
X199025000Y-26721000D02*
X198339000Y-26035000D01*
X199025000Y-27425000D02*
X199025000Y-26721000D01*
X207330990Y-26035000D02*
X205740000Y-26035000D01*
X217389000Y-26035000D02*
X207330990Y-26035000D01*
X218075000Y-26721000D02*
X217389000Y-26035000D01*
X218075000Y-27425000D02*
X218075000Y-26721000D01*
X226380990Y-26035000D02*
X224790000Y-26035000D01*
X236439000Y-26035000D02*
X226380990Y-26035000D01*
X237125000Y-26721000D02*
X236439000Y-26035000D01*
X237125000Y-27425000D02*
X237125000Y-26721000D01*
X245430990Y-26035000D02*
X243840000Y-26035000D01*
X255489000Y-26035000D02*
X245430990Y-26035000D01*
X256175000Y-26721000D02*
X255489000Y-26035000D01*
X256175000Y-27425000D02*
X256175000Y-26721000D01*
X266061510Y-26035000D02*
X267652500Y-26035000D01*
X263830000Y-26035000D02*
X266061510Y-26035000D01*
X263144000Y-26721000D02*
X263830000Y-26035000D01*
X263144000Y-27425000D02*
X263144000Y-26721000D01*
X14449740Y-45085000D02*
X12858750Y-45085000D01*
X22648000Y-45085000D02*
X14449740Y-45085000D01*
X24038000Y-46475000D02*
X22648000Y-45085000D01*
X24892000Y-46475000D02*
X24038000Y-46475000D01*
X11267760Y-45085000D02*
X8096250Y-45085000D01*
X12858750Y-45085000D02*
X11267760Y-45085000D01*
X59693490Y-45085000D02*
X58102500Y-45085000D01*
X69751500Y-45085000D02*
X59693490Y-45085000D01*
X70437500Y-45771000D02*
X69751500Y-45085000D01*
X70437500Y-46475000D02*
X70437500Y-45771000D01*
X78743490Y-45085000D02*
X77152500Y-45085000D01*
X88801500Y-45085000D02*
X78743490Y-45085000D01*
X89487500Y-45771000D02*
X88801500Y-45085000D01*
X89487500Y-46475000D02*
X89487500Y-45771000D01*
X97793490Y-45085000D02*
X96202500Y-45085000D01*
X107851500Y-45085000D02*
X97793490Y-45085000D01*
X108537500Y-45771000D02*
X107851500Y-45085000D01*
X108537500Y-46475000D02*
X108537500Y-45771000D01*
X116843490Y-45085000D02*
X115252500Y-45085000D01*
X126901500Y-45085000D02*
X116843490Y-45085000D01*
X127587500Y-45771000D02*
X126901500Y-45085000D01*
X127587500Y-46475000D02*
X127587500Y-45771000D01*
X135893490Y-45085000D02*
X134302500Y-45085000D01*
X145951500Y-45085000D02*
X135893490Y-45085000D01*
X146637500Y-45771000D02*
X145951500Y-45085000D01*
X146637500Y-46475000D02*
X146637500Y-45771000D01*
X154943490Y-45085000D02*
X153352500Y-45085000D01*
X165001500Y-45085000D02*
X154943490Y-45085000D01*
X165687500Y-45771000D02*
X165001500Y-45085000D01*
X165687500Y-46475000D02*
X165687500Y-45771000D01*
X173993490Y-45085000D02*
X172402500Y-45085000D01*
X184051500Y-45085000D02*
X173993490Y-45085000D01*
X184737500Y-45771000D02*
X184051500Y-45085000D01*
X184737500Y-46475000D02*
X184737500Y-45771000D01*
X193043490Y-45085000D02*
X191452500Y-45085000D01*
X203101500Y-45085000D02*
X193043490Y-45085000D01*
X203787500Y-45771000D02*
X203101500Y-45085000D01*
X203787500Y-46475000D02*
X203787500Y-45771000D01*
X212093490Y-45085000D02*
X210502500Y-45085000D01*
X222151500Y-45085000D02*
X212093490Y-45085000D01*
X222837500Y-45771000D02*
X222151500Y-45085000D01*
X222837500Y-46475000D02*
X222837500Y-45771000D01*
X231143490Y-45085000D02*
X229552500Y-45085000D01*
X241201500Y-45085000D02*
X231143490Y-45085000D01*
X241887500Y-45771000D02*
X241201500Y-45085000D01*
X241887500Y-46475000D02*
X241887500Y-45771000D01*
X258917760Y-45085000D02*
X260508750Y-45085000D01*
X256091000Y-45085000D02*
X258917760Y-45085000D01*
X255397000Y-45779000D02*
X256091000Y-45085000D01*
X255397000Y-46483000D02*
X255397000Y-45779000D01*
X19212240Y-64135000D02*
X17621250Y-64135000D01*
X29278000Y-64135000D02*
X19212240Y-64135000D01*
X29845000Y-64702000D02*
X29278000Y-64135000D01*
X29845000Y-65406000D02*
X29845000Y-64702000D01*
X59905467Y-63813967D02*
X48898533Y-63813967D01*
X60912500Y-65525000D02*
X60912500Y-64821000D01*
X60912500Y-64821000D02*
X59905467Y-63813967D01*
X69218490Y-64135000D02*
X67627500Y-64135000D01*
X79276500Y-64135000D02*
X69218490Y-64135000D01*
X79962500Y-64821000D02*
X79276500Y-64135000D01*
X79962500Y-65525000D02*
X79962500Y-64821000D01*
X88268490Y-64135000D02*
X86677500Y-64135000D01*
X98326500Y-64135000D02*
X88268490Y-64135000D01*
X99012500Y-64821000D02*
X98326500Y-64135000D01*
X99012500Y-65525000D02*
X99012500Y-64821000D01*
X107318490Y-64135000D02*
X105727500Y-64135000D01*
X117376500Y-64135000D02*
X107318490Y-64135000D01*
X118062500Y-64821000D02*
X117376500Y-64135000D01*
X118062500Y-65525000D02*
X118062500Y-64821000D01*
X136105467Y-63813967D02*
X125098533Y-63813967D01*
X137112500Y-65525000D02*
X137112500Y-64821000D01*
X137112500Y-64821000D02*
X136105467Y-63813967D01*
X145418490Y-64135000D02*
X143827500Y-64135000D01*
X155476500Y-64135000D02*
X145418490Y-64135000D01*
X156162500Y-64821000D02*
X155476500Y-64135000D01*
X156162500Y-65525000D02*
X156162500Y-64821000D01*
X164468490Y-64135000D02*
X162877500Y-64135000D01*
X174526500Y-64135000D02*
X164468490Y-64135000D01*
X175212500Y-64821000D02*
X174526500Y-64135000D01*
X175212500Y-65525000D02*
X175212500Y-64821000D01*
X183518490Y-64135000D02*
X181927500Y-64135000D01*
X193576500Y-64135000D02*
X183518490Y-64135000D01*
X194262500Y-64821000D02*
X193576500Y-64135000D01*
X194262500Y-65525000D02*
X194262500Y-64821000D01*
X202568490Y-64135000D02*
X200977500Y-64135000D01*
X212626500Y-64135000D02*
X202568490Y-64135000D01*
X213312500Y-64821000D02*
X212626500Y-64135000D01*
X213312500Y-65525000D02*
X213312500Y-64821000D01*
X221618490Y-64135000D02*
X220027500Y-64135000D01*
X231676500Y-64135000D02*
X221618490Y-64135000D01*
X232362500Y-64821000D02*
X231676500Y-64135000D01*
X232362500Y-65525000D02*
X232362500Y-64821000D01*
X244630260Y-64135000D02*
X246221250Y-64135000D01*
X242121000Y-64135000D02*
X244630260Y-64135000D01*
X241427000Y-64829000D02*
X242121000Y-64135000D01*
X241427000Y-65533000D02*
X241427000Y-64829000D01*
X246221250Y-64135000D02*
X255746250Y-64135000D01*
X270824010Y-64135000D02*
X272415000Y-64135000D01*
X268283000Y-64135000D02*
X270824010Y-64135000D01*
X267589000Y-64829000D02*
X268283000Y-64135000D01*
X267589000Y-65533000D02*
X267589000Y-64829000D01*
X35880990Y-83185000D02*
X34290000Y-83185000D01*
X45534000Y-83185000D02*
X35880990Y-83185000D01*
X46228000Y-83879000D02*
X45534000Y-83185000D01*
X46228000Y-84583000D02*
X46228000Y-83879000D01*
X34290000Y-83185000D02*
X31908750Y-83185000D01*
X59693490Y-83185000D02*
X58102500Y-83185000D01*
X69751500Y-83185000D02*
X59693490Y-83185000D01*
X70437500Y-83871000D02*
X69751500Y-83185000D01*
X70437500Y-84575000D02*
X70437500Y-83871000D01*
X58102500Y-83185000D02*
X55721250Y-83185000D01*
X200187240Y-83185000D02*
X198596250Y-83185000D01*
X210134000Y-83185000D02*
X200187240Y-83185000D01*
X210820000Y-83871000D02*
X210134000Y-83185000D01*
X210820000Y-84575000D02*
X210820000Y-83871000D01*
X247812240Y-83185000D02*
X246221250Y-83185000D01*
X257759000Y-83185000D02*
X247812240Y-83185000D01*
X258445000Y-83871000D02*
X257759000Y-83185000D01*
X258445000Y-84575000D02*
X258445000Y-83871000D01*
X246221250Y-83185000D02*
X243840000Y-83185000D01*
D26*
X40307902Y-38862000D02*
X40005000Y-38862000D01*
X42007902Y-37162000D02*
X40307902Y-38862000D01*
X42205000Y-37162000D02*
X42007902Y-37162000D01*
X42594500Y-40894000D02*
X42007000Y-40894000D01*
X43295501Y-40192999D02*
X42594500Y-40894000D01*
X43295501Y-37171501D02*
X43295501Y-40192999D01*
X43286000Y-37162000D02*
X43295501Y-37171501D01*
X42205000Y-37162000D02*
X43286000Y-37162000D01*
X42205000Y-35298500D02*
X41958500Y-35052000D01*
X42205000Y-37162000D02*
X42205000Y-35298500D01*
X38275237Y-34241763D02*
X37719000Y-34798000D01*
X38555510Y-33961490D02*
X38275237Y-34241763D01*
X40867990Y-33961490D02*
X38555510Y-33961490D01*
X41958500Y-35052000D02*
X40867990Y-33961490D01*
X37719000Y-34798000D02*
X37719000Y-36322000D01*
X37033000Y-37008000D02*
X34910000Y-37008000D01*
X37719000Y-36322000D02*
X37033000Y-37008000D01*
X22302500Y-29464000D02*
X21590000Y-30176500D01*
X22890000Y-29464000D02*
X22302500Y-29464000D01*
X22379000Y-35408000D02*
X23510000Y-35408000D01*
X21590000Y-34619000D02*
X22379000Y-35408000D01*
X21590000Y-30176500D02*
X21590000Y-34619000D01*
X18463500Y-39243000D02*
X19304000Y-39243000D01*
X21869000Y-41808000D02*
X23510000Y-41808000D01*
X19304000Y-39243000D02*
X21869000Y-41808000D01*
X43506490Y-33504010D02*
X41958500Y-35052000D01*
X49946338Y-33504010D02*
X43506490Y-33504010D01*
X55905000Y-37079000D02*
X53521328Y-37079000D01*
X53521328Y-37079000D02*
X49946338Y-33504010D01*
X60974000Y-37079000D02*
X55905000Y-37079000D01*
X62205000Y-37079000D02*
X60974000Y-37079000D01*
X44750000Y-19407000D02*
X44323000Y-18980000D01*
X45625000Y-19407000D02*
X44750000Y-19407000D01*
X44323000Y-18980000D02*
X41345000Y-18980000D01*
X41209511Y-19167391D02*
X40437902Y-19939000D01*
X41345000Y-18980000D02*
X41209511Y-19115489D01*
X41209511Y-19115489D02*
X41209511Y-19167391D01*
X39232098Y-19939000D02*
X38914499Y-19621401D01*
X40437902Y-19939000D02*
X39232098Y-19939000D01*
X39339869Y-18034000D02*
X39835000Y-18034000D01*
X38914499Y-18459370D02*
X39339869Y-18034000D01*
X38914499Y-19621401D02*
X38914499Y-18459370D01*
X22225000Y-28799000D02*
X22890000Y-29464000D01*
X22225000Y-17780820D02*
X22225000Y-28799000D01*
X20065590Y-15620590D02*
X19640520Y-15195520D01*
X20065590Y-15621410D02*
X20065590Y-15620590D01*
X20065590Y-15621410D02*
X22225000Y-17780820D01*
X14497416Y-15195520D02*
X10718968Y-18973968D01*
X19640520Y-15195520D02*
X14497416Y-15195520D01*
X28410000Y-29807000D02*
X28410000Y-32908000D01*
X28067000Y-29464000D02*
X28410000Y-29807000D01*
X30734000Y-55928500D02*
X33479500Y-55928500D01*
X33479500Y-55928500D02*
X33528000Y-55880000D01*
X33210000Y-46877500D02*
X33576500Y-47244000D01*
X33210000Y-44308000D02*
X33210000Y-46877500D01*
X33528000Y-47292500D02*
X33576500Y-47244000D01*
X33528000Y-49022000D02*
X33528000Y-47292500D01*
X43506490Y-33504010D02*
X42246490Y-33504010D01*
X42246490Y-33504010D02*
X42037000Y-33713500D01*
X38626999Y-20544099D02*
X39232098Y-19939000D01*
X38626999Y-21571001D02*
X38626999Y-20544099D01*
X38227000Y-21971000D02*
X38626999Y-21571001D01*
X31379000Y-37008000D02*
X33779000Y-37008000D01*
X28410000Y-34039000D02*
X31379000Y-37008000D01*
X33210000Y-43177000D02*
X33210000Y-44308000D01*
X33779000Y-37008000D02*
X33210000Y-37577000D01*
X34910000Y-37008000D02*
X33779000Y-37008000D01*
X24641000Y-35408000D02*
X23510000Y-35408000D01*
X27041000Y-35408000D02*
X24641000Y-35408000D01*
X28410000Y-34039000D02*
X27041000Y-35408000D01*
X28410000Y-32908000D02*
X28410000Y-34039000D01*
X27041000Y-39408000D02*
X27041000Y-35408000D01*
X23510000Y-41808000D02*
X24641000Y-41808000D01*
X33210000Y-37577000D02*
X33210000Y-43177000D01*
X24641000Y-41808000D02*
X27041000Y-39408000D01*
X25352500Y-29464000D02*
X26010000Y-30121500D01*
X24765000Y-29464000D02*
X25352500Y-29464000D01*
X22379000Y-42608000D02*
X23510000Y-42608000D01*
X21847328Y-42608000D02*
X22379000Y-42608000D01*
X19572838Y-40333510D02*
X21847328Y-42608000D01*
X17679010Y-40333510D02*
X19572838Y-40333510D01*
X16588500Y-39243000D02*
X17679010Y-40333510D01*
X50187000Y-32923000D02*
X37997020Y-32923000D01*
X53213000Y-35149000D02*
X52413000Y-35149000D01*
X52413000Y-35149000D02*
X50187000Y-32923000D01*
X36041000Y-36208000D02*
X34910000Y-36208000D01*
X36576000Y-35673000D02*
X36041000Y-36208000D01*
X36576000Y-34344020D02*
X36576000Y-35673000D01*
X24765000Y-29464000D02*
X24765000Y-28664000D01*
X24765000Y-28664000D02*
X24727000Y-28664000D01*
X22860000Y-26797000D02*
X22860000Y-16510000D01*
X24727000Y-28664000D02*
X22860000Y-26797000D01*
X21844000Y-16510000D02*
X22860000Y-16510000D01*
X19948510Y-14614510D02*
X21844000Y-16510000D01*
X13960490Y-14614510D02*
X19948510Y-14614510D01*
X8255000Y-20320000D02*
X13960490Y-14614510D01*
X32410000Y-46535500D02*
X32410000Y-44308000D01*
X31701500Y-47244000D02*
X32410000Y-46535500D01*
X16588500Y-39243000D02*
X16588500Y-39037500D01*
X16588500Y-39037500D02*
X17526000Y-38100000D01*
X23510000Y-34608000D02*
X23510000Y-33035000D01*
X23510000Y-33035000D02*
X23495000Y-33020000D01*
X26010000Y-32908000D02*
X26010000Y-31267000D01*
X26010000Y-30121500D02*
X26010000Y-31267000D01*
X30010000Y-32908000D02*
X30010000Y-31280000D01*
X30010000Y-31280000D02*
X29972000Y-31242000D01*
X37997020Y-32923000D02*
X37492010Y-33428010D01*
X37492010Y-33428010D02*
X36576000Y-34344020D01*
X31623000Y-47322500D02*
X31701500Y-47244000D01*
X31623000Y-48895000D02*
X31623000Y-47322500D01*
D25*
X40005000Y-35130500D02*
X40083500Y-35052000D01*
X40005000Y-37162000D02*
X40005000Y-35130500D01*
X38972178Y-35052000D02*
X38337178Y-35687000D01*
X40083500Y-35052000D02*
X38972178Y-35052000D01*
X35914000Y-37808000D02*
X34910000Y-37808000D01*
X36964868Y-37808000D02*
X35914000Y-37808000D01*
X38337178Y-36435690D02*
X36964868Y-37808000D01*
X38337178Y-35687000D02*
X38337178Y-36435690D01*
X29210000Y-28732000D02*
X29210000Y-32908000D01*
X28067000Y-27589000D02*
X29210000Y-28732000D01*
X42164000Y-38862000D02*
X42205000Y-38862000D01*
X40132000Y-40894000D02*
X42164000Y-38862000D01*
X35914000Y-38608000D02*
X34910000Y-38608000D01*
X37258500Y-38608000D02*
X35914000Y-38608000D01*
X39544500Y-40894000D02*
X37258500Y-38608000D01*
X40132000Y-40894000D02*
X39544500Y-40894000D01*
X25210000Y-32908000D02*
X25210000Y-32322000D01*
X25210000Y-32322000D02*
X24257000Y-31369000D01*
X36246000Y-11675000D02*
X37100000Y-11675000D01*
X36075099Y-11845901D02*
X36246000Y-11675000D01*
X21682586Y-11845901D02*
X36075099Y-11845901D01*
X21520685Y-11684000D02*
X21682586Y-11845901D01*
X20955000Y-11684000D02*
X21520685Y-11684000D01*
X20946000Y-11675000D02*
X20955000Y-11684000D01*
X18050000Y-11675000D02*
X20946000Y-11675000D01*
X55296000Y-11675000D02*
X56150000Y-11675000D01*
X55071040Y-11899960D02*
X55296000Y-11675000D01*
X46565026Y-11899960D02*
X55071040Y-11899960D01*
X46340066Y-11675000D02*
X46565026Y-11899960D01*
X37100000Y-11675000D02*
X46340066Y-11675000D01*
X74346000Y-11675000D02*
X75200000Y-11675000D01*
X74175099Y-11845901D02*
X74346000Y-11675000D01*
X57174901Y-11845901D02*
X74175099Y-11845901D01*
X57004000Y-11675000D02*
X57174901Y-11845901D01*
X56150000Y-11675000D02*
X57004000Y-11675000D01*
X93396000Y-11675000D02*
X94250000Y-11675000D01*
X93225099Y-11845901D02*
X93396000Y-11675000D01*
X84610967Y-11845901D02*
X93225099Y-11845901D01*
X84440066Y-11675000D02*
X84610967Y-11845901D01*
X75200000Y-11675000D02*
X84440066Y-11675000D01*
X112446000Y-11675000D02*
X113300000Y-11675000D01*
X112275099Y-11845901D02*
X112446000Y-11675000D01*
X103660967Y-11845901D02*
X112275099Y-11845901D01*
X103490066Y-11675000D02*
X103660967Y-11845901D01*
X94250000Y-11675000D02*
X103490066Y-11675000D01*
X131496000Y-11675000D02*
X132350000Y-11675000D01*
X131325099Y-11845901D02*
X131496000Y-11675000D01*
X122710967Y-11845901D02*
X131325099Y-11845901D01*
X122540066Y-11675000D02*
X122710967Y-11845901D01*
X113300000Y-11675000D02*
X122540066Y-11675000D01*
X150546000Y-11675000D02*
X151400000Y-11675000D01*
X150375099Y-11845901D02*
X150546000Y-11675000D01*
X141760967Y-11845901D02*
X150375099Y-11845901D01*
X141590066Y-11675000D02*
X141760967Y-11845901D01*
X132350000Y-11675000D02*
X141590066Y-11675000D01*
X169596000Y-11675000D02*
X170450000Y-11675000D01*
X169425099Y-11845901D02*
X169596000Y-11675000D01*
X160810967Y-11845901D02*
X169425099Y-11845901D01*
X160640066Y-11675000D02*
X160810967Y-11845901D01*
X151400000Y-11675000D02*
X160640066Y-11675000D01*
X188646000Y-11675000D02*
X189500000Y-11675000D01*
X188475099Y-11845901D02*
X188646000Y-11675000D01*
X179860967Y-11845901D02*
X188475099Y-11845901D01*
X179690066Y-11675000D02*
X179860967Y-11845901D01*
X170450000Y-11675000D02*
X179690066Y-11675000D01*
X207696000Y-11675000D02*
X208550000Y-11675000D01*
X207525099Y-11845901D02*
X207696000Y-11675000D01*
X198910967Y-11845901D02*
X207525099Y-11845901D01*
X198740066Y-11675000D02*
X198910967Y-11845901D01*
X189500000Y-11675000D02*
X198740066Y-11675000D01*
X226746000Y-11675000D02*
X227600000Y-11675000D01*
X226575099Y-11845901D02*
X226746000Y-11675000D01*
X209574901Y-11845901D02*
X226575099Y-11845901D01*
X209404000Y-11675000D02*
X209574901Y-11845901D01*
X208550000Y-11675000D02*
X209404000Y-11675000D01*
X229989000Y-11675000D02*
X229997000Y-11683000D01*
X227600000Y-11675000D02*
X229989000Y-11675000D01*
X245399000Y-11683000D02*
X246253000Y-11683000D01*
X245236099Y-11845901D02*
X245399000Y-11683000D01*
X237010967Y-11845901D02*
X245236099Y-11845901D01*
X236848066Y-11683000D02*
X237010967Y-11845901D01*
X229997000Y-11683000D02*
X236848066Y-11683000D01*
X249055000Y-11683000D02*
X249063000Y-11675000D01*
X246253000Y-11683000D02*
X249055000Y-11683000D01*
X34910000Y-34608000D02*
X34910000Y-33162000D01*
X34910000Y-33162000D02*
X35433000Y-32639000D01*
X35433000Y-32639000D02*
X35433000Y-30539826D01*
X35433000Y-30539826D02*
X35497724Y-30475102D01*
X6468000Y-30607000D02*
X6350000Y-30725000D01*
X12065000Y-30607000D02*
X6468000Y-30607000D01*
X45771000Y-30725000D02*
X46625000Y-30725000D01*
X45600099Y-30895901D02*
X45771000Y-30725000D01*
X36985967Y-30895901D02*
X45600099Y-30895901D01*
X36565168Y-30475102D02*
X36985967Y-30895901D01*
X35497724Y-30475102D02*
X36565168Y-30475102D01*
X64821000Y-30725000D02*
X65675000Y-30725000D01*
X64650099Y-30895901D02*
X64821000Y-30725000D01*
X53688863Y-30895901D02*
X64650099Y-30895901D01*
X53517962Y-30725000D02*
X53688863Y-30895901D01*
X46625000Y-30725000D02*
X53517962Y-30725000D01*
X83871000Y-30725000D02*
X84725000Y-30725000D01*
X83700099Y-30895901D02*
X83871000Y-30725000D01*
X66699901Y-30895901D02*
X83700099Y-30895901D01*
X66529000Y-30725000D02*
X66699901Y-30895901D01*
X65675000Y-30725000D02*
X66529000Y-30725000D01*
X102921000Y-30725000D02*
X103775000Y-30725000D01*
X102750099Y-30895901D02*
X102921000Y-30725000D01*
X94135967Y-30895901D02*
X102750099Y-30895901D01*
X93965066Y-30725000D02*
X94135967Y-30895901D01*
X84725000Y-30725000D02*
X93965066Y-30725000D01*
X121971000Y-30725000D02*
X122825000Y-30725000D01*
X121800099Y-30895901D02*
X121971000Y-30725000D01*
X104799901Y-30895901D02*
X121800099Y-30895901D01*
X104629000Y-30725000D02*
X104799901Y-30895901D01*
X103775000Y-30725000D02*
X104629000Y-30725000D01*
X141021000Y-30725000D02*
X141875000Y-30725000D01*
X140850099Y-30895901D02*
X141021000Y-30725000D01*
X132235967Y-30895901D02*
X140850099Y-30895901D01*
X132065066Y-30725000D02*
X132235967Y-30895901D01*
X122825000Y-30725000D02*
X132065066Y-30725000D01*
X160071000Y-30725000D02*
X160925000Y-30725000D01*
X159900099Y-30895901D02*
X160071000Y-30725000D01*
X151285967Y-30895901D02*
X159900099Y-30895901D01*
X151115066Y-30725000D02*
X151285967Y-30895901D01*
X141875000Y-30725000D02*
X151115066Y-30725000D01*
X179121000Y-30725000D02*
X179975000Y-30725000D01*
X178950099Y-30895901D02*
X179121000Y-30725000D01*
X170335967Y-30895901D02*
X178950099Y-30895901D01*
X170165066Y-30725000D02*
X170335967Y-30895901D01*
X160925000Y-30725000D02*
X170165066Y-30725000D01*
X198171000Y-30725000D02*
X199025000Y-30725000D01*
X198000099Y-30895901D02*
X198171000Y-30725000D01*
X189385967Y-30895901D02*
X198000099Y-30895901D01*
X189215066Y-30725000D02*
X189385967Y-30895901D01*
X179975000Y-30725000D02*
X189215066Y-30725000D01*
X217221000Y-30725000D02*
X218075000Y-30725000D01*
X217050099Y-30895901D02*
X217221000Y-30725000D01*
X208435967Y-30895901D02*
X217050099Y-30895901D01*
X208265066Y-30725000D02*
X208435967Y-30895901D01*
X199025000Y-30725000D02*
X208265066Y-30725000D01*
X236271000Y-30725000D02*
X237125000Y-30725000D01*
X236100099Y-30895901D02*
X236271000Y-30725000D01*
X227485967Y-30895901D02*
X236100099Y-30895901D01*
X227315066Y-30725000D02*
X227485967Y-30895901D01*
X218075000Y-30725000D02*
X227315066Y-30725000D01*
X255321000Y-30725000D02*
X256175000Y-30725000D01*
X255150099Y-30895901D02*
X255321000Y-30725000D01*
X246535967Y-30895901D02*
X255150099Y-30895901D01*
X246365066Y-30725000D02*
X246535967Y-30895901D01*
X237125000Y-30725000D02*
X246365066Y-30725000D01*
X256175000Y-30725000D02*
X263144000Y-30725000D01*
X24892000Y-48133000D02*
X24892000Y-49775000D01*
X24380865Y-52227012D02*
X24758905Y-52605052D01*
X24380865Y-50136135D02*
X24380865Y-52227012D01*
X24892000Y-49775000D02*
X24742000Y-49775000D01*
X24742000Y-49775000D02*
X24380865Y-50136135D01*
X25192801Y-52605052D02*
X30137768Y-57550020D01*
X24758905Y-52605052D02*
X25192801Y-52605052D01*
X30137768Y-57550020D02*
X35579020Y-57550020D01*
X35579020Y-57550020D02*
X35941000Y-57912000D01*
X50533500Y-49775000D02*
X51387500Y-49775000D01*
X50362599Y-49945901D02*
X50533500Y-49775000D01*
X41748467Y-49945901D02*
X50362599Y-49945901D01*
X41586566Y-49784000D02*
X41748467Y-49945901D01*
X38227000Y-49784000D02*
X41586566Y-49784000D01*
X69583500Y-49775000D02*
X70437500Y-49775000D01*
X69412599Y-49945901D02*
X69583500Y-49775000D01*
X60798467Y-49945901D02*
X69412599Y-49945901D01*
X60627566Y-49775000D02*
X60798467Y-49945901D01*
X51387500Y-49775000D02*
X60627566Y-49775000D01*
X88633500Y-49775000D02*
X89487500Y-49775000D01*
X88462599Y-49945901D02*
X88633500Y-49775000D01*
X79848467Y-49945901D02*
X88462599Y-49945901D01*
X79677566Y-49775000D02*
X79848467Y-49945901D01*
X70437500Y-49775000D02*
X79677566Y-49775000D01*
X107683500Y-49775000D02*
X108537500Y-49775000D01*
X107512599Y-49945901D02*
X107683500Y-49775000D01*
X98898467Y-49945901D02*
X107512599Y-49945901D01*
X98727566Y-49775000D02*
X98898467Y-49945901D01*
X89487500Y-49775000D02*
X98727566Y-49775000D01*
X126733500Y-49775000D02*
X127587500Y-49775000D01*
X126562599Y-49945901D02*
X126733500Y-49775000D01*
X117948467Y-49945901D02*
X126562599Y-49945901D01*
X117777566Y-49775000D02*
X117948467Y-49945901D01*
X108537500Y-49775000D02*
X117777566Y-49775000D01*
X145783500Y-49775000D02*
X146637500Y-49775000D01*
X145612599Y-49945901D02*
X145783500Y-49775000D01*
X136998467Y-49945901D02*
X145612599Y-49945901D01*
X136827566Y-49775000D02*
X136998467Y-49945901D01*
X127587500Y-49775000D02*
X136827566Y-49775000D01*
X164833500Y-49775000D02*
X165687500Y-49775000D01*
X164662599Y-49945901D02*
X164833500Y-49775000D01*
X156048467Y-49945901D02*
X164662599Y-49945901D01*
X155877566Y-49775000D02*
X156048467Y-49945901D01*
X146637500Y-49775000D02*
X155877566Y-49775000D01*
X183883500Y-49775000D02*
X184737500Y-49775000D01*
X183712599Y-49945901D02*
X183883500Y-49775000D01*
X166712401Y-49945901D02*
X183712599Y-49945901D01*
X166541500Y-49775000D02*
X166712401Y-49945901D01*
X165687500Y-49775000D02*
X166541500Y-49775000D01*
X202933500Y-49775000D02*
X203787500Y-49775000D01*
X202762599Y-49945901D02*
X202933500Y-49775000D01*
X194148467Y-49945901D02*
X202762599Y-49945901D01*
X193977566Y-49775000D02*
X194148467Y-49945901D01*
X184737500Y-49775000D02*
X193977566Y-49775000D01*
X221983500Y-49775000D02*
X222837500Y-49775000D01*
X221812599Y-49945901D02*
X221983500Y-49775000D01*
X213198467Y-49945901D02*
X221812599Y-49945901D01*
X213027566Y-49775000D02*
X213198467Y-49945901D01*
X203787500Y-49775000D02*
X213027566Y-49775000D01*
X241033500Y-49775000D02*
X241887500Y-49775000D01*
X240862599Y-49945901D02*
X241033500Y-49775000D01*
X223862401Y-49945901D02*
X240862599Y-49945901D01*
X223691500Y-49775000D02*
X223862401Y-49945901D01*
X222837500Y-49775000D02*
X223691500Y-49775000D01*
X255389000Y-49775000D02*
X255397000Y-49783000D01*
X241887500Y-49775000D02*
X255389000Y-49775000D01*
X22506000Y-41008000D02*
X23510000Y-41008000D01*
X23398001Y-44226001D02*
X23398001Y-43210001D01*
X24257000Y-45085000D02*
X23398001Y-44226001D01*
X23398001Y-43210001D02*
X20797999Y-43210001D01*
X20797999Y-43210001D02*
X20010999Y-43997001D01*
X18511789Y-43997001D02*
X17756749Y-43241961D01*
X20010999Y-43997001D02*
X18511789Y-43997001D01*
X19458933Y-37960933D02*
X22506000Y-41008000D01*
X19458933Y-37372999D02*
X19458933Y-37960933D01*
X16951323Y-37372999D02*
X19458933Y-37372999D01*
X15773990Y-38550332D02*
X16951323Y-37372999D01*
X16108332Y-40270010D02*
X15773990Y-39935668D01*
X15773990Y-39935668D02*
X15773990Y-38550332D01*
X16883642Y-40270010D02*
X16108332Y-40270010D01*
X17756749Y-41143117D02*
X16883642Y-40270010D01*
X17756749Y-43241961D02*
X17756749Y-41143117D01*
X21370999Y-36579639D02*
X21387122Y-36563516D01*
X21370999Y-37686961D02*
X21370999Y-36579639D01*
X23510000Y-38608000D02*
X22292038Y-38608000D01*
X22292038Y-38608000D02*
X21370999Y-37686961D01*
X29844000Y-68707000D02*
X29845000Y-68706000D01*
X24730000Y-68707000D02*
X29844000Y-68707000D01*
X60058500Y-68825000D02*
X60912500Y-68825000D01*
X59887599Y-68995901D02*
X60058500Y-68825000D01*
X51273467Y-68995901D02*
X59887599Y-68995901D01*
X50983566Y-68706000D02*
X51273467Y-68995901D01*
X29845000Y-68706000D02*
X50983566Y-68706000D01*
X79108500Y-68825000D02*
X79962500Y-68825000D01*
X78937599Y-68995901D02*
X79108500Y-68825000D01*
X70323467Y-68995901D02*
X78937599Y-68995901D01*
X70152566Y-68825000D02*
X70323467Y-68995901D01*
X60912500Y-68825000D02*
X70152566Y-68825000D01*
X98158500Y-68825000D02*
X99012500Y-68825000D01*
X97987599Y-68995901D02*
X98158500Y-68825000D01*
X89373467Y-68995901D02*
X97987599Y-68995901D01*
X89202566Y-68825000D02*
X89373467Y-68995901D01*
X79962500Y-68825000D02*
X89202566Y-68825000D01*
X117208500Y-68825000D02*
X118062500Y-68825000D01*
X117037599Y-68995901D02*
X117208500Y-68825000D01*
X108423467Y-68995901D02*
X117037599Y-68995901D01*
X108252566Y-68825000D02*
X108423467Y-68995901D01*
X99012500Y-68825000D02*
X108252566Y-68825000D01*
X136258500Y-68825000D02*
X137112500Y-68825000D01*
X136087599Y-68995901D02*
X136258500Y-68825000D01*
X119087401Y-68995901D02*
X136087599Y-68995901D01*
X118916500Y-68825000D02*
X119087401Y-68995901D01*
X118062500Y-68825000D02*
X118916500Y-68825000D01*
X155308500Y-68825000D02*
X156162500Y-68825000D01*
X155137599Y-68995901D02*
X155308500Y-68825000D01*
X146523467Y-68995901D02*
X155137599Y-68995901D01*
X146352566Y-68825000D02*
X146523467Y-68995901D01*
X137112500Y-68825000D02*
X146352566Y-68825000D01*
X174358500Y-68825000D02*
X175212500Y-68825000D01*
X174187599Y-68995901D02*
X174358500Y-68825000D01*
X165573467Y-68995901D02*
X174187599Y-68995901D01*
X165402566Y-68825000D02*
X165573467Y-68995901D01*
X156162500Y-68825000D02*
X165402566Y-68825000D01*
X193408500Y-68825000D02*
X194262500Y-68825000D01*
X193237599Y-68995901D02*
X193408500Y-68825000D01*
X184623467Y-68995901D02*
X193237599Y-68995901D01*
X184452566Y-68825000D02*
X184623467Y-68995901D01*
X175212500Y-68825000D02*
X184452566Y-68825000D01*
X212458500Y-68825000D02*
X213312500Y-68825000D01*
X212287599Y-68995901D02*
X212458500Y-68825000D01*
X203673467Y-68995901D02*
X212287599Y-68995901D01*
X203502566Y-68825000D02*
X203673467Y-68995901D01*
X194262500Y-68825000D02*
X203502566Y-68825000D01*
X231508500Y-68825000D02*
X232362500Y-68825000D01*
X231337599Y-68995901D02*
X231508500Y-68825000D01*
X222723467Y-68995901D02*
X231337599Y-68995901D01*
X222552566Y-68825000D02*
X222723467Y-68995901D01*
X213312500Y-68825000D02*
X222552566Y-68825000D01*
X241419000Y-68825000D02*
X241427000Y-68833000D01*
X232362500Y-68825000D02*
X241419000Y-68825000D01*
X266989000Y-68825000D02*
X267843000Y-68825000D01*
X266818099Y-68995901D02*
X266989000Y-68825000D01*
X242443901Y-68995901D02*
X266818099Y-68995901D01*
X242281000Y-68833000D02*
X242443901Y-68995901D01*
X241427000Y-68833000D02*
X242281000Y-68833000D01*
X70287500Y-87875000D02*
X70437500Y-87875000D01*
X69583500Y-88579000D02*
X70287500Y-87875000D01*
X58950316Y-88579000D02*
X69583500Y-88579000D01*
X58255316Y-87884000D02*
X58950316Y-88579000D01*
X50800000Y-87884000D02*
X58255316Y-87884000D01*
X46229000Y-87884000D02*
X46228000Y-87883000D01*
X50800000Y-87884000D02*
X46229000Y-87884000D01*
X23666500Y-87875000D02*
X22812500Y-87875000D01*
X23837401Y-88045901D02*
X23666500Y-87875000D01*
X45211099Y-88045901D02*
X23837401Y-88045901D01*
X45374000Y-87883000D02*
X45211099Y-88045901D01*
X46228000Y-87883000D02*
X45374000Y-87883000D01*
X71291500Y-87875000D02*
X70437500Y-87875000D01*
X71462401Y-88045901D02*
X71291500Y-87875000D01*
X150494099Y-88045901D02*
X71462401Y-88045901D01*
X150530000Y-88010000D02*
X150494099Y-88045901D01*
X151384000Y-88010000D02*
X150530000Y-88010000D01*
X209966000Y-87875000D02*
X210820000Y-87875000D01*
X209795099Y-88045901D02*
X209966000Y-87875000D01*
X152273901Y-88045901D02*
X209795099Y-88045901D01*
X152238000Y-88010000D02*
X152273901Y-88045901D01*
X151384000Y-88010000D02*
X152238000Y-88010000D01*
X233969000Y-87883000D02*
X234823000Y-87883000D01*
X233806099Y-88045901D02*
X233969000Y-87883000D01*
X222723467Y-88045901D02*
X233806099Y-88045901D01*
X222552566Y-87875000D02*
X222723467Y-88045901D01*
X210820000Y-87875000D02*
X222552566Y-87875000D01*
X235677000Y-87883000D02*
X234823000Y-87883000D01*
X235839901Y-88045901D02*
X235677000Y-87883000D01*
X251145283Y-88045901D02*
X235839901Y-88045901D01*
X251316184Y-87875000D02*
X251145283Y-88045901D01*
X258445000Y-87875000D02*
X251316184Y-87875000D01*
X263389000Y-87875000D02*
X263398000Y-87884000D01*
X258445000Y-87875000D02*
X263389000Y-87875000D01*
X22860000Y-39497000D02*
X22733000Y-39497000D01*
X23510000Y-39408000D02*
X22949000Y-39408000D01*
X22949000Y-39408000D02*
X22860000Y-39497000D01*
X22606000Y-39624000D02*
X22486066Y-39624000D01*
X22733000Y-39497000D02*
X22606000Y-39624000D01*
X20389567Y-37527501D02*
X20389567Y-36633432D01*
X22486066Y-39624000D02*
X20389567Y-37527501D01*
X45254290Y-16036290D02*
X44669710Y-16036290D01*
X45625000Y-16407000D02*
X45254290Y-16036290D01*
X44669710Y-16036290D02*
X44069000Y-16637000D01*
X44069000Y-16637000D02*
X41021000Y-16637000D01*
X41021000Y-16637000D02*
X40767000Y-16383000D01*
X39092398Y-16383000D02*
X38977999Y-16497399D01*
X40767000Y-16383000D02*
X39092398Y-16383000D01*
X38977999Y-16497399D02*
X38977999Y-17664001D01*
X38608000Y-18034000D02*
X37635000Y-18034000D01*
X38977999Y-17664001D02*
X38608000Y-18034000D01*
X26355710Y-15814290D02*
X26355710Y-15808290D01*
X25660000Y-16510000D02*
X26355710Y-15814290D01*
X26355710Y-15808290D02*
X27559000Y-14605000D01*
X37085600Y-14605000D02*
X38977999Y-16497399D01*
X27559000Y-14605000D02*
X37085600Y-14605000D01*
X40692001Y-18910999D02*
X40619000Y-18984000D01*
X45254290Y-18036290D02*
X44955710Y-18036290D01*
X45625000Y-18407000D02*
X45254290Y-18036290D01*
X44955710Y-18036290D02*
X44831000Y-18161000D01*
X40619000Y-18984000D02*
X39835000Y-18984000D01*
X44831000Y-18161000D02*
X40894000Y-18161000D01*
X40894000Y-18161000D02*
X40692001Y-18362999D01*
X40692001Y-18362999D02*
X40692001Y-18910999D01*
X45254290Y-17036290D02*
X44939710Y-17036290D01*
X45625000Y-17407000D02*
X45254290Y-17036290D01*
X44939710Y-17036290D02*
X44450000Y-17526000D01*
X40619000Y-17084000D02*
X39835000Y-17084000D01*
X41061000Y-17526000D02*
X40619000Y-17084000D01*
X44450000Y-17526000D02*
X41061000Y-17526000D01*
X50380867Y-32385000D02*
X38688178Y-32385000D01*
X53213000Y-33274000D02*
X51269867Y-33274000D01*
X51269867Y-33274000D02*
X50380867Y-32385000D01*
X38411668Y-32108490D02*
X37026332Y-32108490D01*
X38688178Y-32385000D02*
X38411668Y-32108490D01*
X36691990Y-33496162D02*
X36058490Y-34129661D01*
X37026332Y-32108490D02*
X36691990Y-32442832D01*
X36691990Y-32442832D02*
X36691990Y-33496162D01*
X35914000Y-35408000D02*
X34910000Y-35408000D01*
X36058490Y-35263510D02*
X35914000Y-35408000D01*
X36058490Y-34129661D02*
X36058490Y-35263510D01*
X62205000Y-33279000D02*
X55905000Y-33279000D01*
X53218000Y-33279000D02*
X53213000Y-33274000D01*
X55905000Y-33279000D02*
X53218000Y-33279000D01*
X8250558Y-12704442D02*
X12815491Y-12704442D01*
X5715000Y-15240000D02*
X8250558Y-12704442D01*
X50489189Y-12353970D02*
X52197000Y-14061781D01*
X39059829Y-12353970D02*
X50489189Y-12353970D01*
X12815491Y-12704442D02*
X38709357Y-12704442D01*
X38709357Y-12704442D02*
X39059829Y-12353970D01*
X52197000Y-14061781D02*
X52197000Y-21082000D01*
X52176048Y-21102952D02*
X52176048Y-23728048D01*
X52197000Y-21082000D02*
X52176048Y-21102952D01*
X53213000Y-31496000D02*
X53213000Y-33274000D01*
X9525000Y-17653000D02*
X9398000Y-17780000D01*
X9548066Y-17653000D02*
X9525000Y-17653000D01*
X13588604Y-13612462D02*
X9548066Y-17653000D01*
X31305500Y-26225500D02*
X33454990Y-24076010D01*
X9398000Y-17780000D02*
X8255000Y-17780000D01*
X48716075Y-23949010D02*
X51268028Y-21397057D01*
X39085471Y-13612462D02*
X13588604Y-13612462D01*
X31182033Y-26351938D02*
X31305500Y-26228471D01*
X32410000Y-31147066D02*
X31182033Y-29919099D01*
X31182033Y-29919099D02*
X31182033Y-26351938D01*
X32410000Y-32908000D02*
X32410000Y-31147066D01*
X33454990Y-24076010D02*
X38046010Y-24076010D01*
X39371011Y-25401011D02*
X41525018Y-25401011D01*
X41525018Y-25401011D02*
X42977018Y-23949010D01*
X42977018Y-23949010D02*
X48716075Y-23949010D01*
X51268028Y-21397057D02*
X51268028Y-14416943D01*
X51268028Y-14416943D02*
X50113075Y-13261990D01*
X31305500Y-26228471D02*
X31305500Y-26225500D01*
X50113075Y-13261990D02*
X39435943Y-13261990D01*
X38046010Y-24076010D02*
X39371011Y-25401011D01*
X39435943Y-13261990D02*
X39085471Y-13612462D01*
X6892001Y-18957001D02*
X5715000Y-17780000D01*
X8886131Y-18957001D02*
X6892001Y-18957001D01*
X13746132Y-14097000D02*
X8886131Y-18957001D01*
X33266933Y-23622001D02*
X38234066Y-23622000D01*
X30728023Y-26160911D02*
X33266933Y-23622001D01*
X30728023Y-30107155D02*
X30728023Y-26160911D01*
X38234066Y-23622000D02*
X39559067Y-24947001D01*
X31610000Y-30989132D02*
X30728023Y-30107155D01*
X39559067Y-24947001D02*
X41336961Y-24947001D01*
X41336961Y-24947001D02*
X42788962Y-23495000D01*
X50800000Y-21223018D02*
X50800000Y-20066000D01*
X50800000Y-20066000D02*
X50814018Y-20051982D01*
X48528018Y-23495000D02*
X50800000Y-21223018D01*
X39243000Y-14097000D02*
X13746132Y-14097000D01*
X31610000Y-32908000D02*
X31610000Y-30989132D01*
X49925018Y-13716000D02*
X39624000Y-13716000D01*
X50814018Y-20051982D02*
X50814018Y-14605000D01*
X42788962Y-23495000D02*
X48528018Y-23495000D01*
X50814018Y-14605000D02*
X49925018Y-13716000D01*
X39624000Y-13716000D02*
X39243000Y-14097000D01*
X33210000Y-31904000D02*
X33210000Y-32908000D01*
X33210000Y-31305000D02*
X33210000Y-31904000D01*
X33646018Y-24530020D02*
X31691519Y-26484519D01*
X10049000Y-16510000D02*
X13400547Y-13158453D01*
X4537999Y-19142999D02*
X4537999Y-17215039D01*
X5243038Y-16510000D02*
X10049000Y-16510000D01*
X13400547Y-13158453D02*
X38897415Y-13158452D01*
X51722038Y-21585114D02*
X48904132Y-24403020D01*
X31691519Y-26484519D02*
X31691519Y-29786519D01*
X4537999Y-17215039D02*
X5243038Y-16510000D01*
X5715000Y-20320000D02*
X4537999Y-19142999D01*
X38897415Y-13158452D02*
X39247886Y-12807980D01*
X31691519Y-29786519D02*
X33210000Y-31305000D01*
X39247886Y-12807980D02*
X50301132Y-12807980D01*
X43165075Y-24403020D02*
X41713075Y-25855021D01*
X50301132Y-12807980D02*
X51722038Y-14228886D01*
X51722038Y-14228886D02*
X51722038Y-21585114D01*
X41713075Y-25855021D02*
X39182955Y-25855021D01*
X48904132Y-24403020D02*
X43165075Y-24403020D01*
X39182955Y-25855021D02*
X37857954Y-24530020D01*
X37857954Y-24530020D02*
X33646018Y-24530020D01*
X19912943Y-37184942D02*
X19558001Y-36830000D01*
X19912943Y-37692943D02*
X19912943Y-37184942D01*
X22428000Y-40208000D02*
X19912943Y-37692943D01*
X23510000Y-40208000D02*
X22428000Y-40208000D01*
X19558001Y-36830000D02*
X16891000Y-36830000D01*
X16891000Y-36830000D02*
X13081000Y-36830000D01*
X13081000Y-36830000D02*
X12954000Y-36957000D01*
X30226000Y-30247198D02*
X30226000Y-25527000D01*
X30810000Y-32908000D02*
X30810000Y-30831198D01*
X30810000Y-30831198D02*
X30226000Y-30247198D01*
X27672602Y-61595000D02*
X25562240Y-61595000D01*
X30772001Y-64694399D02*
X27672602Y-61595000D01*
X30772001Y-66117601D02*
X30772001Y-64694399D01*
X25562240Y-61595000D02*
X23971250Y-61595000D01*
X24432039Y-67928999D02*
X28960603Y-67928999D01*
X24002999Y-68358039D02*
X24432039Y-67928999D01*
X24002999Y-74999314D02*
X24002999Y-68358039D01*
X28960603Y-67928999D02*
X30772001Y-66117601D01*
X29083000Y-80079315D02*
X24002999Y-74999314D01*
X29083000Y-80645000D02*
X29083000Y-80079315D01*
X22380260Y-61595000D02*
X21999260Y-61214000D01*
X23971250Y-61595000D02*
X22380260Y-61595000D01*
X29524010Y-4445000D02*
X31115000Y-4445000D01*
X25156038Y-4445000D02*
X29524010Y-4445000D01*
X22479000Y-7122038D02*
X25156038Y-4445000D01*
X22479000Y-7874000D02*
X22479000Y-7122038D01*
X21999260Y-61214000D02*
X19812000Y-61214000D01*
X22568000Y-37808000D02*
X22098000Y-37338000D01*
X23510000Y-37808000D02*
X22568000Y-37808000D01*
X25107866Y-51878051D02*
X30325825Y-57096010D01*
X30325825Y-57096010D02*
X50428510Y-57096010D01*
X50428510Y-57096010D02*
X54927500Y-61595000D01*
X26010000Y-45121602D02*
X26273011Y-45384613D01*
X26010000Y-44308000D02*
X26010000Y-45121602D01*
X26273011Y-45384613D02*
X26273011Y-45450011D01*
X69024500Y-56642000D02*
X73977500Y-61595000D01*
X35849958Y-56642000D02*
X69024500Y-56642000D01*
X26273011Y-51538945D02*
X28307397Y-53573332D01*
X26273011Y-45384613D02*
X26273011Y-51538945D01*
X28307397Y-53573332D02*
X29706990Y-53573332D01*
X29706990Y-53573332D02*
X30041332Y-53238990D01*
X30041332Y-53238990D02*
X32446948Y-53238990D01*
X32446948Y-53238990D02*
X35849958Y-56642000D01*
X36038014Y-56187990D02*
X87620490Y-56187990D01*
X26810000Y-51433868D02*
X28495454Y-53119322D01*
X87620490Y-56187990D02*
X93027500Y-61595000D01*
X28495454Y-53119322D02*
X29518934Y-53119322D01*
X29518934Y-53119322D02*
X29853275Y-52784980D01*
X29853275Y-52784980D02*
X32635004Y-52784980D01*
X26810000Y-44308000D02*
X26810000Y-51433868D01*
X32635004Y-52784980D02*
X36038014Y-56187990D01*
X106216480Y-55733980D02*
X112077500Y-61595000D01*
X29665218Y-52330970D02*
X32823061Y-52330970D01*
X27610000Y-45312000D02*
X27264010Y-45657990D01*
X27610000Y-44308000D02*
X27610000Y-45312000D01*
X36226070Y-55733980D02*
X106216480Y-55733980D01*
X32823061Y-52330970D02*
X36226070Y-55733980D01*
X27264010Y-45657990D02*
X27264010Y-51245812D01*
X27264010Y-51245812D02*
X28683510Y-52665312D01*
X28683510Y-52665312D02*
X29330876Y-52665312D01*
X29330876Y-52665312D02*
X29665218Y-52330970D01*
X124812421Y-55279921D02*
X131127500Y-61595000D01*
X33011118Y-51876960D02*
X33277071Y-52142914D01*
X29477161Y-51876960D02*
X33011118Y-51876960D01*
X28410000Y-45312000D02*
X27718020Y-46003980D01*
X28410000Y-44308000D02*
X28410000Y-45312000D01*
X27718020Y-46003980D02*
X27718020Y-51057756D01*
X36414078Y-55279921D02*
X124812421Y-55279921D01*
X33277071Y-52142914D02*
X36414078Y-55279921D01*
X27718020Y-51057756D02*
X28871566Y-52211302D01*
X28871566Y-52211302D02*
X29142820Y-52211302D01*
X29142820Y-52211302D02*
X29477161Y-51876960D01*
X143382277Y-54799777D02*
X150177500Y-61595000D01*
X36576000Y-54799777D02*
X143382277Y-54799777D01*
X33199176Y-51422952D02*
X36576000Y-54799777D01*
X29210000Y-45312000D02*
X28172030Y-46349970D01*
X29210000Y-44308000D02*
X29210000Y-45312000D01*
X28172030Y-46349970D02*
X28172030Y-50869700D01*
X28172030Y-50869700D02*
X28725280Y-51422950D01*
X28725280Y-51422950D02*
X33134950Y-51422950D01*
X33134950Y-51422950D02*
X33199176Y-51422952D01*
X161978267Y-54345767D02*
X169227500Y-61595000D01*
X33655000Y-51236702D02*
X33655000Y-51236710D01*
X33655000Y-51236710D02*
X36764057Y-54345767D01*
X33387238Y-50968940D02*
X33655000Y-51236702D01*
X28913336Y-50968940D02*
X33387238Y-50968940D01*
X36764057Y-54345767D02*
X161978267Y-54345767D01*
X30010000Y-44308000D02*
X30010000Y-45312000D01*
X30010000Y-45312000D02*
X29914000Y-45408000D01*
X29914000Y-45408000D02*
X29756066Y-45408000D01*
X29756066Y-45408000D02*
X28626040Y-46538026D01*
X28626040Y-46538026D02*
X28626040Y-50681644D01*
X28626040Y-50681644D02*
X28913336Y-50968940D01*
X180574257Y-53891757D02*
X188277500Y-61595000D01*
X36952122Y-53891757D02*
X180574257Y-53891757D01*
X30810000Y-45154067D02*
X29080050Y-46884016D01*
X30810000Y-44308000D02*
X30810000Y-45154067D01*
X29080050Y-46884016D02*
X29080050Y-50416050D01*
X29178930Y-50514930D02*
X33575295Y-50514930D01*
X29080050Y-50416050D02*
X29178930Y-50514930D01*
X33575295Y-50514930D02*
X36952122Y-53891757D01*
X199170247Y-53437747D02*
X207327500Y-61595000D01*
X37140179Y-53437747D02*
X199170247Y-53437747D01*
X31610000Y-44996134D02*
X29534060Y-47072073D01*
X31610000Y-44308000D02*
X31610000Y-44996134D01*
X29534060Y-49981060D02*
X29613920Y-50060920D01*
X29613920Y-50060920D02*
X33763352Y-50060920D01*
X29534060Y-47072073D02*
X29534060Y-49981060D01*
X33763352Y-50060920D02*
X37140179Y-53437747D01*
X217766237Y-52983737D02*
X226377500Y-61595000D01*
X37328235Y-52983737D02*
X217766237Y-52983737D01*
X34417000Y-50072502D02*
X37328235Y-52983737D01*
X34417000Y-43630000D02*
X34417000Y-50072502D01*
X34910000Y-42608000D02*
X34910000Y-43137000D01*
X34910000Y-43137000D02*
X34417000Y-43630000D01*
X34910000Y-41808000D02*
X35723602Y-41808000D01*
X35987001Y-43144602D02*
X34871010Y-44260592D01*
X34871010Y-49884447D02*
X37516290Y-52529727D01*
X37516290Y-52529727D02*
X226392727Y-52529727D01*
X35987001Y-42071399D02*
X35987001Y-43144602D01*
X34871010Y-44260592D02*
X34871010Y-49884447D01*
X226392727Y-52529727D02*
X226441000Y-52578000D01*
X35723602Y-41808000D02*
X35987001Y-42071399D01*
X36441011Y-43332658D02*
X35325020Y-44448649D01*
X36441011Y-41535011D02*
X36441011Y-43332658D01*
X34910000Y-41008000D02*
X35914000Y-41008000D01*
X35914000Y-41008000D02*
X36441011Y-41535011D01*
X35325020Y-44448649D02*
X35325020Y-49696390D01*
X35325020Y-49696390D02*
X37704347Y-52075717D01*
X37704347Y-52075717D02*
X37710064Y-52070000D01*
X242827249Y-51850999D02*
X252571250Y-61595000D01*
X226092039Y-51850999D02*
X242827249Y-51850999D01*
X37704347Y-52075717D02*
X225867321Y-52075717D01*
X225867321Y-52075717D02*
X226092039Y-51850999D01*
X36895021Y-41189021D02*
X36895021Y-43536876D01*
X34910000Y-40208000D02*
X35914000Y-40208000D01*
X35914000Y-40208000D02*
X36895021Y-41189021D01*
X36895021Y-43536876D02*
X35779030Y-44652867D01*
X35779030Y-49495030D02*
X37905707Y-51621707D01*
X35779030Y-44652867D02*
X35779030Y-49495030D01*
X225903982Y-51396989D02*
X259676989Y-51396989D01*
X225679264Y-51621707D02*
X225903982Y-51396989D01*
X37905707Y-51621707D02*
X225679264Y-51621707D01*
X269875000Y-61595000D02*
X278765000Y-61595000D01*
X259676989Y-51396989D02*
X269875000Y-61595000D01*
X36851000Y-18984000D02*
X36282000Y-18415000D01*
X37635000Y-18984000D02*
X36851000Y-18984000D01*
X34036000Y-18415000D02*
X33274000Y-19177000D01*
X36282000Y-18415000D02*
X34036000Y-18415000D01*
X27610000Y-31904000D02*
X27610000Y-32908000D01*
X25451084Y-19177000D02*
X23831520Y-20796564D01*
X31399000Y-19177000D02*
X25451084Y-19177000D01*
X23831520Y-20796564D02*
X23831520Y-26281532D01*
X23831520Y-26281532D02*
X27264010Y-29714022D01*
X27264010Y-29714022D02*
X27264010Y-31558010D01*
X27264010Y-31558010D02*
X27610000Y-31904000D01*
X36851000Y-17084000D02*
X36409000Y-17526000D01*
X37635000Y-17084000D02*
X36851000Y-17084000D01*
X34387000Y-17526000D02*
X33244000Y-16383000D01*
X36409000Y-17526000D02*
X34387000Y-17526000D01*
X26810000Y-29977131D02*
X23377510Y-26544641D01*
X26810000Y-32908000D02*
X26810000Y-29977131D01*
X23377510Y-20608508D02*
X26612010Y-17374008D01*
X23377510Y-26544641D02*
X23377510Y-20608508D01*
X30377992Y-17374008D02*
X31369000Y-16383000D01*
X26612010Y-17374008D02*
X30377992Y-17374008D01*
X30734000Y-54053500D02*
X28145500Y-54053500D01*
X25210000Y-45121602D02*
X25210000Y-44308000D01*
X25819001Y-45730603D02*
X25210000Y-45121602D01*
X25819001Y-51727001D02*
X25819001Y-45730603D01*
X28145500Y-54053500D02*
X25819001Y-51727001D01*
X248398001Y-5532999D02*
X258389999Y-5532999D01*
X246253000Y-8382000D02*
X246253000Y-7678000D01*
X246253000Y-7678000D02*
X248398001Y-5532999D01*
X259842000Y-6985000D02*
X262890000Y-6985000D01*
X258389999Y-5532999D02*
X259842000Y-6985000D01*
X262890000Y-6985000D02*
X272415000Y-6985000D01*
X40643490Y-45085000D02*
X39052500Y-45085000D01*
X50701500Y-45085000D02*
X40643490Y-45085000D01*
X51387500Y-45771000D02*
X50701500Y-45085000D01*
X51387500Y-46475000D02*
X51387500Y-45771000D01*
X12068490Y-83185000D02*
X10477500Y-83185000D01*
X22126500Y-83185000D02*
X12068490Y-83185000D01*
X22812500Y-83871000D02*
X22126500Y-83185000D01*
X22812500Y-84575000D02*
X22812500Y-83871000D01*
X10477500Y-83185000D02*
X8096250Y-83185000D01*
X140655990Y-83185000D02*
X139065000Y-83185000D01*
X150563000Y-83185000D02*
X140655990Y-83185000D01*
X151384000Y-84006000D02*
X150563000Y-83185000D01*
X151384000Y-84710000D02*
X151384000Y-84006000D01*
X137474010Y-83185000D02*
X127158750Y-83185000D01*
X139065000Y-83185000D02*
X137474010Y-83185000D01*
X223999740Y-83185000D02*
X222408750Y-83185000D01*
X234129000Y-83185000D02*
X223999740Y-83185000D01*
X234823000Y-83879000D02*
X234129000Y-83185000D01*
X234823000Y-84583000D02*
X234823000Y-83879000D01*
X222408750Y-83185000D02*
X220027500Y-83185000D01*
X266061510Y-83185000D02*
X267652500Y-83185000D01*
X264093000Y-83185000D02*
X266061510Y-83185000D01*
X263398000Y-83880000D02*
X264093000Y-83185000D01*
X263398000Y-84584000D02*
X263398000Y-83880000D01*
X267652500Y-83185000D02*
X270033750Y-83185000D01*
M02*
