G04 #@! TF.GenerationSoftware,KiCad,Pcbnew,(5.1.4)-1*
G04 #@! TF.CreationDate,2020-10-11T01:36:31-04:00*
G04 #@! TF.ProjectId,keyboard,6b657962-6f61-4726-942e-6b696361645f,rev?*
G04 #@! TF.SameCoordinates,Original*
G04 #@! TF.FileFunction,Soldermask,Top*
G04 #@! TF.FilePolarity,Negative*
%FSLAX46Y46*%
G04 Gerber Fmt 4.6, Leading zero omitted, Abs format (unit mm)*
G04 Created by KiCad (PCBNEW (5.1.4)-1) date 2020-10-11 01:36:31*
%MOMM*%
%LPD*%
G04 APERTURE LIST*
%ADD10C,3.987800*%
%ADD11C,3.048000*%
%ADD12C,1.750000*%
%ADD13R,1.700000X1.700000*%
%ADD14C,1.700000*%
G04 APERTURE END LIST*
D10*
X200025000Y-77470000D03*
X85725000Y-77470000D03*
D11*
X200025000Y-92710000D03*
X85725000Y-92710000D03*
D12*
X147955000Y-85725000D03*
X137795000Y-85725000D03*
D10*
X142875000Y-85725000D03*
D12*
X133667500Y-66675000D03*
X123507500Y-66675000D03*
D10*
X128587500Y-66675000D03*
D12*
X143192500Y-47625000D03*
X133032500Y-47625000D03*
D10*
X138112500Y-47625000D03*
D12*
X171767500Y-66675000D03*
X161607500Y-66675000D03*
D10*
X166687500Y-66675000D03*
D12*
X207486250Y-85725000D03*
X197326250Y-85725000D03*
D10*
X202406250Y-85725000D03*
D12*
X238442500Y-47625000D03*
X228282500Y-47625000D03*
D10*
X233362500Y-47625000D03*
D12*
X228917500Y-85725000D03*
X218757500Y-85725000D03*
D10*
X223837500Y-85725000D03*
D12*
X228917500Y-66675000D03*
X218757500Y-66675000D03*
D10*
X223837500Y-66675000D03*
D12*
X243205000Y-9525000D03*
X233045000Y-9525000D03*
D10*
X238125000Y-9525000D03*
D12*
X252730000Y-85725000D03*
X242570000Y-85725000D03*
D10*
X247650000Y-85725000D03*
X278606250Y-17780000D03*
X254793750Y-17780000D03*
D11*
X278606250Y-2540000D03*
X254793750Y-2540000D03*
D12*
X271780000Y-9525000D03*
X261620000Y-9525000D03*
D10*
X266700000Y-9525000D03*
X271462500Y-74930000D03*
X247650000Y-74930000D03*
D11*
X271462500Y-59690000D03*
X247650000Y-59690000D03*
D12*
X264636250Y-66675000D03*
X254476250Y-66675000D03*
D10*
X259556250Y-66675000D03*
D12*
X262255000Y-9525000D03*
X252095000Y-9525000D03*
D10*
X257175000Y-9525000D03*
D12*
X281305000Y-9525000D03*
X271145000Y-9525000D03*
D10*
X276225000Y-9525000D03*
D12*
X252730000Y-28575000D03*
X242570000Y-28575000D03*
D10*
X247650000Y-28575000D03*
D12*
X276542500Y-28575000D03*
X266382500Y-28575000D03*
D10*
X271462500Y-28575000D03*
D12*
X281305000Y-66675000D03*
X271145000Y-66675000D03*
D10*
X276225000Y-66675000D03*
D12*
X255111250Y-66675000D03*
X244951250Y-66675000D03*
D10*
X250031250Y-66675000D03*
D12*
X19367500Y-28575000D03*
X9207500Y-28575000D03*
D10*
X14287500Y-28575000D03*
D12*
X43180000Y-28575000D03*
X33020000Y-28575000D03*
D10*
X38100000Y-28575000D03*
D12*
X16986250Y-47625000D03*
X6826250Y-47625000D03*
D10*
X11906250Y-47625000D03*
D12*
X47942500Y-47625000D03*
X37782500Y-47625000D03*
D10*
X42862500Y-47625000D03*
X276225000Y-55880000D03*
X252412500Y-55880000D03*
D11*
X276225000Y-40640000D03*
X252412500Y-40640000D03*
D12*
X269398750Y-47625000D03*
X259238750Y-47625000D03*
D10*
X264318750Y-47625000D03*
D12*
X57467500Y-66675000D03*
X47307500Y-66675000D03*
D10*
X52387500Y-66675000D03*
D12*
X16986250Y-85725000D03*
X6826250Y-85725000D03*
D10*
X11906250Y-85725000D03*
D12*
X19367500Y-85725000D03*
X9207500Y-85725000D03*
D10*
X14287500Y-85725000D03*
D12*
X43180000Y-85725000D03*
X33020000Y-85725000D03*
D10*
X38100000Y-85725000D03*
D12*
X64611250Y-85725000D03*
X54451250Y-85725000D03*
D10*
X59531250Y-85725000D03*
D12*
X66992500Y-85725000D03*
X56832500Y-85725000D03*
D10*
X61912500Y-85725000D03*
X180968650Y-77470000D03*
X80968850Y-77470000D03*
D11*
X180968650Y-92710000D03*
X80968850Y-92710000D03*
D12*
X136048750Y-85725000D03*
X125888750Y-85725000D03*
D10*
X130968750Y-85725000D03*
D12*
X231298750Y-85725000D03*
X221138750Y-85725000D03*
D10*
X226218750Y-85725000D03*
D12*
X255111250Y-85725000D03*
X244951250Y-85725000D03*
D10*
X250031250Y-85725000D03*
D12*
X276542500Y-85725000D03*
X266382500Y-85725000D03*
D10*
X271462500Y-85725000D03*
D12*
X278923750Y-85725000D03*
X268763750Y-85725000D03*
D10*
X273843750Y-85725000D03*
D12*
X40798750Y-85725000D03*
X30638750Y-85725000D03*
D10*
X35718750Y-85725000D03*
D13*
X8255000Y-15240000D03*
D14*
X5715000Y-15240000D03*
X8255000Y-17780000D03*
X5715000Y-17780000D03*
X8255000Y-20320000D03*
X5715000Y-20320000D03*
D12*
X209867500Y-66675000D03*
X199707500Y-66675000D03*
D10*
X204787500Y-66675000D03*
D12*
X190817500Y-66675000D03*
X180657500Y-66675000D03*
D10*
X185737500Y-66675000D03*
D12*
X152717500Y-66675000D03*
X142557500Y-66675000D03*
D10*
X147637500Y-66675000D03*
D12*
X114617500Y-66675000D03*
X104457500Y-66675000D03*
D10*
X109537500Y-66675000D03*
D12*
X95567500Y-66675000D03*
X85407500Y-66675000D03*
D10*
X90487500Y-66675000D03*
D12*
X76517500Y-66675000D03*
X66357500Y-66675000D03*
D10*
X71437500Y-66675000D03*
X33337500Y-74930000D03*
X9525000Y-74930000D03*
D11*
X33337500Y-59690000D03*
X9525000Y-59690000D03*
D12*
X26511250Y-66675000D03*
X16351250Y-66675000D03*
D10*
X21431250Y-66675000D03*
D12*
X219392500Y-47625000D03*
X209232500Y-47625000D03*
D10*
X214312500Y-47625000D03*
D12*
X200342500Y-47625000D03*
X190182500Y-47625000D03*
D10*
X195262500Y-47625000D03*
D12*
X181292500Y-47625000D03*
X171132500Y-47625000D03*
D10*
X176212500Y-47625000D03*
D12*
X162242500Y-47625000D03*
X152082500Y-47625000D03*
D10*
X157162500Y-47625000D03*
D12*
X124142500Y-47625000D03*
X113982500Y-47625000D03*
D10*
X119062500Y-47625000D03*
D12*
X105092500Y-47625000D03*
X94932500Y-47625000D03*
D10*
X100012500Y-47625000D03*
D12*
X86042500Y-47625000D03*
X75882500Y-47625000D03*
D10*
X80962500Y-47625000D03*
D12*
X66992500Y-47625000D03*
X56832500Y-47625000D03*
D10*
X61912500Y-47625000D03*
X16668750Y-47625000D03*
D12*
X11588750Y-47625000D03*
X21748750Y-47625000D03*
X233680000Y-28575000D03*
X223520000Y-28575000D03*
D10*
X228600000Y-28575000D03*
D12*
X214630000Y-28575000D03*
X204470000Y-28575000D03*
D10*
X209550000Y-28575000D03*
D12*
X195580000Y-28575000D03*
X185420000Y-28575000D03*
D10*
X190500000Y-28575000D03*
D12*
X176530000Y-28575000D03*
X166370000Y-28575000D03*
D10*
X171450000Y-28575000D03*
D12*
X157480000Y-28575000D03*
X147320000Y-28575000D03*
D10*
X152400000Y-28575000D03*
D12*
X138430000Y-28575000D03*
X128270000Y-28575000D03*
D10*
X133350000Y-28575000D03*
D12*
X119380000Y-28575000D03*
X109220000Y-28575000D03*
D10*
X114300000Y-28575000D03*
D12*
X100330000Y-28575000D03*
X90170000Y-28575000D03*
D10*
X95250000Y-28575000D03*
D12*
X81280000Y-28575000D03*
X71120000Y-28575000D03*
D10*
X76200000Y-28575000D03*
D12*
X62230000Y-28575000D03*
X52070000Y-28575000D03*
D10*
X57150000Y-28575000D03*
D12*
X224155000Y-9525000D03*
X213995000Y-9525000D03*
D10*
X219075000Y-9525000D03*
D12*
X205105000Y-9525000D03*
X194945000Y-9525000D03*
D10*
X200025000Y-9525000D03*
D12*
X186055000Y-9525000D03*
X175895000Y-9525000D03*
D10*
X180975000Y-9525000D03*
D12*
X167005000Y-9525000D03*
X156845000Y-9525000D03*
D10*
X161925000Y-9525000D03*
D12*
X147955000Y-9525000D03*
X137795000Y-9525000D03*
D10*
X142875000Y-9525000D03*
D12*
X128905000Y-9525000D03*
X118745000Y-9525000D03*
D10*
X123825000Y-9525000D03*
D12*
X109855000Y-9525000D03*
X99695000Y-9525000D03*
D10*
X104775000Y-9525000D03*
D12*
X90805000Y-9525000D03*
X80645000Y-9525000D03*
D10*
X85725000Y-9525000D03*
D12*
X71755000Y-9525000D03*
X61595000Y-9525000D03*
D10*
X66675000Y-9525000D03*
D12*
X52705000Y-9525000D03*
X42545000Y-9525000D03*
D10*
X47625000Y-9525000D03*
D12*
X33655000Y-9525000D03*
X23495000Y-9525000D03*
D10*
X28575000Y-9525000D03*
D12*
X14605000Y-9525000D03*
X4445000Y-9525000D03*
D10*
X9525000Y-9525000D03*
M02*
